<?xml version="1.0" encoding="UTF-8" standalone="no"?><!DOCTYPE svg PUBLIC "-//W3C//DTD SVG 1.1//EN" "http://www.w3.org/Graphics/SVG/1.1/DTD/svg11.dtd"><svg width="100%" height="100%" viewBox="0 0 49 48" version="1.1" xmlns="http://www.w3.org/2000/svg" xmlns:xlink="http://www.w3.org/1999/xlink" xml:space="preserve" style="fill-rule:evenodd;clip-rule:evenodd;stroke-linejoin:round;stroke-miterlimit:1.41421;"><rect id="instagram" x="0.223" y="0" width="48" height="48" style="fill:none;"/><clipPath id="_clip1"><rect x="0.223" y="0" width="48" height="48"/></clipPath><g clip-path="url(#_clip1)"><clipPath id="_clip2"><circle cx="24.223" cy="24" r="24"/></clipPath><g clip-path="url(#_clip2)"></g><path d="M53.094,48.751c1.901,3.735 4.956,6.791 8.699,8.692l2.904,-2.911c0.363,-0.363 0.884,-0.468 1.339,-0.323c1.479,0.488 3.069,0.752 4.713,0.752c0.732,0 1.32,0.588 1.32,1.32l0,4.62c0,0.733 -0.588,1.32 -1.32,1.32c-12.395,0 -22.44,-10.045 -22.44,-22.44c0,-0.732 0.594,-1.32 1.32,-1.32l4.62,0c0.732,0 1.32,0.588 1.32,1.32c0,1.644 0.264,3.234 0.752,4.713c0.145,0.455 0.04,0.976 -0.323,1.339l-2.904,2.918l0,0Z" style="fill:#fff;fill-rule:nonzero;"/><clipPath id="_clip3"><rect x="10.712" y="10.834" width="27.023" height="27.023"/></clipPath><g clip-path="url(#_clip3)"><path d="M24.223,13.269c3.608,0 4.036,0.014 5.461,0.079c3.662,0.167 5.372,1.904 5.538,5.538c0.066,1.425 0.078,1.853 0.078,5.46c0,3.609 -0.013,4.036 -0.078,5.46c-0.167,3.631 -1.873,5.372 -5.538,5.538c-1.425,0.066 -1.851,0.079 -5.461,0.079c-3.607,0 -4.035,-0.013 -5.46,-0.079c-3.67,-0.167 -5.371,-1.913 -5.538,-5.539c-0.065,-1.425 -0.079,-1.851 -0.079,-5.46c0,-3.607 0.015,-4.034 0.079,-5.46c0.168,-3.633 1.874,-5.371 5.538,-5.538c1.426,-0.064 1.853,-0.078 5.46,-0.078l0,0Zm0,-2.435c-3.669,0 -4.129,0.016 -5.57,0.081c-4.907,0.225 -7.634,2.948 -7.859,7.859c-0.066,1.442 -0.082,1.902 -0.082,5.571c0,3.669 0.016,4.13 0.081,5.571c0.225,4.907 2.948,7.634 7.859,7.859c1.442,0.066 1.902,0.081 5.571,0.081c3.67,0 4.13,-0.015 5.571,-0.081c4.903,-0.225 7.636,-2.947 7.858,-7.859c0.067,-1.441 0.082,-1.902 0.082,-5.571c0,-3.669 -0.015,-4.129 -0.081,-5.57c-0.22,-4.902 -2.946,-7.634 -7.858,-7.859c-1.442,-0.066 -1.902,-0.082 -5.572,-0.082l0,0Zm0,6.573c-3.831,0 -6.938,3.106 -6.938,6.938c0,3.832 3.107,6.939 6.938,6.939c3.832,0 6.938,-3.106 6.938,-6.939c0,-3.832 -3.106,-6.938 -6.938,-6.938Zm0,11.442c-2.487,0 -4.504,-2.016 -4.504,-4.504c0,-2.487 2.017,-4.504 4.504,-4.504c2.487,0 4.504,2.017 4.504,4.504c0,2.488 -2.017,4.504 -4.504,4.504Zm7.213,-13.337c-0.896,0 -1.623,0.726 -1.623,1.621c0,0.896 0.727,1.622 1.623,1.622c0.895,0 1.62,-0.726 1.62,-1.622c0,-0.895 -0.725,-1.621 -1.62,-1.621Z" style="fill:#fff;fill-rule:nonzero;"/></g></g></svg>