<?xml version="1.0" encoding="UTF-8" standalone="no"?><!DOCTYPE svg PUBLIC "-//W3C//DTD SVG 1.1//EN" "http://www.w3.org/Graphics/SVG/1.1/DTD/svg11.dtd"><svg width="100%" height="100%" viewBox="0 0 49 48" version="1.1" xmlns="http://www.w3.org/2000/svg" xmlns:xlink="http://www.w3.org/1999/xlink" xml:space="preserve" style="fill-rule:evenodd;clip-rule:evenodd;stroke-linejoin:round;stroke-miterlimit:1.41421;"><rect id="linked-in" x="0.108" y="0" width="48" height="48" style="fill:none;"/><clipPath id="_clip1"><rect x="0.108" y="0" width="48" height="48"/></clipPath><g clip-path="url(#_clip1)"><clipPath id="_clip2"><circle cx="24.108" cy="24" r="24"/></clipPath><g clip-path="url(#_clip2)"></g><path d="M52.978,48.751c1.901,3.735 4.957,6.791 8.699,8.692l2.904,-2.911c0.363,-0.363 0.885,-0.468 1.34,-0.323c1.478,0.488 3.069,0.752 4.712,0.752c0.733,0 1.32,0.588 1.32,1.32l0,4.62c0,0.733 -0.587,1.32 -1.32,1.32c-12.394,0 -22.44,-10.045 -22.44,-22.44c0,-0.732 0.594,-1.32 1.32,-1.32l4.62,0c0.733,0 1.32,0.588 1.32,1.32c0,1.644 0.264,3.234 0.753,4.713c0.145,0.455 0.039,0.976 -0.324,1.339l-2.904,2.918l0,0Z" style="fill:#fff;fill-rule:nonzero;"/><g><rect x="11.78" y="19.203" width="5.431" height="16.31" style="fill:#fff;"/><path d="M35.036,20.693c-1.14,-1.245 -2.649,-1.868 -4.526,-1.868c-0.691,0 -1.319,0.085 -1.884,0.255c-0.565,0.17 -1.043,0.409 -1.432,0.716c-0.39,0.307 -0.7,0.593 -0.93,0.856c-0.219,0.25 -0.433,0.541 -0.642,0.871l0,-2.32l-5.415,0l0.016,0.79c0.012,0.527 0.017,2.151 0.017,4.872c0,2.721 -0.011,6.271 -0.033,10.649l5.415,0l0,-9.102c0,-0.559 0.06,-1.004 0.181,-1.333c0.231,-0.56 0.578,-1.029 1.045,-1.407c0.467,-0.379 1.045,-0.568 1.737,-0.568c0.943,0 1.637,0.326 2.082,0.979c0.444,0.653 0.666,1.555 0.666,2.708l0,8.723l5.415,0l0,-9.348c0,-2.404 -0.57,-4.228 -1.712,-5.473Z" style="fill:#fff;fill-rule:nonzero;"/><path d="M14.529,11.353c-0.911,0 -1.649,0.266 -2.214,0.798c-0.565,0.532 -0.847,1.204 -0.847,2.016c0,0.801 0.274,1.47 0.823,2.008c0.548,0.537 1.272,0.806 2.172,0.806l0.033,0c0.922,0 1.665,-0.268 2.23,-0.806c0.565,-0.538 0.842,-1.207 0.831,-2.008c-0.011,-0.812 -0.291,-1.484 -0.839,-2.016c-0.549,-0.532 -1.278,-0.798 -2.189,-0.798Z" style="fill:#fff;fill-rule:nonzero;"/></g></g></svg>