<?xml version="1.0" encoding="UTF-8" standalone="no"?><!DOCTYPE svg PUBLIC "-//W3C//DTD SVG 1.1//EN" "http://www.w3.org/Graphics/SVG/1.1/DTD/svg11.dtd"><svg width="100%" height="100%" viewBox="0 0 48 48" version="1.1" xmlns="http://www.w3.org/2000/svg" xmlns:xlink="http://www.w3.org/1999/xlink" xml:space="preserve" style="fill-rule:evenodd;clip-rule:evenodd;stroke-linejoin:round;stroke-miterlimit:1.41421;"><rect id="message" x="0" y="0" width="48" height="48" style="fill:none;"/><clipPath id="_clip1"><rect x="0" y="0" width="48" height="48"/></clipPath><g clip-path="url(#_clip1)"><clipPath id="_clip2"><circle cx="24" cy="24" r="24"/></clipPath><g clip-path="url(#_clip2)"></g><path d="M35.2,10l-22.4,0c-1.547,0 -2.786,1.253 -2.786,2.8l-0.014,25.2l5.6,-5.6l19.6,0c1.547,0 2.8,-1.253 2.8,-2.8l0,-16.8c0,-1.547 -1.253,-2.8 -2.8,-2.8Zm-2.8,16.8l-16.8,0l0,-2.8l16.8,0l0,2.8Zm0,-4.2l-16.8,0l0,-2.8l16.8,0l0,2.8Zm0,-4.2l-16.8,0l0,-2.8l16.8,0l0,2.8Z" style="fill:#fff;fill-rule:nonzero;"/></g></svg>