<?xml version="1.0" encoding="UTF-8" standalone="no"?><!DOCTYPE svg PUBLIC "-//W3C//DTD SVG 1.1//EN" "http://www.w3.org/Graphics/SVG/1.1/DTD/svg11.dtd"><svg width="100%" height="100%" viewBox="0 0 48 48" version="1.1" xmlns="http://www.w3.org/2000/svg" xmlns:xlink="http://www.w3.org/1999/xlink" xml:space="preserve" style="fill-rule:evenodd;clip-rule:evenodd;stroke-linejoin:round;stroke-miterlimit:1.41421;"><rect id="phone" x="0" y="0" width="48" height="48" style="fill:none;"/><clipPath id="_clip1"><rect x="0" y="0" width="48" height="48"/></clipPath><g clip-path="url(#_clip1)"><clipPath id="_clip2"><circle cx="24" cy="24" r="24"/></clipPath><g clip-path="url(#_clip2)"></g><path d="M16.905,22.409c1.901,3.736 4.957,6.792 8.699,8.693l2.904,-2.911c0.363,-0.363 0.884,-0.469 1.34,-0.323c1.478,0.488 3.069,0.752 4.712,0.752c0.733,0 1.32,0.587 1.32,1.32l0,4.62c0,0.733 -0.587,1.32 -1.32,1.32c-12.395,0 -22.44,-10.045 -22.44,-22.44c0,-0.733 0.594,-1.32 1.32,-1.32l4.62,0c0.733,0 1.32,0.587 1.32,1.32c0,1.643 0.264,3.234 0.752,4.712c0.146,0.456 0.04,0.977 -0.323,1.34l-2.904,2.917l0,0Z" style="fill:#fff;fill-rule:nonzero;"/><path d="M52.871,48.751c1.9,3.735 4.956,6.791 8.698,8.692l2.904,-2.911c0.363,-0.363 0.885,-0.468 1.34,-0.323c1.479,0.488 3.069,0.752 4.713,0.752c0.732,0 1.32,0.588 1.32,1.32l0,4.62c0,0.733 -0.588,1.32 -1.32,1.32c-12.395,0 -22.44,-10.045 -22.44,-22.44c0,-0.732 0.594,-1.32 1.32,-1.32l4.62,0c0.732,0 1.32,0.588 1.32,1.32c0,1.644 0.264,3.234 0.752,4.713c0.145,0.455 0.04,0.976 -0.323,1.339l-2.904,2.918l0,0Z" style="fill:#fff;fill-rule:nonzero;"/></g></svg>