<?xml version="1.0" encoding="UTF-8" standalone="no"?><!DOCTYPE svg PUBLIC "-//W3C//DTD SVG 1.1//EN" "http://www.w3.org/Graphics/SVG/1.1/DTD/svg11.dtd"><svg width="100%" height="100%" viewBox="0 0 49 48" version="1.1" xmlns="http://www.w3.org/2000/svg" xmlns:xlink="http://www.w3.org/1999/xlink" xml:space="preserve" style="fill-rule:evenodd;clip-rule:evenodd;stroke-linejoin:round;stroke-miterlimit:1.41421;"><rect id="twitter" x="0.015" y="0" width="48" height="48" style="fill:none;"/><clipPath id="_clip1"><rect x="0.015" y="0" width="48" height="48"/></clipPath><g clip-path="url(#_clip1)"><clipPath id="_clip2"><circle cx="24.015" cy="24" r="24"/></clipPath><g clip-path="url(#_clip2)"></g><path d="M52.885,48.751c1.901,3.735 4.957,6.791 8.699,8.692l2.904,-2.911c0.363,-0.363 0.885,-0.468 1.34,-0.323c1.478,0.488 3.069,0.752 4.712,0.752c0.733,0 1.32,0.588 1.32,1.32l0,4.62c0,0.733 -0.587,1.32 -1.32,1.32c-12.394,0 -22.44,-10.045 -22.44,-22.44c0,-0.732 0.594,-1.32 1.32,-1.32l4.62,0c0.733,0 1.32,0.588 1.32,1.32c0,1.644 0.264,3.234 0.753,4.713c0.145,0.455 0.039,0.976 -0.324,1.339l-2.904,2.918l0,0Z" style="fill:#fff;fill-rule:nonzero;"/><path d="M37.994,15.673c-1.1,0.474 -2.2,0.769 -3.299,0.888c1.241,-0.745 2.081,-1.798 2.519,-3.158c-1.136,0.674 -2.348,1.135 -3.637,1.383c-1.135,-1.206 -2.531,-1.809 -4.187,-1.809c-1.584,0 -2.936,0.559 -4.053,1.676c-1.118,1.118 -1.677,2.469 -1.677,4.054c0,0.425 0.047,0.863 0.142,1.312c-2.342,-0.118 -4.538,-0.706 -6.59,-1.765c-2.052,-1.058 -3.794,-2.469 -5.225,-4.231c-0.52,0.887 -0.78,1.851 -0.78,2.892c0,0.981 0.23,1.892 0.691,2.732c0.462,0.84 1.083,1.52 1.863,2.04c-0.922,-0.036 -1.786,-0.278 -2.59,-0.728l0,0.071c0,1.384 0.435,2.599 1.304,3.646c0.869,1.047 1.966,1.706 3.291,1.978c-0.497,0.13 -1,0.195 -1.508,0.195c-0.331,0 -0.692,-0.029 -1.082,-0.088c0.366,1.147 1.041,2.09 2.022,2.829c0.982,0.74 2.094,1.121 3.335,1.145c-2.081,1.631 -4.452,2.447 -7.113,2.447c-0.509,0 -0.97,-0.023 -1.384,-0.07c2.661,1.714 5.594,2.572 8.799,2.572c2.034,0 3.944,-0.322 5.73,-0.967c1.786,-0.645 3.311,-1.508 4.577,-2.59c1.265,-1.082 2.356,-2.327 3.273,-3.735c0.916,-1.407 1.599,-2.876 2.049,-4.408c0.449,-1.531 0.674,-3.066 0.674,-4.603c0,-0.332 -0.006,-0.58 -0.018,-0.745c1.124,-0.816 2.082,-1.804 2.874,-2.963Z" style="fill:#fff;fill-rule:nonzero;"/></g></svg>