<?xml version="1.0" encoding="UTF-8" standalone="no"?><!DOCTYPE svg PUBLIC "-//W3C//DTD SVG 1.1//EN" "http://www.w3.org/Graphics/SVG/1.1/DTD/svg11.dtd"><svg width="100%" height="100%" viewBox="0 0 126 126" version="1.1" xmlns="http://www.w3.org/2000/svg" xmlns:xlink="http://www.w3.org/1999/xlink" xml:space="preserve" xmlns:serif="http://www.serif.com/" style="fill-rule:evenodd;clip-rule:evenodd;stroke-linejoin:round;stroke-miterlimit:1.41421;"><rect id="capacitacion" x="0.016" y="0.134" width="124.8" height="124.8" style="fill:none;"/><path d="M112.044,19.387l0.603,0.25l0.518,0.397l0.397,0.518l0.25,0.603l0.085,0.647l0,64.272l-0.085,0.647l-0.25,0.603l-0.397,0.518l-0.518,0.397l-0.603,0.25l-0.647,0.085l-97.963,0l-0.647,-0.085l-0.603,-0.25l-0.518,-0.397l-0.397,-0.518l-0.25,-0.603l-0.085,-0.647l0,-64.272l0.085,-0.647l0.25,-0.603l0.397,-0.518l0.518,-0.397l0.603,-0.25l0.647,-0.085l97.963,0l0.647,0.085Zm-98.61,2.415l0,64.272l97.963,0l0,-64.272l-97.963,0Z" style="fill:#a1a1a1;"/><rect x="13.434" y="21.802" width="97.963" height="64.272" style="fill:#f0f0f0;"/><path d="M62.543,66.383l0.126,0.001l0.127,0.002l0.126,0.003l0.127,0.003l0.126,0.005l0.126,0.005l0.126,0.006l0.126,0.007l0.125,0.007l0.125,0.008l0.124,0.01l0.125,0.009l0.125,0.011l0.125,0.012l0.123,0.012l0.124,0.013l0.124,0.014l0.123,0.014l0.124,0.015l0.123,0.016l0.122,0.017l0.124,0.018l0.122,0.018l0.122,0.019l0.121,0.02l0.122,0.021l0.121,0.021l0.121,0.022l0.121,0.023l0.121,0.023l0.121,0.025l0.12,0.025l0.119,0.025l0.119,0.027l0.12,0.027l0.12,0.028l0.119,0.029l0.117,0.029l0.118,0.03l0.118,0.03l0.119,0.032l0.116,0.032l0.117,0.033l0.117,0.034l0.118,0.034l0.114,0.035l0.116,0.035l0.116,0.037l0.115,0.037l0.115,0.038l0.116,0.038l0.114,0.04l0.113,0.039l0.114,0.04l0.114,0.042l0.112,0.041l0.113,0.043l0.113,0.043l0.111,0.044l0.113,0.045l0.112,0.045l0.11,0.046l0.11,0.046l0.111,0.047l0.11,0.048l0.109,0.048l0.109,0.049l0.11,0.05l0.109,0.05l0.107,0.051l0.108,0.052l0.107,0.052l0.107,0.052l0.108,0.054l0.106,0.054l0.106,0.055l0.105,0.055l0.106,0.056l0.104,0.057l0.105,0.057l0.104,0.058l0.104,0.058l0.103,0.059l0.103,0.06l0.102,0.06l0.102,0.061l0.102,0.061l0.102,0.063l0.1,0.062l0.101,0.063l0.1,0.064l0.1,0.064l0.099,0.065l0.098,0.065l0.099,0.067l0.098,0.066l0.097,0.067l0.097,0.068l0.097,0.069l0.097,0.069l0.095,0.069l0.096,0.071l0.094,0.069l0.095,0.072l0.094,0.071l0.094,0.072l0.093,0.074l0.093,0.073l0.092,0.074l0.091,0.074l0.092,0.075l0.091,0.076l0.09,0.075l0.09,0.077l0.09,0.077l0.089,0.078l0.089,0.078l0.088,0.079l0.088,0.079l0.087,0.079l0.086,0.08l0.086,0.081l0.086,0.081l0.085,0.082l0.085,0.082l0.084,0.083l0.084,0.084l0.083,0.083l0.082,0.084l0.082,0.084l0.083,0.086l0.081,0.086l0.08,0.086l0.08,0.086l0.08,0.087l0.079,0.088l0.08,0.089l0.077,0.088l0.078,0.089l0.076,0.089l0.077,0.09l0.077,0.091l0.075,0.091l0.075,0.091l0.074,0.092l0.074,0.092l0.073,0.093l0.073,0.093l0.072,0.093l0.072,0.095l0.072,0.095l0.069,0.094l0.071,0.095l0.07,0.097l0.068,0.096l0.068,0.096l0.068,0.097l0.067,0.098l0.067,0.098l0.067,0.099l0.065,0.098l0.065,0.1l0.064,0.099l0.064,0.1l0.063,0.101l0.062,0.1l0.063,0.102l0.061,0.101l0.061,0.103l0.06,0.102l0.059,0.103l0.059,0.103l0.059,0.104l0.058,0.105l0.057,0.103l0.056,0.105l0.057,0.106l0.055,0.105l0.054,0.106l0.054,0.106l0.054,0.107l0.053,0.108l0.052,0.107l0.052,0.107l0.051,0.109l0.05,0.108l0.05,0.109l0.049,0.11l0.048,0.109l0.048,0.11l0.047,0.11l0.046,0.111l0.046,0.111l0.045,0.112l0.045,0.112l0.044,0.111l0.043,0.113l0.042,0.113l0.042,0.112l0.041,0.114l0.041,0.113l0.04,0.114l0.039,0.114l0.038,0.115l0.038,0.116l0.037,0.115l0.036,0.115l0.036,0.116l0.035,0.116l0.034,0.116l0.034,0.117l0.033,0.117l0.032,0.118l0.031,0.118l0.031,0.117l0.03,0.118l0.029,0.119l0.029,0.118l0.028,0.12l0.027,0.119l0.027,0.119l0.025,0.12l0.025,0.12l0.025,0.121l0.023,0.121l0.023,0.121l0.022,0.121l0.021,0.121l0.021,0.121l0.02,0.122l0.019,0.122l0.018,0.123l0.018,0.123l0.016,0.122l0.017,0.123l0.015,0.123l0.014,0.124l0.014,0.124l0.013,0.123l0.012,0.125l0.012,0.124l0.01,0.124l0.01,0.126l0.009,0.124l0.009,0.125l0.007,0.126l0.007,0.125l0.006,0.126l0.005,0.126l0.005,0.126l0.003,0.127l0.003,0.125l0.002,0.128l0.001,0.126l0.001,0.127l-0.001,0.127l-0.001,0.127l-0.002,0.127l-0.003,0.126l-0.003,0.126l-0.005,0.126l-0.005,0.126l-0.006,0.126l-0.007,0.125l-0.007,0.126l-0.009,0.125l-0.009,0.125l-0.01,0.125l-0.01,0.125l-0.012,0.124l-0.012,0.124l-0.013,0.123l-0.014,0.124l-0.014,0.124l-0.015,0.123l-0.017,0.123l-0.016,0.123l-0.018,0.122l-0.018,0.123l-0.019,0.122l-0.02,0.122l-0.021,0.121l-0.021,0.122l-0.022,0.121l-0.023,0.121l-0.023,0.121l-0.025,0.12l-0.025,0.12l-0.025,0.12l-0.027,0.119l-0.027,0.119l-0.028,0.12l-0.029,0.119l-0.029,0.118l-0.03,0.118l-0.031,0.118l-0.031,0.118l-0.032,0.117l-0.033,0.117l-0.034,0.117l-0.034,0.116l-0.035,0.117l-0.036,0.115l-0.036,0.116l-0.037,0.115l-0.038,0.114l-0.038,0.116l-0.039,0.114l-0.04,0.114l-0.041,0.114l-0.041,0.113l-0.041,0.112l-0.043,0.114l-0.043,0.112l-0.044,0.112l-0.045,0.112l-0.045,0.111l-0.046,0.111l-0.046,0.111l-0.047,0.11l-0.048,0.11l-0.048,0.11l-0.049,0.109l-0.05,0.109l-0.05,0.109l-0.051,0.108l-0.052,0.108l-0.052,0.107l-0.053,0.107l-0.053,0.107l-0.054,0.106l-0.055,0.106l-0.056,0.106l-0.056,0.105l-0.056,0.104l-0.057,0.105l-0.058,0.105l-0.058,0.103l-0.059,0.103l-0.06,0.104l-0.06,0.102l-0.061,0.102l-0.062,0.102l-0.062,0.101l-0.062,0.1l-0.063,0.101l-0.064,0.1l-0.064,0.1l-0.065,0.099l-0.065,0.099l-0.067,0.099l-0.066,0.097l-0.068,0.098l-0.068,0.097l-0.068,0.097l-0.068,0.096l-0.07,0.096l-0.071,0.096l-0.07,0.094l-0.071,0.095l-0.072,0.094l-0.072,0.093l-0.072,0.093l-0.074,0.093l-0.074,0.093l-0.074,0.092l-0.075,0.09l-0.075,0.091l-0.077,0.091l-0.077,0.09l-0.076,0.09l-0.078,0.088l-0.078,0.089l-0.079,0.088l-0.079,0.088l-0.08,0.087l-0.079,0.086l-0.081,0.087l-0.082,0.086l-0.081,0.084l-0.082,0.085l-0.083,0.084l-0.084,0.085l-0.084,0.083l-0.083,0.082l-0.085,0.082l-0.085,0.082l-0.086,0.081l-0.086,0.081l-0.086,0.08l-0.087,0.08l-0.089,0.079l-0.088,0.079l-0.088,0.078l-0.089,0.077l-0.089,0.077l-0.09,0.076l-0.091,0.077l-0.091,0.075l-0.091,0.075l-0.092,0.075l-0.092,0.074l-0.093,0.073l-0.093,0.073l-0.094,0.072l-0.094,0.072l-0.095,0.071l-0.094,0.071l-0.096,0.069l-0.095,0.07l-0.097,0.069l-0.096,0.068l-0.098,0.068l-0.097,0.067l-0.098,0.067l-0.099,0.066l-0.098,0.065l-0.099,0.065l-0.1,0.065l-0.1,0.064l-0.101,0.062l-0.101,0.063l-0.102,0.062l-0.101,0.061l-0.102,0.061l-0.101,0.06l-0.104,0.06l-0.103,0.059l-0.104,0.058l-0.104,0.058l-0.105,0.058l-0.104,0.056l-0.106,0.056l-0.105,0.055l-0.106,0.055l-0.106,0.054l-0.107,0.054l-0.108,0.053l-0.107,0.052l-0.108,0.051l-0.108,0.051l-0.108,0.051l-0.109,0.049l-0.11,0.049l-0.109,0.049l-0.11,0.048l-0.111,0.047l-0.11,0.046l-0.111,0.046l-0.112,0.045l-0.111,0.044l-0.112,0.044l-0.113,0.043l-0.113,0.043l-0.113,0.042l-0.112,0.04l-0.114,0.041l-0.115,0.04l-0.114,0.039l-0.113,0.038l-0.117,0.038l-0.116,0.038l-0.114,0.036l-0.115,0.035l-0.117,0.035l-0.117,0.035l-0.116,0.033l-0.118,0.033l-0.117,0.033l-0.118,0.031l-0.117,0.03l-0.119,0.031l-0.119,0.029l-0.117,0.028l-0.12,0.029l-0.12,0.027l-0.118,0.026l-0.12,0.026l-0.12,0.025l-0.121,0.024l-0.121,0.024l-0.121,0.022l-0.121,0.022l-0.121,0.022l-0.122,0.02l-0.121,0.02l-0.122,0.019l-0.123,0.019l-0.123,0.017l-0.122,0.017l-0.123,0.016l-0.123,0.015l-0.125,0.015l-0.123,0.014l-0.124,0.013l-0.123,0.012l-0.125,0.011l-0.125,0.011l-0.124,0.01l-0.125,0.009l-0.126,0.008l-0.126,0.008l-0.124,0.007l-0.126,0.006l-0.126,0.005l-0.126,0.004l-0.127,0.004l-0.125,0.003l-0.127,0.002l-0.127,0.001l-0.127,0l-0.127,0l-0.128,-0.001l-0.127,-0.002l-0.125,-0.003l-0.126,-0.004l-0.127,-0.004l-0.126,-0.005l-0.126,-0.006l-0.124,-0.007l-0.126,-0.008l-0.125,-0.008l-0.126,-0.009l-0.124,-0.01l-0.125,-0.011l-0.124,-0.011l-0.124,-0.012l-0.123,-0.013l-0.123,-0.014l-0.126,-0.015l-0.123,-0.015l-0.122,-0.016l-0.123,-0.017l-0.122,-0.017l-0.123,-0.019l-0.122,-0.019l-0.122,-0.02l-0.121,-0.02l-0.122,-0.021l-0.121,-0.023l-0.121,-0.022l-0.121,-0.024l-0.12,-0.024l-0.12,-0.025l-0.12,-0.026l-0.119,-0.026l-0.12,-0.027l-0.119,-0.029l-0.118,-0.028l-0.119,-0.029l-0.119,-0.031l-0.117,-0.03l-0.117,-0.031l-0.118,-0.033l-0.118,-0.033l-0.116,-0.033l-0.116,-0.034l-0.117,-0.036l-0.116,-0.035l-0.114,-0.036l-0.116,-0.038l-0.116,-0.038l-0.114,-0.038l-0.114,-0.039l-0.115,-0.04l-0.114,-0.041l-0.112,-0.04l-0.113,-0.042l-0.113,-0.043l-0.112,-0.043l-0.112,-0.044l-0.111,-0.044l-0.112,-0.045l-0.111,-0.046l-0.111,-0.046l-0.11,-0.048l-0.111,-0.047l-0.109,-0.049l-0.11,-0.049l-0.108,-0.049l-0.108,-0.051l-0.109,-0.051l-0.108,-0.051l-0.107,-0.052l-0.108,-0.053l-0.106,-0.054l-0.107,-0.054l-0.105,-0.055l-0.106,-0.055l-0.105,-0.056l-0.105,-0.056l-0.105,-0.058l-0.104,-0.058l-0.103,-0.058l-0.104,-0.059l-0.103,-0.06l-0.102,-0.06l-0.102,-0.061l-0.101,-0.061l-0.102,-0.062l-0.101,-0.063l-0.1,-0.062l-0.101,-0.064l-0.1,-0.065l-0.098,-0.065l-0.099,-0.065l-0.099,-0.066l-0.097,-0.067l-0.098,-0.067l-0.098,-0.068l-0.096,-0.068l-0.096,-0.069l-0.096,-0.07l-0.096,-0.07l-0.094,-0.07l-0.094,-0.071l-0.095,-0.072l-0.094,-0.072l-0.093,-0.073l-0.093,-0.073l-0.092,-0.075l-0.092,-0.074l-0.091,-0.075l-0.09,-0.075l-0.091,-0.076l-0.091,-0.077l-0.089,-0.077l-0.089,-0.077l-0.088,-0.078l-0.088,-0.079l-0.088,-0.079l-0.087,-0.08l-0.086,-0.08l-0.087,-0.081l-0.086,-0.081l-0.084,-0.081l-0.086,-0.083l-0.083,-0.082l-0.084,-0.083l-0.084,-0.085l-0.082,-0.084l-0.083,-0.085l-0.081,-0.084l-0.081,-0.086l-0.081,-0.087l-0.08,-0.086l-0.08,-0.087l-0.079,-0.088l-0.079,-0.088l-0.078,-0.089l-0.077,-0.088l-0.077,-0.09l-0.077,-0.09l-0.077,-0.091l-0.075,-0.091l-0.074,-0.09l-0.074,-0.092l-0.075,-0.093l-0.073,-0.093l-0.073,-0.093l-0.072,-0.093l-0.072,-0.094l-0.071,-0.095l-0.07,-0.095l-0.07,-0.095l-0.07,-0.096l-0.069,-0.096l-0.068,-0.097l-0.068,-0.097l-0.068,-0.098l-0.066,-0.098l-0.066,-0.098l-0.066,-0.099l-0.064,-0.099l-0.065,-0.1l-0.064,-0.1l-0.063,-0.1l-0.062,-0.101l-0.062,-0.101l-0.062,-0.102l-0.06,-0.102l-0.06,-0.102l-0.06,-0.104l-0.059,-0.103l-0.058,-0.103l-0.058,-0.105l-0.058,-0.105l-0.056,-0.104l-0.056,-0.105l-0.056,-0.106l-0.054,-0.106l-0.054,-0.106l-0.054,-0.107l-0.053,-0.107l-0.052,-0.107l-0.051,-0.108l-0.051,-0.108l-0.051,-0.109l-0.05,-0.109l-0.048,-0.109l-0.049,-0.11l-0.048,-0.11l-0.047,-0.11l-0.046,-0.111l-0.046,-0.111l-0.045,-0.111l-0.045,-0.112l-0.043,-0.112l-0.044,-0.112l-0.042,-0.114l-0.042,-0.112l-0.041,-0.113l-0.04,-0.114l-0.04,-0.114l-0.039,-0.114l-0.039,-0.116l-0.037,-0.114l-0.037,-0.115l-0.037,-0.116l-0.036,-0.115l-0.035,-0.117l-0.034,-0.116l-0.033,-0.117l-0.033,-0.117l-0.032,-0.117l-0.032,-0.118l-0.031,-0.118l-0.03,-0.118l-0.029,-0.118l-0.029,-0.119l-0.028,-0.12l-0.027,-0.119l-0.026,-0.119l-0.026,-0.12l-0.025,-0.12l-0.024,-0.12l-0.024,-0.121l-0.023,-0.121l-0.022,-0.121l-0.021,-0.122l-0.02,-0.121l-0.02,-0.122l-0.019,-0.122l-0.019,-0.123l-0.017,-0.122l-0.017,-0.123l-0.016,-0.122l-0.015,-0.124l-0.015,-0.124l-0.014,-0.123l-0.013,-0.124l-0.012,-0.124l-0.011,-0.124l-0.011,-0.126l-0.01,-0.123l-0.009,-0.126l-0.008,-0.125l-0.008,-0.126l-0.007,-0.125l-0.006,-0.126l-0.005,-0.126l-0.004,-0.126l-0.004,-0.126l-0.003,-0.126l-0.002,-0.127l-0.001,-0.127l0,-0.127l0,-0.127l0.001,-0.127l0.002,-0.127l0.003,-0.125l0.004,-0.127l0.004,-0.126l0.005,-0.126l0.006,-0.126l0.007,-0.125l0.008,-0.125l0.008,-0.126l0.009,-0.125l0.01,-0.124l0.011,-0.125l0.011,-0.124l0.012,-0.125l0.013,-0.123l0.014,-0.124l0.015,-0.124l0.015,-0.123l0.016,-0.123l0.017,-0.122l0.017,-0.123l0.019,-0.123l0.019,-0.122l0.02,-0.122l0.02,-0.121l0.021,-0.121l0.022,-0.121l0.023,-0.121l0.024,-0.121l0.024,-0.121l0.025,-0.12l0.026,-0.12l0.026,-0.119l0.027,-0.119l0.028,-0.12l0.029,-0.118l0.029,-0.119l0.03,-0.118l0.031,-0.117l0.032,-0.118l0.032,-0.118l0.033,-0.117l0.033,-0.117l0.035,-0.116l0.034,-0.116l0.036,-0.116l0.036,-0.115l0.037,-0.115l0.038,-0.116l0.039,-0.115l0.039,-0.114l0.04,-0.114l0.04,-0.113l0.041,-0.114l0.042,-0.112l0.042,-0.113l0.044,-0.113l0.043,-0.111l0.045,-0.112l0.045,-0.112l0.046,-0.111l0.046,-0.111l0.047,-0.11l0.048,-0.11l0.048,-0.109l0.049,-0.11l0.05,-0.109l0.051,-0.108l0.051,-0.109l0.051,-0.107l0.052,-0.107l0.053,-0.108l0.054,-0.107l0.054,-0.106l0.054,-0.106l0.056,-0.105l0.056,-0.106l0.056,-0.105l0.057,-0.103l0.058,-0.105l0.059,-0.104l0.059,-0.103l0.059,-0.103l0.061,-0.102l0.06,-0.103l0.062,-0.101l0.062,-0.102l0.063,-0.101l0.063,-0.1l0.063,-0.1l0.064,-0.099l0.065,-0.1l0.066,-0.099l0.066,-0.098l0.067,-0.098l0.067,-0.098l0.068,-0.097l0.068,-0.096l0.069,-0.096l0.07,-0.097l0.07,-0.095l0.07,-0.094l0.071,-0.096l0.072,-0.093l0.072,-0.094l0.073,-0.093l0.073,-0.093l0.074,-0.092l0.075,-0.092l0.074,-0.091l0.075,-0.091l0.077,-0.091l0.077,-0.09l0.077,-0.089l0.077,-0.089l0.078,-0.088l0.079,-0.089l0.079,-0.087l0.08,-0.088l0.08,-0.086l0.08,-0.086l0.082,-0.086l0.082,-0.086l0.082,-0.084l0.082,-0.084l0.083,-0.083l0.084,-0.084l0.085,-0.083l0.085,-0.082l0.084,-0.082l0.087,-0.081l0.086,-0.081l0.086,-0.08l0.087,-0.079l0.087,-0.079l0.089,-0.079l0.088,-0.078l0.089,-0.078l0.09,-0.077l0.09,-0.077l0.09,-0.075l0.091,-0.076l0.092,-0.075l0.091,-0.074l0.092,-0.074l0.093,-0.074l0.093,-0.072l0.094,-0.073l0.095,-0.072l0.094,-0.07l0.094,-0.07l0.096,-0.071l0.096,-0.069l0.096,-0.069l0.097,-0.069l0.097,-0.068l0.098,-0.067l0.097,-0.066l0.099,-0.067l0.099,-0.065l0.098,-0.065l0.1,-0.064l0.101,-0.064l0.1,-0.063l0.1,-0.062l0.102,-0.063l0.102,-0.061l0.102,-0.061l0.103,-0.06l0.102,-0.06l0.104,-0.059l0.103,-0.058l0.104,-0.058l0.105,-0.057l0.105,-0.057l0.105,-0.056l0.106,-0.055l0.105,-0.055l0.107,-0.054l0.107,-0.054l0.107,-0.052l0.107,-0.052l0.108,-0.052l0.108,-0.051l0.109,-0.05l0.109,-0.05l0.109,-0.049l0.109,-0.048l0.111,-0.048l0.11,-0.047l0.111,-0.047l0.11,-0.045l0.112,-0.045l0.113,-0.045l0.111,-0.044l0.112,-0.043l0.113,-0.043l0.112,-0.041l0.115,-0.042l0.113,-0.04l0.113,-0.039l0.114,-0.04l0.116,-0.038l0.115,-0.038l0.115,-0.037l0.116,-0.037l0.116,-0.035l0.115,-0.035l0.117,-0.034l0.117,-0.034l0.117,-0.033l0.117,-0.032l0.118,-0.031l0.118,-0.031l0.118,-0.03l0.118,-0.029l0.119,-0.029l0.119,-0.028l0.12,-0.027l0.12,-0.027l0.119,-0.025l0.12,-0.025l0.12,-0.025l0.121,-0.023l0.121,-0.023l0.121,-0.022l0.122,-0.021l0.121,-0.021l0.122,-0.02l0.122,-0.019l0.122,-0.018l0.123,-0.018l0.123,-0.017l0.122,-0.016l0.124,-0.015l0.123,-0.014l0.125,-0.014l0.123,-0.013l0.124,-0.012l0.124,-0.012l0.125,-0.011l0.126,-0.009l0.124,-0.01l0.124,-0.008l0.126,-0.007l0.125,-0.007l0.126,-0.006l0.126,-0.005l0.127,-0.005l0.126,-0.003l0.127,-0.003l0.126,-0.002l0.127,-0.001l0.127,-0.001l0.127,0.001Zm-0.238,2.5l-0.111,0.001l-0.111,0.001l-0.111,0.003l-0.11,0.003l-0.11,0.004l-0.111,0.004l-0.109,0.006l-0.11,0.005l-0.11,0.007l-0.109,0.007l-0.109,0.008l-0.109,0.009l-0.109,0.009l-0.109,0.01l-0.108,0.011l-0.108,0.011l-0.108,0.012l-0.108,0.013l-0.108,0.013l-0.107,0.014l-0.107,0.015l-0.107,0.015l-0.107,0.016l-0.107,0.017l-0.106,0.017l-0.106,0.018l-0.106,0.019l-0.106,0.019l-0.105,0.02l-0.105,0.021l-0.105,0.021l-0.105,0.022l-0.105,0.022l-0.104,0.023l-0.104,0.024l-0.104,0.024l-0.103,0.025l-0.104,0.026l-0.103,0.026l-0.103,0.027l-0.102,0.027l-0.103,0.028l-0.102,0.029l-0.101,0.029l-0.102,0.03l-0.101,0.031l-0.101,0.031l-0.101,0.031l-0.101,0.033l-0.1,0.033l-0.1,0.033l-0.1,0.034l-0.099,0.035l-0.099,0.035l-0.099,0.036l-0.099,0.037l-0.098,0.037l-0.098,0.037l-0.098,0.038l-0.097,0.039l-0.097,0.04l-0.097,0.04l-0.097,0.04l-0.096,0.041l-0.096,0.042l-0.095,0.042l-0.096,0.043l-0.095,0.043l-0.094,0.044l-0.095,0.045l-0.094,0.045l-0.094,0.045l-0.093,0.046l-0.093,0.047l-0.093,0.047l-0.093,0.048l-0.092,0.048l-0.092,0.049l-0.091,0.049l-0.091,0.05l-0.091,0.051l-0.091,0.051l-0.09,0.051l-0.09,0.052l-0.089,0.053l-0.089,0.053l-0.089,0.054l-0.089,0.054l-0.088,0.054l-0.087,0.056l-0.088,0.055l-0.087,0.056l-0.087,0.057l-0.086,0.057l-0.086,0.058l-0.085,0.058l-0.086,0.059l-0.084,0.059l-0.085,0.06l-0.084,0.06l-0.084,0.061l-0.083,0.061l-0.083,0.061l-0.082,0.063l-0.083,0.062l-0.081,0.063l-0.082,0.064l-0.081,0.064l-0.08,0.065l-0.081,0.065l-0.079,0.065l-0.08,0.066l-0.079,0.066l-0.078,0.067l-0.079,0.068l-0.077,0.067l-0.078,0.069l-0.077,0.068l-0.076,0.07l-0.076,0.069l-0.076,0.07l-0.075,0.071l-0.075,0.071l-0.075,0.071l-0.074,0.072l-0.073,0.072l-0.074,0.073l-0.072,0.073l-0.073,0.074l-0.071,0.074l-0.072,0.074l-0.071,0.075l-0.07,0.075l-0.07,0.076l-0.07,0.076l-0.069,0.077l-0.069,0.077l-0.068,0.077l-0.068,0.078l-0.067,0.078l-0.067,0.079l-0.067,0.079l-0.065,0.079l-0.066,0.08l-0.065,0.08l-0.064,0.081l-0.065,0.081l-0.063,0.081l-0.063,0.082l-0.063,0.082l-0.062,0.083l-0.062,0.083l-0.061,0.083l-0.061,0.084l-0.06,0.084l-0.059,0.084l-0.06,0.085l-0.058,0.085l-0.059,0.086l-0.057,0.086l-0.057,0.086l-0.057,0.087l-0.056,0.087l-0.056,0.087l-0.055,0.088l-0.055,0.088l-0.054,0.088l-0.054,0.089l-0.053,0.089l-0.052,0.09l-0.052,0.09l-0.052,0.09l-0.051,0.09l-0.05,0.091l-0.05,0.091l-0.049,0.092l-0.049,0.092l-0.049,0.092l-0.047,0.092l-0.048,0.093l-0.046,0.093l-0.046,0.094l-0.046,0.094l-0.045,0.094l-0.044,0.094l-0.044,0.095l-0.044,0.095l-0.042,0.095l-0.043,0.096l-0.041,0.096l-0.041,0.096l-0.041,0.097l-0.04,0.096l-0.039,0.097l-0.039,0.098l-0.038,0.098l-0.038,0.098l-0.037,0.098l-0.036,0.099l-0.036,0.098l-0.036,0.1l-0.034,0.099l-0.034,0.1l-0.034,0.1l-0.033,0.1l-0.032,0.1l-0.032,0.101l-0.031,0.101l-0.03,0.102l-0.03,0.101l-0.03,0.102l-0.028,0.102l-0.028,0.102l-0.028,0.103l-0.027,0.103l-0.026,0.103l-0.025,0.103l-0.025,0.104l-0.025,0.104l-0.023,0.104l-0.024,0.104l-0.022,0.104l-0.022,0.105l-0.021,0.105l-0.02,0.105l-0.02,0.106l-0.02,0.106l-0.018,0.105l-0.018,0.107l-0.017,0.106l-0.017,0.106l-0.016,0.107l-0.015,0.107l-0.015,0.107l-0.014,0.108l-0.013,0.107l-0.013,0.108l-0.012,0.108l-0.012,0.108l-0.01,0.109l-0.01,0.108l-0.01,0.109l-0.008,0.109l-0.008,0.109l-0.007,0.11l-0.007,0.109l-0.006,0.11l-0.005,0.11l-0.005,0.11l-0.004,0.11l-0.003,0.111l-0.002,0.11l-0.002,0.111l-0.001,0.111l0,0.111l0,0.111l0.001,0.111l0.002,0.111l0.002,0.111l0.003,0.11l0.004,0.11l0.005,0.11l0.005,0.11l0.006,0.11l0.007,0.11l0.007,0.109l0.008,0.109l0.008,0.109l0.01,0.109l0.01,0.109l0.01,0.108l0.012,0.108l0.012,0.108l0.013,0.108l0.013,0.108l0.014,0.107l0.015,0.107l0.015,0.107l0.016,0.107l0.017,0.106l0.017,0.107l0.018,0.106l0.018,0.106l0.02,0.105l0.02,0.106l0.02,0.105l0.021,0.105l0.022,0.105l0.022,0.104l0.024,0.105l0.023,0.104l0.025,0.104l0.025,0.103l0.025,0.104l0.026,0.103l0.027,0.102l0.028,0.103l0.028,0.102l0.028,0.102l0.03,0.102l0.03,0.102l0.03,0.101l0.031,0.101l0.032,0.101l0.032,0.1l0.033,0.101l0.034,0.1l0.034,0.099l0.034,0.1l0.036,0.099l0.036,0.099l0.036,0.098l0.037,0.099l0.038,0.098l0.038,0.097l0.039,0.098l0.039,0.097l0.04,0.097l0.041,0.096l0.041,0.097l0.041,0.096l0.043,0.095l0.042,0.096l0.044,0.095l0.044,0.094l0.044,0.095l0.045,0.094l0.046,0.094l0.046,0.093l0.046,0.093l0.048,0.093l0.047,0.093l0.049,0.092l0.049,0.092l0.049,0.091l0.05,0.091l0.05,0.091l0.051,0.091l0.052,0.09l0.052,0.09l0.052,0.089l0.053,0.089l0.054,0.089l0.054,0.088l0.055,0.089l0.055,0.087l0.056,0.088l0.056,0.087l0.057,0.086l0.057,0.087l0.057,0.086l0.059,0.085l0.058,0.085l0.06,0.085l0.059,0.085l0.06,0.084l0.061,0.083l0.061,0.084l0.062,0.083l0.062,0.082l0.063,0.082l0.063,0.082l0.063,0.082l0.065,0.081l0.064,0.08l0.065,0.08l0.066,0.08l0.065,0.08l0.067,0.079l0.067,0.078l0.067,0.078l0.068,0.078l0.068,0.078l0.069,0.077l0.069,0.076l0.07,0.076l0.07,0.076l0.07,0.075l0.071,0.075l0.072,0.075l0.071,0.074l0.073,0.073l0.072,0.073l0.074,0.073l0.073,0.072l0.074,0.072l0.075,0.072l0.075,0.071l0.075,0.07l0.076,0.07l0.076,0.07l0.076,0.069l0.077,0.069l0.078,0.068l0.077,0.068l0.079,0.067l0.078,0.067l0.079,0.066l0.08,0.066l0.079,0.066l0.081,0.065l0.08,0.064l0.081,0.064l0.082,0.064l0.081,0.063l0.083,0.063l0.082,0.062l0.083,0.062l0.083,0.061l0.084,0.06l0.084,0.061l0.085,0.059l0.084,0.059l0.086,0.059l0.085,0.058l0.086,0.058l0.086,0.057l0.087,0.057l0.087,0.056l0.088,0.056l0.087,0.055l0.088,0.055l0.089,0.054l0.089,0.053l0.089,0.053l0.089,0.053l0.09,0.052l0.09,0.052l0.091,0.051l0.091,0.05l0.091,0.05l0.091,0.049l0.092,0.049l0.092,0.048l0.093,0.048l0.093,0.047l0.093,0.047l0.093,0.046l0.094,0.046l0.094,0.045l0.095,0.044l0.094,0.044l0.095,0.044l0.096,0.042l0.095,0.043l0.096,0.041l0.096,0.041l0.097,0.041l0.097,0.04l0.097,0.039l0.097,0.039l0.098,0.038l0.098,0.038l0.098,0.037l0.099,0.036l0.099,0.036l0.099,0.035l0.099,0.035l0.1,0.034l0.1,0.034l0.1,0.033l0.101,0.032l0.101,0.032l0.101,0.031l0.101,0.03l0.102,0.03l0.101,0.03l0.102,0.028l0.103,0.028l0.102,0.028l0.103,0.027l0.103,0.026l0.104,0.025l0.103,0.025l0.104,0.025l0.104,0.023l0.104,0.023l0.105,0.023l0.105,0.022l0.105,0.021l0.105,0.02l0.105,0.02l0.106,0.019l0.106,0.019l0.106,0.018l0.106,0.017l0.107,0.017l0.107,0.016l0.107,0.015l0.107,0.015l0.107,0.014l0.108,0.013l0.108,0.013l0.108,0.012l0.108,0.011l0.108,0.011l0.109,0.01l0.109,0.009l0.109,0.009l0.109,0.008l0.109,0.007l0.11,0.007l0.11,0.006l0.109,0.005l0.111,0.005l0.11,0.003l0.11,0.004l0.111,0.002l0.111,0.002l0.111,0.001l0.111,0l0.111,0l0.111,-0.001l0.111,-0.002l0.11,-0.002l0.111,-0.004l0.11,-0.003l0.11,-0.005l0.11,-0.005l0.11,-0.006l0.109,-0.007l0.109,-0.007l0.11,-0.008l0.109,-0.009l0.108,-0.009l0.109,-0.01l0.108,-0.011l0.109,-0.011l0.108,-0.012l0.107,-0.013l0.108,-0.013l0.107,-0.014l0.108,-0.015l0.107,-0.015l0.106,-0.016l0.107,-0.017l0.106,-0.017l0.106,-0.018l0.106,-0.019l0.106,-0.019l0.105,-0.02l0.106,-0.02l0.105,-0.021l0.104,-0.022l0.105,-0.023l0.104,-0.023l0.104,-0.023l0.104,-0.025l0.104,-0.025l0.103,-0.025l0.103,-0.026l0.103,-0.027l0.103,-0.028l0.102,-0.028l0.102,-0.028l0.102,-0.03l0.101,-0.03l0.102,-0.03l0.101,-0.031l0.1,-0.032l0.101,-0.032l0.1,-0.033l0.1,-0.034l0.1,-0.034l0.099,-0.035l0.099,-0.035l0.099,-0.036l0.099,-0.036l0.098,-0.037l0.098,-0.038l0.098,-0.038l0.097,-0.039l0.098,-0.039l0.096,-0.04l0.097,-0.041l0.096,-0.041l0.096,-0.041l0.096,-0.043l0.095,-0.042l0.095,-0.044l0.095,-0.044l0.094,-0.044l0.094,-0.045l0.094,-0.046l0.094,-0.046l0.093,-0.047l0.093,-0.047l0.092,-0.048l0.092,-0.048l0.092,-0.049l0.092,-0.049l0.091,-0.05l0.091,-0.05l0.09,-0.051l0.09,-0.052l0.09,-0.052l0.09,-0.053l0.089,-0.053l0.089,-0.053l0.088,-0.054l0.088,-0.055l0.088,-0.055l0.087,-0.056l0.087,-0.056l0.087,-0.057l0.086,-0.057l0.086,-0.058l0.086,-0.058l0.085,-0.059l0.085,-0.059l0.084,-0.059l0.084,-0.061l0.084,-0.06l0.083,-0.061l0.083,-0.062l0.083,-0.062l0.082,-0.063l0.082,-0.063l0.081,-0.064l0.081,-0.064l0.081,-0.064l0.08,-0.065l0.08,-0.066l0.079,-0.066l0.079,-0.066l0.079,-0.067l0.078,-0.067l0.078,-0.068l0.077,-0.068l0.077,-0.069l0.077,-0.069l0.076,-0.07l0.076,-0.07l0.075,-0.07l0.075,-0.071l0.074,-0.072l0.074,-0.072l0.074,-0.072l0.073,-0.073l0.073,-0.073l0.072,-0.073l0.072,-0.074l0.071,-0.075l0.071,-0.075l0.071,-0.075l0.07,-0.076l0.069,-0.076l0.069,-0.076l0.069,-0.077l0.068,-0.078l0.068,-0.078l0.068,-0.078l0.066,-0.078l0.067,-0.079l0.066,-0.08l0.065,-0.08l0.065,-0.08l0.065,-0.08l0.064,-0.081l0.064,-0.082l0.063,-0.082l0.062,-0.082l0.062,-0.082l0.062,-0.083l0.061,-0.084l0.061,-0.083l0.06,-0.084l0.06,-0.085l0.059,-0.085l0.059,-0.085l0.058,-0.085l0.058,-0.086l0.057,-0.087l0.056,-0.086l0.057,-0.087l0.055,-0.088l0.055,-0.087l0.055,-0.089l0.054,-0.088l0.054,-0.089l0.053,-0.089l0.053,-0.089l0.052,-0.09l0.051,-0.09l0.051,-0.091l0.051,-0.091l0.049,-0.091l0.05,-0.091l0.049,-0.092l0.048,-0.092l0.048,-0.093l0.047,-0.093l0.047,-0.093l0.046,-0.093l0.045,-0.094l0.045,-0.094l0.045,-0.095l0.044,-0.094l0.043,-0.095l0.043,-0.096l0.042,-0.095l0.042,-0.096l0.041,-0.097l0.04,-0.096l0.04,-0.097l0.04,-0.097l0.038,-0.098l0.039,-0.097l0.037,-0.098l0.037,-0.099l0.037,-0.098l0.036,-0.099l0.035,-0.099l0.035,-0.1l0.034,-0.099l0.033,-0.1l0.033,-0.101l0.033,-0.1l0.031,-0.101l0.031,-0.101l0.031,-0.101l0.03,-0.102l0.029,-0.102l0.029,-0.102l0.028,-0.102l0.027,-0.103l0.027,-0.102l0.026,-0.103l0.026,-0.104l0.025,-0.103l0.024,-0.104l0.024,-0.104l0.023,-0.105l0.022,-0.104l0.022,-0.105l0.021,-0.105l0.021,-0.105l0.02,-0.106l0.019,-0.105l0.019,-0.106l0.018,-0.106l0.017,-0.107l0.016,-0.106l0.016,-0.107l0.016,-0.107l0.014,-0.107l0.014,-0.107l0.014,-0.108l0.012,-0.108l0.013,-0.108l0.011,-0.108l0.011,-0.108l0.01,-0.109l0.009,-0.109l0.009,-0.109l0.007,-0.109l0.008,-0.109l0.006,-0.11l0.006,-0.11l0.006,-0.11l0.004,-0.11l0.004,-0.11l0.003,-0.11l0.003,-0.111l0.001,-0.111l0.001,-0.111l0.001,-0.111l-0.001,-0.111l-0.001,-0.111l-0.001,-0.111l-0.003,-0.11l-0.003,-0.111l-0.004,-0.11l-0.004,-0.11l-0.006,-0.11l-0.006,-0.11l-0.006,-0.109l-0.008,-0.11l-0.007,-0.109l-0.009,-0.109l-0.009,-0.109l-0.01,-0.108l-0.011,-0.109l-0.011,-0.108l-0.013,-0.108l-0.012,-0.108l-0.014,-0.107l-0.014,-0.108l-0.014,-0.107l-0.016,-0.107l-0.016,-0.107l-0.016,-0.106l-0.017,-0.106l-0.018,-0.107l-0.019,-0.105l-0.019,-0.106l-0.02,-0.106l-0.021,-0.105l-0.021,-0.105l-0.022,-0.105l-0.022,-0.104l-0.023,-0.104l-0.024,-0.104l-0.024,-0.104l-0.025,-0.104l-0.026,-0.103l-0.026,-0.103l-0.027,-0.103l-0.027,-0.103l-0.028,-0.102l-0.029,-0.102l-0.029,-0.102l-0.03,-0.101l-0.031,-0.102l-0.031,-0.101l-0.031,-0.101l-0.033,-0.1l-0.033,-0.1l-0.033,-0.1l-0.034,-0.1l-0.035,-0.099l-0.035,-0.1l-0.036,-0.098l-0.037,-0.099l-0.037,-0.098l-0.037,-0.098l-0.039,-0.098l-0.038,-0.098l-0.04,-0.097l-0.04,-0.096l-0.04,-0.097l-0.041,-0.096l-0.042,-0.096l-0.042,-0.096l-0.043,-0.095l-0.043,-0.095l-0.044,-0.095l-0.045,-0.094l-0.045,-0.094l-0.045,-0.094l-0.046,-0.094l-0.047,-0.093l-0.047,-0.093l-0.048,-0.092l-0.048,-0.092l-0.049,-0.092l-0.05,-0.092l-0.049,-0.091l-0.051,-0.091l-0.051,-0.09l-0.051,-0.09l-0.052,-0.09l-0.053,-0.09l-0.053,-0.089l-0.054,-0.089l-0.054,-0.088l-0.055,-0.088l-0.055,-0.088l-0.055,-0.087l-0.057,-0.087l-0.056,-0.087l-0.057,-0.086l-0.058,-0.086l-0.058,-0.086l-0.059,-0.085l-0.059,-0.085l-0.06,-0.084l-0.06,-0.084l-0.061,-0.084l-0.061,-0.083l-0.062,-0.083l-0.062,-0.083l-0.062,-0.082l-0.063,-0.082l-0.064,-0.081l-0.064,-0.081l-0.065,-0.081l-0.065,-0.08l-0.065,-0.08l-0.066,-0.079l-0.067,-0.079l-0.066,-0.079l-0.068,-0.078l-0.068,-0.078l-0.068,-0.077l-0.069,-0.077l-0.069,-0.077l-0.069,-0.076l-0.07,-0.076l-0.071,-0.075l-0.071,-0.075l-0.071,-0.074l-0.072,-0.074l-0.072,-0.074l-0.073,-0.073l-0.073,-0.073l-0.074,-0.072l-0.074,-0.072l-0.074,-0.071l-0.075,-0.071l-0.075,-0.071l-0.076,-0.07l-0.076,-0.069l-0.077,-0.07l-0.077,-0.068l-0.077,-0.069l-0.078,-0.067l-0.078,-0.068l-0.079,-0.067l-0.079,-0.066l-0.079,-0.066l-0.08,-0.065l-0.08,-0.065l-0.081,-0.065l-0.081,-0.064l-0.081,-0.064l-0.082,-0.063l-0.082,-0.062l-0.083,-0.063l-0.083,-0.061l-0.083,-0.061l-0.084,-0.061l-0.084,-0.06l-0.084,-0.06l-0.085,-0.059l-0.085,-0.059l-0.086,-0.058l-0.086,-0.058l-0.086,-0.057l-0.087,-0.057l-0.087,-0.056l-0.087,-0.055l-0.088,-0.056l-0.088,-0.054l-0.088,-0.054l-0.089,-0.054l-0.089,-0.053l-0.09,-0.053l-0.09,-0.052l-0.09,-0.051l-0.09,-0.051l-0.091,-0.051l-0.091,-0.05l-0.092,-0.049l-0.092,-0.049l-0.092,-0.048l-0.092,-0.048l-0.093,-0.047l-0.093,-0.047l-0.094,-0.046l-0.094,-0.045l-0.094,-0.045l-0.094,-0.045l-0.095,-0.044l-0.095,-0.043l-0.095,-0.043l-0.096,-0.042l-0.096,-0.042l-0.096,-0.041l-0.097,-0.04l-0.096,-0.04l-0.098,-0.04l-0.097,-0.039l-0.098,-0.038l-0.098,-0.037l-0.098,-0.037l-0.099,-0.037l-0.099,-0.036l-0.099,-0.035l-0.099,-0.035l-0.1,-0.034l-0.1,-0.033l-0.1,-0.033l-0.101,-0.033l-0.1,-0.031l-0.101,-0.031l-0.102,-0.031l-0.101,-0.03l-0.102,-0.029l-0.102,-0.029l-0.102,-0.028l-0.103,-0.027l-0.103,-0.027l-0.103,-0.026l-0.103,-0.026l-0.104,-0.025l-0.104,-0.024l-0.104,-0.024l-0.104,-0.023l-0.105,-0.022l-0.104,-0.022l-0.105,-0.021l-0.106,-0.021l-0.105,-0.02l-0.106,-0.019l-0.106,-0.019l-0.106,-0.018l-0.106,-0.017l-0.107,-0.017l-0.106,-0.016l-0.107,-0.015l-0.108,-0.015l-0.107,-0.014l-0.108,-0.013l-0.107,-0.013l-0.108,-0.012l-0.109,-0.011l-0.108,-0.011l-0.109,-0.01l-0.108,-0.009l-0.109,-0.009l-0.11,-0.008l-0.109,-0.007l-0.109,-0.007l-0.11,-0.005l-0.11,-0.006l-0.11,-0.004l-0.11,-0.004l-0.111,-0.003l-0.11,-0.003l-0.111,-0.001l-0.111,-0.001l-0.111,-0.001l-0.111,0.001Z" style="fill:#a1a1a1;"/><circle cx="62.416" cy="86.074" r="17.192" style="fill:#f54d3d;"/></svg>