<?xml version="1.0" encoding="UTF-8" standalone="no"?><!DOCTYPE svg PUBLIC "-//W3C//DTD SVG 1.1//EN" "http://www.w3.org/Graphics/SVG/1.1/DTD/svg11.dtd"><svg width="100%" height="100%" viewBox="0 0 126 126" version="1.1" xmlns="http://www.w3.org/2000/svg" xmlns:xlink="http://www.w3.org/1999/xlink" xml:space="preserve" xmlns:serif="http://www.serif.com/" style="fill-rule:evenodd;clip-rule:evenodd;stroke-linejoin:round;stroke-miterlimit:1.41421;"><rect id="css3" x="0.01" y="0.046" width="124.8" height="124.8" style="fill:none;"/><g><path id="polygon2989" d="M100.9,28.35l-7.013,78.564l-31.524,8.739l-31.438,-8.727l-7.005,-78.576l76.98,0Z" style="fill:#a1a1a1;fill-rule:nonzero;"/><path id="polygon2991" d="M87.883,101.911l5.993,-67.137l-31.466,0l0,74.199l25.473,-7.062Z" style="fill:#bcbec0;fill-rule:nonzero;"/><path id="polygon2993" d="M39.98,63.917l0.864,9.637l21.566,0l0,-9.637l-22.43,0Z" style="fill:#ebebeb;fill-rule:nonzero;"/><path id="polygon2995" d="M62.41,44.412l-0.034,0l-24.132,0l0.876,9.637l23.29,0l0,-9.637Z" style="fill:#ebebeb;fill-rule:nonzero;"/><path id="polygon2997" d="M62.41,98.973l0,-10.027l-0.043,0.011l-10.732,-2.898l-0.687,-7.686l-5.215,0l-4.459,0l1.35,15.132l19.741,5.48l0.045,-0.012Z" style="fill:#ebebeb;fill-rule:nonzero;"/><path id="polygon3005" d="M74.243,73.554l-1.118,12.499l-10.749,2.901l0,10.026l19.757,-5.475l0.145,-1.628l2.265,-25.372l0.235,-2.588l1.74,-19.505l-24.142,0l0,9.637l13.58,0l-0.877,9.868l-12.703,0l0,9.637l11.867,0Z" style="fill:#fff;fill-rule:nonzero;"/></g><path id="path2999" d="M42.036,6.996l11.673,0l0,4.881l-6.792,0l0,4.881l6.792,0l0,4.881l-11.673,0l0,-14.643Z" style="fill:#a1a1a1;fill-rule:nonzero;"/><path id="path3001" d="M56.043,6.996l11.672,0l0,4.244l-6.791,0l0,0.849l6.791,0l0,9.762l-11.672,0l0,-4.456l6.791,0l0,-0.849l-6.791,0l0,-9.55Z" style="fill:#a1a1a1;fill-rule:nonzero;"/><path id="path3003" d="M70.05,6.996l11.672,0l0,4.244l-6.791,0l0,0.849l6.791,0l0,9.762l-11.672,0l0,-4.456l6.791,0l0,-0.849l-6.791,0l0,-9.55Z" style="fill:#a1a1a1;fill-rule:nonzero;"/></svg>