<?xml version="1.0" encoding="UTF-8" standalone="no"?><!DOCTYPE svg PUBLIC "-//W3C//DTD SVG 1.1//EN" "http://www.w3.org/Graphics/SVG/1.1/DTD/svg11.dtd"><svg width="100%" height="100%" viewBox="0 0 126 126" version="1.1" xmlns="http://www.w3.org/2000/svg" xmlns:xlink="http://www.w3.org/1999/xlink" xml:space="preserve" xmlns:serif="http://www.serif.com/" style="fill-rule:evenodd;clip-rule:evenodd;stroke-linejoin:round;stroke-miterlimit:1.41421;"><rect id="desarrollo" x="0.016" y="0.135" width="124.8" height="124.8" style="fill:none;"/><path d="M57.348,24.815l0.696,0.311l54.709,35.309l0.536,0.466l0.383,0.598l0.2,0.681l0,0.71l-0.2,0.682l-0.383,0.598l-0.536,0.466l-54.709,35.308l-0.696,0.311l-0.758,0.087l-0.749,-0.146l-0.669,-0.365l-0.529,-0.55l-0.338,-0.684l-0.117,-0.753l0,-70.617l0.117,-0.754l0.338,-0.683l0.529,-0.55l0.669,-0.365l0.749,-0.146l0.758,0.086Zm-0.66,73.029l54.709,-35.309l-54.709,-35.308l0,70.617Z" style="fill:#a1a1a1;"/><path d="M111.397,62.535l-54.709,35.309l0,-70.617l54.709,35.308Z" style="fill:#f54d3d;"/><path d="M20.701,18.991l0.696,0.311l63.734,41.133l0.536,0.466l0.383,0.598l0.2,0.681l0,0.71l-0.2,0.682l-0.383,0.598l-0.536,0.466l-63.734,41.132l-0.696,0.311l-0.758,0.087l-0.748,-0.146l-0.67,-0.365l-0.529,-0.55l-0.338,-0.683l-0.116,-0.754l0,-82.265l0.116,-0.754l0.338,-0.684l0.529,-0.55l0.67,-0.364l0.748,-0.146l0.758,0.086Zm-0.659,84.677l63.733,-41.133l-63.733,-41.132l0,82.265Z" style="fill:#a1a1a1;"/></svg>