<?xml version="1.0" encoding="UTF-8" standalone="no"?><!DOCTYPE svg PUBLIC "-//W3C//DTD SVG 1.1//EN" "http://www.w3.org/Graphics/SVG/1.1/DTD/svg11.dtd"><svg width="100%" height="100%" viewBox="0 0 126 126" version="1.1" xmlns="http://www.w3.org/2000/svg" xmlns:xlink="http://www.w3.org/1999/xlink" xml:space="preserve" xmlns:serif="http://www.serif.com/" style="fill-rule:evenodd;clip-rule:evenodd;stroke-linejoin:round;stroke-miterlimit:1.41421;"><rect id="diseno-responsive" x="0.201" y="0.163" width="124.8" height="124.8" style="fill:none;"/><path d="M29.786,64.57l2.29,0" style="fill:none;stroke:#231f20;stroke-width:1.2px;"/><path d="M97.068,43.097l-2.29,0" style="fill:none;stroke:#231f20;stroke-width:1.2px;"/><path d="M109.285,24.326c0,-0.513 -0.183,-0.696 -0.696,-0.696l-90.453,0c-0.512,0 -1.16,0.183 -1.16,0.696l0,53.576l92.309,0l0,-53.576Z" style="fill:#a1a1a1;fill-rule:nonzero;"/><rect x="22.342" y="28.638" width="81.598" height="49.531" style="fill:#f1f2f2;fill-rule:nonzero;"/><rect x="51.545" y="95.348" width="22.618" height="12.025" style="fill:#bcbec0;fill-rule:nonzero;"/><rect x="16.976" y="77.902" width="92.309" height="17.163" style="fill:#e6e7e8;fill-rule:nonzero;"/><path d="M108.357,23.628l-90.453,0c-0.513,0 -0.859,0.417 -0.859,0.93l0,70.647l92.191,0l0,-70.647c0,-0.513 -0.366,-0.93 -0.879,-0.93Z" style="fill:none;stroke:#b8b8b8;stroke-width:1.2px;"/><rect x="47.823" y="107.373" width="30.062" height="3.722" style="fill:#e6e7e8;fill-rule:nonzero;"/><path d="M43.242,111.238l39.511,0" style="fill:none;stroke:#b8b8b8;stroke-width:1.2px;"/><rect x="110.079" y="49.522" width="7.068" height="5.546" style="fill:#f54d3d;fill-rule:nonzero;"/><path d="M106.139,52.48l0,2.588l3.94,0l0,-5.546l-3.94,0l0,2.958Z" style="fill:#f1f2f2;fill-rule:nonzero;"/><path d="M7.722,52.295l8.43,2.773l0,-2.588l0,-2.958l-8.43,2.773Z" style="fill:#e6e7e8;fill-rule:nonzero;"/><path d="M16.152,52.48l0,2.588l89.987,0l0,-2.588l-89.658,0l-0.329,0Z" style="fill:#f54d3d;fill-rule:nonzero;"/><path d="M16.152,49.522l0,2.958l89.987,0l0,-2.958l-89.987,0Z" style="fill:#f54d3d;fill-rule:nonzero;"/><path d="M106.139,49.522l-89.987,0" style="fill:none;stroke:#b8b8b8;stroke-width:1.17px;"/><path d="M16.152,55.068l89.987,0" style="fill:none;stroke:#b8b8b8;stroke-width:1.17px;"/><path d="M106.467,52.48l-0.328,0l-89.658,0" style="fill:none;stroke:#b8b8b8;stroke-width:1.17px;"/><path d="M110.079,55.068l-3.94,0l0,-2.588l0,-2.958l3.94,0" style="fill:none;stroke:#cfcfcf;stroke-width:1.17px;"/><rect x="110.079" y="49.522" width="7.068" height="5.546" style="fill:#cfcfcf;stroke:#cfcfcf;stroke-width:1.17px;"/><path d="M16.152,49.522l-8.43,2.773l8.43,2.773l0,-2.588l0,-2.958Z" style="fill:none;stroke:#b8b8b8;stroke-width:1.17px;"/><rect x="28.573" y="13.889" width="69.116" height="5.103" style="fill:#f54d3d;fill-rule:nonzero;"/><rect x="28.573" y="18.991" width="69.116" height="58.911" style="fill:#fff;fill-rule:nonzero;"/><path d="M97.689,18.991l0,-5.102l-69.116,0l0,5.102" style="fill:none;stroke:#b8b8b8;stroke-width:1.17px;"/><path d="M97.689,77.902l0,-58.911l-69.116,0l0,58.911" style="fill:none;stroke:#d2d2d2;stroke-width:1.17px;"/><path d="M31.504,16.184l2.29,0" style="fill:none;stroke:#b8b8b8;stroke-width:1.2px;"/><path d="M35.226,16.184l2.29,0" style="fill:none;stroke:#b8b8b8;stroke-width:1.2px;"/><path d="M92.774,16.184l2.29,0" style="fill:none;stroke:#b8b8b8;stroke-width:1.2px;"/><rect x="31.217" y="21.194" width="63.56" height="20.328" style="fill:#f54d3d;fill-rule:nonzero;"/><path d="M61.852,38.516l2.291,0" style="fill:none;stroke:#b8b8b8;stroke-width:1.2px;"/><path d="M56.985,38.516l2.577,0" style="fill:none;stroke:#b8b8b8;stroke-width:1.2px;"/><path d="M66.433,38.516l2.291,0" style="fill:none;stroke:#b8b8b8;stroke-width:1.2px;"/><rect x="31.217" y="43.24" width="30.635" height="14.602" style="fill:#bcbec0;fill-rule:nonzero;"/><rect x="64.143" y="43.24" width="30.635" height="14.602" style="fill:#bcbec0;fill-rule:nonzero;"/><path d="M31.217,60.848l22.619,0" style="fill:none;stroke:#a1a1a1;stroke-width:1.2px;"/><path d="M31.217,65.429l28.631,0" style="fill:none;stroke:#a1a1a1;stroke-width:1.2px;"/><path d="M31.217,70.01l28.631,0" style="fill:none;stroke:#a1a1a1;stroke-width:1.2px;"/><path d="M31.217,74.59l28.631,0" style="fill:none;stroke:#a1a1a1;stroke-width:1.2px;"/><path d="M56.699,60.848l3.149,0" style="fill:none;stroke:#a1a1a1;stroke-width:1.2px;"/><path d="M64.143,60.848l22.618,0" style="fill:none;stroke:#a1a1a1;stroke-width:1.2px;"/><path d="M64.143,65.429l22.618,0" style="fill:none;stroke:#a1a1a1;stroke-width:1.2px;"/><path d="M64.143,70.01l22.618,0" style="fill:none;stroke:#a1a1a1;stroke-width:1.2px;"/><path d="M64.143,74.59l22.618,0" style="fill:none;stroke:#a1a1a1;stroke-width:1.2px;"/><path d="M89.624,60.848l3.15,0" style="fill:none;stroke:#a1a1a1;stroke-width:1.2px;"/><path d="M117.48,66.305l0,5.567l-27.368,0l0,-5.567c0,-0.77 0.622,-1.392 1.392,-1.392l24.584,0c0.771,0 1.392,0.622 1.392,1.392Z" style="fill:#bcbec0;fill-rule:nonzero;"/><path d="M117.48,102.487l0,6.957c0,0.771 -0.621,1.392 -1.392,1.392l-24.584,0c-0.77,0 -1.392,-0.621 -1.392,-1.392l0,-6.957l27.368,0Z" style="fill:#bcbec0;fill-rule:nonzero;"/><rect x="90.112" y="71.872" width="27.368" height="30.615" style="fill:#f1f2f2;fill-rule:nonzero;"/><path d="M90.112,102.487l0,6.957c0,0.771 0.622,1.392 1.392,1.392l24.584,0c0.771,0 1.392,-0.621 1.392,-1.392l0,-6.957" style="fill:none;stroke:#b8b8b8;stroke-width:1.17px;"/><path d="M117.48,71.872l0,-5.567c0,-0.77 -0.621,-1.392 -1.392,-1.392l-24.584,0c-0.77,0 -1.392,0.622 -1.392,1.392l0,5.567" style="fill:none;stroke:#b8b8b8;stroke-width:1.17px;"/><path d="M117.48,102.487l0,-30.615" style="fill:none;stroke:#b8b8b8;stroke-width:1.17px;"/><path d="M90.112,71.872l0,30.615" style="fill:none;stroke:#b8b8b8;stroke-width:1.17px;"/><rect x="91.915" y="73.016" width="23.764" height="8.303" style="fill:#f54d3d;fill-rule:nonzero;"/><rect x="91.915" y="82.178" width="23.764" height="12.311" style="fill:#bcbec0;fill-rule:nonzero;"/><path d="M102.508,78.885l2.29,0" style="fill:none;stroke:#b8b8b8;stroke-width:1.2px;"/><path d="M98.786,78.885l2.29,0" style="fill:none;stroke:#b8b8b8;stroke-width:1.2px;"/><path d="M106.23,78.885l2.29,0" style="fill:none;stroke:#b8b8b8;stroke-width:1.2px;"/><path d="M91.915,96.922l14.888,0" style="fill:none;stroke:#a1a1a1;stroke-width:1.2px;"/><path d="M91.915,99.786l23.763,0" style="fill:none;stroke:#a1a1a1;stroke-width:1.2px;"/><path d="M108.52,96.922l3.436,0" style="fill:none;stroke:#a1a1a1;stroke-width:1.2px;"/><path d="M105.843,106.853c0,1.004 -0.813,1.816 -1.816,1.816c-1.003,0 -1.816,-0.812 -1.816,-1.816c0,-1.002 0.813,-1.815 1.816,-1.815c1.003,0 1.816,0.813 1.816,1.815Z" style="fill:#aaacae;fill-rule:nonzero;"/></svg>