<?xml version="1.0" encoding="UTF-8" standalone="no"?><!DOCTYPE svg PUBLIC "-//W3C//DTD SVG 1.1//EN" "http://www.w3.org/Graphics/SVG/1.1/DTD/svg11.dtd"><svg width="100%" height="100%" viewBox="0 0 126 126" version="1.1" xmlns="http://www.w3.org/2000/svg" xmlns:xlink="http://www.w3.org/1999/xlink" xml:space="preserve" xmlns:serif="http://www.serif.com/" style="fill-rule:evenodd;clip-rule:evenodd;stroke-linejoin:round;stroke-miterlimit:1.41421;"><rect id="diseno-ui" serif:id="diseno ui" x="0.133" y="0.135" width="124.8" height="124.8" style="fill:none;"/><path d="M87.719,24.016l0.603,0.25l0.518,0.397l0.397,0.518l0.25,0.603l0.085,0.647l0,48.176l-0.085,0.647l-0.25,0.603l-0.397,0.518l-0.518,0.397l-0.603,0.25l-0.647,0.085l-73.43,0l-0.647,-0.085l-0.603,-0.25l-0.518,-0.397l-0.397,-0.518l-0.25,-0.603l-0.085,-0.647l0,-48.176l0.085,-0.647l0.25,-0.603l0.397,-0.518l0.518,-0.397l0.603,-0.25l0.647,-0.085l73.43,0l0.647,0.085Zm-74.077,2.415l0,48.176l73.43,0l0,-48.176l-73.43,0Z" style="fill:#a1a1a1;"/><rect x="13.642" y="26.431" width="73.43" height="48.176" style="fill:#f0f0f0;"/><path d="M111.642,48.028l0.217,0.029l0.213,0.047l0.208,0.066l0.201,0.083l0.193,0.101l0.184,0.117l0.173,0.133l0.161,0.147l0.148,0.161l0.132,0.173l0.118,0.184l0.1,0.193l0.084,0.202l0.065,0.208l0.047,0.213l0.029,0.216l0.009,0.218l0,48.176l-0.009,0.218l-0.029,0.216l-0.047,0.213l-0.065,0.208l-0.084,0.202l-0.1,0.193l-0.118,0.184l-0.132,0.173l-0.148,0.161l-0.161,0.147l-0.173,0.133l-0.184,0.117l-0.193,0.101l-0.201,0.083l-0.208,0.066l-0.213,0.047l-0.217,0.029l-0.218,0.009l-48.705,0l-0.218,-0.009l-0.216,-0.029l-0.213,-0.047l-0.208,-0.066l-0.201,-0.083l-0.194,-0.101l-0.184,-0.117l-0.173,-0.133l-0.161,-0.147l-0.147,-0.161l-0.133,-0.173l-0.117,-0.184l-0.101,-0.193l-0.083,-0.202l-0.066,-0.208l-0.047,-0.213l-0.028,-0.216l-0.01,-0.218l0,-48.176l0.01,-0.218l0.028,-0.216l0.047,-0.213l0.066,-0.208l0.083,-0.202l0.101,-0.193l0.117,-0.184l0.133,-0.173l0.147,-0.161l0.161,-0.147l0.173,-0.133l0.184,-0.117l0.194,-0.101l0.201,-0.083l0.208,-0.066l0.213,-0.047l0.216,-0.029l0.218,-0.009l48.705,0l0.218,0.009Zm-48.923,2.491l0,48.176l48.705,0l0,-48.176l-48.705,0Z" style="fill:#a1a1a1;"/><rect x="62.719" y="50.519" width="48.705" height="48.176" style="fill:#f54d3d;"/><path d="M74.166,64.754l0.185,0.021l0.184,0.035l0.181,0.048l0.176,0.062l0.172,0.075l0.165,0.087l0.158,0.1l0.151,0.111l0.141,0.122l0.132,0.132l0.122,0.141l0.111,0.151l0.1,0.158l0.087,0.165l0.075,0.172l0.062,0.176l0.048,0.181l0.035,0.184l0.021,0.185l0.007,0.187l0,37.999l-0.007,0.187l-0.021,0.185l-0.035,0.184l-0.048,0.181l-0.062,0.176l-0.075,0.171l-0.087,0.166l-0.1,0.158l-0.111,0.15l-0.122,0.142l-0.132,0.132l-0.141,0.122l-0.151,0.111l-0.158,0.1l-0.165,0.087l-0.172,0.075l-0.176,0.062l-0.181,0.048l-0.184,0.035l-0.185,0.021l-0.187,0.007l-22.52,0l-0.186,-0.007l-0.186,-0.021l-0.184,-0.035l-0.18,-0.048l-0.177,-0.062l-0.171,-0.075l-0.166,-0.087l-0.158,-0.1l-0.15,-0.111l-0.142,-0.122l-0.132,-0.132l-0.122,-0.142l-0.111,-0.15l-0.1,-0.158l-0.087,-0.166l-0.075,-0.171l-0.061,-0.176l-0.049,-0.181l-0.035,-0.184l-0.021,-0.185l-0.007,-0.187l0,-37.999l0.007,-0.187l0.021,-0.185l0.035,-0.184l0.049,-0.181l0.061,-0.176l0.075,-0.172l0.087,-0.165l0.1,-0.158l0.111,-0.151l0.122,-0.141l0.132,-0.132l0.142,-0.122l0.15,-0.111l0.158,-0.1l0.166,-0.087l0.171,-0.075l0.177,-0.062l0.18,-0.048l0.184,-0.035l0.186,-0.021l0.186,-0.007l22.52,0l0.187,0.007Zm-22.707,2.493l0,37.999l22.52,0l0,-37.999l-22.52,0Z" style="fill:#a1a1a1;"/></svg>