<?xml version="1.0" encoding="UTF-8" standalone="no"?><!DOCTYPE svg PUBLIC "-//W3C//DTD SVG 1.1//EN" "http://www.w3.org/Graphics/SVG/1.1/DTD/svg11.dtd"><svg width="100%" height="100%" viewBox="0 0 126 126" version="1.1" xmlns="http://www.w3.org/2000/svg" xmlns:xlink="http://www.w3.org/1999/xlink" xml:space="preserve" xmlns:serif="http://www.serif.com/" style="fill-rule:evenodd;clip-rule:evenodd;stroke-linejoin:round;stroke-miterlimit:1.41421;"><rect id="gerente-de-marca" serif:id="gerente de marca" x="0.084" y="0.134" width="124.8" height="124.8" style="fill:none;"/><path d="M109.903,42.916l0.643,0.291l0.536,0.459l0.387,0.591l0.205,0.675l0.009,0.706l-0.189,0.68l-0.371,0.601l-46.72,55.917l-0.542,0.484l-0.658,0.307l-0.719,0.106l-0.719,-0.106l-0.658,-0.307l-0.541,-0.484l-46.72,-55.917l-0.372,-0.601l-0.189,-0.68l0.009,-0.706l0.205,-0.675l0.387,-0.591l0.536,-0.459l0.643,-0.291l0.699,-0.1l93.44,0l0.699,0.1Zm-94.139,2.4l46.72,55.917l46.72,-55.917l-93.44,0Z" style="fill:#a1a1a1;"/><path d="M62.484,101.233l-46.72,-55.917l93.44,0l-46.72,55.917Z" style="fill:#f0f0f0;"/><path d="M62.558,22.485l0.073,0.001l0.073,0l0.074,0.001l0.074,0.001l0.073,0.001l0.074,0.002l0.074,0.002l0.073,0.002l0.072,0.002l0.073,0.002l0.074,0.003l0.073,0.003l0.073,0.003l0.072,0.003l0.072,0.004l0.074,0.004l0.073,0.004l0.073,0.004l0.072,0.004l0.073,0.005l0.072,0.005l0.072,0.005l0.074,0.006l0.072,0.005l0.072,0.006l0.073,0.006l0.071,0.007l0.072,0.006l0.073,0.007l0.072,0.007l0.071,0.007l0.072,0.007l0.071,0.008l0.073,0.008l0.072,0.008l0.071,0.008l0.071,0.009l0.072,0.008l0.072,0.01l0.071,0.009l0.071,0.009l0.071,0.01l0.071,0.01l0.072,0.01l0.071,0.01l0.07,0.01l0.072,0.011l0.071,0.011l0.069,0.011l0.072,0.012l0.07,0.011l0.071,0.012l0.071,0.012l0.07,0.012l0.07,0.013l0.07,0.013l0.07,0.012l0.071,0.014l0.07,0.013l0.07,0.013l0.069,0.014l0.07,0.014l0.07,0.014l0.07,0.015l0.069,0.014l0.07,0.015l0.068,0.015l0.07,0.015l0.069,0.016l0.07,0.015l0.069,0.016l0.069,0.016l0.069,0.017l0.07,0.016l0.068,0.017l0.068,0.017l0.069,0.017l0.069,0.017l0.067,0.017l0.069,0.018l0.069,0.018l0.068,0.018l0.069,0.019l0.068,0.018l0.067,0.019l0.067,0.019l0.068,0.019l0.068,0.019l0.068,0.02l0.068,0.02l0.067,0.02l0.068,0.02l0.067,0.021l0.067,0.02l0.068,0.021l0.066,0.021l0.067,0.021l0.067,0.021l0.066,0.022l0.068,0.022l0.066,0.022l0.065,0.021l0.067,0.023l0.067,0.023l0.067,0.023l0.066,0.023l0.065,0.022l0.066,0.024l0.067,0.024l0.065,0.023l0.065,0.024l0.066,0.024l0.065,0.025l0.066,0.024l0.065,0.025l0.065,0.025l0.066,0.025l0.064,0.025l0.066,0.026l0.065,0.026l0.064,0.026l0.064,0.025l0.065,0.027l0.065,0.026l0.064,0.027l0.064,0.027l0.063,0.026l0.065,0.028l0.064,0.027l0.063,0.028l0.065,0.028l0.063,0.028l0.063,0.028l0.064,0.028l0.062,0.028l0.065,0.029l0.062,0.029l0.063,0.029l0.064,0.03l0.062,0.029l0.063,0.03l0.062,0.029l0.063,0.03l0.062,0.03l0.062,0.031l0.063,0.031l0.062,0.03l0.061,0.031l0.062,0.031l0.062,0.031l0.062,0.032l0.061,0.031l0.062,0.032l0.061,0.032l0.061,0.032l0.061,0.033l0.062,0.033l0.059,0.032l0.061,0.033l0.061,0.033l0.06,0.033l0.061,0.034l0.06,0.033l0.06,0.034l0.061,0.034l0.059,0.034l0.059,0.034l0.061,0.035l0.06,0.035l0.059,0.034l0.059,0.035l0.059,0.035l0.06,0.036l0.059,0.035l0.059,0.036l0.059,0.036l0.058,0.036l0.058,0.036l0.059,0.037l0.059,0.036l0.057,0.036l0.059,0.037l0.058,0.038l0.057,0.037l0.058,0.037l0.057,0.038l0.058,0.037l0.057,0.038l0.057,0.038l0.058,0.039l0.057,0.038l0.057,0.039l0.056,0.038l0.056,0.039l0.057,0.039l0.057,0.039l0.057,0.04l0.056,0.04l0.055,0.039l0.056,0.04l0.055,0.039l0.056,0.041l0.057,0.041l0.054,0.04l0.055,0.04l0.056,0.042l0.054,0.04l0.055,0.041l0.055,0.042l0.055,0.042l0.054,0.041l0.055,0.042l0.054,0.042l0.053,0.042l0.055,0.042l0.054,0.043l0.053,0.042l0.054,0.043l0.054,0.043l0.052,0.043l0.053,0.043l0.054,0.044l0.053,0.043l0.052,0.043l0.052,0.044l0.054,0.045l0.052,0.044l0.052,0.044l0.052,0.044l0.053,0.045l0.051,0.045l0.052,0.045l0.051,0.045l0.051,0.045l0.052,0.045l0.051,0.046l0.051,0.045l0.051,0.047l0.051,0.046l0.05,0.045l0.05,0.047l0.051,0.046l0.05,0.046l0.05,0.047l0.05,0.047l0.05,0.047l0.049,0.047l0.05,0.048l0.049,0.047l0.049,0.047l0.049,0.048l0.05,0.049l0.048,0.047l0.048,0.048l0.049,0.049l0.049,0.049l0.048,0.048l0.048,0.049l0.048,0.049l0.047,0.048l0.047,0.049l0.048,0.05l0.048,0.05l0.047,0.05l0.046,0.049l0.047,0.049l0.048,0.051l0.045,0.05l0.047,0.05l0.047,0.051l0.046,0.05l0.046,0.051l0.046,0.051l0.045,0.051l0.045,0.051l0.046,0.051l0.045,0.052l0.045,0.051l0.045,0.052l0.045,0.052l0.044,0.052l0.045,0.052l0.044,0.052l0.044,0.052l0.045,0.053l0.044,0.053l0.043,0.053l0.043,0.052l0.044,0.053l0.044,0.054l0.041,0.052l0.044,0.054l0.043,0.054l0.042,0.053l0.043,0.055l0.042,0.052l0.042,0.054l0.042,0.055l0.042,0.055l0.042,0.055l0.042,0.054l0.04,0.054l0.041,0.055l0.042,0.056l0.041,0.055l0.041,0.055l0.039,0.055l0.041,0.056l0.04,0.055l0.04,0.055l0.04,0.056l0.04,0.057l0.039,0.056l0.04,0.057l0.039,0.056l0.039,0.056l0.038,0.056l0.039,0.057l0.04,0.058l0.038,0.057l0.037,0.056l0.038,0.057l0.039,0.058l0.038,0.058l0.037,0.057l0.036,0.056l0.039,0.06l0.037,0.059l0.036,0.055l0.037,0.059l0.037,0.06l0.036,0.057l0.036,0.058l0.036,0.059l0.036,0.06l0.036,0.058l0.035,0.059l0.036,0.06l0.035,0.059l0.035,0.06l0.034,0.058l0.035,0.06l0.035,0.06l0.034,0.06l0.034,0.06l0.034,0.059l0.034,0.061l0.034,0.061l0.033,0.059l0.033,0.06l0.033,0.061l0.033,0.061l0.033,0.061l0.032,0.061l0.032,0.06l0.033,0.062l0.032,0.062l0.031,0.06l0.032,0.062l0.032,0.062l0.031,0.061l0.031,0.063l0.031,0.062l0.031,0.062l0.03,0.061l0.031,0.063l0.03,0.062l0.03,0.063l0.029,0.062l0.03,0.062l0.03,0.064l0.029,0.063l0.029,0.062l0.029,0.063l0.028,0.063l0.029,0.063l0.028,0.064l0.029,0.065l0.028,0.063l0.027,0.063l0.028,0.064l0.027,0.063l0.027,0.065l0.028,0.065l0.026,0.063l0.027,0.064l0.026,0.065l0.026,0.064l0.026,0.065l0.027,0.065l0.025,0.065l0.025,0.064l0.026,0.065l0.025,0.066l0.025,0.065l0.024,0.064l0.025,0.066l0.025,0.066l0.024,0.065l0.024,0.066l0.023,0.065l0.024,0.067l0.023,0.066l0.023,0.065l0.024,0.067l0.022,0.066l0.023,0.066l0.022,0.066l0.022,0.066l0.022,0.067l0.022,0.068l0.022,0.067l0.021,0.065l0.021,0.067l0.021,0.068l0.021,0.067l0.021,0.067l0.02,0.068l0.02,0.066l0.02,0.068l0.02,0.068l0.019,0.067l0.02,0.068l0.019,0.068l0.019,0.068l0.018,0.067l0.019,0.069l0.019,0.069l0.018,0.067l0.018,0.068l0.017,0.069l0.018,0.068l0.017,0.069l0.017,0.069l0.017,0.068l0.017,0.069l0.016,0.069l0.017,0.069l0.016,0.069l0.015,0.069l0.016,0.069l0.016,0.07l0.015,0.068l0.015,0.07l0.015,0.069l0.014,0.071l0.015,0.069l0.014,0.069l0.014,0.071l0.013,0.069l0.014,0.07l0.013,0.071l0.013,0.069l0.013,0.07l0.013,0.071l0.013,0.07l0.012,0.07l0.012,0.071l0.012,0.071l0.011,0.07l0.012,0.071l0.011,0.07l0.011,0.071l0.01,0.071l0.011,0.071l0.01,0.071l0.01,0.071l0.01,0.072l0.01,0.071l0.009,0.071l0.009,0.072l0.009,0.071l0.009,0.071l0.009,0.072l0.008,0.071l0.008,0.072l0.008,0.072l0.008,0.071l0.007,0.072l0.007,0.073l0.007,0.071l0.007,0.072l0.006,0.073l0.007,0.072l0.006,0.072l0.006,0.072l0.005,0.072l0.006,0.073l0.005,0.072l0.005,0.073l0.005,0.073l0.004,0.072l0.004,0.073l0.004,0.073l0.004,0.072l0.004,0.073l0.003,0.073l0.003,0.073l0.003,0.074l0.003,0.073l0.002,0.073l0.002,0.073l0.002,0.073l0.002,0.073l0.002,0.073l0.001,0.074l0.001,0.074l0.001,0.073l0,0.074l0.001,0.073l0,0.074l0,0.073l-0.001,0.074l0,0.074l-0.001,0.073l-0.001,0.073l-0.001,0.074l-0.002,0.074l-0.002,0.072l-0.002,0.074l-0.002,0.073l-0.002,0.073l-0.003,0.073l-0.003,0.073l-0.003,0.073l-0.003,0.073l-0.004,0.073l-0.004,0.073l-0.004,0.073l-0.004,0.072l-0.004,0.073l-0.005,0.073l-0.005,0.072l-0.005,0.073l-0.006,0.073l-0.005,0.071l-0.006,0.072l-0.006,0.073l-0.007,0.072l-0.006,0.073l-0.007,0.071l-0.007,0.072l-0.007,0.072l-0.007,0.072l-0.008,0.072l-0.008,0.071l-0.008,0.072l-0.008,0.072l-0.009,0.072l-0.009,0.071l-0.009,0.071l-0.009,0.072l-0.009,0.071l-0.01,0.071l-0.01,0.072l-0.01,0.07l-0.01,0.071l-0.011,0.072l-0.01,0.07l-0.011,0.071l-0.011,0.071l-0.012,0.07l-0.011,0.071l-0.012,0.071l-0.012,0.07l-0.012,0.07l-0.013,0.071l-0.013,0.07l-0.013,0.07l-0.013,0.07l-0.013,0.071l-0.014,0.07l-0.013,0.069l-0.014,0.07l-0.014,0.069l-0.015,0.07l-0.014,0.07l-0.015,0.07l-0.015,0.069l-0.015,0.069l-0.016,0.07l-0.016,0.069l-0.015,0.068l-0.016,0.07l-0.017,0.069l-0.016,0.069l-0.017,0.069l-0.017,0.068l-0.017,0.069l-0.017,0.069l-0.018,0.068l-0.017,0.068l-0.018,0.069l-0.018,0.067l-0.019,0.068l-0.018,0.069l-0.019,0.068l-0.019,0.068l-0.019,0.068l-0.02,0.068l-0.019,0.067l-0.02,0.067l-0.02,0.068l-0.02,0.067l-0.02,0.067l-0.021,0.068l-0.021,0.067l-0.021,0.066l-0.021,0.068l-0.021,0.067l-0.022,0.066l-0.022,0.067l-0.022,0.067l-0.022,0.067l-0.022,0.066l-0.023,0.065l-0.023,0.068l-0.022,0.065l-0.024,0.066l-0.023,0.067l-0.023,0.065l-0.024,0.066l-0.025,0.066l-0.023,0.065l-0.025,0.066l-0.024,0.064l-0.025,0.066l-0.025,0.065l-0.025,0.065l-0.026,0.066l-0.025,0.064l-0.025,0.065l-0.027,0.065l-0.026,0.064l-0.026,0.064l-0.026,0.065l-0.027,0.065l-0.026,0.063l-0.028,0.065l-0.027,0.063l-0.027,0.065l-0.028,0.064l-0.027,0.063l-0.029,0.064l-0.028,0.063l-0.028,0.064l-0.028,0.063l-0.029,0.063l-0.029,0.063l-0.029,0.063l-0.03,0.063l-0.029,0.062l-0.03,0.064l-0.03,0.063l-0.029,0.062l-0.03,0.061l-0.031,0.063l-0.03,0.062l-0.031,0.063l-0.031,0.061l-0.031,0.063l-0.031,0.061l-0.031,0.06l-0.032,0.063l-0.033,0.062l-0.032,0.061l-0.032,0.061l-0.032,0.06l-0.032,0.062l-0.033,0.06l-0.032,0.06l-0.034,0.062l-0.033,0.06l-0.033,0.06l-0.035,0.062l-0.033,0.059l-0.034,0.06l-0.034,0.06l-0.034,0.059l-0.035,0.061l-0.035,0.06l-0.034,0.058l-0.035,0.06l-0.035,0.059l-0.036,0.059l-0.035,0.059l-0.036,0.059l-0.036,0.059l-0.036,0.058l-0.036,0.06l-0.037,0.058l-0.036,0.057l-0.037,0.059l-0.037,0.058l-0.037,0.059l-0.037,0.057l-0.037,0.058l-0.038,0.058l-0.037,0.057l-0.039,0.058l-0.037,0.055l-0.038,0.058l-0.039,0.058l-0.039,0.057l-0.039,0.057l-0.038,0.056l-0.038,0.055l-0.04,0.057l-0.04,0.058l-0.039,0.055l-0.04,0.055l-0.04,0.058l-0.041,0.055l-0.039,0.055l-0.04,0.055l-0.04,0.055l-0.042,0.057l-0.04,0.054l-0.042,0.056l-0.041,0.055l-0.04,0.053l-0.042,0.055l-0.042,0.055l-0.042,0.054l-0.042,0.055l-0.041,0.053l-0.043,0.054l-0.044,0.056l-0.041,0.052l-0.042,0.053l-0.045,0.055l-0.043,0.053l-0.042,0.052l-0.044,0.053l-0.043,0.053l-0.044,0.053l-0.044,0.053l-0.044,0.053l-0.043,0.051l-0.045,0.052l-0.045,0.054l-0.044,0.051l-0.045,0.052l-0.045,0.051l-0.045,0.052l-0.045,0.052l-0.046,0.051l-0.045,0.051l-0.045,0.05l-0.046,0.051l-0.047,0.052l-0.046,0.05l-0.045,0.05l-0.047,0.05l-0.046,0.051l-0.048,0.051l-0.047,0.05l-0.046,0.048l-0.047,0.05l-0.048,0.049l-0.047,0.05l-0.048,0.049l-0.047,0.049l-0.048,0.049l-0.048,0.049l-0.048,0.048l-0.05,0.05l-0.048,0.048l-0.048,0.047l-0.048,0.048l-0.049,0.048l-0.049,0.048l-0.051,0.048l-0.049,0.048l-0.048,0.046l-0.049,0.047l-0.051,0.048l-0.05,0.047l-0.05,0.046l-0.05,0.046l-0.051,0.047l-0.05,0.046l-0.05,0.046l-0.051,0.046l-0.05,0.046l-0.053,0.047l-0.051,0.045l-0.051,0.045l-0.051,0.045l-0.051,0.045l-0.052,0.045l-0.051,0.044l-0.052,0.045l-0.053,0.045l-0.053,0.044l-0.05,0.043l-0.054,0.045l-0.054,0.045l-0.051,0.042l-0.052,0.043l-0.055,0.045l-0.053,0.043l-0.052,0.043l-0.055,0.044l-0.053,0.042l-0.052,0.041l-0.055,0.044l-0.055,0.043l-0.052,0.04l-0.054,0.042l-0.056,0.043l-0.054,0.041l-0.056,0.043l-0.054,0.041l-0.055,0.041l-0.054,0.04l-0.055,0.041l-0.056,0.041l-0.055,0.04l-0.055,0.04l-0.057,0.041l-0.055,0.04l-0.056,0.04l-0.055,0.039l-0.055,0.039l-0.058,0.04l-0.058,0.04l-0.056,0.039l-0.056,0.039l-0.056,0.038l-0.056,0.038l-0.058,0.039l-0.059,0.039l-0.056,0.038l-0.057,0.037l-0.058,0.039l-0.057,0.037l-0.058,0.037l-0.057,0.037l-0.058,0.037l-0.058,0.037l-0.057,0.036l-0.06,0.037l-0.06,0.038l-0.057,0.035l-0.058,0.036l-0.06,0.036l-0.058,0.035l-0.058,0.035l-0.061,0.036l-0.06,0.036l-0.058,0.035l-0.059,0.034l-0.059,0.034l-0.061,0.035l-0.061,0.035l-0.058,0.034l-0.061,0.034l-0.06,0.033l-0.059,0.034l-0.062,0.034l-0.059,0.032l-0.062,0.034l-0.062,0.033l-0.059,0.032l-0.06,0.032l-0.062,0.033l-0.062,0.033l-0.06,0.031l-0.061,0.032l-0.062,0.032l-0.063,0.032l-0.06,0.03l-0.063,0.032l-0.061,0.03l-0.061,0.031l-0.065,0.032l-0.061,0.029l-0.061,0.03l-0.064,0.03l-0.063,0.031l-0.062,0.029l-0.063,0.03l-0.064,0.029l-0.062,0.029l-0.061,0.028l-0.065,0.029l-0.063,0.029l-0.063,0.028l-0.064,0.028l-0.064,0.028l-0.065,0.029l-0.062,0.026l-0.063,0.027l-0.064,0.028l-0.065,0.027l-0.065,0.027l-0.063,0.026l-0.065,0.027l-0.065,0.027l-0.064,0.025l-0.065,0.026l-0.063,0.025l-0.066,0.026l-0.065,0.026l-0.066,0.025l-0.066,0.025l-0.064,0.024l-0.066,0.025l-0.066,0.025l-0.064,0.023l-0.066,0.024l-0.066,0.024l-0.064,0.023l-0.067,0.024l-0.066,0.023l-0.067,0.023l-0.067,0.023l-0.065,0.022l-0.066,0.023l-0.067,0.022l-0.067,0.022l-0.068,0.022l-0.065,0.021l-0.067,0.022l-0.067,0.021l-0.065,0.02l-0.068,0.021l-0.07,0.022l-0.065,0.02l-0.066,0.019l-0.07,0.021l-0.068,0.02l-0.065,0.019l-0.069,0.019l-0.07,0.02l-0.066,0.019l-0.066,0.018l-0.071,0.019l-0.068,0.019l-0.066,0.017l-0.069,0.018l-0.071,0.019l-0.066,0.016l-0.069,0.018l-0.069,0.017l-0.066,0.016l-0.072,0.018l-0.069,0.016l-0.069,0.017l-0.067,0.015l-0.069,0.016l-0.072,0.016l-0.067,0.015l-0.069,0.016l-0.07,0.015l-0.07,0.014l-0.069,0.015l-0.07,0.014l-0.07,0.015l-0.07,0.014l-0.069,0.013l-0.07,0.014l-0.07,0.013l-0.071,0.013l-0.07,0.013l-0.07,0.013l-0.07,0.012l-0.071,0.013l-0.07,0.012l-0.071,0.011l-0.07,0.012l-0.071,0.011l-0.07,0.011l-0.071,0.011l-0.073,0.011l-0.069,0.011l-0.071,0.01l-0.073,0.01l-0.069,0.01l-0.071,0.009l-0.073,0.01l-0.071,0.009l-0.071,0.009l-0.072,0.009l-0.071,0.008l-0.071,0.009l-0.072,0.008l-0.071,0.008l-0.072,0.007l-0.074,0.008l-0.071,0.007l-0.07,0.007l-0.074,0.007l-0.072,0.006l-0.071,0.007l-0.075,0.006l-0.069,0.005l-0.072,0.006l-0.075,0.006l-0.072,0.005l-0.072,0.005l-0.074,0.004l-0.073,0.005l-0.069,0.004l-0.075,0.004l-0.075,0.004l-0.07,0.003l-0.072,0.004l-0.075,0.003l-0.073,0.003l-0.072,0.003l-0.075,0.002l-0.073,0.002l-0.07,0.002l-0.075,0.002l-0.075,0.001l-0.071,0.002l-0.075,0.001l-0.075,0.001l-0.071,0l-0.073,0.001l-0.075,0l-0.075,0l-0.073,-0.001l-0.071,0l-0.075,-0.001l-0.075,-0.001l-0.071,-0.002l-0.075,-0.001l-0.075,-0.002l-0.07,-0.002l-0.073,-0.002l-0.075,-0.002l-0.072,-0.003l-0.073,-0.003l-0.075,-0.003l-0.072,-0.004l-0.07,-0.003l-0.075,-0.004l-0.075,-0.004l-0.069,-0.004l-0.073,-0.005l-0.074,-0.004l-0.072,-0.005l-0.072,-0.005l-0.075,-0.006l-0.072,-0.006l-0.069,-0.005l-0.075,-0.006l-0.143,-0.013l-0.074,-0.007l-0.069,-0.007l-0.072,-0.007l-0.074,-0.008l-0.072,-0.007l-0.071,-0.008l-0.072,-0.008l-0.071,-0.009l-0.071,-0.008l-0.071,-0.009l-0.072,-0.009l-0.071,-0.009l-0.073,-0.01l-0.071,-0.009l-0.069,-0.01l-0.073,-0.01l-0.071,-0.01l-0.069,-0.011l-0.073,-0.011l-0.07,-0.011l-0.071,-0.011l-0.071,-0.011l-0.07,-0.012l-0.071,-0.011l-0.07,-0.012l-0.07,-0.013l-0.071,-0.012l-0.07,-0.013l-0.07,-0.013l-0.07,-0.013l-0.07,-0.013l-0.07,-0.014l-0.07,-0.013l-0.07,-0.014l-0.07,-0.015l-0.07,-0.014l-0.069,-0.015l-0.07,-0.014l-0.07,-0.015l-0.069,-0.016l-0.067,-0.015l-0.072,-0.016l-0.069,-0.016l-0.067,-0.015l-0.069,-0.017l-0.069,-0.016l-0.071,-0.018l-0.067,-0.016l-0.069,-0.017l-0.069,-0.018l-0.066,-0.016l-0.071,-0.019l-0.069,-0.018l-0.066,-0.017l-0.068,-0.019l-0.071,-0.019l-0.066,-0.018l-0.066,-0.019l-0.07,-0.02l-0.068,-0.019l-0.066,-0.019l-0.068,-0.02l-0.07,-0.021l-0.066,-0.019l-0.065,-0.02l-0.07,-0.022l-0.067,-0.021l-0.066,-0.02l-0.067,-0.021l-0.067,-0.022l-0.065,-0.021l-0.067,-0.022l-0.068,-0.022l-0.067,-0.022l-0.066,-0.023l-0.065,-0.022l-0.067,-0.023l-0.066,-0.023l-0.067,-0.023l-0.067,-0.024l-0.064,-0.023l-0.066,-0.024l-0.066,-0.024l-0.064,-0.023l-0.066,-0.025l-0.066,-0.025l-0.064,-0.024l-0.066,-0.025l-0.066,-0.025l-0.065,-0.026l-0.066,-0.026l-0.063,-0.025l-0.065,-0.026l-0.064,-0.025l-0.065,-0.027l-0.065,-0.027l-0.063,-0.026l-0.065,-0.027l-0.064,-0.027l-0.065,-0.028l-0.063,-0.027l-0.062,-0.026l-0.065,-0.028l-0.064,-0.029l-0.064,-0.028l-0.062,-0.028l-0.065,-0.029l-0.063,-0.029l-0.062,-0.028l-0.062,-0.029l-0.064,-0.029l-0.063,-0.03l-0.062,-0.029l-0.063,-0.031l-0.064,-0.03l-0.061,-0.03l-0.061,-0.029l-0.065,-0.032l-0.061,-0.031l-0.061,-0.03l-0.062,-0.032l-0.061,-0.03l-0.063,-0.032l-0.062,-0.032l-0.06,-0.032l-0.06,-0.031l-0.063,-0.033l-0.062,-0.033l-0.06,-0.032l-0.06,-0.032l-0.061,-0.033l-0.062,-0.034l-0.059,-0.032l-0.062,-0.034l-0.059,-0.034l-0.059,-0.033l-0.061,-0.034l-0.059,-0.034l-0.061,-0.035l-0.061,-0.035l-0.059,-0.034l-0.058,-0.034l-0.059,-0.035l-0.06,-0.036l-0.06,-0.036l-0.059,-0.035l-0.058,-0.035l-0.06,-0.036l-0.058,-0.036l-0.057,-0.036l-0.06,-0.037l-0.059,-0.037l-0.058,-0.036l-0.057,-0.037l-0.059,-0.037l-0.057,-0.037l-0.057,-0.037l-0.057,-0.037l-0.059,-0.039l-0.057,-0.037l-0.056,-0.038l-0.059,-0.039l-0.058,-0.039l-0.056,-0.038l-0.056,-0.038l-0.056,-0.039l-0.056,-0.039l-0.058,-0.04l-0.057,-0.04l-0.056,-0.039l-0.055,-0.039l-0.056,-0.04l-0.055,-0.04l-0.057,-0.041l-0.055,-0.04l-0.055,-0.04l-0.056,-0.041l-0.055,-0.041l-0.054,-0.041l-0.055,-0.041l-0.054,-0.04l-0.056,-0.043l-0.054,-0.041l-0.056,-0.043l-0.053,-0.042l-0.052,-0.04l-0.056,-0.043l-0.055,-0.044l-0.052,-0.041l-0.053,-0.042l-0.054,-0.044l-0.053,-0.043l-0.053,-0.043l-0.054,-0.044l-0.053,-0.044l-0.051,-0.042l-0.054,-0.045l-0.054,-0.045l-0.05,-0.043l-0.052,-0.044l-0.054,-0.045l-0.051,-0.045l-0.052,-0.044l-0.051,-0.045l-0.052,-0.045l-0.051,-0.045l-0.051,-0.045l-0.051,-0.046l-0.052,-0.046l-0.051,-0.046l-0.051,-0.046l-0.05,-0.046l-0.05,-0.046l-0.051,-0.046l-0.05,-0.047l-0.05,-0.046l-0.049,-0.047l-0.051,-0.048l-0.05,-0.047l-0.048,-0.046l-0.049,-0.048l-0.051,-0.048l-0.049,-0.048l-0.049,-0.048l-0.048,-0.048l-0.047,-0.047l-0.049,-0.048l-0.05,-0.05l-0.048,-0.048l-0.048,-0.049l-0.048,-0.049l-0.047,-0.049l-0.048,-0.049l-0.047,-0.05l-0.048,-0.049l-0.047,-0.05l-0.046,-0.048l-0.047,-0.05l-0.047,-0.051l-0.047,-0.051l-0.047,-0.05l-0.045,-0.049l-0.046,-0.051l-0.047,-0.052l-0.046,-0.051l-0.045,-0.05l-0.045,-0.051l-0.046,-0.051l-0.045,-0.052l-0.045,-0.052l-0.045,-0.051l-0.045,-0.052l-0.044,-0.051l-0.045,-0.054l-0.045,-0.052l-0.043,-0.051l-0.044,-0.053l-0.044,-0.053l-0.044,-0.053l-0.044,-0.053l-0.043,-0.053l-0.042,-0.052l-0.044,-0.054l-0.044,-0.054l-0.041,-0.053l-0.042,-0.053l-0.044,-0.055l-0.042,-0.054l-0.042,-0.053l-0.042,-0.055l-0.042,-0.054l-0.042,-0.055l-0.041,-0.055l-0.041,-0.053l-0.041,-0.055l-0.041,-0.056l-0.041,-0.054l-0.041,-0.057l-0.041,-0.055l-0.04,-0.055l-0.039,-0.055l-0.041,-0.056l-0.041,-0.057l-0.039,-0.055l-0.038,-0.055l-0.041,-0.058l-0.039,-0.057l-0.039,-0.056l-0.038,-0.055l-0.039,-0.057l-0.039,-0.057l-0.038,-0.058l-0.039,-0.057l-0.037,-0.057l-0.039,-0.057l-0.037,-0.057l-0.038,-0.058l-0.037,-0.058l-0.037,-0.057l-0.037,-0.058l-0.037,-0.059l-0.037,-0.058l-0.036,-0.058l-0.037,-0.059l-0.036,-0.059l-0.036,-0.058l-0.036,-0.059l-0.035,-0.058l-0.036,-0.06l-0.036,-0.059l-0.034,-0.059l-0.036,-0.06l-0.034,-0.058l-0.035,-0.06l-0.035,-0.061l-0.034,-0.059l-0.034,-0.06l-0.034,-0.06l-0.033,-0.059l-0.035,-0.062l-0.033,-0.06l-0.033,-0.06l-0.033,-0.062l-0.033,-0.06l-0.032,-0.06l-0.033,-0.062l-0.032,-0.06l-0.032,-0.061l-0.032,-0.061l-0.032,-0.062l-0.032,-0.062l-0.031,-0.061l-0.032,-0.062l-0.031,-0.062l-0.031,-0.061l-0.03,-0.063l-0.031,-0.062l-0.03,-0.062l-0.03,-0.062l-0.03,-0.062l-0.03,-0.063l-0.03,-0.064l-0.029,-0.062l-0.03,-0.063l-0.029,-0.063l-0.028,-0.062l-0.029,-0.064l-0.029,-0.063l-0.028,-0.064l-0.028,-0.063l-0.028,-0.064l-0.028,-0.064l-0.028,-0.063l-0.027,-0.064l-0.027,-0.064l-0.027,-0.065l-0.027,-0.064l-0.027,-0.064l-0.026,-0.064l-0.026,-0.065l-0.026,-0.064l-0.026,-0.065l-0.026,-0.065l-0.025,-0.064l-0.026,-0.066l-0.025,-0.065l-0.025,-0.065l-0.025,-0.065l-0.024,-0.065l-0.025,-0.067l-0.023,-0.064l-0.024,-0.066l-0.025,-0.067l-0.023,-0.064l-0.023,-0.067l-0.023,-0.066l-0.023,-0.065l-0.023,-0.067l-0.023,-0.067l-0.022,-0.066l-0.022,-0.067l-0.022,-0.066l-0.022,-0.066l-0.021,-0.067l-0.022,-0.067l-0.021,-0.067l-0.021,-0.067l-0.021,-0.068l-0.02,-0.067l-0.021,-0.066l-0.02,-0.068l-0.02,-0.068l-0.02,-0.067l-0.019,-0.067l-0.02,-0.068l-0.019,-0.068l-0.019,-0.068l-0.019,-0.068l-0.018,-0.069l-0.018,-0.068l-0.018,-0.067l-0.018,-0.069l-0.018,-0.068l-0.018,-0.068l-0.017,-0.069l-0.017,-0.069l-0.017,-0.068l-0.017,-0.069l-0.016,-0.069l-0.016,-0.069l-0.017,-0.07l-0.015,-0.068l-0.016,-0.069l-0.015,-0.07l-0.016,-0.069l-0.015,-0.069l-0.015,-0.07l-0.014,-0.07l-0.014,-0.069l-0.015,-0.07l-0.014,-0.07l-0.013,-0.07l-0.014,-0.07l-0.013,-0.07l-0.013,-0.069l-0.013,-0.071l-0.013,-0.07l-0.012,-0.071l-0.013,-0.07l-0.012,-0.07l-0.011,-0.071l-0.012,-0.071l-0.011,-0.07l-0.012,-0.071l-0.01,-0.07l-0.011,-0.071l-0.011,-0.072l-0.01,-0.071l-0.01,-0.07l-0.01,-0.072l-0.01,-0.071l-0.009,-0.071l-0.009,-0.072l-0.009,-0.071l-0.009,-0.071l-0.009,-0.072l-0.008,-0.072l-0.008,-0.071l-0.008,-0.072l-0.007,-0.072l-0.008,-0.072l-0.007,-0.072l-0.007,-0.072l-0.007,-0.072l-0.006,-0.072l-0.007,-0.072l-0.006,-0.072l-0.006,-0.073l-0.005,-0.072l-0.006,-0.072l-0.005,-0.073l-0.005,-0.072l-0.004,-0.073l-0.005,-0.073l-0.004,-0.072l-0.004,-0.073l-0.004,-0.073l-0.004,-0.073l-0.003,-0.073l-0.003,-0.073l-0.003,-0.073l-0.003,-0.073l-0.002,-0.073l-0.002,-0.073l-0.002,-0.073l-0.002,-0.074l-0.002,-0.073l-0.001,-0.073l-0.001,-0.074l-0.001,-0.074l0,-0.073l-0.001,-0.073l0,-0.074l0,-0.074l0.001,-0.073l0,-0.074l0.001,-0.074l0.001,-0.073l0.001,-0.073l0.002,-0.074l0.002,-0.073l0.002,-0.073l0.002,-0.073l0.002,-0.074l0.003,-0.072l0.003,-0.074l0.003,-0.073l0.003,-0.073l0.004,-0.072l0.004,-0.073l0.004,-0.073l0.004,-0.073l0.005,-0.072l0.004,-0.073l0.005,-0.073l0.005,-0.072l0.006,-0.072l0.005,-0.073l0.006,-0.072l0.006,-0.072l0.007,-0.072l0.006,-0.073l0.007,-0.072l0.007,-0.072l0.007,-0.072l0.008,-0.071l0.007,-0.072l0.008,-0.072l0.008,-0.072l0.008,-0.071l0.009,-0.072l0.009,-0.071l0.009,-0.072l0.009,-0.071l0.009,-0.071l0.01,-0.071l0.01,-0.072l0.01,-0.071l0.01,-0.071l0.011,-0.071l0.011,-0.071l0.01,-0.07l0.012,-0.071l0.011,-0.071l0.012,-0.07l0.011,-0.071l0.012,-0.071l0.013,-0.07l0.012,-0.07l0.013,-0.071l0.013,-0.07l0.013,-0.07l0.013,-0.07l0.014,-0.07l0.013,-0.069l0.014,-0.071l0.015,-0.069l0.014,-0.07l0.014,-0.069l0.015,-0.07l0.015,-0.07l0.016,-0.069l0.015,-0.068l0.015,-0.069l0.016,-0.07l0.017,-0.069l0.016,-0.069l0.016,-0.069l0.017,-0.069l0.017,-0.068l0.017,-0.069l0.017,-0.069l0.018,-0.068l0.018,-0.069l0.018,-0.068l0.018,-0.068l0.018,-0.068l0.019,-0.069l0.018,-0.067l0.019,-0.068l0.019,-0.068l0.02,-0.067l0.019,-0.069l0.02,-0.067l0.02,-0.067l0.02,-0.068l0.021,-0.067l0.02,-0.067l0.021,-0.067l0.021,-0.068l0.021,-0.067l0.021,-0.065l0.022,-0.067l0.022,-0.067l0.022,-0.068l0.022,-0.066l0.022,-0.066l0.023,-0.066l0.023,-0.066l0.023,-0.067l0.023,-0.066l0.023,-0.065l0.024,-0.066l0.024,-0.066l0.023,-0.066l0.024,-0.065l0.025,-0.066l0.025,-0.066l0.024,-0.064l0.025,-0.065l0.025,-0.066l0.026,-0.065l0.025,-0.065l0.026,-0.064l0.026,-0.065l0.026,-0.065l0.026,-0.064l0.026,-0.065l0.027,-0.064l0.027,-0.064l0.027,-0.064l0.027,-0.065l0.027,-0.063l0.028,-0.064l0.028,-0.063l0.027,-0.063l0.029,-0.064l0.028,-0.064l0.029,-0.064l0.029,-0.063l0.028,-0.063l0.029,-0.062l0.029,-0.063l0.03,-0.064l0.03,-0.062l0.029,-0.062l0.031,-0.063l0.03,-0.062l0.03,-0.063l0.031,-0.061l0.03,-0.062l0.031,-0.062l0.031,-0.063l0.032,-0.061l0.031,-0.062l0.032,-0.062l0.031,-0.06l0.032,-0.062l0.033,-0.061l0.032,-0.061l0.033,-0.061l0.032,-0.061l0.033,-0.061l0.033,-0.061l0.033,-0.06l0.033,-0.059l0.034,-0.061l0.034,-0.061l0.034,-0.059l0.034,-0.061l0.034,-0.059l0.035,-0.06l0.035,-0.06l0.034,-0.059l0.036,-0.06l0.034,-0.058l0.036,-0.06l0.036,-0.059l0.035,-0.058l0.036,-0.06l0.036,-0.059l0.036,-0.058l0.036,-0.057l0.037,-0.06l0.037,-0.059l0.036,-0.056l0.037,-0.058l0.039,-0.059l0.036,-0.057l0.037,-0.057l0.038,-0.058l0.039,-0.058l0.038,-0.057l0.038,-0.056l0.037,-0.057l0.04,-0.058l0.039,-0.057l0.038,-0.056l0.039,-0.057l0.039,-0.055l0.04,-0.057l0.039,-0.056l0.04,-0.057l0.04,-0.056l0.04,-0.054l0.04,-0.056l0.041,-0.056l0.04,-0.055l0.04,-0.055l0.042,-0.056l0.041,-0.055l0.041,-0.055l0.041,-0.054l0.041,-0.055l0.042,-0.054l0.042,-0.055l0.042,-0.054l0.043,-0.055l0.041,-0.052l0.043,-0.054l0.043,-0.055l0.042,-0.053l0.043,-0.054l0.043,-0.052l0.044,-0.054l0.043,-0.053l0.043,-0.053l0.043,-0.052l0.044,-0.053l0.045,-0.053l0.044,-0.052l0.044,-0.052l0.045,-0.053l0.044,-0.051l0.045,-0.052l0.045,-0.052l0.045,-0.051l0.045,-0.052l0.046,-0.051l0.045,-0.051l0.046,-0.051l0.046,-0.051l0.045,-0.051l0.047,-0.05l0.046,-0.051l0.047,-0.05l0.046,-0.05l0.047,-0.051l0.047,-0.049l0.046,-0.049l0.047,-0.05l0.048,-0.05l0.048,-0.05l0.047,-0.049l0.047,-0.048l0.048,-0.049l0.048,-0.049l0.048,-0.048l0.049,-0.049l0.049,-0.049l0.048,-0.047l0.048,-0.048l0.05,-0.049l0.049,-0.047l0.049,-0.048l0.049,-0.047l0.05,-0.048l0.049,-0.047l0.05,-0.047l0.05,-0.047l0.05,-0.046l0.05,-0.047l0.051,-0.046l0.05,-0.046l0.05,-0.046l0.051,-0.046l0.051,-0.047l0.051,-0.045l0.051,-0.046l0.052,-0.045l0.051,-0.045l0.052,-0.045l0.051,-0.045l0.052,-0.045l0.052,-0.045l0.053,-0.045l0.051,-0.043l0.052,-0.044l0.054,-0.045l0.052,-0.044l0.052,-0.043l0.053,-0.043l0.054,-0.044l0.053,-0.043l0.053,-0.043l0.053,-0.043l0.054,-0.043l0.053,-0.042l0.054,-0.043l0.055,-0.042l0.053,-0.042l0.054,-0.042l0.055,-0.042l0.054,-0.042l0.055,-0.041l0.055,-0.042l0.055,-0.041l0.054,-0.04l0.056,-0.042l0.054,-0.04l0.055,-0.04l0.057,-0.041l0.056,-0.041l0.055,-0.039l0.056,-0.04l0.055,-0.039l0.057,-0.04l0.056,-0.04l0.057,-0.039l0.057,-0.039l0.056,-0.039l0.056,-0.038l0.057,-0.039l0.057,-0.038l0.058,-0.039l0.057,-0.038l0.057,-0.038l0.058,-0.037l0.057,-0.038l0.058,-0.037l0.058,-0.037l0.058,-0.038l0.058,-0.037l0.058,-0.036l0.058,-0.037l0.059,-0.036l0.058,-0.036l0.058,-0.036l0.059,-0.036l0.059,-0.036l0.059,-0.035l0.06,-0.036l0.059,-0.035l0.06,-0.035l0.058,-0.034l0.06,-0.035l0.061,-0.035l0.059,-0.034l0.06,-0.034l0.06,-0.034l0.06,-0.034l0.06,-0.033l0.061,-0.034l0.06,-0.033l0.061,-0.033l0.06,-0.033l0.06,-0.032l0.062,-0.033l0.061,-0.033l0.062,-0.032l0.061,-0.032l0.061,-0.032l0.061,-0.031l0.062,-0.032l0.063,-0.031l0.061,-0.031l0.061,-0.031l0.062,-0.03l0.063,-0.031l0.062,-0.031l0.062,-0.03l0.063,-0.03l0.062,-0.029l0.063,-0.03l0.062,-0.029l0.064,-0.03l0.063,-0.029l0.063,-0.029l0.064,-0.029l0.063,-0.028l0.063,-0.028l0.063,-0.028l0.063,-0.028l0.065,-0.028l0.063,-0.028l0.064,-0.027l0.065,-0.028l0.063,-0.027l0.064,-0.026l0.064,-0.027l0.065,-0.026l0.065,-0.027l0.064,-0.025l0.064,-0.026l0.065,-0.026l0.066,-0.026l0.064,-0.025l0.066,-0.025l0.065,-0.025l0.065,-0.025l0.066,-0.024l0.065,-0.025l0.066,-0.024l0.065,-0.024l0.065,-0.023l0.067,-0.024l0.066,-0.024l0.066,-0.022l0.065,-0.023l0.067,-0.023l0.067,-0.023l0.067,-0.023l0.065,-0.021l0.066,-0.022l0.068,-0.022l0.066,-0.022l0.067,-0.021l0.067,-0.021l0.067,-0.021l0.067,-0.021l0.067,-0.02l0.067,-0.021l0.068,-0.02l0.067,-0.02l0.068,-0.02l0.068,-0.02l0.068,-0.019l0.068,-0.019l0.067,-0.019l0.067,-0.019l0.069,-0.018l0.068,-0.019l0.069,-0.018l0.068,-0.018l0.069,-0.018l0.067,-0.017l0.069,-0.017l0.069,-0.017l0.068,-0.017l0.069,-0.017l0.069,-0.016l0.069,-0.017l0.069,-0.016l0.069,-0.016l0.07,-0.015l0.069,-0.016l0.07,-0.015l0.068,-0.015l0.07,-0.015l0.069,-0.014l0.07,-0.015l0.07,-0.014l0.07,-0.014l0.07,-0.014l0.07,-0.013l0.07,-0.013l0.07,-0.014l0.07,-0.012l0.07,-0.013l0.071,-0.013l0.069,-0.012l0.071,-0.012l0.071,-0.012l0.07,-0.011l0.072,-0.012l0.07,-0.011l0.07,-0.011l0.072,-0.011l0.07,-0.01l0.071,-0.01l0.072,-0.01l0.071,-0.01l0.071,-0.01l0.071,-0.009l0.071,-0.009l0.073,-0.01l0.071,-0.008l0.071,-0.009l0.071,-0.008l0.072,-0.008l0.073,-0.008l0.071,-0.008l0.072,-0.007l0.071,-0.007l0.072,-0.007l0.073,-0.007l0.072,-0.006l0.071,-0.007l0.074,-0.006l0.072,-0.006l0.071,-0.005l0.074,-0.006l0.072,-0.005l0.072,-0.005l0.073,-0.005l0.072,-0.004l0.073,-0.004l0.073,-0.004l0.074,-0.004l0.072,-0.004l0.072,-0.003l0.073,-0.003l0.074,-0.003l0.073,-0.003l0.073,-0.002l0.073,-0.002l0.072,-0.002l0.074,-0.002l0.074,-0.002l0.073,-0.001l0.074,-0.001l0.074,-0.001l0.073,0l0.073,-0.001l0.074,0l0.074,0Zm-0.14,2.5l-0.065,0l-0.066,0.001l-0.066,0.001l-0.065,0.001l-0.066,0.001l-0.065,0.001l-0.065,0.002l-0.066,0.001l-0.065,0.002l-0.065,0.003l-0.065,0.002l-0.065,0.003l-0.066,0.002l-0.065,0.003l-0.065,0.004l-0.064,0.003l-0.065,0.004l-0.065,0.003l-0.065,0.004l-0.064,0.005l-0.065,0.004l-0.065,0.005l-0.064,0.004l-0.065,0.005l-0.064,0.006l-0.064,0.005l-0.065,0.006l-0.064,0.005l-0.064,0.006l-0.064,0.007l-0.064,0.006l-0.064,0.007l-0.064,0.007l-0.064,0.007l-0.064,0.007l-0.064,0.007l-0.064,0.008l-0.063,0.008l-0.064,0.008l-0.063,0.008l-0.064,0.008l-0.063,0.009l-0.064,0.008l-0.063,0.009l-0.063,0.01l-0.063,0.009l-0.063,0.01l-0.063,0.009l-0.063,0.01l-0.063,0.01l-0.063,0.011l-0.063,0.01l-0.063,0.011l-0.062,0.011l-0.063,0.011l-0.062,0.011l-0.063,0.012l-0.062,0.011l-0.063,0.012l-0.062,0.012l-0.062,0.012l-0.062,0.013l-0.062,0.012l-0.062,0.013l-0.062,0.013l-0.062,0.013l-0.062,0.014l-0.061,0.013l-0.062,0.014l-0.062,0.014l-0.061,0.014l-0.061,0.014l-0.062,0.015l-0.061,0.015l-0.061,0.014l-0.061,0.015l-0.062,0.016l-0.06,0.015l-0.061,0.016l-0.061,0.015l-0.061,0.016l-0.061,0.016l-0.06,0.017l-0.061,0.016l-0.06,0.017l-0.061,0.017l-0.06,0.017l-0.06,0.017l-0.06,0.018l-0.061,0.017l-0.06,0.018l-0.06,0.018l-0.059,0.018l-0.06,0.018l-0.06,0.019l-0.06,0.018l-0.059,0.019l-0.06,0.019l-0.059,0.019l-0.059,0.02l-0.059,0.019l-0.06,0.02l-0.059,0.02l-0.059,0.02l-0.059,0.02l-0.058,0.021l-0.059,0.02l-0.059,0.021l-0.058,0.021l-0.059,0.021l-0.058,0.022l-0.059,0.021l-0.058,0.022l-0.058,0.022l-0.058,0.022l-0.058,0.022l-0.058,0.022l-0.058,0.023l-0.058,0.022l-0.057,0.023l-0.058,0.023l-0.057,0.023l-0.058,0.024l-0.057,0.023l-0.057,0.024l-0.057,0.024l-0.057,0.024l-0.057,0.024l-0.057,0.024l-0.057,0.025l-0.057,0.025l-0.056,0.025l-0.057,0.025l-0.056,0.025l-0.057,0.025l-0.056,0.026l-0.056,0.025l-0.056,0.026l-0.056,0.026l-0.056,0.027l-0.056,0.026l-0.055,0.026l-0.056,0.027l-0.055,0.027l-0.056,0.027l-0.055,0.027l-0.055,0.028l-0.055,0.027l-0.055,0.028l-0.055,0.028l-0.055,0.028l-0.055,0.028l-0.055,0.028l-0.054,0.029l-0.055,0.028l-0.054,0.029l-0.054,0.029l-0.054,0.029l-0.054,0.029l-0.054,0.03l-0.054,0.029l-0.054,0.03l-0.054,0.03l-0.053,0.03l-0.054,0.03l-0.053,0.031l-0.053,0.03l-0.054,0.031l-0.053,0.031l-0.053,0.031l-0.052,0.031l-0.053,0.031l-0.053,0.032l-0.052,0.031l-0.053,0.032l-0.052,0.032l-0.052,0.032l-0.053,0.032l-0.052,0.033l-0.052,0.032l-0.051,0.033l-0.052,0.033l-0.052,0.033l-0.051,0.033l-0.052,0.033l-0.051,0.034l-0.051,0.033l-0.051,0.034l-0.051,0.034l-0.051,0.034l-0.051,0.034l-0.05,0.035l-0.051,0.034l-0.05,0.035l-0.051,0.034l-0.05,0.035l-0.05,0.035l-0.05,0.036l-0.05,0.035l-0.05,0.036l-0.049,0.035l-0.05,0.036l-0.049,0.036l-0.05,0.036l-0.049,0.036l-0.049,0.037l-0.049,0.036l-0.049,0.037l-0.049,0.037l-0.048,0.037l-0.049,0.037l-0.048,0.037l-0.048,0.037l-0.049,0.038l-0.048,0.038l-0.048,0.037l-0.048,0.038l-0.047,0.039l-0.048,0.038l-0.047,0.038l-0.048,0.039l-0.047,0.038l-0.047,0.039l-0.047,0.039l-0.047,0.039l-0.047,0.039l-0.046,0.04l-0.047,0.039l-0.046,0.04l-0.047,0.039l-0.046,0.04l-0.046,0.04l-0.046,0.04l-0.046,0.041l-0.045,0.04l-0.046,0.041l-0.045,0.04l-0.046,0.041l-0.045,0.041l-0.045,0.041l-0.045,0.042l-0.045,0.041l-0.044,0.041l-0.045,0.042l-0.045,0.042l-0.044,0.042l-0.044,0.042l-0.044,0.042l-0.044,0.042l-0.044,0.043l-0.044,0.042l-0.043,0.043l-0.044,0.043l-0.043,0.043l-0.043,0.043l-0.043,0.043l-0.043,0.043l-0.043,0.044l-0.043,0.043l-0.042,0.044l-0.043,0.044l-0.042,0.044l-0.042,0.044l-0.042,0.044l-0.042,0.044l-0.042,0.045l-0.041,0.044l-0.042,0.045l-0.041,0.045l-0.041,0.045l-0.042,0.045l-0.04,0.045l-0.041,0.045l-0.041,0.046l-0.041,0.045l-0.04,0.046l-0.04,0.046l-0.04,0.046l-0.04,0.046l-0.04,0.046l-0.04,0.046l-0.04,0.047l-0.039,0.046l-0.04,0.047l-0.039,0.047l-0.039,0.047l-0.039,0.047l-0.039,0.047l-0.038,0.047l-0.039,0.047l-0.038,0.048l-0.038,0.048l-0.038,0.047l-0.038,0.048l-0.038,0.048l-0.038,0.048l-0.037,0.048l-0.038,0.049l-0.037,0.048l-0.037,0.049l-0.037,0.048l-0.037,0.049l-0.036,0.049l-0.037,0.049l-0.036,0.049l-0.037,0.049l-0.036,0.049l-0.036,0.05l-0.036,0.049l-0.035,0.05l-0.036,0.05l-0.035,0.05l-0.035,0.05l-0.035,0.05l-0.035,0.05l-0.035,0.05l-0.035,0.051l-0.034,0.05l-0.035,0.051l-0.034,0.051l-0.034,0.051l-0.034,0.051l-0.033,0.051l-0.034,0.051l-0.033,0.051l-0.034,0.052l-0.033,0.051l-0.033,0.052l-0.033,0.051l-0.032,0.052l-0.033,0.052l-0.032,0.052l-0.033,0.052l-0.032,0.053l-0.032,0.052l-0.031,0.052l-0.032,0.053l-0.031,0.053l-0.032,0.052l-0.031,0.053l-0.031,0.053l-0.031,0.053l-0.03,0.053l-0.031,0.054l-0.03,0.053l-0.031,0.053l-0.03,0.054l-0.03,0.054l-0.029,0.053l-0.03,0.054l-0.029,0.054l-0.03,0.054l-0.029,0.055l-0.029,0.054l-0.029,0.054l-0.028,0.055l-0.029,0.054l-0.028,0.055l-0.028,0.055l-0.028,0.054l-0.028,0.055l-0.028,0.055l-0.027,0.055l-0.028,0.056l-0.027,0.055l-0.027,0.055l-0.027,0.056l-0.026,0.055l-0.027,0.056l-0.026,0.056l-0.026,0.056l-0.026,0.056l-0.026,0.056l-0.026,0.056l-0.026,0.056l-0.025,0.057l-0.025,0.056l-0.025,0.056l-0.025,0.057l-0.025,0.057l-0.024,0.057l-0.025,0.056l-0.024,0.057l-0.024,0.057l-0.024,0.058l-0.024,0.057l-0.023,0.057l-0.023,0.057l-0.024,0.058l-0.023,0.058l-0.023,0.057l-0.022,0.058l-0.023,0.058l-0.022,0.058l-0.022,0.058l-0.022,0.058l-0.022,0.058l-0.022,0.058l-0.021,0.058l-0.022,0.059l-0.021,0.058l-0.021,0.059l-0.02,0.059l-0.021,0.058l-0.02,0.059l-0.021,0.059l-0.02,0.059l-0.02,0.059l-0.019,0.059l-0.02,0.06l-0.019,0.059l-0.02,0.059l-0.019,0.06l-0.018,0.059l-0.019,0.06l-0.019,0.06l-0.018,0.059l-0.018,0.06l-0.018,0.06l-0.018,0.06l-0.017,0.06l-0.018,0.06l-0.017,0.061l-0.017,0.06l-0.017,0.06l-0.016,0.061l-0.017,0.06l-0.016,0.061l-0.016,0.061l-0.016,0.061l-0.016,0.06l-0.016,0.061l-0.015,0.061l-0.015,0.061l-0.015,0.061l-0.015,0.062l-0.015,0.061l-0.014,0.061l-0.015,0.062l-0.014,0.061l-0.014,0.062l-0.013,0.061l-0.014,0.062l-0.013,0.062l-0.014,0.062l-0.013,0.062l-0.012,0.062l-0.013,0.062l-0.012,0.062l-0.013,0.062l-0.012,0.062l-0.012,0.063l-0.011,0.062l-0.012,0.062l-0.011,0.063l-0.011,0.062l-0.011,0.063l-0.011,0.063l-0.01,0.063l-0.01,0.062l-0.011,0.063l-0.01,0.063l-0.009,0.063l-0.01,0.064l-0.009,0.063l-0.009,0.063l-0.009,0.063l-0.009,0.064l-0.009,0.063l-0.008,0.063l-0.008,0.064l-0.008,0.064l-0.008,0.063l-0.008,0.064l-0.007,0.064l-0.007,0.064l-0.007,0.063l-0.007,0.064l-0.007,0.064l-0.006,0.064l-0.006,0.065l-0.006,0.064l-0.006,0.064l-0.006,0.064l-0.005,0.065l-0.005,0.064l-0.005,0.065l-0.005,0.064l-0.005,0.065l-0.004,0.064l-0.004,0.065l-0.004,0.065l-0.004,0.065l-0.004,0.064l-0.003,0.065l-0.003,0.065l-0.003,0.065l-0.003,0.065l-0.003,0.065l-0.002,0.066l-0.002,0.065l-0.002,0.065l-0.002,0.065l-0.002,0.066l-0.001,0.065l-0.001,0.066l-0.001,0.065l-0.001,0.066l0,0.065l-0.001,0.066l0,0.066l0,0.066l0.001,0.065l0,0.066l0.001,0.065l0.001,0.066l0.001,0.065l0.001,0.066l0.002,0.065l0.002,0.066l0.002,0.065l0.002,0.065l0.002,0.065l0.003,0.065l0.003,0.065l0.003,0.065l0.003,0.065l0.003,0.065l0.004,0.065l0.004,0.065l0.004,0.065l0.004,0.064l0.004,0.065l0.005,0.065l0.005,0.064l0.005,0.065l0.005,0.064l0.005,0.064l0.006,0.065l0.006,0.064l0.006,0.064l0.006,0.064l0.006,0.064l0.007,0.064l0.007,0.064l0.007,0.064l0.007,0.064l0.007,0.064l0.008,0.063l0.008,0.064l0.008,0.064l0.008,0.063l0.008,0.064l0.009,0.063l0.009,0.064l0.009,0.063l0.009,0.063l0.009,0.063l0.01,0.063l0.009,0.063l0.01,0.063l0.011,0.063l0.01,0.063l0.01,0.063l0.011,0.063l0.011,0.062l0.011,0.063l0.011,0.062l0.012,0.063l0.011,0.062l0.012,0.062l0.012,0.063l0.013,0.062l0.012,0.062l0.013,0.062l0.012,0.062l0.013,0.062l0.014,0.062l0.013,0.062l0.014,0.061l0.013,0.062l0.014,0.061l0.014,0.062l0.015,0.061l0.014,0.062l0.015,0.061l0.015,0.061l0.015,0.061l0.015,0.061l0.015,0.061l0.016,0.061l0.016,0.061l0.016,0.061l0.016,0.061l0.016,0.06l0.017,0.061l0.016,0.06l0.017,0.061l0.017,0.06l0.017,0.06l0.018,0.06l0.017,0.06l0.018,0.061l0.018,0.059l0.018,0.06l0.018,0.06l0.019,0.06l0.019,0.059l0.018,0.06l0.019,0.059l0.02,0.06l0.019,0.059l0.02,0.059l0.019,0.06l0.02,0.059l0.02,0.059l0.021,0.059l0.02,0.058l0.021,0.059l0.02,0.059l0.021,0.058l0.021,0.059l0.022,0.058l0.021,0.059l0.022,0.058l0.022,0.058l0.022,0.058l0.022,0.058l0.022,0.058l0.023,0.058l0.022,0.058l0.023,0.057l0.023,0.058l0.024,0.057l0.023,0.058l0.023,0.057l0.024,0.057l0.024,0.057l0.024,0.057l0.024,0.057l0.025,0.057l0.024,0.057l0.025,0.057l0.025,0.056l0.025,0.057l0.025,0.056l0.025,0.056l0.026,0.057l0.026,0.056l0.026,0.056l0.026,0.056l0.026,0.056l0.026,0.056l0.027,0.055l0.026,0.056l0.027,0.055l0.027,0.056l0.027,0.055l0.028,0.055l0.027,0.055l0.028,0.055l0.028,0.055l0.028,0.055l0.028,0.055l0.028,0.055l0.029,0.054l0.028,0.055l0.029,0.054l0.029,0.054l0.029,0.054l0.03,0.054l0.029,0.054l0.03,0.054l0.029,0.054l0.03,0.054l0.03,0.053l0.031,0.054l0.03,0.053l0.031,0.053l0.03,0.053l0.031,0.054l0.031,0.052l0.031,0.053l0.032,0.053l0.031,0.053l0.032,0.052l0.031,0.053l0.032,0.052l0.032,0.052l0.033,0.052l0.032,0.053l0.033,0.051l0.032,0.052l0.033,0.052l0.033,0.052l0.033,0.051l0.034,0.052l0.033,0.051l0.034,0.051l0.033,0.051l0.034,0.051l0.034,0.051l0.034,0.051l0.035,0.05l0.034,0.051l0.035,0.05l0.035,0.051l0.035,0.05l0.035,0.05l0.035,0.05l0.035,0.05l0.036,0.05l0.035,0.049l0.036,0.05l0.036,0.049l0.036,0.05l0.037,0.049l0.036,0.049l0.037,0.049l0.036,0.049l0.037,0.048l0.037,0.049l0.037,0.049l0.037,0.048l0.038,0.048l0.037,0.049l0.038,0.048l0.038,0.048l0.038,0.047l0.038,0.048l0.038,0.048l0.038,0.047l0.039,0.048l0.038,0.047l0.039,0.047l0.039,0.047l0.039,0.047l0.039,0.047l0.04,0.046l0.039,0.047l0.04,0.046l0.04,0.047l0.04,0.046l0.04,0.046l0.04,0.046l0.04,0.046l0.04,0.045l0.041,0.046l0.041,0.045l0.041,0.046l0.04,0.045l0.042,0.045l0.041,0.045l0.041,0.045l0.042,0.044l0.041,0.045l0.042,0.044l0.042,0.045l0.042,0.044l0.042,0.044l0.042,0.044l0.043,0.044l0.042,0.044l0.043,0.043l0.043,0.044l0.043,0.043l0.043,0.043l0.043,0.043l0.043,0.043l0.044,0.043l0.043,0.043l0.044,0.042l0.044,0.042l0.044,0.043l0.044,0.042l0.044,0.042l0.044,0.042l0.045,0.042l0.045,0.041l0.044,0.042l0.045,0.041l0.045,0.041l0.045,0.041l0.045,0.041l0.046,0.041l0.045,0.041l0.046,0.04l0.045,0.041l0.046,0.04l0.046,0.04l0.046,0.04l0.046,0.04l0.047,0.04l0.046,0.04l0.047,0.039l0.046,0.039l0.047,0.04l0.047,0.039l0.047,0.039l0.047,0.038l0.047,0.039l0.048,0.039l0.047,0.038l0.048,0.038l0.047,0.038l0.048,0.038l0.048,0.038l0.048,0.038l0.049,0.037l0.048,0.038l0.048,0.037l0.049,0.037l0.048,0.037l0.049,0.037l0.049,0.036l0.049,0.037l0.049,0.036l0.049,0.037l0.05,0.036l0.049,0.036l0.05,0.035l0.049,0.036l0.05,0.036l0.05,0.035l0.05,0.035l0.05,0.035l0.05,0.035l0.051,0.035l0.05,0.035l0.051,0.034l0.05,0.034l0.051,0.035l0.051,0.034l0.051,0.034l0.051,0.033l0.051,0.034l0.051,0.033l0.052,0.034l0.051,0.033l0.052,0.033l0.052,0.033l0.051,0.032l0.052,0.033l0.052,0.032l0.053,0.032l0.052,0.033l0.052,0.032l0.053,0.031l0.052,0.032l0.053,0.031l0.053,0.032l0.052,0.031l0.053,0.031l0.053,0.031l0.054,0.03l0.053,0.031l0.053,0.03l0.054,0.031l0.053,0.03l0.054,0.029l0.054,0.03l0.054,0.03l0.054,0.029l0.054,0.03l0.054,0.029l0.054,0.029l0.054,0.028l0.055,0.029l0.054,0.029l0.055,0.028l0.055,0.028l0.055,0.028l0.055,0.028l0.055,0.028l0.055,0.027l0.055,0.027l0.055,0.028l0.056,0.027l0.055,0.026l0.056,0.027l0.055,0.027l0.056,0.026l0.056,0.026l0.056,0.026l0.056,0.026l0.056,0.026l0.056,0.025l0.057,0.026l0.056,0.025l0.057,0.025l0.056,0.025l0.057,0.025l0.057,0.024l0.057,0.025l0.057,0.024l0.057,0.024l0.057,0.024l0.057,0.023l0.057,0.024l0.058,0.023l0.057,0.024l0.058,0.023l0.057,0.022l0.058,0.023l0.058,0.023l0.058,0.022l0.058,0.022l0.058,0.022l0.058,0.022l0.058,0.022l0.059,0.021l0.058,0.021l0.059,0.022l0.058,0.02l0.059,0.021l0.059,0.021l0.058,0.02l0.059,0.021l0.059,0.02l0.059,0.02l0.06,0.019l0.059,0.02l0.059,0.019l0.059,0.019l0.06,0.019l0.059,0.019l0.06,0.019l0.06,0.018l0.06,0.019l0.059,0.018l0.06,0.018l0.06,0.018l0.061,0.017l0.06,0.018l0.06,0.017l0.06,0.017l0.061,0.017l0.06,0.016l0.061,0.017l0.06,0.016l0.061,0.016l0.061,0.016l0.061,0.016l0.061,0.016l0.06,0.015l0.062,0.015l0.061,0.015l0.061,0.015l0.061,0.015l0.062,0.014l0.061,0.015l0.061,0.014l0.062,0.014l0.062,0.013l0.061,0.014l0.062,0.013l0.062,0.013l0.062,0.013l0.062,0.013l0.062,0.013l0.062,0.012l0.062,0.013l0.062,0.012l0.063,0.011l0.062,0.012l0.063,0.012l0.062,0.011l0.063,0.011l0.062,0.011l0.063,0.011l0.063,0.01l0.063,0.01l0.063,0.01l0.063,0.01l0.063,0.01l0.063,0.01l0.063,0.009l0.063,0.009l0.063,0.009l0.064,0.009l0.063,0.009l0.064,0.008l0.063,0.008l0.064,0.008l0.063,0.008l0.064,0.008l0.064,0.007l0.064,0.007l0.064,0.007l0.064,0.007l0.064,0.007l0.064,0.006l0.064,0.006l0.064,0.006l0.064,0.006l0.065,0.006l0.064,0.005l0.064,0.005l0.065,0.005l0.064,0.005l0.065,0.005l0.065,0.004l0.064,0.004l0.065,0.004l0.065,0.004l0.065,0.004l0.064,0.003l0.065,0.003l0.065,0.003l0.066,0.003l0.065,0.003l0.065,0.002l0.065,0.002l0.065,0.002l0.066,0.002l0.065,0.002l0.065,0.001l0.066,0.001l0.065,0.001l0.066,0.001l0.066,0l0.065,0.001l0.066,0l0.066,0l0.065,-0.001l0.066,0l0.066,-0.001l0.065,-0.001l0.066,-0.001l0.065,-0.001l0.065,-0.002l0.066,-0.002l0.065,-0.002l0.065,-0.002l0.065,-0.002l0.066,-0.003l0.065,-0.003l0.065,-0.003l0.065,-0.003l0.065,-0.003l0.064,-0.004l0.065,-0.004l0.065,-0.004l0.065,-0.004l0.064,-0.004l0.065,-0.005l0.064,-0.005l0.065,-0.005l0.064,-0.005l0.065,-0.005l0.064,-0.006l0.064,-0.006l0.064,-0.006l0.064,-0.006l0.065,-0.006l0.064,-0.007l0.063,-0.007l0.064,-0.007l0.064,-0.007l0.064,-0.007l0.064,-0.008l0.063,-0.008l0.064,-0.008l0.063,-0.008l0.064,-0.008l0.063,-0.009l0.064,-0.009l0.063,-0.009l0.063,-0.009l0.063,-0.009l0.063,-0.01l0.064,-0.01l0.063,-0.01l0.062,-0.01l0.063,-0.01l0.063,-0.01l0.063,-0.011l0.062,-0.011l0.063,-0.011l0.062,-0.011l0.063,-0.012l0.062,-0.012l0.063,-0.011l0.062,-0.012l0.062,-0.013l0.062,-0.012l0.062,-0.013l0.062,-0.013l0.062,-0.013l0.062,-0.013l0.062,-0.013l0.061,-0.014l0.062,-0.013l0.062,-0.014l0.061,-0.014l0.062,-0.015l0.061,-0.014l0.061,-0.015l0.061,-0.015l0.062,-0.015l0.061,-0.015l0.061,-0.015l0.061,-0.016l0.06,-0.016l0.061,-0.016l0.061,-0.016l0.06,-0.016l0.061,-0.017l0.06,-0.016l0.061,-0.017l0.06,-0.017l0.06,-0.017l0.061,-0.018l0.06,-0.017l0.06,-0.018l0.06,-0.018l0.06,-0.018l0.059,-0.019l0.06,-0.018l0.06,-0.019l0.059,-0.019l0.06,-0.019l0.059,-0.019l0.059,-0.019l0.06,-0.02l0.059,-0.019l0.059,-0.02l0.059,-0.02l0.059,-0.021l0.059,-0.02l0.058,-0.021l0.059,-0.021l0.059,-0.02l0.058,-0.022l0.058,-0.021l0.059,-0.021l0.058,-0.022l0.058,-0.022l0.058,-0.022l0.058,-0.022l0.058,-0.022l0.058,-0.023l0.058,-0.023l0.057,-0.022l0.058,-0.023l0.057,-0.024l0.058,-0.023l0.057,-0.024l0.057,-0.023l0.057,-0.024l0.058,-0.024l0.056,-0.024l0.057,-0.025l0.057,-0.024l0.057,-0.025l0.056,-0.025l0.057,-0.025l0.056,-0.025l0.057,-0.026l0.056,-0.025l0.056,-0.026l0.056,-0.026l0.056,-0.026l0.056,-0.026l0.056,-0.026l0.055,-0.027l0.056,-0.027l0.056,-0.026l0.055,-0.027l0.055,-0.028l0.055,-0.027l0.056,-0.027l0.055,-0.028l0.055,-0.028l0.054,-0.028l0.055,-0.028l0.055,-0.028l0.054,-0.029l0.055,-0.029l0.054,-0.028l0.054,-0.029l0.055,-0.029l0.054,-0.03l0.054,-0.029l0.053,-0.03l0.054,-0.03l0.054,-0.029l0.053,-0.03l0.054,-0.031l0.053,-0.03l0.053,-0.031l0.054,-0.03l0.053,-0.031l0.053,-0.031l0.053,-0.031l0.052,-0.032l0.053,-0.031l0.053,-0.032l0.052,-0.031l0.052,-0.032l0.053,-0.033l0.052,-0.032l0.052,-0.032l0.052,-0.033l0.051,-0.032l0.052,-0.033l0.052,-0.033l0.051,-0.033l0.052,-0.034l0.051,-0.033l0.051,-0.034l0.051,-0.033l0.051,-0.034l0.051,-0.034l0.051,-0.035l0.051,-0.034l0.05,-0.034l0.05,-0.035l0.051,-0.035l0.05,-0.035l0.05,-0.035l0.05,-0.035l0.05,-0.035l0.05,-0.036l0.049,-0.036l0.05,-0.035l0.049,-0.036l0.05,-0.036l0.049,-0.037l0.049,-0.036l0.049,-0.037l0.049,-0.036l0.049,-0.037l0.048,-0.037l0.049,-0.037l0.048,-0.037l0.049,-0.038l0.048,-0.037l0.048,-0.038l0.048,-0.038l0.048,-0.038l0.047,-0.038l0.048,-0.038l0.047,-0.038l0.048,-0.039l0.047,-0.039l0.047,-0.038l0.047,-0.039l0.047,-0.039l0.047,-0.04l0.047,-0.039l0.046,-0.039l0.046,-0.04l0.047,-0.04l0.046,-0.04l0.046,-0.04l0.046,-0.04l0.046,-0.04l0.045,-0.041l0.046,-0.04l0.045,-0.041l0.046,-0.041l0.045,-0.041l0.045,-0.041l0.045,-0.041l0.045,-0.041l0.045,-0.042l0.044,-0.041l0.045,-0.042l0.044,-0.042l0.044,-0.042l0.044,-0.042l0.044,-0.043l0.044,-0.042l0.044,-0.042l0.043,-0.043l0.044,-0.043l0.043,-0.043l0.043,-0.043l0.043,-0.043l0.043,-0.043l0.043,-0.044l0.043,-0.043l0.042,-0.044l0.043,-0.044l0.042,-0.044l0.042,-0.044l0.042,-0.044l0.042,-0.045l0.042,-0.044l0.041,-0.045l0.042,-0.044l0.041,-0.045l0.042,-0.045l0.041,-0.045l0.041,-0.045l0.04,-0.046l0.041,-0.045l0.041,-0.046l0.04,-0.045l0.04,-0.046l0.041,-0.046l0.04,-0.046l0.039,-0.046l0.04,-0.047l0.04,-0.046l0.039,-0.047l0.04,-0.046l0.039,-0.047l0.039,-0.047l0.039,-0.047l0.039,-0.047l0.038,-0.047l0.039,-0.048l0.038,-0.047l0.038,-0.048l0.038,-0.048l0.038,-0.047l0.038,-0.048l0.038,-0.048l0.037,-0.049l0.038,-0.048l0.037,-0.048l0.037,-0.049l0.037,-0.049l0.037,-0.048l0.037,-0.049l0.036,-0.049l0.037,-0.049l0.036,-0.049l0.036,-0.05l0.036,-0.049l0.036,-0.05l0.035,-0.049l0.036,-0.05l0.035,-0.05l0.035,-0.05l0.035,-0.05l0.035,-0.05l0.035,-0.051l0.035,-0.05l0.034,-0.051l0.035,-0.05l0.034,-0.051l0.034,-0.051l0.034,-0.051l0.034,-0.051l0.033,-0.051l0.034,-0.051l0.033,-0.052l0.033,-0.051l0.033,-0.052l0.033,-0.052l0.033,-0.052l0.032,-0.051l0.032,-0.053l0.033,-0.052l0.032,-0.052l0.032,-0.052l0.031,-0.053l0.032,-0.052l0.032,-0.053l0.031,-0.053l0.031,-0.053l0.031,-0.052l0.031,-0.054l0.031,-0.053l0.03,-0.053l0.031,-0.053l0.03,-0.054l0.03,-0.053l0.03,-0.054l0.029,-0.054l0.03,-0.054l0.029,-0.054l0.03,-0.054l0.029,-0.054l0.029,-0.054l0.029,-0.054l0.028,-0.055l0.029,-0.054l0.028,-0.055l0.028,-0.055l0.028,-0.055l0.028,-0.055l0.028,-0.055l0.027,-0.055l0.028,-0.055l0.027,-0.055l0.027,-0.056l0.027,-0.055l0.026,-0.056l0.027,-0.055l0.026,-0.056l0.027,-0.056l0.026,-0.056l0.025,-0.056l0.026,-0.056l0.026,-0.057l0.025,-0.056l0.025,-0.056l0.025,-0.057l0.025,-0.056l0.025,-0.057l0.024,-0.057l0.025,-0.057l0.024,-0.057l0.024,-0.057l0.024,-0.057l0.024,-0.057l0.023,-0.057l0.024,-0.058l0.023,-0.057l0.023,-0.058l0.023,-0.057l0.022,-0.058l0.023,-0.058l0.022,-0.058l0.022,-0.058l0.022,-0.058l0.022,-0.058l0.022,-0.058l0.021,-0.059l0.022,-0.058l0.021,-0.059l0.021,-0.058l0.02,-0.059l0.021,-0.059l0.021,-0.058l0.02,-0.059l0.02,-0.059l0.02,-0.059l0.019,-0.06l0.02,-0.059l0.019,-0.059l0.02,-0.06l0.019,-0.059l0.018,-0.06l0.019,-0.059l0.019,-0.06l0.018,-0.06l0.018,-0.06l0.018,-0.059l0.018,-0.061l0.017,-0.06l0.018,-0.06l0.017,-0.06l0.017,-0.06l0.017,-0.061l0.017,-0.06l0.016,-0.061l0.016,-0.06l0.017,-0.061l0.016,-0.061l0.015,-0.061l0.016,-0.061l0.015,-0.061l0.016,-0.061l0.015,-0.061l0.014,-0.061l0.015,-0.061l0.015,-0.062l0.014,-0.061l0.014,-0.062l0.014,-0.061l0.014,-0.062l0.013,-0.061l0.014,-0.062l0.013,-0.062l0.013,-0.062l0.012,-0.062l0.013,-0.062l0.012,-0.062l0.013,-0.062l0.012,-0.063l0.012,-0.062l0.011,-0.062l0.012,-0.063l0.011,-0.062l0.011,-0.063l0.011,-0.062l0.011,-0.063l0.01,-0.063l0.011,-0.063l0.01,-0.063l0.01,-0.063l0.009,-0.063l0.01,-0.063l0.009,-0.063l0.009,-0.063l0.009,-0.063l0.009,-0.064l0.009,-0.063l0.008,-0.064l0.008,-0.063l0.008,-0.064l0.008,-0.064l0.008,-0.063l0.007,-0.064l0.007,-0.064l0.007,-0.064l0.007,-0.064l0.007,-0.064l0.006,-0.064l0.006,-0.064l0.006,-0.064l0.006,-0.064l0.006,-0.065l0.005,-0.064l0.005,-0.064l0.005,-0.065l0.005,-0.064l0.005,-0.065l0.004,-0.065l0.005,-0.064l0.004,-0.065l0.003,-0.065l0.004,-0.065l0.003,-0.065l0.004,-0.065l0.003,-0.065l0.002,-0.065l0.003,-0.065l0.002,-0.065l0.002,-0.065l0.002,-0.065l0.002,-0.066l0.002,-0.065l0.001,-0.066l0.001,-0.065l0.001,-0.066l0.001,-0.065l0,-0.066l0.001,-0.065l0,-0.066l0,-0.066l-0.001,-0.066l0,-0.065l-0.001,-0.066l-0.001,-0.065l-0.001,-0.066l-0.001,-0.065l-0.002,-0.066l-0.002,-0.065l-0.002,-0.065l-0.002,-0.065l-0.002,-0.066l-0.003,-0.065l-0.002,-0.065l-0.003,-0.065l-0.004,-0.065l-0.003,-0.065l-0.004,-0.064l-0.003,-0.065l-0.004,-0.065l-0.005,-0.065l-0.004,-0.064l-0.005,-0.065l-0.005,-0.064l-0.005,-0.065l-0.005,-0.064l-0.005,-0.065l-0.006,-0.064l-0.006,-0.064l-0.006,-0.064l-0.006,-0.065l-0.006,-0.064l-0.007,-0.064l-0.007,-0.064l-0.007,-0.063l-0.007,-0.064l-0.007,-0.064l-0.008,-0.064l-0.008,-0.063l-0.008,-0.064l-0.008,-0.064l-0.008,-0.063l-0.009,-0.063l-0.009,-0.064l-0.009,-0.063l-0.009,-0.063l-0.009,-0.063l-0.01,-0.064l-0.009,-0.063l-0.01,-0.063l-0.01,-0.063l-0.011,-0.062l-0.01,-0.063l-0.011,-0.063l-0.011,-0.063l-0.011,-0.062l-0.011,-0.063l-0.012,-0.062l-0.011,-0.062l-0.012,-0.063l-0.012,-0.062l-0.013,-0.062l-0.012,-0.062l-0.013,-0.062l-0.012,-0.062l-0.013,-0.062l-0.013,-0.062l-0.014,-0.062l-0.013,-0.062l-0.014,-0.061l-0.014,-0.062l-0.014,-0.061l-0.014,-0.062l-0.015,-0.061l-0.015,-0.061l-0.014,-0.062l-0.015,-0.061l-0.016,-0.061l-0.015,-0.061l-0.016,-0.061l-0.015,-0.06l-0.016,-0.061l-0.017,-0.061l-0.016,-0.061l-0.016,-0.06l-0.017,-0.061l-0.017,-0.06l-0.017,-0.06l-0.017,-0.061l-0.018,-0.06l-0.017,-0.06l-0.018,-0.06l-0.018,-0.06l-0.018,-0.06l-0.018,-0.059l-0.019,-0.06l-0.019,-0.06l-0.018,-0.059l-0.019,-0.06l-0.02,-0.059l-0.019,-0.059l-0.02,-0.06l-0.019,-0.059l-0.02,-0.059l-0.02,-0.059l-0.02,-0.059l-0.021,-0.059l-0.021,-0.058l-0.02,-0.059l-0.021,-0.059l-0.021,-0.058l-0.022,-0.059l-0.021,-0.058l-0.022,-0.058l-0.022,-0.058l-0.022,-0.058l-0.022,-0.058l-0.022,-0.058l-0.023,-0.058l-0.022,-0.058l-0.023,-0.057l-0.023,-0.058l-0.023,-0.058l-0.024,-0.057l-0.023,-0.057l-0.024,-0.057l-0.024,-0.058l-0.024,-0.057l-0.024,-0.057l-0.025,-0.056l-0.024,-0.057l-0.025,-0.057l-0.025,-0.057l-0.025,-0.056l-0.025,-0.056l-0.025,-0.057l-0.026,-0.056l-0.026,-0.056l-0.025,-0.056l-0.026,-0.056l-0.027,-0.056l-0.026,-0.056l-0.027,-0.056l-0.026,-0.055l-0.027,-0.056l-0.027,-0.055l-0.027,-0.055l-0.028,-0.056l-0.027,-0.055l-0.028,-0.055l-0.028,-0.055l-0.028,-0.054l-0.028,-0.055l-0.028,-0.055l-0.029,-0.054l-0.028,-0.055l-0.029,-0.054l-0.029,-0.054l-0.029,-0.055l-0.03,-0.054l-0.029,-0.054l-0.03,-0.054l-0.029,-0.053l-0.03,-0.054l-0.03,-0.054l-0.03,-0.053l-0.031,-0.053l-0.03,-0.054l-0.031,-0.053l-0.031,-0.053l-0.031,-0.053l-0.031,-0.053l-0.031,-0.052l-0.032,-0.053l-0.032,-0.053l-0.031,-0.052l-0.032,-0.052l-0.032,-0.053l-0.033,-0.052l-0.032,-0.052l-0.032,-0.052l-0.033,-0.052l-0.033,-0.051l-0.033,-0.052l-0.033,-0.051l-0.033,-0.052l-0.034,-0.051l-0.033,-0.051l-0.034,-0.051l-0.034,-0.051l-0.034,-0.051l-0.034,-0.051l-0.035,-0.051l-0.034,-0.05l-0.035,-0.051l-0.035,-0.05l-0.035,-0.05l-0.035,-0.05l-0.035,-0.05l-0.035,-0.05l-0.036,-0.05l-0.035,-0.05l-0.036,-0.049l-0.036,-0.05l-0.036,-0.049l-0.036,-0.049l-0.037,-0.049l-0.036,-0.049l-0.037,-0.049l-0.037,-0.049l-0.037,-0.048l-0.037,-0.049l-0.037,-0.048l-0.038,-0.049l-0.037,-0.048l-0.038,-0.048l-0.038,-0.048l-0.038,-0.048l-0.038,-0.047l-0.038,-0.048l-0.038,-0.048l-0.039,-0.047l-0.038,-0.047l-0.039,-0.047l-0.039,-0.047l-0.039,-0.047l-0.039,-0.047l-0.04,-0.047l-0.039,-0.046l-0.04,-0.047l-0.04,-0.046l-0.039,-0.046l-0.04,-0.046l-0.041,-0.046l-0.04,-0.046l-0.04,-0.046l-0.041,-0.045l-0.041,-0.046l-0.04,-0.045l-0.041,-0.045l-0.041,-0.045l-0.042,-0.045l-0.041,-0.045l-0.042,-0.045l-0.041,-0.044l-0.042,-0.045l-0.042,-0.044l-0.042,-0.044l-0.042,-0.044l-0.042,-0.044l-0.043,-0.044l-0.042,-0.044l-0.043,-0.043l-0.043,-0.044l-0.043,-0.043l-0.043,-0.043l-0.043,-0.043l-0.043,-0.043l-0.044,-0.043l-0.043,-0.043l-0.044,-0.042l-0.044,-0.043l-0.044,-0.042l-0.044,-0.042l-0.044,-0.042l-0.044,-0.042l-0.045,-0.042l-0.044,-0.042l-0.045,-0.041l-0.045,-0.041l-0.045,-0.042l-0.045,-0.041l-0.045,-0.041l-0.046,-0.041l-0.045,-0.04l-0.046,-0.041l-0.045,-0.04l-0.046,-0.041l-0.046,-0.04l-0.046,-0.04l-0.046,-0.04l-0.047,-0.039l-0.046,-0.04l-0.046,-0.039l-0.047,-0.04l-0.047,-0.039l-0.047,-0.039l-0.047,-0.039l-0.047,-0.039l-0.047,-0.038l-0.048,-0.039l-0.047,-0.038l-0.048,-0.038l-0.047,-0.039l-0.048,-0.038l-0.048,-0.037l-0.048,-0.038l-0.048,-0.038l-0.049,-0.037l-0.048,-0.037l-0.049,-0.037l-0.048,-0.037l-0.049,-0.037l-0.049,-0.037l-0.049,-0.036l-0.049,-0.037l-0.049,-0.036l-0.05,-0.036l-0.049,-0.036l-0.05,-0.036l-0.049,-0.035l-0.05,-0.036l-0.05,-0.035l-0.05,-0.036l-0.05,-0.035l-0.05,-0.035l-0.051,-0.034l-0.05,-0.035l-0.05,-0.034l-0.051,-0.035l-0.051,-0.034l-0.051,-0.034l-0.051,-0.034l-0.051,-0.034l-0.051,-0.033l-0.051,-0.034l-0.052,-0.033l-0.051,-0.033l-0.052,-0.033l-0.052,-0.033l-0.051,-0.033l-0.052,-0.032l-0.052,-0.033l-0.052,-0.032l-0.053,-0.032l-0.052,-0.032l-0.052,-0.032l-0.053,-0.031l-0.053,-0.032l-0.052,-0.031l-0.053,-0.031l-0.053,-0.031l-0.053,-0.031l-0.054,-0.031l-0.053,-0.03l-0.053,-0.031l-0.054,-0.03l-0.053,-0.03l-0.054,-0.03l-0.054,-0.03l-0.053,-0.029l-0.054,-0.03l-0.054,-0.029l-0.055,-0.029l-0.054,-0.029l-0.054,-0.029l-0.055,-0.028l-0.054,-0.029l-0.055,-0.028l-0.055,-0.028l-0.054,-0.028l-0.055,-0.028l-0.055,-0.028l-0.056,-0.027l-0.055,-0.028l-0.055,-0.027l-0.055,-0.027l-0.056,-0.027l-0.056,-0.027l-0.055,-0.026l-0.056,-0.026l-0.056,-0.027l-0.056,-0.026l-0.056,-0.026l-0.056,-0.025l-0.056,-0.026l-0.057,-0.025l-0.056,-0.025l-0.057,-0.025l-0.056,-0.025l-0.057,-0.025l-0.057,-0.025l-0.057,-0.024l-0.056,-0.024l-0.058,-0.024l-0.057,-0.024l-0.057,-0.024l-0.057,-0.023l-0.058,-0.024l-0.057,-0.023l-0.058,-0.023l-0.057,-0.023l-0.058,-0.022l-0.058,-0.023l-0.058,-0.022l-0.058,-0.022l-0.058,-0.022l-0.058,-0.022l-0.058,-0.022l-0.059,-0.021l-0.058,-0.022l-0.058,-0.021l-0.059,-0.021l-0.059,-0.021l-0.058,-0.02l-0.059,-0.021l-0.059,-0.02l-0.059,-0.02l-0.059,-0.02l-0.059,-0.02l-0.06,-0.019l-0.059,-0.02l-0.059,-0.019l-0.06,-0.019l-0.059,-0.019l-0.06,-0.018l-0.06,-0.019l-0.059,-0.018l-0.06,-0.018l-0.06,-0.018l-0.06,-0.018l-0.06,-0.017l-0.061,-0.018l-0.06,-0.017l-0.06,-0.017l-0.061,-0.017l-0.06,-0.017l-0.061,-0.016l-0.06,-0.017l-0.061,-0.016l-0.061,-0.016l-0.06,-0.015l-0.061,-0.016l-0.061,-0.015l-0.061,-0.016l-0.062,-0.015l-0.061,-0.014l-0.061,-0.015l-0.061,-0.015l-0.062,-0.014l-0.061,-0.014l-0.062,-0.014l-0.062,-0.014l-0.061,-0.013l-0.062,-0.014l-0.062,-0.013l-0.062,-0.013l-0.062,-0.013l-0.062,-0.012l-0.062,-0.013l-0.062,-0.012l-0.062,-0.012l-0.063,-0.012l-0.062,-0.011l-0.063,-0.012l-0.062,-0.011l-0.063,-0.011l-0.062,-0.011l-0.063,-0.011l-0.063,-0.01l-0.063,-0.011l-0.062,-0.01l-0.063,-0.01l-0.064,-0.009l-0.063,-0.01l-0.063,-0.009l-0.063,-0.01l-0.063,-0.009l-0.064,-0.008l-0.063,-0.009l-0.064,-0.008l-0.063,-0.008l-0.064,-0.008l-0.063,-0.008l-0.064,-0.008l-0.064,-0.007l-0.064,-0.007l-0.064,-0.007l-0.063,-0.007l-0.064,-0.007l-0.065,-0.006l-0.064,-0.007l-0.064,-0.006l-0.064,-0.005l-0.064,-0.006l-0.065,-0.005l-0.064,-0.006l-0.065,-0.005l-0.064,-0.004l-0.065,-0.005l-0.064,-0.004l-0.065,-0.005l-0.065,-0.004l-0.065,-0.003l-0.064,-0.004l-0.065,-0.003l-0.065,-0.004l-0.065,-0.003l-0.065,-0.002l-0.066,-0.003l-0.065,-0.002l-0.065,-0.003l-0.065,-0.002l-0.066,-0.001l-0.065,-0.002l-0.065,-0.001l-0.066,-0.001l-0.065,-0.001l-0.066,-0.001l-0.066,-0.001l-0.065,0l-0.066,0l-0.066,0Z" style="fill:#a1a1a1;"/><circle cx="62.484" cy="45.316" r="20.331" style="fill:#f54d3d;"/></svg>