<?xml version="1.0" encoding="UTF-8" standalone="no"?><!DOCTYPE svg PUBLIC "-//W3C//DTD SVG 1.1//EN" "http://www.w3.org/Graphics/SVG/1.1/DTD/svg11.dtd"><svg width="100%" height="100%" viewBox="0 0 126 126" version="1.1" xmlns="http://www.w3.org/2000/svg" xmlns:xlink="http://www.w3.org/1999/xlink" xml:space="preserve" xmlns:serif="http://www.serif.com/" style="fill-rule:evenodd;clip-rule:evenodd;stroke-linejoin:round;stroke-miterlimit:1.41421;"><rect id="html5" x="0.038" y="0.046" width="124.8" height="124.8" style="fill:none;"/><path d="M30.922,108.092l-7.012,-78.654l77.056,0l-7.02,78.642l-31.555,8.748l-31.469,-8.736Z" style="fill:#a1a1a1;fill-rule:nonzero;"/><path d="M62.438,110.141l25.498,-7.069l5.999,-67.203l-31.497,0l0,74.272Z" style="fill:#bcbec0;fill-rule:nonzero;"/><path d="M62.438,65.041l-12.765,0l-0.882,-9.878l13.647,0l0,-9.647l-0.033,0l-24.156,0l0.231,2.588l2.371,26.583l21.587,0l0,-9.646Z" style="fill:#ebebeb;fill-rule:nonzero;"/><path d="M62.438,90.094l-0.042,0.011l-10.744,-2.9l-0.687,-7.694l-5.22,0l-4.463,0l1.351,15.146l19.761,5.486l0.044,-0.012l0,-10.037Z" style="fill:#ebebeb;fill-rule:nonzero;"/><path d="M31.079,8.063l4.902,0l0,4.843l4.485,0l0,-4.843l4.902,0l0,14.667l-4.902,0l0,-4.911l-4.484,0l0,4.911l-4.903,0l0,-14.667l0,0Z" style="fill:#a1a1a1;fill-rule:nonzero;"/><path d="M51.815,12.927l-4.316,0l0,-4.864l13.537,0l0,4.864l-4.318,0l0,9.803l-4.903,0l0,-9.803l0,0Z" style="fill:#a1a1a1;fill-rule:nonzero;"/><path d="M63.184,8.063l5.112,0l3.144,5.153l3.141,-5.153l5.114,0l0,14.667l-4.882,0l0,-7.27l-3.373,5.215l-0.084,0l-3.375,-5.215l0,7.27l-4.797,0l0,-14.667Z" style="fill:#a1a1a1;fill-rule:nonzero;"/><path d="M82.135,8.063l4.904,0l0,9.819l6.894,0l0,4.848l-11.798,0l0,-14.667Z" style="fill:#a1a1a1;fill-rule:nonzero;"/><path d="M62.405,65.041l0,9.646l11.878,0l-1.119,12.511l-10.759,2.904l0,10.036l19.776,-5.481l0.145,-1.629l2.267,-25.397l0.235,-2.59l-2.599,0l-19.824,0Z" style="fill:#fff;fill-rule:nonzero;"/><path d="M62.405,45.516l0,9.647l23.301,0l0.193,-2.169l0.44,-4.89l0.231,-2.588l-24.165,0Z" style="fill:#fff;fill-rule:nonzero;"/></svg>