<?xml version="1.0" encoding="UTF-8" standalone="no"?><!DOCTYPE svg PUBLIC "-//W3C//DTD SVG 1.1//EN" "http://www.w3.org/Graphics/SVG/1.1/DTD/svg11.dtd"><svg width="100%" height="100%" viewBox="0 0 126 126" version="1.1" xmlns="http://www.w3.org/2000/svg" xmlns:xlink="http://www.w3.org/1999/xlink" xml:space="preserve" xmlns:serif="http://www.serif.com/" style="fill-rule:evenodd;clip-rule:evenodd;stroke-linejoin:round;stroke-miterlimit:1.41421;"><rect id="js" x="0.03" y="0.026" width="124.8" height="124.8" style="fill:none;"/><rect x="19.062" y="19.058" width="86.737" height="86.737" style="fill:#a1a1a1;"/><path d="M77.327,86.821c1.747,2.853 4.02,4.95 8.04,4.95c3.377,0 5.535,-1.688 5.535,-4.02c0,-2.795 -2.217,-3.785 -5.934,-5.411l-2.038,-0.874c-5.881,-2.506 -9.789,-5.645 -9.789,-12.281c0,-6.113 4.658,-10.767 11.937,-10.767c5.182,0 8.908,1.804 11.593,6.526l-6.347,4.076c-1.398,-2.506 -2.905,-3.493 -5.246,-3.493c-2.387,0 -3.9,1.514 -3.9,3.493c0,2.445 1.514,3.435 5.011,4.949l2.038,0.873c6.925,2.97 10.835,5.997 10.835,12.804c0,7.338 -5.765,11.358 -13.506,11.358c-7.57,0 -12.46,-3.607 -14.853,-8.335l6.624,-3.848Zm-28.793,0.707c1.281,2.271 2.445,4.192 5.246,4.192c2.678,0 4.367,-1.048 4.367,-5.122l0,-27.714l8.15,0l0,27.824c0,8.44 -4.948,12.281 -12.17,12.281c-6.526,0 -10.305,-3.377 -12.227,-7.445l6.634,-4.016Z" style="fill:#fff;fill-rule:nonzero;"/></svg>