<?xml version="1.0" encoding="UTF-8" standalone="no"?><!DOCTYPE svg PUBLIC "-//W3C//DTD SVG 1.1//EN" "http://www.w3.org/Graphics/SVG/1.1/DTD/svg11.dtd"><svg width="100%" height="100%" viewBox="0 0 126 126" version="1.1" xmlns="http://www.w3.org/2000/svg" xmlns:xlink="http://www.w3.org/1999/xlink" xml:space="preserve" xmlns:serif="http://www.serif.com/" style="fill-rule:evenodd;clip-rule:evenodd;stroke-linejoin:round;stroke-miterlimit:1.41421;"><rect id="prototipos" x="0.195" y="0.213" width="124.8" height="124.8" style="fill:none;"/><path d="M83.011,24.597l0,9.811l-39.01,0l0,-9.811c0,-1.357 0.886,-2.453 1.984,-2.453l35.042,0c1.098,0 1.984,1.096 1.984,2.453Z" style="fill:#bcbec0;fill-rule:nonzero;"/><path d="M83.011,88.366l0,12.263c0,1.357 -0.886,2.453 -1.984,2.453l-35.042,0c-1.098,0 -1.984,-1.096 -1.984,-2.453l0,-12.263l39.01,0Z" style="fill:#bcbec0;fill-rule:nonzero;"/><rect x="44.001" y="34.408" width="39.01" height="53.958" style="fill:#f1f2f2;fill-rule:nonzero;"/><rect x="3.43" y="34.408" width="39.01" height="53.958" style="fill:#f1f2f2;fill-rule:nonzero;"/><rect x="84.795" y="34.408" width="39.01" height="53.958" style="fill:#f1f2f2;fill-rule:nonzero;"/><path d="M44.001,88.366l0,12.263c0,1.357 0.886,2.453 1.984,2.453l35.042,0c1.098,0 1.984,-1.096 1.984,-2.453l0,-12.263" style="fill:none;stroke:#b8b8b8;stroke-width:1.17px;"/><path d="M83.011,34.408l0,-9.811c0,-1.357 -0.886,-2.453 -1.984,-2.453l-35.042,0c-1.098,0 -1.984,1.096 -1.984,2.453l0,9.811" style="fill:none;stroke:#b8b8b8;stroke-width:1.17px;"/><path d="M83.011,88.366l0,-53.958" style="fill:none;stroke:#b8b8b8;stroke-width:1.17px;"/><path d="M44.001,34.408l0,53.958" style="fill:none;stroke:#b8b8b8;stroke-width:1.17px;"/><rect x="46.57" y="36.425" width="33.872" height="14.634" style="fill:#f54d3d;fill-rule:nonzero;"/><rect x="5.999" y="37.625" width="33.872" height="14.634" style="fill:#f54d3d;fill-rule:nonzero;"/><rect x="95.794" y="38.158" width="25.442" height="8.181" style="fill:#f54d3d;fill-rule:nonzero;"/><rect x="46.57" y="52.572" width="33.872" height="21.698" style="fill:#bcbec0;fill-rule:nonzero;"/><rect x="5.999" y="53.772" width="33.872" height="14.541" style="fill:#bcbec0;fill-rule:nonzero;"/><rect x="95.794" y="47.185" width="25.442" height="8.129" style="fill:#bcbec0;fill-rule:nonzero;"/><rect x="5.999" y="70.048" width="33.872" height="14.541" style="fill:#bcbec0;fill-rule:nonzero;"/><rect x="95.794" y="56.285" width="25.442" height="8.129" style="fill:#bcbec0;fill-rule:nonzero;"/><rect x="95.794" y="65.497" width="25.442" height="8.129" style="fill:#bcbec0;fill-rule:nonzero;"/><rect x="95.794" y="74.71" width="25.442" height="8.129" style="fill:#bcbec0;fill-rule:nonzero;"/><circle cx="90.326" cy="42.248" r="3.273" style="fill:#b8b8b8;"/><circle cx="90.326" cy="50.855" r="3.273" style="fill:#b8b8b8;"/><circle cx="90.326" cy="59.968" r="3.273" style="fill:#b8b8b8;"/><circle cx="90.326" cy="68.95" r="3.273" style="fill:#b8b8b8;"/><circle cx="90.326" cy="78.501" r="3.273" style="fill:#b8b8b8;"/><path d="M61.67,46.769l3.265,0" style="fill:none;stroke:#b8b8b8;stroke-width:1.2px;"/><path d="M56.365,46.769l3.265,0" style="fill:none;stroke:#b8b8b8;stroke-width:1.2px;"/><path d="M66.975,46.769l3.265,0" style="fill:none;stroke:#b8b8b8;stroke-width:1.2px;"/><path d="M46.57,78.559l21.222,0" style="fill:none;stroke:#a1a1a1;stroke-width:1.2px;"/><path d="M46.57,83.605l33.873,0" style="fill:none;stroke:#a1a1a1;stroke-width:1.2px;"/><path d="M70.24,78.559l4.897,0" style="fill:none;stroke:#a1a1a1;stroke-width:1.2px;"/><path d="M67.113,96.062c0,1.768 -1.433,3.2 -3.2,3.2c-1.768,0 -3.2,-1.432 -3.2,-3.2c0,-1.766 1.432,-3.199 3.2,-3.199c1.767,0 3.2,1.433 3.2,3.199Z" style="fill:#aaacae;fill-rule:nonzero;"/></svg>