<?xml version="1.0" encoding="UTF-8" standalone="no"?><!DOCTYPE svg PUBLIC "-//W3C//DTD SVG 1.1//EN" "http://www.w3.org/Graphics/SVG/1.1/DTD/svg11.dtd"><svg width="100%" height="100%" viewBox="0 0 126 126" version="1.1" xmlns="http://www.w3.org/2000/svg" xmlns:xlink="http://www.w3.org/1999/xlink" xml:space="preserve" xmlns:serif="http://www.serif.com/" style="fill-rule:evenodd;clip-rule:evenodd;stroke-linejoin:round;stroke-miterlimit:1.41421;"><rect id="user-experience-honeycomb" serif:id="user experience honeycomb" x="0.163" y="0.07" width="124.8" height="124.8" style="fill:none;"/><path d="M39.618,62.605l11.075,-19.182l22.149,0l11.075,19.182l-11.075,19.182l-22.149,0l-11.075,-19.182Z" style="fill:#4b4b4b;"/><path d="M83.917,62.605l-11.075,19.182l-22.149,0l-11.075,-19.182l11.075,-19.182l22.149,0l11.075,19.182Zm-31.908,-16.902l-9.758,16.902l9.758,16.902l19.517,0l9.758,-16.902l-9.758,-16.902l-19.517,0Z" style="fill:#f54d3d;"/><path d="M39.381,22.851l11.075,-19.181l22.149,0l11.075,19.181l-11.075,19.182l-22.149,0l-11.075,-19.182Z" style="fill:#4b4b4b;"/><path d="M83.68,22.851l-11.075,19.182l-22.149,0l-11.075,-19.182l11.075,-19.181l22.149,0l11.075,19.181Zm-31.908,-16.901l-9.758,16.901l9.758,16.902l19.517,0l9.758,-16.902l-9.758,-16.901l-19.517,0Z" style="fill:#f54d3d;"/><path d="M74.146,42.805l11.074,-19.182l22.149,0l11.075,19.182l-11.075,19.182l-22.149,0l-11.074,-19.182Z" style="fill:#4b4b4b;"/><path d="M118.444,42.805l-11.075,19.182l-22.149,0l-11.074,-19.182l11.074,-19.182l22.149,0l11.075,19.182Zm-31.907,-16.902l-9.759,16.902l9.759,16.902l19.516,0l9.758,-16.902l-9.758,-16.902l-19.516,0Z" style="fill:#f54d3d;"/><path d="M74.199,82.472l11.075,-19.182l22.149,0l11.075,19.182l-11.075,19.181l-22.149,0l-11.075,-19.181Z" style="fill:#4b4b4b;"/><path d="M118.498,82.472l-11.075,19.181l-22.149,0l-11.075,-19.181l11.075,-19.182l22.149,0l11.075,19.182Zm-31.908,-16.902l-9.758,16.902l9.758,16.901l19.517,0l9.758,-16.901l-9.758,-16.902l-19.517,0Z" style="fill:#f54d3d;"/><path d="M39.707,102.529l11.075,-19.181l22.149,0l11.074,19.181l-11.074,19.182l-22.149,0l-11.075,-19.182Z" style="fill:#4b4b4b;"/><path d="M84.005,102.529l-11.074,19.182l-22.149,0l-11.075,-19.182l11.075,-19.181l22.149,0l11.074,19.181Zm-31.907,-16.901l-9.758,16.901l9.758,16.902l19.516,0l9.758,-16.902l-9.758,-16.901l-19.516,0Z" style="fill:#f54d3d;"/><path d="M5.369,82.555l11.075,-19.182l22.149,0l11.074,19.182l-11.074,19.181l-22.149,0l-11.075,-19.181Z" style="fill:#4b4b4b;"/><path d="M49.667,82.555l-11.074,19.181l-22.149,0l-11.075,-19.181l11.075,-19.182l22.149,0l11.074,19.182Zm-31.907,-16.902l-9.758,16.902l9.758,16.901l19.516,0l9.759,-16.901l-9.759,-16.902l-19.516,0Z" style="fill:#f54d3d;"/><path d="M5.005,42.653l11.074,-19.182l22.149,0l11.075,19.182l-11.075,19.182l-22.149,0l-11.074,-19.182Z" style="fill:#4b4b4b;"/><path d="M49.303,42.653l-11.075,19.182l-22.149,0l-11.074,-19.182l11.074,-19.182l22.149,0l11.075,19.182Zm-31.907,-16.902l-9.759,16.902l9.759,16.902l19.516,0l9.758,-16.902l-9.758,-16.902l-19.516,0Z" style="fill:#f54d3d;"/><g><path d="M84.321,82.08l-1.701,0l0,1.152l1.997,0l0,0.713l-2.884,0l0,-4.303l2.878,0l0,0.718l-1.991,0l0,1.026l1.701,0l0,0.694Z" style="fill:#fff;fill-rule:nonzero;"/><path d="M85.722,80.748l0.026,0.369c0.229,-0.286 0.535,-0.429 0.919,-0.429c0.339,0 0.591,0.1 0.756,0.299c0.166,0.199 0.251,0.496 0.255,0.892l0,2.066l-0.854,0l0,-2.045c0,-0.181 -0.04,-0.313 -0.119,-0.395c-0.078,-0.081 -0.209,-0.122 -0.393,-0.122c-0.24,0 -0.42,0.102 -0.54,0.307l0,2.255l-0.854,0l0,-3.197l0.804,0Z" style="fill:#fff;fill-rule:nonzero;"/><path d="M89.509,83.315c0.158,0 0.286,-0.043 0.384,-0.13c0.099,-0.087 0.15,-0.202 0.154,-0.346l0.8,0c-0.001,0.217 -0.061,0.416 -0.177,0.596c-0.116,0.18 -0.275,0.32 -0.477,0.419c-0.202,0.1 -0.425,0.15 -0.669,0.15c-0.457,0 -0.818,-0.146 -1.082,-0.436c-0.264,-0.291 -0.396,-0.692 -0.396,-1.204l0,-0.056c0,-0.493 0.131,-0.886 0.393,-1.179c0.262,-0.294 0.622,-0.441 1.079,-0.441c0.4,0 0.72,0.114 0.962,0.342c0.241,0.227 0.364,0.53 0.367,0.908l-0.8,0c-0.004,-0.165 -0.055,-0.3 -0.154,-0.403c-0.098,-0.103 -0.228,-0.155 -0.39,-0.155c-0.199,0 -0.349,0.072 -0.451,0.217c-0.101,0.145 -0.152,0.38 -0.152,0.705l0,0.088c0,0.329 0.051,0.566 0.151,0.709c0.1,0.144 0.253,0.216 0.458,0.216Z" style="fill:#fff;fill-rule:nonzero;"/><path d="M91.057,82.316c0,-0.317 0.061,-0.599 0.183,-0.848c0.122,-0.248 0.298,-0.44 0.527,-0.576c0.23,-0.136 0.496,-0.204 0.8,-0.204c0.431,0 0.783,0.132 1.056,0.396c0.273,0.264 0.425,0.623 0.456,1.076l0.006,0.219c0,0.49 -0.137,0.883 -0.41,1.18c-0.274,0.296 -0.641,0.445 -1.102,0.445c-0.461,0 -0.829,-0.148 -1.104,-0.444c-0.275,-0.295 -0.412,-0.697 -0.412,-1.205l0,-0.039Zm0.854,0.063c0,0.303 0.057,0.535 0.171,0.695c0.114,0.161 0.278,0.241 0.491,0.241c0.206,0 0.368,-0.079 0.484,-0.238c0.116,-0.158 0.174,-0.412 0.174,-0.761c0,-0.297 -0.058,-0.527 -0.174,-0.691c-0.116,-0.163 -0.28,-0.245 -0.49,-0.245c-0.209,0 -0.371,0.081 -0.485,0.244c-0.114,0.162 -0.171,0.414 -0.171,0.755Z" style="fill:#fff;fill-rule:nonzero;"/><path d="M95.252,80.748l0.027,0.369c0.228,-0.286 0.534,-0.429 0.919,-0.429c0.338,0 0.59,0.1 0.756,0.299c0.165,0.199 0.25,0.496 0.254,0.892l0,2.066l-0.854,0l0,-2.045c0,-0.181 -0.039,-0.313 -0.118,-0.395c-0.079,-0.081 -0.21,-0.122 -0.393,-0.122c-0.24,0 -0.421,0.102 -0.541,0.307l0,2.255l-0.854,0l0,-3.197l0.804,0Z" style="fill:#fff;fill-rule:nonzero;"/><path d="M98.732,79.962l0,0.786l0.547,0l0,0.626l-0.547,0l0,1.595c0,0.119 0.023,0.203 0.068,0.255c0.045,0.051 0.132,0.076 0.26,0.076c0.095,0 0.178,-0.007 0.251,-0.02l0,0.647c-0.167,0.051 -0.339,0.077 -0.517,0.077c-0.599,0 -0.904,-0.303 -0.916,-0.907l0,-1.723l-0.467,0l0,-0.626l0.467,0l0,-0.786l0.854,0Z" style="fill:#fff;fill-rule:nonzero;"/><path d="M101.406,81.548c-0.116,-0.016 -0.219,-0.023 -0.308,-0.023c-0.323,0 -0.534,0.109 -0.635,0.328l0,2.092l-0.854,0l0,-3.197l0.807,0l0.024,0.381c0.171,-0.294 0.408,-0.441 0.712,-0.441c0.094,0 0.183,0.013 0.266,0.039l-0.012,0.821Z" style="fill:#fff;fill-rule:nonzero;"/><path d="M103.435,83.945c-0.039,-0.077 -0.068,-0.173 -0.085,-0.287c-0.207,0.23 -0.476,0.346 -0.807,0.346c-0.313,0 -0.573,-0.091 -0.779,-0.272c-0.206,-0.181 -0.308,-0.41 -0.308,-0.686c0,-0.339 0.125,-0.599 0.376,-0.78c0.251,-0.181 0.614,-0.273 1.089,-0.275l0.393,0l0,-0.183c0,-0.147 -0.038,-0.266 -0.114,-0.354c-0.076,-0.089 -0.195,-0.133 -0.359,-0.133c-0.143,0 -0.256,0.034 -0.338,0.103c-0.082,0.069 -0.123,0.164 -0.123,0.284l-0.854,0c0,-0.185 0.058,-0.357 0.172,-0.514c0.114,-0.158 0.276,-0.282 0.484,-0.371c0.209,-0.09 0.444,-0.135 0.704,-0.135c0.394,0 0.706,0.099 0.938,0.297c0.231,0.198 0.347,0.477 0.347,0.835l0,1.386c0.002,0.303 0.044,0.533 0.127,0.688l0,0.051l-0.863,0Zm-0.706,-0.594c0.126,0 0.242,-0.028 0.349,-0.085c0.106,-0.056 0.185,-0.131 0.236,-0.226l0,-0.549l-0.319,0c-0.427,0 -0.655,0.148 -0.683,0.443l-0.003,0.05c0,0.107 0.038,0.194 0.113,0.263c0.075,0.069 0.177,0.104 0.307,0.104Z" style="fill:#fff;fill-rule:nonzero;"/><path d="M107.562,82.376c0,0.512 -0.109,0.911 -0.328,1.198c-0.218,0.286 -0.523,0.43 -0.915,0.43c-0.347,0 -0.624,-0.133 -0.831,-0.399l-0.038,0.34l-0.768,0l0,-4.539l0.854,0l0,1.628c0.197,-0.23 0.456,-0.346 0.777,-0.346c0.39,0 0.695,0.144 0.917,0.43c0.222,0.287 0.332,0.69 0.332,1.21l0,0.048Zm-0.853,-0.062c0,-0.324 -0.052,-0.559 -0.154,-0.708c-0.103,-0.149 -0.255,-0.223 -0.458,-0.223c-0.272,0 -0.459,0.111 -0.561,0.334l0,1.261c0.104,0.225 0.293,0.337 0.567,0.337c0.276,0 0.457,-0.136 0.544,-0.408c0.041,-0.13 0.062,-0.328 0.062,-0.593Z" style="fill:#fff;fill-rule:nonzero;"/><rect x="107.987" y="79.406" width="0.857" height="4.538" style="fill:#fff;fill-rule:nonzero;"/><path d="M110.874,84.004c-0.469,0 -0.851,-0.144 -1.145,-0.432c-0.295,-0.287 -0.442,-0.671 -0.442,-1.149l0,-0.083c0,-0.321 0.062,-0.608 0.186,-0.861c0.124,-0.253 0.3,-0.448 0.528,-0.585c0.227,-0.137 0.487,-0.206 0.778,-0.206c0.438,0 0.782,0.138 1.033,0.414c0.251,0.276 0.377,0.667 0.377,1.173l0,0.349l-2.036,0c0.027,0.209 0.111,0.376 0.25,0.502c0.138,0.126 0.314,0.189 0.527,0.189c0.329,0 0.586,-0.119 0.771,-0.357l0.42,0.469c-0.128,0.182 -0.302,0.323 -0.52,0.424c-0.219,0.102 -0.461,0.153 -0.727,0.153Zm-0.098,-2.624c-0.169,0 -0.307,0.057 -0.412,0.171c-0.105,0.114 -0.173,0.278 -0.202,0.491l1.187,0l0,-0.068c-0.003,-0.189 -0.055,-0.336 -0.153,-0.439c-0.099,-0.103 -0.238,-0.155 -0.42,-0.155Z" style="fill:#fff;fill-rule:nonzero;"/></g><g><path d="M59.875,20.903l0,2.833c0,0.471 -0.147,0.843 -0.442,1.117c-0.294,0.274 -0.697,0.411 -1.207,0.411c-0.502,0 -0.901,-0.133 -1.197,-0.399c-0.295,-0.266 -0.446,-0.631 -0.452,-1.096l0,-2.866l0.887,0l0,2.839c0,0.282 0.067,0.487 0.202,0.616c0.135,0.129 0.322,0.194 0.56,0.194c0.498,0 0.752,-0.262 0.759,-0.786l0,-2.863l0.89,0Zm-1.489,-1.153l0.93,0l-0.818,0.916l-0.694,0l0.582,-0.916Z" style="fill:#fff;fill-rule:nonzero;"/><path d="M61.423,21.222l0,0.786l0.546,0l0,0.626l-0.546,0l0,1.596c0,0.118 0.022,0.203 0.068,0.254c0.045,0.051 0.132,0.077 0.26,0.077c0.094,0 0.178,-0.007 0.251,-0.021l0,0.647c-0.168,0.051 -0.34,0.077 -0.517,0.077c-0.599,0 -0.904,-0.302 -0.916,-0.907l0,-1.723l-0.467,0l0,-0.626l0.467,0l0,-0.786l0.854,0Z" style="fill:#fff;fill-rule:nonzero;"/><path d="M63.201,25.205l-0.857,0l0,-3.197l0.857,0l0,3.197Zm-0.907,-4.024c0,-0.129 0.043,-0.234 0.128,-0.317c0.086,-0.082 0.203,-0.124 0.35,-0.124c0.146,0 0.262,0.042 0.349,0.124c0.087,0.083 0.13,0.188 0.13,0.317c0,0.13 -0.044,0.236 -0.131,0.319c-0.088,0.082 -0.204,0.124 -0.348,0.124c-0.143,0 -0.259,-0.042 -0.347,-0.124c-0.087,-0.083 -0.131,-0.189 -0.131,-0.319Z" style="fill:#fff;fill-rule:nonzero;"/><rect x="63.803" y="20.666" width="0.857" height="4.538" style="fill:#fff;fill-rule:nonzero;"/></g><g><path d="M91.561,41.153l0,2.834c0,0.471 -0.147,0.843 -0.442,1.117c-0.294,0.274 -0.697,0.41 -1.207,0.41c-0.502,0 -0.901,-0.133 -1.197,-0.398c-0.295,-0.266 -0.446,-0.632 -0.452,-1.097l0,-2.866l0.887,0l0,2.84c0,0.281 0.067,0.487 0.202,0.616c0.135,0.129 0.322,0.193 0.56,0.193c0.498,0 0.752,-0.262 0.759,-0.786l0,-2.863l0.89,0Z" style="fill:#fff;fill-rule:nonzero;"/><path d="M93.818,44.572c0,-0.104 -0.052,-0.187 -0.155,-0.247c-0.104,-0.06 -0.27,-0.114 -0.498,-0.161c-0.761,-0.159 -1.141,-0.482 -1.141,-0.969c0,-0.284 0.118,-0.52 0.353,-0.711c0.236,-0.19 0.544,-0.285 0.924,-0.285c0.405,0 0.73,0.096 0.973,0.287c0.244,0.191 0.365,0.439 0.365,0.744l-0.854,0c0,-0.122 -0.039,-0.223 -0.118,-0.302c-0.079,-0.08 -0.202,-0.12 -0.369,-0.12c-0.144,0 -0.255,0.032 -0.334,0.097c-0.079,0.065 -0.118,0.148 -0.118,0.249c0,0.094 0.044,0.171 0.134,0.229c0.09,0.058 0.241,0.108 0.454,0.15c0.212,0.043 0.392,0.09 0.537,0.144c0.451,0.165 0.677,0.452 0.677,0.859c0,0.292 -0.125,0.528 -0.375,0.708c-0.25,0.18 -0.573,0.27 -0.969,0.27c-0.268,0 -0.506,-0.047 -0.714,-0.143c-0.208,-0.095 -0.371,-0.226 -0.489,-0.393c-0.118,-0.166 -0.177,-0.346 -0.177,-0.539l0.809,0c0.008,0.152 0.064,0.268 0.169,0.349c0.104,0.08 0.244,0.121 0.419,0.121c0.164,0 0.287,-0.031 0.371,-0.093c0.084,-0.062 0.126,-0.144 0.126,-0.244Z" style="fill:#fff;fill-rule:nonzero;"/><path d="M96.905,45.455c-0.039,-0.076 -0.068,-0.172 -0.086,-0.286c-0.207,0.23 -0.475,0.345 -0.806,0.345c-0.314,0 -0.573,-0.09 -0.779,-0.271c-0.206,-0.182 -0.309,-0.41 -0.309,-0.686c0,-0.339 0.126,-0.599 0.377,-0.78c0.251,-0.181 0.614,-0.273 1.089,-0.275l0.393,0l0,-0.183c0,-0.148 -0.038,-0.266 -0.114,-0.354c-0.076,-0.089 -0.195,-0.133 -0.359,-0.133c-0.144,0 -0.256,0.034 -0.338,0.103c-0.082,0.069 -0.123,0.164 -0.123,0.284l-0.854,0c0,-0.186 0.057,-0.357 0.172,-0.514c0.114,-0.158 0.275,-0.282 0.484,-0.371c0.209,-0.09 0.443,-0.135 0.703,-0.135c0.394,0 0.707,0.099 0.939,0.297c0.231,0.198 0.347,0.476 0.347,0.835l0,1.386c0.002,0.303 0.044,0.533 0.127,0.688l0,0.05l-0.863,0Zm-0.706,-0.594c0.126,0 0.242,-0.028 0.348,-0.084c0.107,-0.056 0.186,-0.131 0.237,-0.226l0,-0.549l-0.319,0c-0.428,0 -0.655,0.147 -0.683,0.443l-0.003,0.05c0,0.106 0.038,0.194 0.113,0.263c0.074,0.069 0.177,0.103 0.307,0.103Z" style="fill:#fff;fill-rule:nonzero;"/><path d="M101.032,43.886c0,0.513 -0.109,0.912 -0.328,1.199c-0.218,0.286 -0.524,0.429 -0.916,0.429c-0.346,0 -0.623,-0.133 -0.83,-0.398l-0.038,0.339l-0.769,0l0,-4.538l0.854,0l0,1.628c0.197,-0.23 0.456,-0.346 0.777,-0.346c0.39,0 0.696,0.144 0.918,0.43c0.221,0.287 0.332,0.69 0.332,1.21l0,0.047Zm-0.854,-0.062c0,-0.323 -0.051,-0.559 -0.153,-0.707c-0.103,-0.149 -0.255,-0.223 -0.458,-0.223c-0.272,0 -0.459,0.111 -0.562,0.334l0,1.261c0.105,0.225 0.294,0.337 0.568,0.337c0.275,0 0.457,-0.136 0.543,-0.408c0.042,-0.13 0.062,-0.328 0.062,-0.594Z" style="fill:#fff;fill-rule:nonzero;"/><rect x="101.457" y="40.917" width="0.857" height="4.538" style="fill:#fff;fill-rule:nonzero;"/><path d="M104.344,45.514c-0.469,0 -0.851,-0.143 -1.145,-0.431c-0.295,-0.288 -0.442,-0.671 -0.442,-1.149l0,-0.083c0,-0.321 0.062,-0.608 0.186,-0.861c0.124,-0.253 0.3,-0.448 0.527,-0.585c0.228,-0.137 0.487,-0.206 0.779,-0.206c0.437,0 0.782,0.138 1.033,0.414c0.251,0.276 0.376,0.667 0.376,1.173l0,0.349l-2.035,0c0.027,0.208 0.11,0.376 0.249,0.502c0.139,0.126 0.315,0.189 0.528,0.189c0.329,0 0.586,-0.119 0.771,-0.358l0.419,0.47c-0.128,0.182 -0.301,0.323 -0.52,0.424c-0.218,0.102 -0.461,0.152 -0.726,0.152Zm-0.098,-2.623c-0.169,0 -0.307,0.057 -0.412,0.171c-0.106,0.114 -0.173,0.278 -0.203,0.491l1.188,0l0,-0.068c-0.004,-0.19 -0.055,-0.336 -0.153,-0.439c-0.099,-0.104 -0.239,-0.155 -0.42,-0.155Z" style="fill:#fff;fill-rule:nonzero;"/></g><g><path d="M56.42,102.85c-0.033,0.462 -0.204,0.827 -0.512,1.093c-0.308,0.266 -0.715,0.399 -1.219,0.399c-0.552,0 -0.985,-0.186 -1.302,-0.557c-0.316,-0.372 -0.474,-0.881 -0.474,-1.529l0,-0.263c0,-0.414 0.073,-0.778 0.219,-1.094c0.146,-0.315 0.354,-0.557 0.625,-0.725c0.271,-0.168 0.585,-0.253 0.944,-0.253c0.496,0 0.896,0.133 1.199,0.399c0.304,0.266 0.479,0.639 0.526,1.12l-0.886,0c-0.022,-0.278 -0.099,-0.479 -0.232,-0.604c-0.133,-0.125 -0.335,-0.188 -0.607,-0.188c-0.296,0 -0.517,0.106 -0.664,0.318c-0.146,0.212 -0.222,0.54 -0.226,0.985l0,0.325c0,0.465 0.071,0.805 0.212,1.02c0.141,0.214 0.363,0.322 0.666,0.322c0.274,0 0.478,-0.063 0.613,-0.188c0.135,-0.125 0.212,-0.319 0.232,-0.58l0.886,0Z" style="fill:#fff;fill-rule:nonzero;"/><path d="M58.598,101.886c-0.117,-0.015 -0.219,-0.023 -0.308,-0.023c-0.323,0 -0.534,0.109 -0.635,0.328l0,2.092l-0.854,0l0,-3.197l0.807,0l0.023,0.381c0.172,-0.294 0.409,-0.441 0.712,-0.441c0.095,0 0.184,0.013 0.266,0.039l-0.011,0.821Z" style="fill:#fff;fill-rule:nonzero;"/><path d="M60.278,104.342c-0.468,0 -0.85,-0.144 -1.145,-0.432c-0.294,-0.287 -0.441,-0.67 -0.441,-1.149l0,-0.083c0,-0.321 0.062,-0.608 0.186,-0.861c0.124,-0.253 0.3,-0.448 0.527,-0.585c0.228,-0.137 0.487,-0.206 0.779,-0.206c0.437,0 0.781,0.138 1.032,0.414c0.252,0.276 0.377,0.667 0.377,1.173l0,0.349l-2.036,0c0.028,0.209 0.111,0.376 0.25,0.502c0.139,0.126 0.315,0.189 0.528,0.189c0.328,0 0.586,-0.119 0.771,-0.357l0.419,0.469c-0.128,0.182 -0.301,0.323 -0.52,0.424c-0.218,0.102 -0.461,0.153 -0.727,0.153Zm-0.097,-2.624c-0.17,0 -0.307,0.057 -0.412,0.171c-0.106,0.114 -0.173,0.278 -0.203,0.491l1.188,0l0,-0.068c-0.004,-0.189 -0.055,-0.336 -0.154,-0.439c-0.098,-0.103 -0.238,-0.155 -0.419,-0.155Z" style="fill:#fff;fill-rule:nonzero;"/><path d="M62.854,104.283l-0.853,0l0,-3.197l0.853,0l0,3.197Zm-0.251,-4.495l0.931,0l-0.818,0.916l-0.695,0l0.582,-0.916Z" style="fill:#fff;fill-rule:nonzero;"/><path d="M66.326,102.714c0,0.512 -0.11,0.911 -0.328,1.198c-0.219,0.286 -0.524,0.43 -0.916,0.43c-0.347,0 -0.624,-0.133 -0.83,-0.399l-0.039,0.34l-0.768,0l0,-4.539l0.854,0l0,1.628c0.197,-0.23 0.456,-0.346 0.777,-0.346c0.39,0 0.696,0.144 0.917,0.43c0.222,0.287 0.333,0.69 0.333,1.21l0,0.048Zm-0.854,-0.062c0,-0.323 -0.051,-0.559 -0.154,-0.708c-0.102,-0.149 -0.255,-0.223 -0.458,-0.223c-0.272,0 -0.459,0.111 -0.561,0.334l0,1.261c0.104,0.225 0.293,0.337 0.567,0.337c0.276,0 0.457,-0.136 0.544,-0.408c0.041,-0.13 0.062,-0.328 0.062,-0.593Z" style="fill:#fff;fill-rule:nonzero;"/><rect x="66.751" y="99.744" width="0.857" height="4.538" style="fill:#fff;fill-rule:nonzero;"/><path d="M69.637,104.342c-0.469,0 -0.85,-0.144 -1.145,-0.432c-0.294,-0.287 -0.442,-0.67 -0.442,-1.149l0,-0.083c0,-0.321 0.062,-0.608 0.187,-0.861c0.124,-0.253 0.299,-0.448 0.527,-0.585c0.227,-0.137 0.487,-0.206 0.779,-0.206c0.437,0 0.781,0.138 1.032,0.414c0.251,0.276 0.377,0.667 0.377,1.173l0,0.349l-2.036,0c0.028,0.209 0.111,0.376 0.25,0.502c0.139,0.126 0.314,0.189 0.527,0.189c0.329,0 0.586,-0.119 0.771,-0.357l0.42,0.469c-0.128,0.182 -0.301,0.323 -0.52,0.424c-0.219,0.102 -0.461,0.153 -0.727,0.153Zm-0.097,-2.624c-0.17,0 -0.307,0.057 -0.413,0.171c-0.105,0.114 -0.172,0.278 -0.202,0.491l1.188,0l0,-0.068c-0.004,-0.189 -0.055,-0.336 -0.154,-0.439c-0.098,-0.103 -0.238,-0.155 -0.419,-0.155Z" style="fill:#fff;fill-rule:nonzero;"/></g><g><path d="M15.183,84.473l0,-4.302l1.324,0c0.378,0 0.716,0.085 1.015,0.255c0.298,0.171 0.531,0.413 0.698,0.727c0.168,0.315 0.251,0.672 0.251,1.071l0,0.198c0,0.4 -0.082,0.756 -0.246,1.067c-0.165,0.311 -0.397,0.553 -0.696,0.724c-0.299,0.171 -0.637,0.258 -1.014,0.26l-1.332,0Zm0.886,-3.584l0,2.872l0.429,0c0.346,0 0.611,-0.113 0.795,-0.34c0.183,-0.226 0.276,-0.551 0.28,-0.972l0,-0.228c0,-0.437 -0.09,-0.768 -0.272,-0.994c-0.181,-0.225 -0.446,-0.338 -0.794,-0.338l-0.438,0Z" style="fill:#fff;fill-rule:nonzero;"/><path d="M20.386,84.532c-0.469,0 -0.851,-0.144 -1.145,-0.431c-0.295,-0.288 -0.442,-0.671 -0.442,-1.15l0,-0.082c0,-0.322 0.062,-0.609 0.186,-0.862c0.124,-0.253 0.3,-0.448 0.528,-0.585c0.227,-0.137 0.487,-0.205 0.778,-0.205c0.437,0 0.782,0.138 1.033,0.414c0.251,0.275 0.377,0.666 0.377,1.173l0,0.348l-2.036,0c0.027,0.209 0.111,0.376 0.249,0.502c0.139,0.127 0.315,0.19 0.528,0.19c0.329,0 0.586,-0.12 0.771,-0.358l0.42,0.47c-0.128,0.181 -0.302,0.322 -0.52,0.424c-0.219,0.101 -0.461,0.152 -0.727,0.152Zm-0.098,-2.624c-0.169,0 -0.307,0.057 -0.412,0.172c-0.105,0.114 -0.173,0.277 -0.202,0.49l1.187,0l0,-0.068c-0.004,-0.189 -0.055,-0.335 -0.153,-0.439c-0.099,-0.103 -0.239,-0.155 -0.42,-0.155Z" style="fill:#fff;fill-rule:nonzero;"/><path d="M23.771,83.589c0,-0.104 -0.051,-0.186 -0.155,-0.246c-0.103,-0.06 -0.269,-0.114 -0.498,-0.161c-0.76,-0.16 -1.14,-0.483 -1.14,-0.969c0,-0.284 0.118,-0.521 0.353,-0.711c0.235,-0.19 0.543,-0.285 0.923,-0.285c0.406,0 0.731,0.095 0.974,0.286c0.243,0.192 0.365,0.44 0.365,0.745l-0.854,0c0,-0.122 -0.04,-0.223 -0.118,-0.303c-0.079,-0.08 -0.202,-0.119 -0.37,-0.119c-0.144,0 -0.255,0.032 -0.334,0.097c-0.078,0.065 -0.118,0.148 -0.118,0.248c0,0.095 0.045,0.171 0.135,0.229c0.089,0.058 0.24,0.109 0.453,0.151c0.213,0.042 0.392,0.09 0.538,0.143c0.451,0.166 0.677,0.452 0.677,0.86c0,0.292 -0.125,0.527 -0.376,0.708c-0.25,0.18 -0.573,0.27 -0.969,0.27c-0.268,0 -0.506,-0.048 -0.713,-0.143c-0.208,-0.096 -0.371,-0.227 -0.489,-0.393c-0.119,-0.167 -0.178,-0.346 -0.178,-0.539l0.81,0c0.008,0.151 0.064,0.267 0.168,0.348c0.105,0.081 0.245,0.121 0.42,0.121c0.163,0 0.287,-0.031 0.371,-0.093c0.083,-0.062 0.125,-0.143 0.125,-0.244Z" style="fill:#fff;fill-rule:nonzero;"/><path d="M26.477,84.532c-0.468,0 -0.85,-0.144 -1.145,-0.431c-0.294,-0.288 -0.441,-0.671 -0.441,-1.15l0,-0.082c0,-0.322 0.062,-0.609 0.186,-0.862c0.124,-0.253 0.3,-0.448 0.527,-0.585c0.228,-0.137 0.487,-0.205 0.779,-0.205c0.437,0 0.781,0.138 1.032,0.414c0.252,0.275 0.377,0.666 0.377,1.173l0,0.348l-2.036,0c0.028,0.209 0.111,0.376 0.25,0.502c0.139,0.127 0.315,0.19 0.528,0.19c0.328,0 0.586,-0.12 0.771,-0.358l0.419,0.47c-0.128,0.181 -0.301,0.322 -0.52,0.424c-0.218,0.101 -0.461,0.152 -0.727,0.152Zm-0.097,-2.624c-0.17,0 -0.307,0.057 -0.412,0.172c-0.106,0.114 -0.173,0.277 -0.203,0.49l1.188,0l0,-0.068c-0.004,-0.189 -0.055,-0.335 -0.154,-0.439c-0.098,-0.103 -0.238,-0.155 -0.419,-0.155Z" style="fill:#fff;fill-rule:nonzero;"/><path d="M29.984,84.473c-0.039,-0.077 -0.068,-0.172 -0.086,-0.287c-0.206,0.231 -0.475,0.346 -0.806,0.346c-0.313,0 -0.573,-0.091 -0.779,-0.272c-0.206,-0.181 -0.308,-0.41 -0.308,-0.685c0,-0.339 0.125,-0.599 0.376,-0.78c0.251,-0.182 0.614,-0.273 1.089,-0.275l0.393,0l0,-0.183c0,-0.148 -0.038,-0.266 -0.114,-0.355c-0.076,-0.089 -0.195,-0.133 -0.359,-0.133c-0.144,0 -0.256,0.035 -0.338,0.104c-0.082,0.069 -0.123,0.163 -0.123,0.283l-0.854,0c0,-0.185 0.058,-0.356 0.172,-0.514c0.114,-0.157 0.276,-0.281 0.484,-0.371c0.209,-0.089 0.444,-0.134 0.704,-0.134c0.394,0 0.706,0.099 0.938,0.297c0.231,0.198 0.347,0.476 0.347,0.834l0,1.386c0.002,0.304 0.044,0.533 0.127,0.689l0,0.05l-0.863,0Zm-0.706,-0.594c0.126,0 0.242,-0.028 0.349,-0.084c0.106,-0.056 0.185,-0.132 0.236,-0.226l0,-0.55l-0.319,0c-0.428,0 -0.655,0.148 -0.683,0.443l-0.003,0.051c0,0.106 0.038,0.194 0.113,0.263c0.075,0.069 0.177,0.103 0.307,0.103Z" style="fill:#fff;fill-rule:nonzero;"/><path d="M34.111,82.904c0,0.512 -0.109,0.912 -0.328,1.198c-0.218,0.287 -0.524,0.43 -0.916,0.43c-0.346,0 -0.623,-0.133 -0.83,-0.399l-0.038,0.34l-0.768,0l0,-4.538l0.853,0l0,1.628c0.197,-0.231 0.457,-0.346 0.778,-0.346c0.39,0 0.695,0.143 0.917,0.43c0.222,0.286 0.332,0.69 0.332,1.21l0,0.047Zm-0.853,-0.062c0,-0.323 -0.052,-0.559 -0.154,-0.708c-0.103,-0.148 -0.255,-0.223 -0.458,-0.223c-0.272,0 -0.459,0.111 -0.562,0.334l0,1.262c0.105,0.224 0.294,0.337 0.568,0.337c0.276,0 0.457,-0.136 0.543,-0.408c0.042,-0.13 0.063,-0.328 0.063,-0.594Z" style="fill:#fff;fill-rule:nonzero;"/><rect x="34.536" y="79.935" width="0.857" height="4.538" style="fill:#fff;fill-rule:nonzero;"/><path d="M37.423,84.532c-0.469,0 -0.851,-0.144 -1.145,-0.431c-0.295,-0.288 -0.442,-0.671 -0.442,-1.15l0,-0.082c0,-0.322 0.062,-0.609 0.186,-0.862c0.124,-0.253 0.3,-0.448 0.528,-0.585c0.227,-0.137 0.487,-0.205 0.778,-0.205c0.437,0 0.782,0.138 1.033,0.414c0.251,0.275 0.377,0.666 0.377,1.173l0,0.348l-2.036,0c0.027,0.209 0.111,0.376 0.249,0.502c0.139,0.127 0.315,0.19 0.528,0.19c0.329,0 0.586,-0.12 0.771,-0.358l0.42,0.47c-0.128,0.181 -0.302,0.322 -0.52,0.424c-0.219,0.101 -0.461,0.152 -0.727,0.152Zm-0.098,-2.624c-0.169,0 -0.307,0.057 -0.412,0.172c-0.105,0.114 -0.173,0.277 -0.202,0.49l1.187,0l0,-0.068c-0.003,-0.189 -0.055,-0.335 -0.153,-0.439c-0.099,-0.103 -0.239,-0.155 -0.42,-0.155Z" style="fill:#fff;fill-rule:nonzero;"/></g><g><path d="M17.096,43.596l-1.554,0l-0.295,0.886l-0.943,0l1.602,-4.302l0.821,0l1.61,4.302l-0.942,0l-0.299,-0.886Zm-1.315,-0.718l1.076,0l-0.541,-1.61l-0.535,1.61Z" style="fill:#fff;fill-rule:nonzero;"/><path d="M19.867,43.853c0.158,0 0.286,-0.043 0.384,-0.13c0.099,-0.087 0.15,-0.202 0.154,-0.346l0.801,0c-0.002,0.217 -0.061,0.415 -0.177,0.596c-0.117,0.18 -0.276,0.32 -0.478,0.419c-0.202,0.1 -0.425,0.149 -0.669,0.149c-0.457,0 -0.817,-0.145 -1.081,-0.435c-0.264,-0.291 -0.396,-0.692 -0.396,-1.204l0,-0.057c0,-0.492 0.131,-0.885 0.393,-1.179c0.262,-0.293 0.621,-0.44 1.078,-0.44c0.4,0 0.721,0.114 0.962,0.342c0.241,0.227 0.364,0.53 0.368,0.908l-0.801,0c-0.004,-0.165 -0.055,-0.3 -0.154,-0.403c-0.098,-0.104 -0.228,-0.155 -0.39,-0.155c-0.198,0 -0.349,0.072 -0.45,0.217c-0.102,0.145 -0.152,0.379 -0.152,0.705l0,0.088c0,0.329 0.05,0.565 0.15,0.709c0.101,0.144 0.254,0.216 0.458,0.216Z" style="fill:#fff;fill-rule:nonzero;"/><path d="M22.878,43.853c0.157,0 0.285,-0.043 0.384,-0.13c0.098,-0.087 0.15,-0.202 0.154,-0.346l0.8,0c-0.002,0.217 -0.061,0.415 -0.177,0.596c-0.116,0.18 -0.275,0.32 -0.477,0.419c-0.202,0.1 -0.425,0.149 -0.669,0.149c-0.457,0 -0.818,-0.145 -1.082,-0.435c-0.264,-0.291 -0.396,-0.692 -0.396,-1.204l0,-0.057c0,-0.492 0.131,-0.885 0.393,-1.179c0.262,-0.293 0.622,-0.44 1.079,-0.44c0.399,0 0.72,0.114 0.961,0.342c0.242,0.227 0.364,0.53 0.368,0.908l-0.8,0c-0.004,-0.165 -0.056,-0.3 -0.154,-0.403c-0.099,-0.104 -0.229,-0.155 -0.39,-0.155c-0.199,0 -0.349,0.072 -0.451,0.217c-0.101,0.145 -0.152,0.379 -0.152,0.705l0,0.088c0,0.329 0.05,0.565 0.151,0.709c0.1,0.144 0.253,0.216 0.458,0.216Z" style="fill:#fff;fill-rule:nonzero;"/><path d="M26.03,44.541c-0.469,0 -0.85,-0.143 -1.145,-0.431c-0.294,-0.288 -0.442,-0.671 -0.442,-1.149l0,-0.083c0,-0.321 0.062,-0.608 0.186,-0.861c0.125,-0.253 0.3,-0.449 0.528,-0.585c0.227,-0.137 0.487,-0.206 0.778,-0.206c0.438,0 0.782,0.138 1.033,0.414c0.251,0.276 0.377,0.667 0.377,1.173l0,0.349l-2.036,0c0.028,0.208 0.111,0.376 0.25,0.502c0.139,0.126 0.314,0.189 0.527,0.189c0.329,0 0.586,-0.119 0.771,-0.358l0.42,0.47c-0.128,0.181 -0.302,0.323 -0.52,0.424c-0.219,0.102 -0.461,0.152 -0.727,0.152Zm-0.098,-2.623c-0.169,0 -0.306,0.057 -0.412,0.171c-0.105,0.114 -0.173,0.278 -0.202,0.49l1.188,0l0,-0.067c-0.004,-0.19 -0.055,-0.336 -0.154,-0.439c-0.098,-0.104 -0.238,-0.155 -0.42,-0.155Z" style="fill:#fff;fill-rule:nonzero;"/><path d="M29.416,43.599c0,-0.105 -0.052,-0.187 -0.156,-0.247c-0.103,-0.06 -0.269,-0.114 -0.497,-0.161c-0.761,-0.159 -1.141,-0.482 -1.141,-0.969c0,-0.284 0.118,-0.521 0.353,-0.711c0.236,-0.19 0.543,-0.285 0.924,-0.285c0.405,0 0.73,0.096 0.973,0.287c0.243,0.191 0.365,0.439 0.365,0.744l-0.854,0c0,-0.122 -0.039,-0.223 -0.118,-0.302c-0.079,-0.08 -0.202,-0.12 -0.369,-0.12c-0.144,0 -0.256,0.032 -0.334,0.097c-0.079,0.065 -0.118,0.148 -0.118,0.249c0,0.094 0.044,0.17 0.134,0.229c0.09,0.058 0.241,0.108 0.453,0.15c0.213,0.043 0.392,0.09 0.538,0.144c0.451,0.165 0.677,0.452 0.677,0.859c0,0.292 -0.125,0.528 -0.375,0.708c-0.251,0.18 -0.574,0.27 -0.97,0.27c-0.267,0 -0.505,-0.047 -0.713,-0.143c-0.208,-0.095 -0.371,-0.226 -0.489,-0.393c-0.118,-0.166 -0.177,-0.346 -0.177,-0.539l0.809,0c0.008,0.152 0.064,0.268 0.169,0.349c0.104,0.08 0.244,0.121 0.419,0.121c0.164,0 0.287,-0.031 0.371,-0.093c0.084,-0.062 0.126,-0.144 0.126,-0.244Z" style="fill:#fff;fill-rule:nonzero;"/><path d="M31.551,44.482l-0.856,0l0,-3.197l0.856,0l0,3.197Zm-0.907,-4.024c0,-0.128 0.043,-0.233 0.129,-0.316c0.086,-0.083 0.202,-0.124 0.35,-0.124c0.146,0 0.262,0.041 0.349,0.124c0.086,0.083 0.13,0.188 0.13,0.316c0,0.13 -0.044,0.236 -0.132,0.319c-0.088,0.083 -0.203,0.124 -0.347,0.124c-0.144,0 -0.26,-0.041 -0.347,-0.124c-0.088,-0.083 -0.132,-0.189 -0.132,-0.319Z" style="fill:#fff;fill-rule:nonzero;"/><path d="M34.99,42.913c0,0.513 -0.109,0.912 -0.328,1.199c-0.218,0.286 -0.524,0.429 -0.916,0.429c-0.346,0 -0.623,-0.133 -0.83,-0.398l-0.038,0.339l-0.769,0l0,-4.538l0.854,0l0,1.628c0.197,-0.231 0.456,-0.346 0.777,-0.346c0.39,0 0.696,0.144 0.918,0.43c0.221,0.287 0.332,0.69 0.332,1.21l0,0.047Zm-0.854,-0.062c0,-0.323 -0.051,-0.559 -0.153,-0.707c-0.103,-0.149 -0.255,-0.223 -0.458,-0.223c-0.272,0 -0.459,0.111 -0.562,0.333l0,1.262c0.105,0.225 0.294,0.337 0.568,0.337c0.275,0 0.457,-0.136 0.543,-0.408c0.042,-0.13 0.062,-0.328 0.062,-0.594Z" style="fill:#fff;fill-rule:nonzero;"/><rect x="35.415" y="39.944" width="0.857" height="4.538" style="fill:#fff;fill-rule:nonzero;"/><path d="M38.302,44.541c-0.469,0 -0.851,-0.143 -1.145,-0.431c-0.295,-0.288 -0.442,-0.671 -0.442,-1.149l0,-0.083c0,-0.321 0.062,-0.608 0.186,-0.861c0.124,-0.253 0.3,-0.449 0.527,-0.585c0.228,-0.137 0.487,-0.206 0.779,-0.206c0.437,0 0.782,0.138 1.033,0.414c0.251,0.276 0.376,0.667 0.376,1.173l0,0.349l-2.035,0c0.027,0.208 0.11,0.376 0.249,0.502c0.139,0.126 0.315,0.189 0.528,0.189c0.329,0 0.586,-0.119 0.771,-0.358l0.419,0.47c-0.128,0.181 -0.301,0.323 -0.52,0.424c-0.218,0.102 -0.461,0.152 -0.726,0.152Zm-0.098,-2.623c-0.169,0 -0.307,0.057 -0.412,0.171c-0.106,0.114 -0.173,0.278 -0.203,0.49l1.188,0l0,-0.067c-0.004,-0.19 -0.055,-0.336 -0.153,-0.439c-0.099,-0.104 -0.239,-0.155 -0.42,-0.155Z" style="fill:#fff;fill-rule:nonzero;"/></g><g><path d="M53.676,63.465l0.975,-3.235l0.987,0l-1.498,4.302l-0.925,0l-1.492,-4.302l0.983,0l0.97,3.235Z" style="fill:#fff;fill-rule:nonzero;"/><path d="M57.558,64.532c-0.04,-0.077 -0.068,-0.173 -0.086,-0.287c-0.207,0.231 -0.476,0.346 -0.807,0.346c-0.313,0 -0.572,-0.091 -0.778,-0.272c-0.206,-0.181 -0.309,-0.41 -0.309,-0.686c0,-0.338 0.126,-0.598 0.377,-0.78c0.251,-0.181 0.614,-0.272 1.089,-0.274l0.392,0l0,-0.184c0,-0.147 -0.037,-0.265 -0.113,-0.354c-0.076,-0.089 -0.196,-0.133 -0.359,-0.133c-0.144,0 -0.257,0.034 -0.339,0.103c-0.081,0.069 -0.122,0.164 -0.122,0.284l-0.854,0c0,-0.185 0.057,-0.357 0.171,-0.514c0.115,-0.158 0.276,-0.281 0.485,-0.371c0.209,-0.09 0.443,-0.134 0.703,-0.134c0.394,0 0.707,0.099 0.938,0.297c0.232,0.198 0.347,0.476 0.347,0.834l0,1.386c0.002,0.303 0.045,0.533 0.127,0.688l0,0.051l-0.862,0Zm-0.707,-0.594c0.127,0 0.243,-0.028 0.349,-0.084c0.106,-0.057 0.185,-0.132 0.236,-0.226l0,-0.55l-0.319,0c-0.427,0 -0.655,0.148 -0.682,0.443l-0.003,0.05c0,0.107 0.037,0.194 0.112,0.263c0.075,0.069 0.177,0.104 0.307,0.104Z" style="fill:#fff;fill-rule:nonzero;"/><rect x="58.848" y="59.993" width="0.857" height="4.538" style="fill:#fff;fill-rule:nonzero;"/><path d="M61.164,64.532l-0.856,0l0,-3.197l0.856,0l0,3.197Zm-0.907,-4.025c0,-0.128 0.043,-0.233 0.129,-0.316c0.086,-0.083 0.202,-0.124 0.35,-0.124c0.146,0 0.262,0.041 0.349,0.124c0.086,0.083 0.13,0.188 0.13,0.316c0,0.13 -0.044,0.237 -0.132,0.319c-0.087,0.083 -0.203,0.125 -0.347,0.125c-0.144,0 -0.26,-0.042 -0.347,-0.125c-0.088,-0.082 -0.132,-0.189 -0.132,-0.319Z" style="fill:#fff;fill-rule:nonzero;"/><path d="M61.589,62.904c0,-0.317 0.062,-0.6 0.184,-0.848c0.122,-0.249 0.298,-0.441 0.527,-0.577c0.23,-0.135 0.496,-0.203 0.799,-0.203c0.432,0 0.784,0.132 1.057,0.396c0.272,0.263 0.425,0.622 0.456,1.075l0.006,0.219c0,0.49 -0.137,0.884 -0.411,1.18c-0.273,0.297 -0.641,0.445 -1.102,0.445c-0.461,0 -0.829,-0.148 -1.103,-0.443c-0.275,-0.296 -0.413,-0.698 -0.413,-1.206l0,-0.038Zm0.854,0.062c0,0.303 0.057,0.535 0.172,0.696c0.114,0.16 0.277,0.24 0.49,0.24c0.207,0 0.369,-0.079 0.485,-0.238c0.116,-0.158 0.174,-0.412 0.174,-0.76c0,-0.298 -0.058,-0.528 -0.174,-0.692c-0.116,-0.163 -0.28,-0.245 -0.491,-0.245c-0.208,0 -0.37,0.081 -0.484,0.244c-0.115,0.162 -0.172,0.414 -0.172,0.755Z" style="fill:#fff;fill-rule:nonzero;"/><path d="M66.73,63.648c0,-0.104 -0.052,-0.186 -0.155,-0.246c-0.103,-0.061 -0.269,-0.114 -0.498,-0.162c-0.76,-0.159 -1.14,-0.482 -1.14,-0.969c0,-0.283 0.117,-0.52 0.353,-0.71c0.235,-0.19 0.543,-0.285 0.923,-0.285c0.406,0 0.73,0.095 0.974,0.286c0.243,0.191 0.365,0.439 0.365,0.745l-0.854,0c0,-0.122 -0.04,-0.223 -0.119,-0.303c-0.078,-0.08 -0.201,-0.12 -0.369,-0.12c-0.144,0 -0.255,0.033 -0.334,0.098c-0.079,0.065 -0.118,0.148 -0.118,0.248c0,0.095 0.045,0.171 0.135,0.229c0.089,0.058 0.24,0.108 0.453,0.151c0.213,0.042 0.392,0.09 0.538,0.143c0.451,0.165 0.676,0.452 0.676,0.86c0,0.291 -0.125,0.527 -0.375,0.707c-0.25,0.181 -0.573,0.271 -0.969,0.271c-0.268,0 -0.506,-0.048 -0.713,-0.144c-0.208,-0.095 -0.371,-0.226 -0.489,-0.393c-0.119,-0.166 -0.178,-0.346 -0.178,-0.539l0.81,0c0.008,0.152 0.064,0.268 0.168,0.349c0.105,0.081 0.244,0.121 0.42,0.121c0.163,0 0.287,-0.031 0.371,-0.093c0.083,-0.062 0.125,-0.143 0.125,-0.244Z" style="fill:#fff;fill-rule:nonzero;"/><path d="M67.832,62.904c0,-0.317 0.061,-0.6 0.183,-0.848c0.122,-0.249 0.298,-0.441 0.527,-0.577c0.23,-0.135 0.496,-0.203 0.8,-0.203c0.431,0 0.783,0.132 1.056,0.396c0.273,0.263 0.425,0.622 0.456,1.075l0.006,0.219c0,0.49 -0.136,0.884 -0.41,1.18c-0.274,0.297 -0.641,0.445 -1.102,0.445c-0.461,0 -0.829,-0.148 -1.104,-0.443c-0.275,-0.296 -0.412,-0.698 -0.412,-1.206l0,-0.038Zm0.854,0.062c0,0.303 0.057,0.535 0.171,0.696c0.114,0.16 0.278,0.24 0.491,0.24c0.206,0 0.368,-0.079 0.484,-0.238c0.116,-0.158 0.174,-0.412 0.174,-0.76c0,-0.298 -0.058,-0.528 -0.174,-0.692c-0.116,-0.163 -0.28,-0.245 -0.49,-0.245c-0.209,0 -0.371,0.081 -0.485,0.244c-0.114,0.162 -0.171,0.414 -0.171,0.755Z" style="fill:#fff;fill-rule:nonzero;"/></g></svg>