<?xml version="1.0" encoding="UTF-8" standalone="no"?><!DOCTYPE svg PUBLIC "-//W3C//DTD SVG 1.1//EN" "http://www.w3.org/Graphics/SVG/1.1/DTD/svg11.dtd"><svg width="100%" height="100%" viewBox="0 0 126 126" version="1.1" xmlns="http://www.w3.org/2000/svg" xmlns:xlink="http://www.w3.org/1999/xlink" xml:space="preserve" xmlns:serif="http://www.serif.com/" style="fill-rule:evenodd;clip-rule:evenodd;stroke-linejoin:round;stroke-miterlimit:1.41421;"><rect id="user-experience" serif:id="user experience" x="0.084" y="0.135" width="124.8" height="124.8" style="fill:none;"/><path d="M101.847,34.005l0.632,0.28l0.532,0.442l0.39,0.571l0.219,0.656l0.031,0.691l-0.16,0.673l-0.338,0.604l-42.687,56.211l-0.55,0.531l-0.685,0.34l-0.756,0.117l-0.756,-0.117l-0.685,-0.34l-0.55,-0.531l-42.686,-56.211l-0.338,-0.604l-0.16,-0.673l0.031,-0.691l0.218,-0.656l0.391,-0.571l0.531,-0.442l0.633,-0.28l0.685,-0.095l85.373,0l0.685,0.095Zm-86.058,2.405l42.686,56.211l42.687,-56.211l-85.373,0Z" style="fill:#a1a1a1;"/><path d="M19.513,20.175l0.106,0.001l0.103,0.002l0.104,0.002l0.105,0.003l0.103,0.004l0.103,0.004l0.105,0.005l0.104,0.006l0.102,0.006l0.104,0.007l0.103,0.007l0.102,0.008l0.102,0.009l0.104,0.01l0.102,0.01l0.102,0.01l0.102,0.012l0.103,0.012l0.101,0.012l0.101,0.014l0.101,0.013l0.101,0.015l0.102,0.015l0.1,0.016l0.1,0.016l0.101,0.017l0.1,0.018l0.099,0.018l0.1,0.019l0.1,0.019l0.099,0.02l0.099,0.021l0.099,0.021l0.098,0.022l0.099,0.022l0.098,0.023l0.097,0.024l0.098,0.024l0.098,0.025l0.097,0.025l0.096,0.026l0.098,0.026l0.097,0.028l0.096,0.027l0.096,0.029l0.095,0.028l0.096,0.03l0.095,0.03l0.095,0.03l0.096,0.032l0.093,0.031l0.095,0.032l0.095,0.034l0.092,0.033l0.094,0.033l0.094,0.035l0.092,0.035l0.093,0.036l0.093,0.036l0.091,0.036l0.092,0.038l0.092,0.038l0.091,0.038l0.091,0.039l0.091,0.039l0.09,0.04l0.091,0.04l0.089,0.041l0.089,0.042l0.09,0.042l0.089,0.042l0.088,0.043l0.089,0.044l0.088,0.044l0.086,0.044l0.089,0.046l0.088,0.046l0.085,0.045l0.087,0.047l0.086,0.047l0.086,0.048l0.086,0.048l0.084,0.048l0.086,0.05l0.085,0.05l0.083,0.05l0.083,0.05l0.084,0.051l0.084,0.052l0.082,0.052l0.083,0.053l0.083,0.053l0.081,0.053l0.081,0.054l0.082,0.055l0.08,0.055l0.08,0.055l0.081,0.056l0.08,0.056l0.079,0.057l0.079,0.057l0.078,0.058l0.079,0.058l0.077,0.059l0.078,0.059l0.077,0.059l0.077,0.06l0.077,0.061l0.076,0.061l0.075,0.061l0.076,0.062l0.075,0.062l0.074,0.063l0.074,0.063l0.073,0.063l0.075,0.065l0.072,0.064l0.073,0.064l0.072,0.066l0.072,0.065l0.071,0.066l0.072,0.067l0.07,0.067l0.07,0.067l0.07,0.068l0.069,0.068l0.07,0.069l0.068,0.069l0.068,0.069l0.068,0.07l0.067,0.07l0.068,0.071l0.066,0.071l0.066,0.071l0.066,0.072l0.065,0.073l0.064,0.072l0.065,0.073l0.064,0.074l0.063,0.073l0.064,0.074l0.063,0.075l0.061,0.075l0.062,0.075l0.061,0.075l0.061,0.077l0.061,0.077l0.06,0.076l0.06,0.077l0.058,0.078l0.059,0.077l0.058,0.079l0.058,0.078l0.058,0.08l0.056,0.079l0.056,0.079l0.056,0.08l0.056,0.082l0.055,0.08l0.054,0.08l0.054,0.083l0.054,0.082l0.053,0.081l0.052,0.083l0.052,0.082l0.052,0.084l0.051,0.084l0.05,0.083l0.051,0.084l0.05,0.085l0.049,0.085l0.048,0.085l0.048,0.086l0.048,0.085l0.047,0.086l0.047,0.087l0.046,0.087l0.046,0.087l0.045,0.087l0.044,0.088l0.044,0.087l0.044,0.089l0.043,0.089l0.043,0.089l0.041,0.089l0.042,0.089l0.041,0.09l0.04,0.09l0.04,0.09l0.04,0.091l0.039,0.091l0.038,0.092l0.038,0.091l0.037,0.091l0.036,0.093l0.037,0.092l0.035,0.093l0.035,0.093l0.035,0.093l0.034,0.094l0.033,0.093l0.033,0.094l0.032,0.095l0.032,0.094l0.031,0.095l0.031,0.095l0.029,0.095l0.03,0.096l0.029,0.096l0.028,0.095l0.028,0.097l0.027,0.096l0.026,0.097l0.026,0.097l0.026,0.098l0.024,0.097l0.025,0.097l0.023,0.099l0.023,0.098l0.023,0.098l0.021,0.099l0.022,0.098l0.02,0.1l0.02,0.099l0.02,0.099l0.019,0.1l0.018,0.1l0.017,0.1l0.017,0.1l0.017,0.1l0.015,0.101l0.015,0.101l0.015,0.101l0.014,0.101l0.013,0.102l0.013,0.101l0.012,0.102l0.011,0.102l0.011,0.102l0.01,0.103l0.009,0.102l0.009,0.103l0.008,0.103l0.008,0.103l0.006,0.103l0.007,0.103l0.005,0.104l0.005,0.103l0.005,0.104l0.003,0.104l0.003,0.104l0.002,0.104l0.002,0.104l0.001,0.105l0,0.105l0,0.105l-0.001,0.104l-0.002,0.104l-0.002,0.104l-0.003,0.105l-0.003,0.103l-0.005,0.104l-0.005,0.104l-0.005,0.103l-0.007,0.104l-0.006,0.103l-0.008,0.103l-0.008,0.102l-0.009,0.103l-0.009,0.103l-0.01,0.102l-0.011,0.102l-0.011,0.102l-0.012,0.102l-0.013,0.102l-0.013,0.101l-0.014,0.101l-0.015,0.101l-0.015,0.101l-0.015,0.101l-0.017,0.1l-0.017,0.101l-0.017,0.1l-0.018,0.099l-0.019,0.1l-0.02,0.1l-0.02,0.099l-0.02,0.099l-0.022,0.099l-0.021,0.099l-0.023,0.098l-0.023,0.098l-0.023,0.098l-0.025,0.098l-0.024,0.097l-0.026,0.097l-0.026,0.098l-0.026,0.096l-0.027,0.097l-0.028,0.096l-0.028,0.096l-0.029,0.096l-0.03,0.095l-0.029,0.095l-0.031,0.096l-0.031,0.094l-0.032,0.094l-0.032,0.095l-0.033,0.094l-0.033,0.094l-0.034,0.093l-0.035,0.094l-0.035,0.093l-0.035,0.092l-0.037,0.093l-0.036,0.092l-0.037,0.091l-0.038,0.092l-0.038,0.091l-0.039,0.091l-0.04,0.091l-0.039,0.09l-0.041,0.09l-0.041,0.09l-0.042,0.09l-0.042,0.089l-0.042,0.089l-0.043,0.088l-0.044,0.089l-0.044,0.088l-0.044,0.087l-0.045,0.088l-0.046,0.087l-0.046,0.087l-0.047,0.086l-0.047,0.086l-0.048,0.086l-0.048,0.085l-0.048,0.086l-0.049,0.084l-0.05,0.086l-0.05,0.083l-0.051,0.084l-0.051,0.083l-0.052,0.084l-0.052,0.083l-0.052,0.082l-0.053,0.082l-0.054,0.082l-0.054,0.082l-0.054,0.081l-0.055,0.081l-0.056,0.08l-0.056,0.08l-0.056,0.079l-0.056,0.08l-0.058,0.079l-0.058,0.079l-0.058,0.077l-0.059,0.079l-0.059,0.078l-0.059,0.076l-0.06,0.077l-0.061,0.077l-0.06,0.076l-0.062,0.076l-0.062,0.075l-0.061,0.074l-0.063,0.075l-0.064,0.075l-0.063,0.073l-0.064,0.073l-0.064,0.073l-0.065,0.073l-0.065,0.072l-0.066,0.072l-0.067,0.072l-0.065,0.07l-0.067,0.071l-0.068,0.071l-0.068,0.07l-0.068,0.068l-0.068,0.069l-0.07,0.069l-0.069,0.069l-0.069,0.067l-0.071,0.067l-0.071,0.068l-0.071,0.066l-0.071,0.066l-0.072,0.065l-0.072,0.066l-0.073,0.065l-0.072,0.064l-0.075,0.065l-0.073,0.063l-0.074,0.062l-0.074,0.063l-0.075,0.063l-0.076,0.062l-0.075,0.06l-0.076,0.062l-0.077,0.06l-0.077,0.06l-0.077,0.06l-0.078,0.059l-0.077,0.058l-0.079,0.058l-0.078,0.058l-0.079,0.057l-0.079,0.057l-0.08,0.056l-0.081,0.057l-0.08,0.055l-0.08,0.055l-0.082,0.055l-0.081,0.053l-0.081,0.053l-0.083,0.054l-0.083,0.053l-0.082,0.051l-0.083,0.052l-0.085,0.052l-0.083,0.05l-0.083,0.05l-0.086,0.05l-0.085,0.049l-0.084,0.048l-0.086,0.048l-0.086,0.048l-0.085,0.047l-0.088,0.047l-0.086,0.046l-0.087,0.046l-0.088,0.045l-0.087,0.044l-0.089,0.045l-0.088,0.043l-0.088,0.043l-0.089,0.043l-0.089,0.041l-0.09,0.042l-0.09,0.041l-0.09,0.041l-0.09,0.039l-0.091,0.04l-0.091,0.039l-0.091,0.038l-0.092,0.038l-0.092,0.037l-0.091,0.037l-0.093,0.036l-0.093,0.035l-0.092,0.035l-0.093,0.035l-0.095,0.034l-0.093,0.033l-0.093,0.033l-0.096,0.032l-0.094,0.032l-0.093,0.031l-0.097,0.031l-0.096,0.03l-0.095,0.029l-0.095,0.029l-0.096,0.028l-0.096,0.028l-0.097,0.027l-0.096,0.026l-0.098,0.026l-0.098,0.026l-0.097,0.025l-0.098,0.024l-0.097,0.023l-0.097,0.023l-0.1,0.023l-0.099,0.022l-0.098,0.021l-0.099,0.02l-0.099,0.02l-0.1,0.02l-0.1,0.019l-0.099,0.018l-0.1,0.017l-0.101,0.017l-0.1,0.017l-0.1,0.015l-0.101,0.015l-0.102,0.015l-0.101,0.014l-0.101,0.013l-0.102,0.013l-0.102,0.012l-0.102,0.011l-0.102,0.011l-0.102,0.01l-0.103,0.009l-0.103,0.009l-0.103,0.008l-0.102,0.008l-0.103,0.007l-0.103,0.006l-0.105,0.005l-0.103,0.005l-0.104,0.005l-0.104,0.003l-0.103,0.003l-0.105,0.003l-0.104,0.001l-0.105,0.001l-0.104,0.001l-0.105,-0.001l-0.104,-0.001l-0.105,-0.001l-0.105,-0.003l-0.103,-0.003l-0.104,-0.003l-0.104,-0.005l-0.103,-0.005l-0.104,-0.005l-0.104,-0.006l-0.102,-0.007l-0.103,-0.008l-0.103,-0.008l-0.103,-0.009l-0.103,-0.009l-0.102,-0.01l-0.101,-0.011l-0.103,-0.011l-0.101,-0.012l-0.103,-0.013l-0.101,-0.013l-0.101,-0.014l-0.102,-0.015l-0.1,-0.015l-0.101,-0.015l-0.1,-0.017l-0.1,-0.017l-0.1,-0.017l-0.1,-0.018l-0.1,-0.019l-0.099,-0.02l-0.1,-0.02l-0.099,-0.02l-0.098,-0.021l-0.099,-0.022l-0.1,-0.023l-0.097,-0.023l-0.097,-0.023l-0.098,-0.024l-0.097,-0.025l-0.098,-0.025l-0.097,-0.027l-0.097,-0.026l-0.097,-0.027l-0.096,-0.028l-0.095,-0.028l-0.096,-0.029l-0.095,-0.029l-0.096,-0.03l-0.096,-0.031l-0.094,-0.031l-0.094,-0.032l-0.095,-0.032l-0.093,-0.033l-0.094,-0.033l-0.095,-0.034l-0.093,-0.035l-0.092,-0.035l-0.093,-0.035l-0.092,-0.036l-0.092,-0.037l-0.092,-0.037l-0.092,-0.038l-0.09,-0.038l-0.092,-0.039l-0.091,-0.04l-0.09,-0.039l-0.089,-0.041l-0.091,-0.041l-0.09,-0.042l-0.089,-0.041l-0.088,-0.043l-0.089,-0.043l-0.088,-0.043l-0.089,-0.045l-0.087,-0.044l-0.087,-0.045l-0.087,-0.046l-0.087,-0.046l-0.088,-0.047l-0.085,-0.047l-0.086,-0.048l-0.085,-0.048l-0.085,-0.048l-0.085,-0.049l-0.085,-0.05l-0.084,-0.05l-0.083,-0.05l-0.085,-0.052l-0.083,-0.052l-0.082,-0.051l-0.083,-0.053l-0.082,-0.053l-0.082,-0.054l-0.081,-0.054l-0.081,-0.054l-0.081,-0.055l-0.08,-0.055l-0.081,-0.057l-0.079,-0.056l-0.08,-0.057l-0.078,-0.057l-0.079,-0.057l-0.078,-0.059l-0.078,-0.058l-0.078,-0.059l-0.077,-0.06l-0.077,-0.06l-0.076,-0.061l-0.077,-0.061l-0.075,-0.06l-0.075,-0.062l-0.075,-0.063l-0.075,-0.063l-0.074,-0.062l-0.073,-0.063l-0.075,-0.065l-0.072,-0.064l-0.073,-0.065l-0.072,-0.066l-0.072,-0.065l-0.071,-0.066l-0.071,-0.066l-0.071,-0.068l-0.071,-0.068l-0.069,-0.066l-0.069,-0.068l-0.07,-0.07l-0.068,-0.069l-0.068,-0.069l-0.067,-0.069l-0.068,-0.071l-0.067,-0.071l-0.066,-0.07l-0.067,-0.072l-0.065,-0.072l-0.066,-0.072l-0.065,-0.073l-0.064,-0.073l-0.064,-0.073l-0.063,-0.074l-0.063,-0.074l-0.063,-0.075l-0.062,-0.074l-0.062,-0.075l-0.062,-0.077l-0.06,-0.075l-0.061,-0.077l-0.06,-0.077l-0.059,-0.076l-0.059,-0.078l-0.059,-0.079l-0.058,-0.077l-0.058,-0.079l-0.057,-0.079l-0.057,-0.08l-0.056,-0.079l-0.056,-0.08l-0.055,-0.08l-0.055,-0.081l-0.055,-0.082l-0.054,-0.081l-0.054,-0.082l-0.052,-0.082l-0.053,-0.082l-0.052,-0.083l-0.052,-0.084l-0.051,-0.083l-0.05,-0.084l-0.05,-0.084l-0.05,-0.085l-0.049,-0.084l-0.049,-0.086l-0.048,-0.085l-0.048,-0.086l-0.047,-0.086l-0.046,-0.086l-0.047,-0.087l-0.045,-0.087l-0.046,-0.088l-0.044,-0.087l-0.044,-0.088l-0.044,-0.089l-0.043,-0.088l-0.042,-0.089l-0.042,-0.089l-0.042,-0.09l-0.041,-0.089l-0.04,-0.091l-0.04,-0.09l-0.039,-0.091l-0.039,-0.091l-0.039,-0.091l-0.038,-0.092l-0.036,-0.091l-0.037,-0.092l-0.036,-0.093l-0.036,-0.093l-0.035,-0.092l-0.034,-0.094l-0.035,-0.093l-0.033,-0.094l-0.033,-0.094l-0.032,-0.094l-0.032,-0.095l-0.031,-0.094l-0.03,-0.096l-0.03,-0.095l-0.03,-0.095l-0.028,-0.096l-0.029,-0.096l-0.027,-0.096l-0.028,-0.097l-0.026,-0.097l-0.026,-0.097l-0.026,-0.097l-0.024,-0.097l-0.024,-0.098l-0.024,-0.098l-0.023,-0.098l-0.022,-0.099l-0.022,-0.098l-0.021,-0.099l-0.021,-0.099l-0.02,-0.099l-0.019,-0.1l-0.019,-0.099l-0.018,-0.1l-0.018,-0.1l-0.017,-0.101l-0.016,-0.1l-0.016,-0.101l-0.015,-0.101l-0.015,-0.101l-0.014,-0.101l-0.013,-0.102l-0.012,-0.101l-0.012,-0.102l-0.012,-0.102l-0.01,-0.102l-0.01,-0.102l-0.01,-0.103l-0.009,-0.102l-0.008,-0.103l-0.007,-0.103l-0.007,-0.103l-0.006,-0.104l-0.006,-0.103l-0.005,-0.104l-0.004,-0.103l-0.004,-0.104l-0.003,-0.105l-0.002,-0.104l-0.002,-0.104l-0.001,-0.105l0,-0.104l0,-0.105l0.001,-0.105l0.002,-0.104l0.002,-0.104l0.003,-0.104l0.004,-0.104l0.004,-0.103l0.005,-0.104l0.006,-0.104l0.006,-0.103l0.007,-0.103l0.007,-0.103l0.008,-0.103l0.009,-0.103l0.01,-0.102l0.01,-0.103l0.01,-0.101l0.012,-0.103l0.012,-0.102l0.012,-0.101l0.014,-0.102l0.013,-0.101l0.015,-0.101l0.015,-0.101l0.016,-0.1l0.016,-0.101l0.017,-0.1l0.018,-0.1l0.018,-0.1l0.019,-0.1l0.019,-0.099l0.02,-0.1l0.021,-0.099l0.021,-0.098l0.022,-0.099l0.022,-0.098l0.023,-0.098l0.024,-0.099l0.024,-0.097l0.024,-0.097l0.026,-0.098l0.026,-0.097l0.026,-0.097l0.028,-0.096l0.027,-0.096l0.029,-0.097l0.028,-0.095l0.03,-0.096l0.03,-0.095l0.03,-0.095l0.031,-0.095l0.032,-0.094l0.032,-0.095l0.033,-0.094l0.033,-0.093l0.035,-0.094l0.034,-0.093l0.035,-0.093l0.036,-0.093l0.036,-0.092l0.037,-0.093l0.036,-0.091l0.038,-0.091l0.039,-0.092l0.039,-0.091l0.039,-0.09l0.04,-0.091l0.04,-0.09l0.041,-0.09l0.042,-0.089l0.042,-0.089l0.042,-0.089l0.043,-0.089l0.044,-0.089l0.044,-0.087l0.044,-0.088l0.046,-0.087l0.045,-0.087l0.047,-0.088l0.046,-0.086l0.047,-0.086l0.048,-0.085l0.048,-0.086l0.049,-0.085l0.049,-0.085l0.05,-0.085l0.05,-0.084l0.05,-0.083l0.051,-0.084l0.052,-0.083l0.052,-0.083l0.053,-0.083l0.052,-0.081l0.054,-0.082l0.054,-0.083l0.055,-0.08l0.054,-0.08l0.056,-0.082l0.056,-0.08l0.056,-0.079l0.057,-0.079l0.057,-0.08l0.058,-0.078l0.058,-0.079l0.059,-0.077l0.059,-0.078l0.059,-0.077l0.06,-0.076l0.061,-0.077l0.061,-0.077l0.061,-0.075l0.062,-0.075l0.062,-0.075l0.063,-0.075l0.063,-0.074l0.063,-0.073l0.064,-0.074l0.065,-0.073l0.064,-0.072l0.066,-0.073l0.065,-0.072l0.066,-0.071l0.067,-0.071l0.067,-0.071l0.068,-0.07l0.067,-0.069l0.068,-0.07l0.068,-0.069l0.07,-0.069l0.069,-0.068l0.07,-0.068l0.07,-0.067l0.071,-0.067l0.071,-0.067l0.071,-0.066l0.072,-0.065l0.072,-0.066l0.073,-0.064l0.072,-0.064l0.075,-0.065l0.073,-0.063l0.074,-0.063l0.075,-0.063l0.075,-0.062l0.075,-0.062l0.075,-0.061l0.077,-0.061l0.076,-0.06l0.077,-0.061l0.077,-0.059l0.078,-0.059l0.078,-0.059l0.078,-0.058l0.079,-0.058l0.078,-0.057l0.08,-0.057l0.079,-0.056l0.081,-0.056l0.08,-0.055l0.081,-0.055l0.081,-0.055l0.081,-0.054l0.082,-0.053l0.082,-0.053l0.083,-0.053l0.082,-0.052l0.084,-0.052l0.084,-0.051l0.083,-0.05l0.084,-0.05l0.084,-0.05l0.086,-0.05l0.085,-0.048l0.085,-0.048l0.086,-0.048l0.086,-0.047l0.087,-0.046l0.086,-0.046l0.088,-0.046l0.088,-0.046l0.086,-0.044l0.088,-0.044l0.089,-0.044l0.089,-0.043l0.088,-0.042l0.09,-0.042l0.089,-0.042l0.089,-0.041l0.091,-0.04l0.09,-0.04l0.091,-0.039l0.092,-0.039l0.09,-0.038l0.092,-0.038l0.092,-0.038l0.092,-0.036l0.092,-0.036l0.093,-0.036l0.092,-0.035l0.094,-0.035l0.094,-0.033l0.093,-0.033l0.095,-0.034l0.094,-0.032l0.093,-0.031l0.096,-0.032l0.095,-0.03l0.095,-0.03l0.096,-0.03l0.096,-0.028l0.095,-0.029l0.096,-0.027l0.097,-0.027l0.098,-0.027l0.096,-0.026l0.097,-0.025l0.098,-0.025l0.098,-0.024l0.097,-0.024l0.099,-0.023l0.098,-0.022l0.098,-0.022l0.099,-0.021l0.099,-0.021l0.1,-0.02l0.099,-0.019l0.1,-0.019l0.1,-0.018l0.1,-0.018l0.1,-0.017l0.1,-0.016l0.101,-0.016l0.102,-0.015l0.1,-0.015l0.101,-0.013l0.101,-0.014l0.101,-0.012l0.103,-0.012l0.103,-0.012l0.101,-0.01l0.102,-0.01l0.104,-0.01l0.102,-0.009l0.102,-0.008l0.104,-0.007l0.103,-0.007l0.103,-0.006l0.103,-0.006l0.105,-0.005l0.103,-0.004l0.103,-0.004l0.105,-0.003l0.104,-0.002l0.103,-0.002l0.106,-0.001l0.105,0l0.104,0Zm-0.193,2.5l-0.089,0.001l-0.088,0.001l-0.089,0.002l-0.088,0.003l-0.088,0.003l-0.088,0.004l-0.088,0.004l-0.087,0.005l-0.088,0.005l-0.087,0.006l-0.087,0.006l-0.088,0.007l-0.086,0.007l-0.087,0.008l-0.087,0.009l-0.086,0.009l-0.087,0.01l-0.086,0.01l-0.086,0.01l-0.085,0.012l-0.086,0.011l-0.086,0.013l-0.085,0.012l-0.085,0.014l-0.085,0.013l-0.085,0.015l-0.084,0.015l-0.085,0.015l-0.084,0.016l-0.084,0.016l-0.084,0.017l-0.084,0.018l-0.083,0.018l-0.083,0.018l-0.084,0.019l-0.083,0.019l-0.082,0.02l-0.083,0.021l-0.082,0.021l-0.082,0.021l-0.082,0.022l-0.082,0.022l-0.082,0.023l-0.081,0.024l-0.081,0.024l-0.081,0.024l-0.081,0.025l-0.08,0.025l-0.081,0.026l-0.08,0.026l-0.08,0.027l-0.079,0.027l-0.08,0.028l-0.079,0.028l-0.079,0.029l-0.079,0.029l-0.078,0.03l-0.078,0.03l-0.078,0.03l-0.078,0.031l-0.078,0.032l-0.077,0.032l-0.077,0.032l-0.077,0.033l-0.077,0.033l-0.076,0.034l-0.077,0.034l-0.075,0.035l-0.076,0.035l-0.076,0.035l-0.075,0.036l-0.075,0.037l-0.074,0.036l-0.075,0.038l-0.074,0.037l-0.074,0.039l-0.073,0.038l-0.074,0.039l-0.073,0.04l-0.073,0.04l-0.072,0.04l-0.073,0.041l-0.072,0.041l-0.071,0.041l-0.072,0.042l-0.071,0.043l-0.071,0.043l-0.071,0.043l-0.07,0.043l-0.07,0.045l-0.07,0.044l-0.07,0.045l-0.069,0.045l-0.069,0.046l-0.068,0.046l-0.069,0.046l-0.068,0.047l-0.068,0.048l-0.067,0.047l-0.067,0.048l-0.067,0.049l-0.067,0.049l-0.066,0.049l-0.066,0.05l-0.066,0.05l-0.065,0.05l-0.065,0.051l-0.065,0.051l-0.064,0.052l-0.064,0.052l-0.064,0.052l-0.063,0.053l-0.063,0.053l-0.063,0.053l-0.063,0.054l-0.062,0.054l-0.062,0.055l-0.061,0.055l-0.061,0.055l-0.061,0.055l-0.061,0.056l-0.06,0.057l-0.06,0.056l-0.059,0.057l-0.059,0.058l-0.059,0.058l-0.058,0.058l-0.059,0.058l-0.057,0.059l-0.058,0.059l-0.057,0.06l-0.056,0.059l-0.057,0.06l-0.056,0.061l-0.055,0.061l-0.056,0.061l-0.054,0.061l-0.055,0.062l-0.054,0.062l-0.054,0.063l-0.053,0.063l-0.053,0.063l-0.053,0.063l-0.052,0.064l-0.052,0.064l-0.052,0.064l-0.051,0.065l-0.051,0.065l-0.05,0.066l-0.05,0.065l-0.05,0.066l-0.049,0.066l-0.049,0.067l-0.049,0.067l-0.048,0.067l-0.047,0.068l-0.048,0.067l-0.047,0.068l-0.046,0.069l-0.046,0.068l-0.046,0.069l-0.045,0.07l-0.045,0.069l-0.045,0.07l-0.044,0.07l-0.043,0.07l-0.044,0.071l-0.042,0.071l-0.043,0.071l-0.042,0.072l-0.041,0.071l-0.041,0.072l-0.041,0.073l-0.041,0.072l-0.039,0.073l-0.04,0.073l-0.039,0.074l-0.038,0.073l-0.039,0.074l-0.037,0.074l-0.038,0.075l-0.036,0.074l-0.037,0.075l-0.036,0.076l-0.035,0.075l-0.035,0.076l-0.035,0.076l-0.034,0.076l-0.034,0.076l-0.033,0.077l-0.033,0.077l-0.032,0.077l-0.032,0.077l-0.032,0.078l-0.031,0.078l-0.03,0.078l-0.03,0.078l-0.03,0.079l-0.029,0.078l-0.029,0.079l-0.028,0.079l-0.028,0.08l-0.027,0.08l-0.027,0.079l-0.026,0.081l-0.026,0.08l-0.025,0.08l-0.025,0.081l-0.024,0.081l-0.024,0.081l-0.024,0.081l-0.023,0.082l-0.022,0.082l-0.022,0.082l-0.021,0.082l-0.021,0.082l-0.021,0.083l-0.02,0.083l-0.019,0.082l-0.019,0.084l-0.019,0.083l-0.017,0.083l-0.018,0.084l-0.017,0.084l-0.016,0.084l-0.016,0.084l-0.015,0.085l-0.015,0.084l-0.015,0.085l-0.013,0.085l-0.014,0.085l-0.013,0.086l-0.012,0.085l-0.012,0.086l-0.011,0.085l-0.01,0.086l-0.011,0.087l-0.009,0.086l-0.009,0.086l-0.009,0.087l-0.008,0.087l-0.007,0.087l-0.007,0.087l-0.006,0.087l-0.006,0.087l-0.006,0.088l-0.004,0.087l-0.004,0.088l-0.004,0.088l-0.003,0.088l-0.003,0.088l-0.002,0.089l-0.001,0.088l-0.001,0.089l0,0.089l0,0.088l0.001,0.089l0.001,0.089l0.002,0.088l0.003,0.088l0.003,0.088l0.004,0.088l0.004,0.088l0.004,0.088l0.006,0.087l0.006,0.088l0.006,0.087l0.007,0.087l0.007,0.087l0.008,0.087l0.009,0.086l0.009,0.087l0.009,0.086l0.011,0.086l0.01,0.086l0.011,0.086l0.012,0.085l0.012,0.086l0.013,0.085l0.014,0.085l0.013,0.085l0.015,0.085l0.015,0.085l0.015,0.084l0.016,0.084l0.016,0.084l0.017,0.084l0.018,0.084l0.017,0.084l0.019,0.083l0.019,0.083l0.019,0.083l0.02,0.083l0.021,0.082l0.021,0.083l0.021,0.082l0.022,0.082l0.022,0.081l0.023,0.082l0.024,0.081l0.024,0.081l0.024,0.081l0.025,0.081l0.025,0.081l0.026,0.08l0.026,0.08l0.027,0.08l0.027,0.08l0.028,0.079l0.028,0.079l0.029,0.079l0.029,0.079l0.03,0.078l0.03,0.079l0.03,0.078l0.031,0.078l0.032,0.077l0.032,0.078l0.032,0.077l0.033,0.077l0.033,0.076l0.034,0.077l0.034,0.076l0.035,0.076l0.035,0.076l0.035,0.075l0.036,0.075l0.037,0.075l0.036,0.075l0.038,0.074l0.037,0.074l0.039,0.074l0.038,0.074l0.039,0.073l0.04,0.073l0.039,0.073l0.041,0.073l0.041,0.072l0.041,0.072l0.041,0.072l0.042,0.071l0.043,0.072l0.042,0.07l0.044,0.071l0.043,0.07l0.044,0.071l0.045,0.069l0.045,0.07l0.045,0.069l0.046,0.069l0.046,0.069l0.046,0.068l0.047,0.068l0.048,0.068l0.047,0.067l0.048,0.068l0.049,0.066l0.049,0.067l0.049,0.066l0.05,0.066l0.05,0.066l0.05,0.065l0.051,0.065l0.051,0.065l0.052,0.064l0.052,0.064l0.052,0.064l0.053,0.064l0.053,0.063l0.053,0.063l0.054,0.062l0.054,0.062l0.055,0.062l0.054,0.062l0.056,0.061l0.055,0.06l0.056,0.061l0.057,0.06l0.056,0.06l0.057,0.059l0.058,0.06l0.057,0.058l0.059,0.059l0.058,0.058l0.059,0.058l0.059,0.057l0.059,0.057l0.06,0.057l0.06,0.056l0.061,0.056l0.061,0.056l0.061,0.055l0.061,0.055l0.062,0.054l0.062,0.055l0.063,0.053l0.063,0.054l0.063,0.053l0.063,0.053l0.064,0.052l0.064,0.052l0.064,0.051l0.065,0.051l0.065,0.051l0.065,0.051l0.066,0.05l0.066,0.049l0.066,0.05l0.067,0.049l0.067,0.048l0.067,0.048l0.067,0.048l0.068,0.047l0.068,0.047l0.069,0.046l0.068,0.047l0.069,0.045l0.069,0.046l0.07,0.044l0.07,0.045l0.07,0.044l0.07,0.044l0.071,0.043l0.071,0.043l0.071,0.042l0.072,0.042l0.071,0.042l0.072,0.041l0.073,0.041l0.072,0.04l0.073,0.04l0.073,0.039l0.074,0.039l0.073,0.039l0.074,0.038l0.074,0.038l0.075,0.037l0.074,0.037l0.075,0.036l0.075,0.036l0.076,0.036l0.076,0.035l0.075,0.034l0.077,0.035l0.076,0.033l0.077,0.034l0.077,0.032l0.077,0.033l0.077,0.032l0.078,0.031l0.078,0.031l0.078,0.031l0.078,0.03l0.078,0.029l0.079,0.03l0.079,0.028l0.079,0.028l0.08,0.028l0.079,0.027l0.08,0.027l0.08,0.026l0.081,0.026l0.08,0.026l0.081,0.024l0.081,0.025l0.081,0.024l0.081,0.023l0.082,0.023l0.082,0.022l0.082,0.022l0.082,0.022l0.082,0.021l0.083,0.02l0.082,0.02l0.083,0.02l0.084,0.018l0.083,0.019l0.083,0.018l0.084,0.017l0.084,0.017l0.084,0.017l0.084,0.015l0.085,0.016l0.084,0.015l0.085,0.014l0.085,0.014l0.085,0.013l0.085,0.013l0.086,0.012l0.086,0.012l0.085,0.011l0.086,0.011l0.086,0.01l0.087,0.009l0.086,0.01l0.087,0.008l0.087,0.008l0.086,0.008l0.088,0.006l0.087,0.007l0.087,0.006l0.088,0.005l0.087,0.005l0.088,0.004l0.088,0.003l0.088,0.003l0.088,0.003l0.089,0.002l0.088,0.001l0.089,0.001l0.089,0.001l0.088,-0.001l0.089,-0.001l0.089,-0.001l0.088,-0.002l0.088,-0.003l0.088,-0.003l0.088,-0.003l0.088,-0.004l0.088,-0.005l0.087,-0.005l0.088,-0.006l0.087,-0.007l0.087,-0.006l0.087,-0.008l0.086,-0.008l0.087,-0.008l0.087,-0.01l0.086,-0.009l0.086,-0.01l0.086,-0.011l0.086,-0.011l0.085,-0.012l0.086,-0.012l0.085,-0.013l0.085,-0.013l0.085,-0.014l0.085,-0.014l0.085,-0.015l0.084,-0.016l0.084,-0.015l0.084,-0.017l0.084,-0.017l0.084,-0.017l0.083,-0.018l0.084,-0.019l0.083,-0.018l0.083,-0.02l0.083,-0.02l0.082,-0.02l0.082,-0.021l0.083,-0.022l0.082,-0.022l0.081,-0.022l0.082,-0.023l0.081,-0.023l0.081,-0.024l0.081,-0.025l0.081,-0.024l0.081,-0.026l0.08,-0.026l0.08,-0.026l0.08,-0.027l0.079,-0.027l0.08,-0.028l0.079,-0.028l0.079,-0.028l0.079,-0.03l0.078,-0.029l0.079,-0.03l0.078,-0.031l0.078,-0.031l0.077,-0.031l0.078,-0.032l0.077,-0.033l0.077,-0.032l0.076,-0.034l0.077,-0.033l0.076,-0.035l0.076,-0.034l0.075,-0.035l0.076,-0.036l0.075,-0.036l0.075,-0.036l0.075,-0.037l0.074,-0.037l0.074,-0.038l0.074,-0.038l0.074,-0.039l0.073,-0.039l0.073,-0.039l0.073,-0.04l0.073,-0.04l0.072,-0.041l0.072,-0.041l0.072,-0.042l0.071,-0.042l0.071,-0.042l0.071,-0.043l0.071,-0.043l0.07,-0.044l0.07,-0.044l0.07,-0.045l0.07,-0.044l0.069,-0.046l0.069,-0.045l0.069,-0.047l0.068,-0.046l0.068,-0.047l0.068,-0.047l0.067,-0.048l0.067,-0.048l0.067,-0.048l0.067,-0.049l0.066,-0.05l0.066,-0.049l0.066,-0.05l0.065,-0.051l0.065,-0.051l0.065,-0.051l0.064,-0.051l0.064,-0.052l0.064,-0.052l0.064,-0.053l0.063,-0.053l0.062,-0.054l0.063,-0.053l0.062,-0.055l0.062,-0.054l0.061,-0.055l0.062,-0.055l0.06,-0.056l0.061,-0.056l0.06,-0.056l0.06,-0.057l0.059,-0.057l0.059,-0.057l0.059,-0.058l0.059,-0.058l0.058,-0.059l0.058,-0.058l0.057,-0.06l0.057,-0.059l0.057,-0.06l0.056,-0.06l0.056,-0.061l0.056,-0.06l0.055,-0.061l0.055,-0.062l0.054,-0.062l0.054,-0.062l0.054,-0.062l0.054,-0.063l0.053,-0.063l0.052,-0.064l0.053,-0.064l0.052,-0.064l0.051,-0.064l0.051,-0.065l0.051,-0.065l0.051,-0.065l0.05,-0.066l0.049,-0.066l0.05,-0.066l0.048,-0.067l0.049,-0.066l0.048,-0.068l0.048,-0.067l0.047,-0.068l0.047,-0.068l0.046,-0.068l0.046,-0.069l0.046,-0.069l0.045,-0.069l0.045,-0.07l0.045,-0.069l0.044,-0.071l0.044,-0.07l0.043,-0.071l0.043,-0.07l0.042,-0.072l0.042,-0.071l0.042,-0.072l0.041,-0.072l0.04,-0.072l0.041,-0.073l0.04,-0.073l0.039,-0.073l0.039,-0.073l0.039,-0.074l0.038,-0.074l0.038,-0.074l0.037,-0.074l0.037,-0.075l0.036,-0.075l0.036,-0.075l0.036,-0.075l0.035,-0.076l0.034,-0.076l0.034,-0.076l0.034,-0.077l0.034,-0.076l0.032,-0.077l0.033,-0.077l0.032,-0.078l0.031,-0.077l0.031,-0.078l0.031,-0.078l0.03,-0.079l0.029,-0.078l0.029,-0.079l0.029,-0.079l0.028,-0.079l0.028,-0.079l0.027,-0.08l0.027,-0.08l0.026,-0.08l0.026,-0.08l0.025,-0.081l0.025,-0.081l0.025,-0.081l0.024,-0.081l0.023,-0.081l0.023,-0.082l0.022,-0.081l0.022,-0.082l0.022,-0.082l0.021,-0.083l0.02,-0.082l0.02,-0.083l0.019,-0.083l0.019,-0.083l0.019,-0.083l0.018,-0.084l0.017,-0.084l0.017,-0.084l0.016,-0.084l0.016,-0.084l0.016,-0.084l0.015,-0.085l0.014,-0.085l0.014,-0.085l0.013,-0.085l0.013,-0.085l0.012,-0.086l0.012,-0.085l0.011,-0.086l0.011,-0.086l0.01,-0.086l0.009,-0.086l0.009,-0.087l0.009,-0.086l0.008,-0.087l0.007,-0.087l0.007,-0.087l0.007,-0.087l0.006,-0.088l0.005,-0.087l0.005,-0.088l0.004,-0.088l0.003,-0.088l0.003,-0.088l0.003,-0.088l0.002,-0.088l0.001,-0.089l0.001,-0.089l0,-0.088l0,-0.089l-0.001,-0.089l-0.001,-0.088l-0.002,-0.089l-0.003,-0.088l-0.003,-0.088l-0.003,-0.088l-0.004,-0.088l-0.005,-0.087l-0.005,-0.088l-0.006,-0.087l-0.007,-0.087l-0.007,-0.087l-0.007,-0.087l-0.008,-0.087l-0.009,-0.087l-0.009,-0.086l-0.009,-0.086l-0.01,-0.087l-0.011,-0.086l-0.011,-0.085l-0.012,-0.086l-0.012,-0.085l-0.013,-0.086l-0.013,-0.085l-0.014,-0.085l-0.014,-0.085l-0.015,-0.084l-0.016,-0.085l-0.016,-0.084l-0.016,-0.084l-0.017,-0.084l-0.017,-0.084l-0.018,-0.083l-0.019,-0.083l-0.019,-0.084l-0.019,-0.082l-0.02,-0.083l-0.02,-0.083l-0.021,-0.082l-0.022,-0.082l-0.022,-0.082l-0.022,-0.082l-0.023,-0.082l-0.023,-0.081l-0.024,-0.081l-0.025,-0.081l-0.025,-0.081l-0.025,-0.08l-0.026,-0.08l-0.026,-0.081l-0.027,-0.079l-0.027,-0.08l-0.028,-0.08l-0.028,-0.079l-0.029,-0.079l-0.029,-0.078l-0.029,-0.079l-0.03,-0.078l-0.031,-0.078l-0.031,-0.078l-0.031,-0.078l-0.032,-0.077l-0.033,-0.077l-0.032,-0.077l-0.034,-0.077l-0.034,-0.076l-0.034,-0.076l-0.034,-0.076l-0.035,-0.076l-0.036,-0.075l-0.036,-0.076l-0.036,-0.075l-0.037,-0.074l-0.037,-0.075l-0.038,-0.074l-0.038,-0.074l-0.039,-0.073l-0.039,-0.074l-0.039,-0.073l-0.04,-0.073l-0.041,-0.072l-0.04,-0.073l-0.041,-0.072l-0.042,-0.071l-0.042,-0.072l-0.042,-0.071l-0.043,-0.071l-0.043,-0.071l-0.044,-0.07l-0.044,-0.07l-0.045,-0.07l-0.045,-0.069l-0.045,-0.07l-0.046,-0.069l-0.046,-0.068l-0.046,-0.069l-0.047,-0.068l-0.047,-0.067l-0.048,-0.068l-0.048,-0.067l-0.049,-0.067l-0.048,-0.067l-0.05,-0.066l-0.049,-0.066l-0.05,-0.065l-0.051,-0.066l-0.051,-0.065l-0.051,-0.065l-0.051,-0.064l-0.052,-0.064l-0.053,-0.064l-0.052,-0.063l-0.053,-0.063l-0.054,-0.063l-0.054,-0.063l-0.054,-0.062l-0.054,-0.062l-0.055,-0.061l-0.055,-0.061l-0.056,-0.061l-0.056,-0.061l-0.056,-0.06l-0.057,-0.059l-0.057,-0.06l-0.057,-0.059l-0.058,-0.059l-0.058,-0.058l-0.059,-0.058l-0.059,-0.058l-0.059,-0.058l-0.059,-0.057l-0.06,-0.056l-0.06,-0.057l-0.061,-0.056l-0.06,-0.055l-0.062,-0.055l-0.061,-0.055l-0.062,-0.055l-0.062,-0.054l-0.063,-0.054l-0.062,-0.053l-0.063,-0.053l-0.064,-0.053l-0.064,-0.052l-0.064,-0.052l-0.064,-0.052l-0.065,-0.051l-0.065,-0.051l-0.065,-0.05l-0.066,-0.05l-0.066,-0.05l-0.066,-0.049l-0.067,-0.049l-0.067,-0.049l-0.067,-0.048l-0.067,-0.047l-0.068,-0.048l-0.068,-0.047l-0.068,-0.046l-0.069,-0.046l-0.069,-0.046l-0.069,-0.045l-0.07,-0.045l-0.07,-0.044l-0.07,-0.045l-0.07,-0.043l-0.071,-0.043l-0.071,-0.043l-0.071,-0.043l-0.071,-0.042l-0.072,-0.041l-0.072,-0.041l-0.072,-0.041l-0.073,-0.04l-0.073,-0.04l-0.073,-0.04l-0.073,-0.039l-0.074,-0.038l-0.074,-0.039l-0.074,-0.037l-0.074,-0.038l-0.075,-0.036l-0.075,-0.037l-0.075,-0.036l-0.076,-0.035l-0.075,-0.035l-0.076,-0.035l-0.076,-0.034l-0.077,-0.034l-0.076,-0.033l-0.077,-0.033l-0.077,-0.032l-0.078,-0.032l-0.077,-0.032l-0.078,-0.031l-0.078,-0.03l-0.079,-0.03l-0.078,-0.03l-0.079,-0.029l-0.079,-0.029l-0.079,-0.028l-0.08,-0.028l-0.079,-0.027l-0.08,-0.027l-0.08,-0.026l-0.08,-0.026l-0.081,-0.025l-0.081,-0.025l-0.081,-0.024l-0.081,-0.024l-0.081,-0.024l-0.082,-0.023l-0.081,-0.022l-0.082,-0.022l-0.083,-0.021l-0.082,-0.021l-0.082,-0.021l-0.083,-0.02l-0.083,-0.019l-0.083,-0.019l-0.084,-0.018l-0.083,-0.018l-0.084,-0.018l-0.084,-0.017l-0.084,-0.016l-0.084,-0.016l-0.084,-0.015l-0.085,-0.015l-0.085,-0.015l-0.085,-0.013l-0.085,-0.014l-0.085,-0.012l-0.086,-0.013l-0.085,-0.011l-0.086,-0.012l-0.086,-0.01l-0.086,-0.01l-0.086,-0.01l-0.087,-0.009l-0.087,-0.009l-0.086,-0.008l-0.087,-0.007l-0.087,-0.007l-0.087,-0.006l-0.088,-0.006l-0.087,-0.005l-0.088,-0.005l-0.088,-0.004l-0.088,-0.004l-0.088,-0.003l-0.088,-0.003l-0.088,-0.002l-0.089,-0.001l-0.089,-0.001l-0.088,0l-0.089,0Z" style="fill:#a1a1a1;"/><circle cx="19.409" cy="36.41" r="13.735" style="fill:#f54d3d;"/><path d="M58.118,77.233l0.105,0.001l0.101,0.001l0.103,0.003l0.104,0.003l0.102,0.003l0.101,0.004l0.104,0.005l0.102,0.006l0.101,0.006l0.103,0.007l0.102,0.007l0.101,0.008l0.1,0.009l0.103,0.009l0.101,0.01l0.1,0.011l0.101,0.011l0.102,0.012l0.099,0.012l0.1,0.013l0.1,0.014l0.099,0.014l0.101,0.015l0.099,0.016l0.099,0.016l0.099,0.017l0.099,0.017l0.098,0.018l0.099,0.018l0.098,0.02l0.098,0.019l0.098,0.021l0.098,0.021l0.097,0.021l0.097,0.022l0.097,0.023l0.096,0.023l0.097,0.024l0.097,0.025l0.095,0.025l0.096,0.025l0.096,0.027l0.096,0.026l0.094,0.028l0.095,0.028l0.094,0.028l0.095,0.029l0.094,0.03l0.094,0.03l0.094,0.031l0.092,0.031l0.093,0.032l0.094,0.032l0.093,0.033l0.091,0.034l0.092,0.034l0.092,0.034l0.092,0.035l0.091,0.036l0.09,0.036l0.091,0.037l0.091,0.037l0.09,0.038l0.09,0.038l0.09,0.039l0.089,0.04l0.089,0.04l0.088,0.04l0.088,0.041l0.089,0.042l0.088,0.042l0.087,0.042l0.088,0.043l0.087,0.044l0.086,0.044l0.086,0.044l0.086,0.045l0.086,0.046l0.085,0.046l0.085,0.046l0.085,0.048l0.084,0.047l0.084,0.048l0.085,0.049l0.083,0.049l0.083,0.049l0.082,0.05l0.083,0.05l0.082,0.052l0.081,0.051l0.082,0.052l0.082,0.052l0.08,0.053l0.08,0.053l0.081,0.054l0.08,0.054l0.079,0.055l0.079,0.056l0.079,0.055l0.078,0.056l0.078,0.057l0.077,0.056l0.078,0.058l0.077,0.058l0.076,0.058l0.076,0.059l0.077,0.059l0.075,0.06l0.075,0.06l0.074,0.06l0.075,0.061l0.074,0.062l0.074,0.062l0.073,0.062l0.072,0.062l0.074,0.065l0.071,0.063l0.072,0.064l0.072,0.064l0.07,0.065l0.07,0.065l0.071,0.066l0.07,0.066l0.069,0.067l0.069,0.066l0.068,0.067l0.069,0.069l0.067,0.068l0.068,0.068l0.067,0.069l0.066,0.069l0.066,0.07l0.066,0.071l0.065,0.07l0.065,0.071l0.064,0.071l0.064,0.071l0.064,0.073l0.063,0.072l0.063,0.073l0.062,0.073l0.062,0.074l0.061,0.074l0.061,0.074l0.061,0.075l0.06,0.075l0.06,0.076l0.059,0.075l0.059,0.077l0.058,0.076l0.058,0.077l0.057,0.077l0.057,0.078l0.057,0.078l0.056,0.079l0.055,0.078l0.056,0.079l0.055,0.08l0.054,0.079l0.054,0.08l0.053,0.081l0.053,0.08l0.052,0.082l0.052,0.081l0.051,0.082l0.051,0.082l0.051,0.083l0.05,0.082l0.049,0.083l0.049,0.083l0.049,0.084l0.048,0.085l0.048,0.084l0.047,0.085l0.046,0.085l0.046,0.085l0.045,0.085l0.046,0.087l0.044,0.086l0.044,0.087l0.044,0.086l0.043,0.087l0.043,0.089l0.042,0.087l0.041,0.088l0.041,0.089l0.04,0.088l0.04,0.089l0.04,0.09l0.038,0.089l0.039,0.09l0.038,0.09l0.037,0.091l0.037,0.09l0.036,0.091l0.035,0.091l0.036,0.092l0.034,0.091l0.034,0.092l0.034,0.093l0.033,0.093l0.032,0.092l0.032,0.093l0.031,0.094l0.031,0.093l0.03,0.094l0.03,0.094l0.029,0.094l0.028,0.095l0.028,0.095l0.028,0.095l0.027,0.095l0.026,0.096l0.025,0.095l0.025,0.097l0.025,0.096l0.024,0.096l0.023,0.097l0.023,0.097l0.022,0.097l0.021,0.098l0.021,0.097l0.021,0.098l0.019,0.098l0.02,0.098l0.018,0.098l0.018,0.099l0.017,0.099l0.017,0.099l0.016,0.099l0.016,0.099l0.015,0.1l0.014,0.1l0.014,0.1l0.013,0.1l0.012,0.1l0.012,0.101l0.011,0.101l0.011,0.1l0.01,0.101l0.009,0.101l0.009,0.102l0.008,0.102l0.007,0.101l0.007,0.102l0.006,0.102l0.006,0.102l0.005,0.103l0.004,0.102l0.003,0.103l0.003,0.102l0.003,0.103l0.001,0.104l0.001,0.103l0.001,0.103l-0.001,0.103l-0.001,0.103l-0.001,0.104l-0.003,0.102l-0.003,0.103l-0.003,0.103l-0.004,0.102l-0.005,0.102l-0.006,0.103l-0.006,0.102l-0.007,0.102l-0.007,0.101l-0.008,0.102l-0.009,0.101l-0.009,0.102l-0.01,0.1l-0.011,0.101l-0.011,0.101l-0.012,0.101l-0.012,0.1l-0.013,0.1l-0.014,0.1l-0.014,0.1l-0.015,0.099l-0.016,0.1l-0.016,0.099l-0.017,0.099l-0.017,0.099l-0.018,0.099l-0.018,0.098l-0.02,0.098l-0.019,0.098l-0.021,0.098l-0.021,0.098l-0.021,0.097l-0.022,0.097l-0.023,0.097l-0.023,0.097l-0.024,0.096l-0.025,0.096l-0.025,0.096l-0.025,0.096l-0.027,0.096l-0.026,0.095l-0.028,0.095l-0.028,0.095l-0.028,0.094l-0.029,0.095l-0.03,0.094l-0.03,0.093l-0.031,0.094l-0.031,0.094l-0.032,0.093l-0.032,0.092l-0.033,0.093l-0.034,0.093l-0.034,0.091l-0.034,0.092l-0.035,0.091l-0.036,0.092l-0.036,0.091l-0.037,0.09l-0.037,0.091l-0.038,0.09l-0.039,0.09l-0.038,0.089l-0.04,0.089l-0.04,0.09l-0.04,0.088l-0.041,0.089l-0.042,0.088l-0.041,0.087l-0.043,0.088l-0.043,0.088l-0.044,0.086l-0.044,0.086l-0.044,0.087l-0.045,0.086l-0.046,0.086l-0.046,0.085l-0.046,0.085l-0.047,0.085l-0.048,0.084l-0.048,0.084l-0.049,0.084l-0.049,0.084l-0.049,0.083l-0.05,0.082l-0.051,0.083l-0.051,0.082l-0.051,0.082l-0.052,0.081l-0.052,0.081l-0.053,0.081l-0.053,0.08l-0.054,0.081l-0.055,0.08l-0.054,0.079l-0.056,0.079l-0.055,0.078l-0.056,0.079l-0.057,0.078l-0.057,0.078l-0.057,0.076l-0.058,0.078l-0.058,0.076l-0.059,0.076l-0.06,0.077l-0.059,0.075l-0.06,0.075l-0.061,0.075l-0.061,0.075l-0.061,0.073l-0.062,0.073l-0.062,0.074l-0.063,0.072l-0.063,0.073l-0.063,0.072l-0.065,0.072l-0.064,0.071l-0.065,0.071l-0.065,0.071l-0.066,0.069l-0.066,0.07l-0.067,0.07l-0.067,0.069l-0.067,0.068l-0.067,0.068l-0.069,0.068l-0.068,0.068l-0.068,0.066l-0.07,0.067l-0.071,0.066l-0.07,0.066l-0.07,0.065l-0.07,0.064l-0.071,0.065l-0.073,0.064l-0.072,0.064l-0.072,0.063l-0.073,0.063l-0.074,0.062l-0.073,0.062l-0.074,0.061l-0.075,0.061l-0.074,0.06l-0.075,0.061l-0.075,0.059l-0.077,0.06l-0.076,0.059l-0.076,0.058l-0.077,0.058l-0.077,0.057l-0.078,0.057l-0.079,0.057l-0.077,0.056l-0.079,0.055l-0.079,0.056l-0.079,0.054l-0.08,0.055l-0.081,0.054l-0.08,0.053l-0.08,0.052l-0.082,0.053l-0.082,0.052l-0.081,0.051l-0.081,0.051l-0.083,0.051l-0.083,0.05l-0.084,0.049l-0.083,0.049l-0.083,0.049l-0.085,0.048l-0.084,0.047l-0.085,0.047l-0.085,0.047l-0.085,0.046l-0.086,0.046l-0.086,0.045l-0.086,0.044l-0.086,0.044l-0.088,0.044l-0.087,0.043l-0.087,0.042l-0.088,0.042l-0.088,0.041l-0.089,0.042l-0.089,0.04l-0.088,0.04l-0.089,0.039l-0.09,0.039l-0.09,0.039l-0.09,0.037l-0.091,0.038l-0.089,0.036l-0.092,0.037l-0.092,0.036l-0.091,0.035l-0.091,0.034l-0.092,0.034l-0.093,0.034l-0.093,0.033l-0.092,0.032l-0.094,0.032l-0.093,0.031l-0.092,0.031l-0.095,0.03l-0.095,0.03l-0.094,0.029l-0.093,0.028l-0.096,0.028l-0.096,0.028l-0.094,0.026l-0.095,0.026l-0.097,0.026l-0.096,0.025l-0.096,0.025l-0.096,0.023l-0.097,0.024l-0.097,0.023l-0.097,0.022l-0.098,0.021l-0.097,0.021l-0.098,0.02l-0.098,0.02l-0.098,0.019l-0.099,0.019l-0.098,0.018l-0.099,0.017l-0.099,0.017l-0.099,0.016l-0.099,0.016l-0.099,0.014l-0.101,0.015l-0.1,0.014l-0.1,0.013l-0.101,0.012l-0.1,0.012l-0.101,0.011l-0.1,0.011l-0.101,0.01l-0.102,0.009l-0.101,0.009l-0.102,0.008l-0.101,0.007l-0.101,0.007l-0.103,0.006l-0.103,0.006l-0.102,0.004l-0.102,0.005l-0.103,0.003l-0.102,0.003l-0.104,0.003l-0.103,0.001l-0.103,0.001l-0.103,0l-0.103,0l-0.103,-0.001l-0.103,-0.001l-0.104,-0.003l-0.102,-0.003l-0.103,-0.003l-0.102,-0.005l-0.102,-0.004l-0.103,-0.006l-0.103,-0.006l-0.101,-0.007l-0.1,-0.007l-0.102,-0.008l-0.102,-0.009l-0.102,-0.009l-0.1,-0.01l-0.101,-0.011l-0.101,-0.011l-0.1,-0.012l-0.101,-0.012l-0.1,-0.013l-0.1,-0.014l-0.1,-0.015l-0.1,-0.014l-0.099,-0.016l-0.099,-0.016l-0.099,-0.017l-0.099,-0.017l-0.098,-0.018l-0.099,-0.019l-0.098,-0.019l-0.098,-0.02l-0.098,-0.02l-0.097,-0.021l-0.097,-0.021l-0.098,-0.022l-0.097,-0.023l-0.097,-0.024l-0.096,-0.023l-0.096,-0.025l-0.096,-0.025l-0.097,-0.026l-0.095,-0.026l-0.094,-0.026l-0.096,-0.028l-0.096,-0.028l-0.093,-0.028l-0.094,-0.029l-0.095,-0.03l-0.095,-0.03l-0.092,-0.031l-0.093,-0.031l-0.094,-0.032l-0.092,-0.032l-0.093,-0.033l-0.093,-0.034l-0.092,-0.034l-0.091,-0.034l-0.091,-0.035l-0.092,-0.036l-0.091,-0.037l-0.09,-0.036l-0.091,-0.038l-0.09,-0.037l-0.09,-0.039l-0.09,-0.039l-0.089,-0.039l-0.088,-0.04l-0.089,-0.04l-0.089,-0.042l-0.088,-0.041l-0.088,-0.042l-0.087,-0.042l-0.087,-0.043l-0.087,-0.044l-0.087,-0.044l-0.086,-0.044l-0.086,-0.045l-0.086,-0.046l-0.085,-0.046l-0.085,-0.047l-0.085,-0.047l-0.084,-0.047l-0.085,-0.048l-0.083,-0.049l-0.083,-0.049l-0.084,-0.049l-0.083,-0.05l-0.082,-0.051l-0.082,-0.051l-0.081,-0.051l-0.082,-0.052l-0.082,-0.053l-0.08,-0.052l-0.08,-0.053l-0.081,-0.055l-0.079,-0.054l-0.079,-0.054l-0.08,-0.056l-0.079,-0.055l-0.077,-0.056l-0.079,-0.057l-0.078,-0.057l-0.077,-0.057l-0.076,-0.058l-0.077,-0.058l-0.077,-0.059l-0.075,-0.059l-0.076,-0.06l-0.075,-0.061l-0.074,-0.06l-0.075,-0.061l-0.074,-0.061l-0.073,-0.062l-0.074,-0.062l-0.073,-0.063l-0.072,-0.063l-0.072,-0.064l-0.072,-0.064l-0.071,-0.065l-0.071,-0.064l-0.07,-0.065l-0.07,-0.066l-0.071,-0.066l-0.069,-0.067l-0.068,-0.066l-0.069,-0.068l-0.069,-0.068l-0.067,-0.068l-0.067,-0.068l-0.067,-0.069l-0.067,-0.07l-0.066,-0.07l-0.065,-0.069l-0.066,-0.071l-0.065,-0.071l-0.064,-0.071l-0.064,-0.072l-0.064,-0.072l-0.063,-0.073l-0.062,-0.072l-0.063,-0.074l-0.062,-0.074l-0.061,-0.072l-0.061,-0.075l-0.061,-0.075l-0.06,-0.075l-0.059,-0.075l-0.06,-0.077l-0.059,-0.076l-0.058,-0.076l-0.058,-0.078l-0.057,-0.076l-0.057,-0.078l-0.057,-0.078l-0.056,-0.079l-0.055,-0.078l-0.055,-0.079l-0.055,-0.079l-0.055,-0.08l-0.053,-0.08l-0.054,-0.081l-0.053,-0.081l-0.052,-0.081l-0.052,-0.081l-0.051,-0.082l-0.051,-0.082l-0.051,-0.083l-0.05,-0.082l-0.049,-0.083l-0.049,-0.084l-0.049,-0.084l-0.048,-0.084l-0.047,-0.084l-0.047,-0.085l-0.047,-0.085l-0.046,-0.085l-0.046,-0.086l-0.045,-0.086l-0.044,-0.086l-0.044,-0.087l-0.044,-0.086l-0.043,-0.088l-0.042,-0.088l-0.042,-0.087l-0.042,-0.088l-0.041,-0.089l-0.04,-0.089l-0.04,-0.089l-0.039,-0.088l-0.039,-0.09l-0.039,-0.09l-0.037,-0.09l-0.038,-0.091l-0.037,-0.09l-0.036,-0.091l-0.035,-0.092l-0.036,-0.091l-0.034,-0.092l-0.034,-0.091l-0.034,-0.093l-0.033,-0.092l-0.032,-0.093l-0.032,-0.093l-0.031,-0.093l-0.031,-0.094l-0.03,-0.095l-0.03,-0.093l-0.029,-0.095l-0.028,-0.094l-0.028,-0.095l-0.028,-0.095l-0.026,-0.095l-0.027,-0.096l-0.025,-0.096l-0.025,-0.096l-0.025,-0.096l-0.024,-0.096l-0.023,-0.097l-0.023,-0.097l-0.022,-0.097l-0.021,-0.097l-0.021,-0.098l-0.021,-0.098l-0.019,-0.098l-0.019,-0.098l-0.019,-0.099l-0.018,-0.098l-0.017,-0.099l-0.017,-0.099l-0.016,-0.099l-0.016,-0.1l-0.015,-0.099l-0.014,-0.1l-0.014,-0.1l-0.013,-0.1l-0.012,-0.1l-0.012,-0.101l-0.011,-0.101l-0.011,-0.101l-0.01,-0.1l-0.009,-0.102l-0.009,-0.101l-0.008,-0.102l-0.007,-0.101l-0.007,-0.102l-0.006,-0.102l-0.006,-0.103l-0.004,-0.102l-0.005,-0.102l-0.003,-0.103l-0.003,-0.103l-0.003,-0.103l-0.001,-0.103l-0.001,-0.103l0,-0.103l0,-0.104l0.001,-0.103l0.001,-0.102l0.003,-0.104l0.003,-0.102l0.003,-0.103l0.005,-0.102l0.004,-0.103l0.006,-0.102l0.006,-0.102l0.007,-0.102l0.007,-0.102l0.008,-0.101l0.009,-0.102l0.009,-0.101l0.01,-0.101l0.011,-0.101l0.011,-0.1l0.012,-0.101l0.012,-0.1l0.013,-0.1l0.014,-0.1l0.014,-0.1l0.015,-0.1l0.016,-0.099l0.016,-0.099l0.017,-0.099l0.017,-0.099l0.018,-0.098l0.019,-0.099l0.019,-0.099l0.019,-0.097l0.021,-0.098l0.021,-0.097l0.021,-0.098l0.022,-0.097l0.023,-0.097l0.023,-0.097l0.024,-0.096l0.025,-0.097l0.025,-0.096l0.025,-0.095l0.027,-0.096l0.026,-0.095l0.028,-0.095l0.028,-0.095l0.028,-0.095l0.029,-0.094l0.03,-0.094l0.03,-0.094l0.031,-0.093l0.031,-0.094l0.032,-0.093l0.032,-0.093l0.033,-0.092l0.034,-0.093l0.034,-0.092l0.034,-0.091l0.036,-0.092l0.035,-0.091l0.036,-0.091l0.037,-0.09l0.037,-0.091l0.038,-0.09l0.039,-0.09l0.039,-0.09l0.039,-0.089l0.04,-0.089l0.04,-0.088l0.041,-0.089l0.042,-0.088l0.042,-0.087l0.042,-0.089l0.043,-0.087l0.044,-0.086l0.044,-0.087l0.044,-0.086l0.046,-0.086l0.045,-0.086l0.046,-0.085l0.047,-0.085l0.047,-0.085l0.047,-0.084l0.048,-0.085l0.049,-0.084l0.049,-0.083l0.049,-0.083l0.05,-0.082l0.051,-0.083l0.051,-0.082l0.051,-0.082l0.052,-0.081l0.053,-0.082l0.052,-0.08l0.054,-0.081l0.053,-0.08l0.054,-0.079l0.056,-0.08l0.055,-0.079l0.055,-0.078l0.056,-0.079l0.057,-0.078l0.057,-0.078l0.057,-0.077l0.058,-0.077l0.058,-0.076l0.059,-0.076l0.059,-0.076l0.06,-0.076l0.061,-0.076l0.06,-0.074l0.061,-0.074l0.061,-0.074l0.062,-0.074l0.063,-0.073l0.062,-0.073l0.063,-0.072l0.064,-0.073l0.064,-0.071l0.064,-0.071l0.065,-0.071l0.065,-0.07l0.066,-0.071l0.066,-0.07l0.067,-0.069l0.067,-0.069l0.067,-0.068l0.067,-0.068l0.069,-0.068l0.069,-0.068l0.068,-0.067l0.069,-0.066l0.07,-0.066l0.071,-0.066l0.07,-0.065l0.071,-0.065l0.071,-0.064l0.072,-0.064l0.071,-0.063l0.074,-0.065l0.072,-0.062l0.073,-0.062l0.074,-0.062l0.074,-0.061l0.075,-0.062l0.074,-0.06l0.075,-0.06l0.076,-0.06l0.075,-0.059l0.077,-0.059l0.077,-0.058l0.076,-0.058l0.077,-0.057l0.078,-0.057l0.078,-0.057l0.078,-0.056l0.079,-0.055l0.08,-0.056l0.079,-0.055l0.079,-0.054l0.081,-0.054l0.08,-0.053l0.08,-0.052l0.082,-0.053l0.082,-0.052l0.081,-0.051l0.083,-0.052l0.082,-0.05l0.082,-0.05l0.083,-0.049l0.083,-0.049l0.085,-0.049l0.084,-0.048l0.084,-0.047l0.085,-0.048l0.085,-0.046l0.085,-0.046l0.086,-0.046l0.086,-0.045l0.086,-0.044l0.087,-0.044l0.086,-0.044l0.088,-0.043l0.087,-0.042l0.088,-0.042l0.089,-0.042l0.088,-0.041l0.088,-0.04l0.089,-0.04l0.089,-0.039l0.09,-0.04l0.09,-0.038l0.09,-0.038l0.091,-0.037l0.091,-0.037l0.09,-0.036l0.091,-0.036l0.092,-0.035l0.092,-0.034l0.092,-0.034l0.091,-0.034l0.093,-0.033l0.094,-0.032l0.093,-0.032l0.092,-0.031l0.094,-0.031l0.094,-0.03l0.094,-0.03l0.095,-0.029l0.094,-0.028l0.095,-0.028l0.094,-0.028l0.096,-0.027l0.097,-0.026l0.095,-0.025l0.095,-0.025l0.097,-0.025l0.097,-0.024l0.096,-0.023l0.097,-0.023l0.098,-0.022l0.096,-0.021l0.098,-0.021l0.098,-0.021l0.098,-0.019l0.098,-0.02l0.099,-0.018l0.098,-0.018l0.099,-0.017l0.099,-0.017l0.099,-0.016l0.099,-0.016l0.101,-0.015l0.099,-0.014l0.1,-0.014l0.1,-0.013l0.1,-0.012l0.101,-0.012l0.101,-0.011l0.101,-0.011l0.1,-0.01l0.103,-0.009l0.101,-0.009l0.1,-0.008l0.102,-0.007l0.103,-0.007l0.101,-0.006l0.102,-0.006l0.104,-0.005l0.101,-0.004l0.102,-0.003l0.104,-0.003l0.103,-0.003l0.102,-0.001l0.104,-0.001l0.103,-0.001l0.103,0.001Zm-0.19,2.5l-0.088,0.001l-0.087,0.001l-0.087,0.002l-0.087,0.002l-0.087,0.003l-0.086,0.004l-0.087,0.004l-0.086,0.005l-0.086,0.005l-0.086,0.006l-0.086,0.006l-0.086,0.007l-0.086,0.007l-0.085,0.008l-0.086,0.008l-0.085,0.009l-0.085,0.01l-0.085,0.01l-0.084,0.01l-0.085,0.011l-0.084,0.012l-0.084,0.012l-0.084,0.012l-0.084,0.014l-0.084,0.013l-0.083,0.014l-0.084,0.015l-0.083,0.015l-0.083,0.016l-0.083,0.016l-0.082,0.016l-0.083,0.018l-0.082,0.017l-0.082,0.018l-0.082,0.019l-0.082,0.019l-0.081,0.02l-0.082,0.02l-0.081,0.021l-0.081,0.021l-0.08,0.021l-0.081,0.022l-0.08,0.023l-0.08,0.023l-0.08,0.024l-0.08,0.024l-0.08,0.024l-0.079,0.025l-0.079,0.026l-0.079,0.025l-0.079,0.027l-0.078,0.027l-0.078,0.027l-0.078,0.028l-0.078,0.028l-0.078,0.029l-0.077,0.029l-0.077,0.029l-0.077,0.031l-0.077,0.03l-0.076,0.031l-0.077,0.032l-0.076,0.031l-0.075,0.033l-0.076,0.033l-0.075,0.033l-0.075,0.033l-0.075,0.035l-0.074,0.034l-0.075,0.035l-0.074,0.036l-0.074,0.035l-0.073,0.037l-0.073,0.036l-0.074,0.038l-0.072,0.037l-0.073,0.038l-0.072,0.039l-0.072,0.038l-0.072,0.04l-0.071,0.039l-0.072,0.041l-0.071,0.04l-0.07,0.041l-0.071,0.041l-0.07,0.042l-0.07,0.042l-0.069,0.043l-0.07,0.043l-0.069,0.043l-0.069,0.044l-0.068,0.044l-0.068,0.045l-0.068,0.045l-0.068,0.046l-0.067,0.045l-0.067,0.047l-0.067,0.046l-0.066,0.047l-0.067,0.047l-0.065,0.048l-0.066,0.048l-0.065,0.049l-0.065,0.049l-0.065,0.049l-0.064,0.05l-0.064,0.05l-0.064,0.05l-0.064,0.051l-0.063,0.051l-0.063,0.052l-0.062,0.052l-0.062,0.052l-0.062,0.053l-0.062,0.053l-0.061,0.053l-0.061,0.054l-0.06,0.054l-0.061,0.054l-0.059,0.055l-0.06,0.055l-0.059,0.056l-0.059,0.055l-0.059,0.057l-0.058,0.056l-0.058,0.057l-0.058,0.057l-0.057,0.058l-0.057,0.058l-0.056,0.058l-0.056,0.059l-0.056,0.059l-0.056,0.059l-0.055,0.059l-0.055,0.06l-0.054,0.061l-0.054,0.06l-0.054,0.061l-0.053,0.061l-0.053,0.062l-0.053,0.062l-0.052,0.062l-0.052,0.062l-0.052,0.063l-0.051,0.063l-0.051,0.064l-0.05,0.063l-0.05,0.065l-0.05,0.064l-0.049,0.065l-0.049,0.065l-0.048,0.065l-0.049,0.065l-0.047,0.066l-0.048,0.066l-0.047,0.067l-0.046,0.067l-0.047,0.067l-0.045,0.067l-0.046,0.068l-0.045,0.068l-0.044,0.068l-0.045,0.068l-0.043,0.069l-0.044,0.069l-0.043,0.069l-0.042,0.07l-0.043,0.07l-0.041,0.07l-0.042,0.071l-0.041,0.07l-0.04,0.071l-0.04,0.071l-0.04,0.072l-0.039,0.072l-0.039,0.072l-0.039,0.072l-0.038,0.073l-0.037,0.072l-0.037,0.073l-0.037,0.074l-0.036,0.073l-0.036,0.074l-0.036,0.074l-0.035,0.074l-0.034,0.075l-0.034,0.075l-0.034,0.075l-0.033,0.075l-0.033,0.076l-0.032,0.075l-0.032,0.076l-0.032,0.077l-0.031,0.076l-0.03,0.077l-0.03,0.077l-0.03,0.077l-0.029,0.077l-0.029,0.078l-0.028,0.077l-0.028,0.079l-0.027,0.078l-0.027,0.078l-0.026,0.079l-0.026,0.079l-0.026,0.079l-0.025,0.079l-0.024,0.08l-0.024,0.079l-0.024,0.08l-0.023,0.081l-0.022,0.08l-0.022,0.08l-0.022,0.081l-0.021,0.081l-0.021,0.081l-0.02,0.082l-0.02,0.081l-0.019,0.082l-0.018,0.082l-0.019,0.082l-0.017,0.082l-0.017,0.082l-0.017,0.083l-0.016,0.083l-0.016,0.083l-0.015,0.083l-0.015,0.083l-0.014,0.084l-0.013,0.084l-0.013,0.084l-0.013,0.084l-0.012,0.084l-0.012,0.084l-0.011,0.085l-0.01,0.084l-0.01,0.085l-0.01,0.085l-0.009,0.085l-0.008,0.086l-0.008,0.085l-0.007,0.086l-0.007,0.086l-0.006,0.085l-0.006,0.086l-0.005,0.087l-0.005,0.086l-0.004,0.087l-0.004,0.086l-0.003,0.087l-0.002,0.087l-0.002,0.087l-0.001,0.087l-0.001,0.087l0,0.088l0,0.087l0.001,0.088l0.001,0.087l0.002,0.087l0.002,0.087l0.003,0.087l0.004,0.086l0.004,0.087l0.005,0.086l0.005,0.086l0.006,0.086l0.006,0.086l0.007,0.086l0.007,0.086l0.008,0.085l0.008,0.085l0.009,0.086l0.01,0.085l0.01,0.085l0.01,0.084l0.011,0.085l0.012,0.084l0.012,0.084l0.013,0.084l0.013,0.084l0.013,0.084l0.014,0.083l0.015,0.084l0.015,0.083l0.016,0.083l0.016,0.083l0.017,0.082l0.017,0.083l0.017,0.082l0.019,0.082l0.018,0.082l0.019,0.082l0.02,0.081l0.02,0.082l0.021,0.081l0.021,0.081l0.022,0.08l0.022,0.081l0.022,0.08l0.023,0.08l0.024,0.08l0.024,0.08l0.024,0.08l0.025,0.079l0.026,0.079l0.026,0.079l0.026,0.079l0.027,0.078l0.027,0.078l0.028,0.078l0.028,0.078l0.029,0.078l0.029,0.077l0.03,0.077l0.03,0.077l0.03,0.077l0.031,0.076l0.032,0.076l0.032,0.076l0.032,0.076l0.033,0.076l0.033,0.075l0.034,0.075l0.034,0.075l0.034,0.074l0.035,0.075l0.036,0.074l0.036,0.074l0.036,0.073l0.037,0.073l0.037,0.073l0.037,0.073l0.038,0.073l0.039,0.072l0.039,0.072l0.039,0.072l0.04,0.071l0.04,0.072l0.04,0.071l0.041,0.07l0.042,0.071l0.041,0.07l0.043,0.07l0.042,0.069l0.043,0.07l0.044,0.069l0.043,0.069l0.045,0.068l0.044,0.068l0.045,0.068l0.046,0.068l0.045,0.067l0.047,0.067l0.046,0.067l0.047,0.066l0.048,0.067l0.047,0.065l0.049,0.066l0.048,0.065l0.049,0.065l0.049,0.065l0.05,0.064l0.05,0.064l0.05,0.064l0.051,0.064l0.051,0.063l0.052,0.062l0.052,0.063l0.052,0.062l0.053,0.062l0.053,0.062l0.053,0.061l0.054,0.061l0.054,0.06l0.054,0.061l0.055,0.059l0.055,0.06l0.056,0.059l0.056,0.059l0.056,0.059l0.056,0.058l0.057,0.058l0.057,0.058l0.058,0.057l0.058,0.057l0.058,0.056l0.059,0.056l0.059,0.056l0.059,0.056l0.06,0.055l0.059,0.055l0.061,0.054l0.06,0.054l0.061,0.054l0.061,0.053l0.062,0.053l0.062,0.053l0.062,0.052l0.062,0.052l0.063,0.052l0.063,0.051l0.064,0.051l0.064,0.05l0.064,0.05l0.064,0.05l0.065,0.049l0.065,0.049l0.065,0.048l0.066,0.049l0.065,0.047l0.067,0.048l0.066,0.047l0.067,0.046l0.067,0.046l0.067,0.046l0.068,0.046l0.068,0.045l0.068,0.044l0.068,0.045l0.069,0.043l0.069,0.044l0.07,0.043l0.069,0.042l0.07,0.043l0.07,0.041l0.071,0.042l0.07,0.041l0.071,0.04l0.072,0.04l0.071,0.04l0.072,0.039l0.072,0.039l0.072,0.039l0.073,0.038l0.072,0.037l0.074,0.037l0.073,0.037l0.073,0.036l0.074,0.036l0.074,0.036l0.075,0.035l0.074,0.034l0.075,0.034l0.075,0.034l0.075,0.033l0.076,0.033l0.075,0.032l0.076,0.032l0.077,0.032l0.076,0.031l0.077,0.03l0.077,0.03l0.077,0.03l0.077,0.029l0.078,0.029l0.078,0.028l0.078,0.028l0.078,0.027l0.078,0.027l0.079,0.026l0.079,0.026l0.079,0.026l0.079,0.025l0.08,0.024l0.08,0.024l0.08,0.024l0.08,0.023l0.08,0.022l0.081,0.022l0.08,0.022l0.081,0.021l0.081,0.021l0.082,0.02l0.081,0.02l0.082,0.019l0.082,0.018l0.082,0.019l0.082,0.017l0.083,0.017l0.082,0.017l0.083,0.016l0.083,0.016l0.083,0.015l0.084,0.015l0.083,0.014l0.084,0.013l0.084,0.013l0.084,0.013l0.084,0.012l0.084,0.012l0.085,0.011l0.084,0.01l0.085,0.01l0.085,0.01l0.085,0.009l0.086,0.008l0.085,0.008l0.086,0.007l0.086,0.007l0.086,0.006l0.086,0.006l0.086,0.005l0.086,0.005l0.087,0.004l0.086,0.003l0.087,0.004l0.087,0.002l0.087,0.002l0.087,0.001l0.088,0.001l0.087,0l0.088,0l0.087,-0.001l0.087,-0.001l0.087,-0.002l0.087,-0.002l0.087,-0.004l0.086,-0.003l0.087,-0.004l0.086,-0.005l0.086,-0.005l0.087,-0.006l0.085,-0.006l0.086,-0.007l0.086,-0.007l0.085,-0.008l0.086,-0.008l0.085,-0.009l0.085,-0.01l0.085,-0.01l0.084,-0.01l0.085,-0.011l0.084,-0.012l0.084,-0.012l0.084,-0.013l0.084,-0.013l0.084,-0.013l0.084,-0.014l0.083,-0.015l0.083,-0.015l0.083,-0.016l0.083,-0.016l0.082,-0.017l0.083,-0.017l0.082,-0.017l0.082,-0.019l0.082,-0.018l0.082,-0.019l0.081,-0.02l0.082,-0.02l0.081,-0.021l0.081,-0.021l0.081,-0.022l0.08,-0.022l0.08,-0.022l0.081,-0.023l0.08,-0.024l0.079,-0.024l0.08,-0.024l0.079,-0.025l0.079,-0.026l0.079,-0.026l0.079,-0.026l0.078,-0.027l0.078,-0.027l0.078,-0.028l0.078,-0.028l0.078,-0.029l0.077,-0.029l0.077,-0.03l0.077,-0.03l0.077,-0.03l0.076,-0.031l0.077,-0.032l0.076,-0.032l0.075,-0.032l0.076,-0.033l0.075,-0.033l0.075,-0.034l0.075,-0.034l0.075,-0.034l0.074,-0.035l0.074,-0.036l0.074,-0.036l0.073,-0.036l0.074,-0.037l0.073,-0.037l0.072,-0.037l0.073,-0.038l0.072,-0.039l0.072,-0.039l0.072,-0.039l0.072,-0.04l0.071,-0.04l0.071,-0.04l0.07,-0.041l0.071,-0.042l0.07,-0.041l0.07,-0.043l0.07,-0.042l0.069,-0.043l0.069,-0.044l0.069,-0.043l0.068,-0.045l0.068,-0.044l0.068,-0.045l0.068,-0.046l0.067,-0.046l0.067,-0.046l0.067,-0.046l0.067,-0.047l0.066,-0.048l0.066,-0.047l0.065,-0.049l0.065,-0.048l0.065,-0.049l0.065,-0.049l0.064,-0.05l0.065,-0.05l0.063,-0.05l0.064,-0.051l0.063,-0.051l0.063,-0.052l0.062,-0.052l0.062,-0.052l0.062,-0.053l0.062,-0.053l0.061,-0.053l0.061,-0.054l0.06,-0.054l0.061,-0.054l0.06,-0.055l0.059,-0.055l0.059,-0.056l0.059,-0.056l0.059,-0.056l0.058,-0.056l0.058,-0.057l0.058,-0.057l0.057,-0.058l0.057,-0.058l0.056,-0.058l0.057,-0.059l0.055,-0.059l0.056,-0.059l0.055,-0.06l0.055,-0.059l0.054,-0.061l0.054,-0.06l0.054,-0.061l0.053,-0.061l0.053,-0.062l0.053,-0.062l0.052,-0.062l0.052,-0.063l0.052,-0.062l0.051,-0.063l0.051,-0.064l0.05,-0.064l0.05,-0.064l0.05,-0.064l0.049,-0.065l0.049,-0.065l0.049,-0.065l0.048,-0.066l0.047,-0.065l0.048,-0.067l0.047,-0.066l0.046,-0.067l0.047,-0.067l0.045,-0.067l0.046,-0.068l0.045,-0.068l0.045,-0.068l0.044,-0.068l0.044,-0.069l0.043,-0.069l0.043,-0.07l0.043,-0.069l0.042,-0.07l0.042,-0.07l0.041,-0.071l0.041,-0.07l0.04,-0.071l0.041,-0.072l0.039,-0.071l0.04,-0.072l0.038,-0.072l0.039,-0.072l0.038,-0.073l0.037,-0.073l0.038,-0.073l0.036,-0.073l0.037,-0.073l0.035,-0.074l0.036,-0.074l0.035,-0.075l0.034,-0.074l0.035,-0.075l0.033,-0.075l0.033,-0.075l0.033,-0.076l0.033,-0.076l0.031,-0.076l0.032,-0.076l0.031,-0.076l0.03,-0.077l0.03,-0.077l0.03,-0.077l0.029,-0.077l0.029,-0.078l0.028,-0.078l0.028,-0.078l0.027,-0.078l0.027,-0.078l0.027,-0.079l0.025,-0.079l0.026,-0.079l0.025,-0.079l0.024,-0.08l0.024,-0.08l0.024,-0.08l0.023,-0.08l0.022,-0.08l0.023,-0.081l0.021,-0.08l0.021,-0.081l0.021,-0.081l0.02,-0.082l0.02,-0.081l0.019,-0.082l0.018,-0.082l0.019,-0.082l0.017,-0.082l0.017,-0.083l0.017,-0.082l0.016,-0.083l0.016,-0.083l0.015,-0.083l0.015,-0.084l0.014,-0.083l0.013,-0.084l0.014,-0.084l0.012,-0.084l0.012,-0.084l0.012,-0.084l0.011,-0.085l0.01,-0.084l0.01,-0.085l0.01,-0.085l0.009,-0.086l0.008,-0.085l0.008,-0.085l0.007,-0.086l0.007,-0.086l0.006,-0.086l0.006,-0.086l0.005,-0.086l0.005,-0.086l0.004,-0.087l0.004,-0.086l0.003,-0.087l0.002,-0.087l0.002,-0.087l0.001,-0.087l0.001,-0.088l0.001,-0.087l-0.001,-0.088l-0.001,-0.087l-0.001,-0.087l-0.002,-0.087l-0.002,-0.087l-0.003,-0.087l-0.004,-0.086l-0.004,-0.087l-0.005,-0.086l-0.005,-0.087l-0.006,-0.086l-0.006,-0.085l-0.007,-0.086l-0.007,-0.086l-0.008,-0.085l-0.008,-0.086l-0.009,-0.085l-0.01,-0.085l-0.01,-0.085l-0.01,-0.084l-0.011,-0.085l-0.012,-0.084l-0.012,-0.084l-0.012,-0.084l-0.014,-0.084l-0.013,-0.084l-0.014,-0.084l-0.015,-0.083l-0.015,-0.083l-0.016,-0.083l-0.016,-0.083l-0.017,-0.083l-0.017,-0.082l-0.017,-0.082l-0.019,-0.082l-0.018,-0.082l-0.019,-0.082l-0.02,-0.081l-0.02,-0.082l-0.021,-0.081l-0.021,-0.081l-0.021,-0.081l-0.023,-0.08l-0.022,-0.08l-0.023,-0.081l-0.024,-0.08l-0.024,-0.079l-0.024,-0.08l-0.025,-0.079l-0.026,-0.079l-0.025,-0.079l-0.027,-0.079l-0.027,-0.078l-0.027,-0.078l-0.028,-0.079l-0.028,-0.077l-0.029,-0.078l-0.029,-0.077l-0.03,-0.077l-0.03,-0.077l-0.03,-0.077l-0.031,-0.076l-0.032,-0.077l-0.031,-0.076l-0.033,-0.075l-0.033,-0.076l-0.033,-0.075l-0.033,-0.075l-0.035,-0.075l-0.034,-0.075l-0.035,-0.074l-0.036,-0.074l-0.035,-0.074l-0.037,-0.073l-0.036,-0.074l-0.038,-0.073l-0.037,-0.072l-0.038,-0.073l-0.039,-0.072l-0.038,-0.072l-0.04,-0.072l-0.039,-0.072l-0.041,-0.071l-0.04,-0.071l-0.041,-0.07l-0.041,-0.071l-0.042,-0.07l-0.042,-0.07l-0.043,-0.07l-0.043,-0.069l-0.043,-0.069l-0.044,-0.069l-0.044,-0.068l-0.045,-0.068l-0.045,-0.068l-0.046,-0.068l-0.045,-0.067l-0.047,-0.067l-0.046,-0.067l-0.047,-0.067l-0.048,-0.066l-0.047,-0.066l-0.048,-0.065l-0.049,-0.065l-0.049,-0.065l-0.049,-0.065l-0.05,-0.064l-0.05,-0.065l-0.05,-0.063l-0.051,-0.064l-0.051,-0.063l-0.052,-0.063l-0.052,-0.062l-0.052,-0.062l-0.053,-0.062l-0.053,-0.062l-0.053,-0.061l-0.054,-0.061l-0.054,-0.06l-0.054,-0.061l-0.055,-0.06l-0.055,-0.059l-0.056,-0.059l-0.055,-0.059l-0.057,-0.059l-0.056,-0.058l-0.057,-0.058l-0.057,-0.058l-0.058,-0.057l-0.058,-0.057l-0.058,-0.056l-0.059,-0.057l-0.059,-0.055l-0.059,-0.056l-0.059,-0.055l-0.06,-0.055l-0.061,-0.054l-0.06,-0.054l-0.061,-0.054l-0.061,-0.053l-0.062,-0.053l-0.062,-0.053l-0.062,-0.052l-0.062,-0.052l-0.063,-0.052l-0.063,-0.051l-0.064,-0.051l-0.063,-0.05l-0.065,-0.05l-0.064,-0.05l-0.065,-0.049l-0.065,-0.049l-0.065,-0.049l-0.065,-0.048l-0.066,-0.048l-0.066,-0.047l-0.067,-0.047l-0.067,-0.046l-0.067,-0.047l-0.067,-0.045l-0.068,-0.046l-0.068,-0.045l-0.068,-0.045l-0.068,-0.044l-0.069,-0.044l-0.069,-0.043l-0.069,-0.043l-0.07,-0.043l-0.07,-0.042l-0.07,-0.042l-0.071,-0.041l-0.07,-0.041l-0.071,-0.04l-0.071,-0.041l-0.072,-0.039l-0.072,-0.04l-0.072,-0.038l-0.072,-0.039l-0.073,-0.038l-0.072,-0.037l-0.073,-0.038l-0.074,-0.036l-0.073,-0.037l-0.074,-0.035l-0.074,-0.036l-0.074,-0.035l-0.075,-0.034l-0.075,-0.035l-0.075,-0.033l-0.075,-0.033l-0.076,-0.033l-0.075,-0.033l-0.076,-0.031l-0.077,-0.032l-0.076,-0.031l-0.077,-0.03l-0.077,-0.031l-0.077,-0.029l-0.077,-0.029l-0.078,-0.029l-0.078,-0.028l-0.078,-0.028l-0.078,-0.027l-0.078,-0.027l-0.079,-0.027l-0.079,-0.025l-0.079,-0.026l-0.079,-0.025l-0.08,-0.024l-0.079,-0.024l-0.08,-0.024l-0.081,-0.023l-0.08,-0.023l-0.08,-0.022l-0.081,-0.021l-0.081,-0.021l-0.081,-0.021l-0.082,-0.02l-0.081,-0.02l-0.082,-0.019l-0.082,-0.019l-0.082,-0.018l-0.082,-0.017l-0.083,-0.018l-0.082,-0.016l-0.083,-0.016l-0.083,-0.016l-0.083,-0.015l-0.083,-0.015l-0.084,-0.014l-0.084,-0.013l-0.084,-0.014l-0.084,-0.012l-0.084,-0.012l-0.084,-0.012l-0.085,-0.011l-0.084,-0.01l-0.085,-0.01l-0.085,-0.01l-0.085,-0.009l-0.086,-0.008l-0.085,-0.008l-0.086,-0.007l-0.086,-0.007l-0.085,-0.006l-0.087,-0.006l-0.086,-0.005l-0.086,-0.005l-0.087,-0.004l-0.086,-0.004l-0.087,-0.003l-0.087,-0.002l-0.087,-0.002l-0.087,-0.001l-0.087,-0.001l-0.088,-0.001l-0.087,0.001Z" style="fill:#a1a1a1;"/><circle cx="58.015" cy="93.263" r="13.531" style="fill:#f0f0f0;"/><path d="M101.228,15.777l0.067,0.001l0.067,0l0.067,0.001l0.065,0.001l0.066,0.001l0.066,0.001l0.067,0.002l0.066,0.002l0.066,0.002l0.067,0.002l0.065,0.002l0.066,0.003l0.066,0.003l0.066,0.003l0.066,0.003l0.067,0.004l0.064,0.003l0.066,0.004l0.067,0.004l0.064,0.004l0.066,0.005l0.066,0.005l0.064,0.004l0.066,0.005l0.066,0.006l0.064,0.005l0.066,0.006l0.065,0.006l0.065,0.006l0.066,0.006l0.064,0.007l0.065,0.006l0.066,0.007l0.065,0.008l0.064,0.007l0.064,0.007l0.065,0.008l0.066,0.008l0.064,0.008l0.064,0.008l0.066,0.009l0.127,0.017l0.128,0.019l0.128,0.019l0.128,0.02l0.128,0.021l0.128,0.021l0.127,0.023l0.127,0.023l0.126,0.024l0.127,0.024l0.126,0.026l0.125,0.026l0.126,0.027l0.126,0.028l0.124,0.028l0.125,0.029l0.125,0.03l0.124,0.031l0.124,0.031l0.124,0.033l0.122,0.033l0.123,0.033l0.123,0.035l0.122,0.035l0.122,0.036l0.122,0.037l0.122,0.037l0.12,0.038l0.121,0.039l0.121,0.04l0.12,0.04l0.12,0.041l0.119,0.041l0.119,0.043l0.118,0.043l0.119,0.044l0.119,0.044l0.117,0.045l0.117,0.046l0.117,0.047l0.117,0.047l0.117,0.048l0.115,0.049l0.116,0.049l0.116,0.05l0.114,0.051l0.114,0.051l0.115,0.052l0.113,0.053l0.114,0.053l0.113,0.055l0.112,0.054l0.113,0.056l0.112,0.056l0.111,0.056l0.111,0.058l0.11,0.058l0.111,0.058l0.11,0.059l0.109,0.06l0.109,0.061l0.109,0.061l0.108,0.062l0.108,0.062l0.107,0.064l0.107,0.063l0.107,0.065l0.106,0.064l0.106,0.066l0.105,0.066l0.105,0.067l0.104,0.068l0.104,0.068l0.104,0.068l0.103,0.069l0.102,0.07l0.103,0.071l0.101,0.071l0.101,0.071l0.102,0.072l0.1,0.074l0.1,0.073l0.099,0.073l0.1,0.075l0.098,0.075l0.098,0.076l0.098,0.076l0.097,0.077l0.097,0.078l0.095,0.077l0.096,0.079l0.096,0.079l0.094,0.08l0.095,0.08l0.093,0.08l0.094,0.082l0.093,0.082l0.092,0.082l0.091,0.083l0.092,0.084l0.091,0.084l0.09,0.084l0.09,0.085l0.089,0.086l0.089,0.086l0.088,0.087l0.088,0.087l0.087,0.088l0.086,0.088l0.087,0.089l0.085,0.089l0.085,0.089l0.085,0.091l0.084,0.091l0.083,0.091l0.083,0.092l0.083,0.092l0.082,0.093l0.081,0.093l0.081,0.094l0.08,0.094l0.079,0.095l0.08,0.095l0.078,0.096l0.078,0.096l0.077,0.097l0.077,0.097l0.077,0.097l0.075,0.099l0.075,0.098l0.075,0.099l0.074,0.1l0.073,0.099l0.073,0.101l0.072,0.101l0.072,0.101l0.071,0.102l0.07,0.102l0.07,0.103l0.069,0.103l0.069,0.104l0.068,0.103l0.067,0.105l0.067,0.105l0.066,0.105l0.066,0.106l0.065,0.106l0.064,0.106l0.064,0.107l0.063,0.107l0.062,0.108l0.062,0.109l0.062,0.109l0.06,0.108l0.06,0.11l0.059,0.11l0.059,0.11l0.058,0.111l0.057,0.11l0.057,0.112l0.056,0.112l0.055,0.112l0.055,0.113l0.054,0.113l0.053,0.113l0.053,0.114l0.052,0.114l0.052,0.115l0.05,0.114l0.05,0.115l0.05,0.116l0.048,0.116l0.048,0.117l0.048,0.116l0.046,0.117l0.046,0.118l0.045,0.117l0.045,0.118l0.044,0.119l0.043,0.118l0.042,0.119l0.042,0.12l0.041,0.12l0.04,0.12l0.04,0.12l0.038,0.121l0.038,0.121l0.038,0.122l0.037,0.121l0.035,0.122l0.036,0.123l0.034,0.122l0.034,0.123l0.033,0.123l0.032,0.124l0.031,0.124l0.031,0.124l0.03,0.124l0.029,0.125l0.029,0.125l0.028,0.125l0.027,0.126l0.026,0.125l0.025,0.127l0.025,0.126l0.024,0.127l0.023,0.127l0.022,0.127l0.022,0.127l0.02,0.128l0.02,0.128l0.02,0.128l0.018,0.128l0.017,0.127l0.009,0.066l0.008,0.065l0.009,0.065l0.008,0.065l0.007,0.064l0.008,0.064l0.007,0.065l0.007,0.065l0.007,0.065l0.007,0.065l0.006,0.065l0.007,0.065l0.006,0.065l0.006,0.065l0.005,0.066l0.006,0.065l0.005,0.065l0.005,0.065l0.005,0.066l0.005,0.065l0.004,0.066l0.004,0.066l0.004,0.065l0.004,0.065l0.004,0.067l0.003,0.066l0.004,0.065l0.003,0.066l0.003,0.066l0.002,0.066l0.003,0.066l0.002,0.066l0.002,0.066l0.002,0.066l0.001,0.067l0.001,0.066l0.002,0.066l0.001,0.067l0,0.066l0.001,0.066l0,0.067l0,0.067l0,0.066l0,0.067l-0.001,0.066l0,0.066l-0.001,0.067l-0.002,0.066l-0.001,0.066l-0.001,0.067l-0.002,0.066l-0.002,0.066l-0.002,0.066l-0.003,0.066l-0.002,0.066l-0.003,0.066l-0.003,0.066l-0.004,0.066l-0.003,0.066l-0.004,0.066l-0.004,0.065l-0.004,0.066l-0.004,0.065l-0.004,0.066l-0.005,0.066l-0.005,0.065l-0.005,0.065l-0.005,0.065l-0.006,0.066l-0.005,0.065l-0.006,0.065l-0.006,0.065l-0.007,0.066l-0.006,0.064l-0.007,0.065l-0.007,0.065l-0.007,0.066l-0.007,0.064l-0.008,0.064l-0.007,0.065l-0.008,0.065l-0.009,0.065l-0.008,0.064l-0.009,0.066l-0.017,0.127l-0.018,0.129l-0.02,0.128l-0.02,0.127l-0.02,0.128l-0.022,0.128l-0.022,0.127l-0.023,0.127l-0.024,0.126l-0.025,0.127l-0.025,0.126l-0.026,0.126l-0.027,0.125l-0.028,0.126l-0.029,0.125l-0.029,0.124l-0.03,0.125l-0.031,0.124l-0.031,0.124l-0.032,0.123l-0.033,0.123l-0.034,0.123l-0.034,0.123l-0.036,0.122l-0.035,0.122l-0.037,0.122l-0.037,0.121l-0.039,0.121l-0.039,0.122l-0.039,0.12l-0.04,0.119l-0.041,0.12l-0.042,0.12l-0.042,0.119l-0.043,0.119l-0.044,0.118l-0.045,0.118l-0.045,0.118l-0.046,0.118l-0.046,0.116l-0.048,0.117l-0.048,0.117l-0.048,0.115l-0.05,0.116l-0.05,0.115l-0.05,0.115l-0.052,0.115l-0.052,0.114l-0.053,0.113l-0.053,0.114l-0.054,0.113l-0.055,0.112l-0.055,0.113l-0.056,0.112l-0.057,0.111l-0.057,0.111l-0.058,0.11l-0.059,0.111l-0.059,0.11l-0.06,0.109l-0.06,0.109l-0.062,0.109l-0.062,0.108l-0.062,0.108l-0.063,0.107l-0.064,0.107l-0.064,0.107l-0.065,0.106l-0.066,0.106l-0.066,0.105l-0.067,0.105l-0.067,0.104l-0.068,0.104l-0.069,0.103l-0.069,0.104l-0.07,0.102l-0.07,0.102l-0.071,0.102l-0.072,0.102l-0.072,0.1l-0.073,0.101l-0.073,0.1l-0.074,0.099l-0.075,0.099l-0.075,0.099l-0.075,0.098l-0.077,0.098l-0.077,0.097l-0.077,0.096l-0.078,0.097l-0.079,0.095l-0.079,0.096l-0.079,0.094l-0.08,0.094l-0.081,0.094l-0.081,0.094l-0.082,0.092l-0.083,0.093l-0.083,0.092l-0.083,0.091l-0.084,0.091l-0.085,0.09l-0.085,0.089l-0.086,0.09l-0.086,0.089l-0.086,0.088l-0.088,0.088l-0.087,0.087l-0.088,0.086l-0.089,0.086l-0.089,0.086l-0.09,0.085l-0.091,0.085l-0.09,0.084l-0.091,0.083l-0.092,0.083l-0.093,0.083l-0.093,0.082l-0.093,0.081l-0.093,0.081l-0.094,0.08l-0.095,0.079l-0.096,0.08l-0.095,0.078l-0.097,0.078l-0.096,0.077l-0.097,0.077l-0.098,0.077l-0.098,0.075l-0.099,0.076l-0.099,0.074l-0.099,0.074l-0.1,0.073l-0.101,0.073l-0.1,0.072l-0.101,0.072l-0.103,0.071l-0.102,0.07l-0.102,0.07l-0.104,0.07l-0.103,0.068l-0.104,0.068l-0.104,0.067l-0.105,0.067l-0.105,0.066l-0.106,0.066l-0.106,0.065l-0.107,0.064l-0.107,0.064l-0.107,0.063l-0.108,0.062l-0.109,0.063l-0.108,0.061l-0.108,0.06l-0.11,0.06l-0.11,0.059l-0.111,0.059l-0.11,0.058l-0.111,0.057l-0.112,0.057l-0.111,0.056l-0.113,0.055l-0.112,0.055l-0.113,0.054l-0.113,0.053l-0.114,0.053l-0.115,0.052l-0.114,0.052l-0.115,0.05l-0.115,0.05l-0.116,0.05l-0.115,0.048l-0.117,0.048l-0.117,0.048l-0.116,0.046l-0.118,0.046l-0.118,0.045l-0.118,0.045l-0.118,0.044l-0.119,0.043l-0.119,0.042l-0.119,0.042l-0.121,0.041l-0.12,0.04l-0.119,0.039l-0.122,0.039l-0.121,0.039l-0.121,0.037l-0.122,0.037l-0.122,0.035l-0.122,0.036l-0.123,0.034l-0.122,0.034l-0.124,0.033l-0.123,0.032l-0.124,0.031l-0.124,0.031l-0.125,0.03l-0.125,0.029l-0.124,0.029l-0.126,0.028l-0.125,0.027l-0.126,0.026l-0.126,0.025l-0.127,0.025l-0.126,0.024l-0.127,0.023l-0.127,0.022l-0.128,0.022l-0.127,0.02l-0.129,0.02l-0.128,0.02l-0.128,0.018l-0.127,0.017l-0.066,0.009l-0.064,0.008l-0.066,0.009l-0.064,0.008l-0.065,0.007l-0.064,0.008l-0.064,0.007l-0.066,0.007l-0.065,0.007l-0.065,0.007l-0.064,0.006l-0.065,0.006l-0.066,0.007l-0.065,0.006l-0.065,0.005l-0.066,0.006l-0.065,0.005l-0.065,0.005l-0.066,0.005l-0.065,0.005l-0.065,0.004l-0.067,0.004l-0.065,0.004l-0.065,0.004l-0.066,0.004l-0.067,0.003l-0.065,0.004l-0.066,0.003l-0.065,0.002l-0.067,0.003l-0.066,0.003l-0.066,0.002l-0.066,0.002l-0.065,0.001l-0.067,0.002l-0.067,0.001l-0.066,0.002l-0.067,0.001l-0.067,0l-0.065,0.001l-0.066,0l-0.067,0l-0.067,0l-0.066,0l-0.066,-0.001l-0.067,0l-0.067,-0.001l-0.066,-0.002l-0.067,-0.001l-0.066,-0.002l-0.066,-0.001l-0.066,-0.002l-0.065,-0.002l-0.067,-0.003l-0.066,-0.003l-0.066,-0.002l-0.065,-0.003l-0.066,-0.004l-0.066,-0.003l-0.067,-0.004l-0.065,-0.004l-0.065,-0.004l-0.066,-0.004l-0.066,-0.004l-0.065,-0.005l-0.066,-0.005l-0.065,-0.005l-0.065,-0.005l-0.066,-0.006l-0.065,-0.005l-0.065,-0.006l-0.066,-0.007l-0.064,-0.006l-0.065,-0.006l-0.065,-0.007l-0.064,-0.007l-0.066,-0.007l-0.065,-0.007l-0.064,-0.008l-0.064,-0.007l-0.065,-0.008l-0.065,-0.009l-0.065,-0.008l-0.066,-0.009l-0.127,-0.017l-0.128,-0.018l-0.128,-0.02l-0.128,-0.02l-0.128,-0.02l-0.127,-0.022l-0.127,-0.022l-0.127,-0.023l-0.127,-0.024l-0.126,-0.025l-0.127,-0.025l-0.125,-0.026l-0.126,-0.027l-0.125,-0.028l-0.125,-0.029l-0.124,-0.029l-0.125,-0.03l-0.124,-0.031l-0.124,-0.031l-0.124,-0.032l-0.123,-0.033l-0.123,-0.034l-0.123,-0.034l-0.122,-0.036l-0.122,-0.035l-0.122,-0.037l-0.121,-0.037l-0.121,-0.039l-0.121,-0.039l-0.12,-0.039l-0.12,-0.04l-0.12,-0.041l-0.12,-0.042l-0.119,-0.042l-0.118,-0.043l-0.119,-0.044l-0.118,-0.045l-0.117,-0.045l-0.118,-0.046l-0.117,-0.046l-0.116,-0.048l-0.117,-0.048l-0.116,-0.048l-0.115,-0.05l-0.116,-0.05l-0.114,-0.05l-0.115,-0.052l-0.114,-0.052l-0.114,-0.053l-0.114,-0.053l-0.112,-0.054l-0.113,-0.055l-0.112,-0.055l-0.112,-0.056l-0.111,-0.057l-0.111,-0.057l-0.111,-0.058l-0.11,-0.059l-0.11,-0.059l-0.11,-0.06l-0.109,-0.061l-0.108,-0.06l-0.109,-0.063l-0.107,-0.062l-0.107,-0.063l-0.108,-0.064l-0.107,-0.064l-0.106,-0.065l-0.105,-0.066l-0.105,-0.066l-0.105,-0.067l-0.105,-0.067l-0.103,-0.068l-0.104,-0.069l-0.103,-0.069l-0.103,-0.07l-0.102,-0.07l-0.102,-0.071l-0.101,-0.072l-0.101,-0.072l-0.1,-0.073l-0.101,-0.073l-0.099,-0.074l-0.099,-0.075l-0.099,-0.075l-0.097,-0.075l-0.098,-0.077l-0.097,-0.077l-0.097,-0.077l-0.096,-0.078l-0.096,-0.078l-0.095,-0.08l-0.095,-0.08l-0.094,-0.079l-0.094,-0.081l-0.093,-0.081l-0.093,-0.082l-0.092,-0.083l-0.092,-0.083l-0.091,-0.083l-0.091,-0.084l-0.09,-0.085l-0.09,-0.085l-0.09,-0.086l-0.088,-0.086l-0.088,-0.086l-0.088,-0.087l-0.088,-0.088l-0.086,-0.088l-0.086,-0.089l-0.086,-0.09l-0.085,-0.089l-0.084,-0.09l-0.084,-0.091l-0.084,-0.091l-0.083,-0.092l-0.082,-0.093l-0.082,-0.092l-0.082,-0.094l-0.08,-0.094l-0.08,-0.094l-0.08,-0.094l-0.079,-0.096l-0.078,-0.095l-0.079,-0.097l-0.077,-0.096l-0.077,-0.097l-0.076,-0.098l-0.076,-0.098l-0.075,-0.099l-0.074,-0.099l-0.074,-0.099l-0.074,-0.1l-0.073,-0.101l-0.072,-0.1l-0.071,-0.102l-0.071,-0.102l-0.071,-0.102l-0.07,-0.102l-0.069,-0.104l-0.068,-0.103l-0.068,-0.104l-0.068,-0.104l-0.067,-0.105l-0.066,-0.105l-0.066,-0.106l-0.064,-0.106l-0.065,-0.107l-0.063,-0.107l-0.064,-0.107l-0.062,-0.108l-0.062,-0.108l-0.061,-0.109l-0.061,-0.109l-0.059,-0.109l-0.06,-0.11l-0.058,-0.11l-0.058,-0.111l-0.058,-0.111l-0.056,-0.111l-0.056,-0.112l-0.056,-0.113l-0.054,-0.112l-0.054,-0.113l-0.054,-0.114l-0.053,-0.113l-0.052,-0.114l-0.051,-0.115l-0.051,-0.115l-0.05,-0.115l-0.049,-0.116l-0.049,-0.115l-0.048,-0.117l-0.047,-0.117l-0.047,-0.116l-0.046,-0.118l-0.045,-0.118l-0.044,-0.118l-0.044,-0.118l-0.043,-0.119l-0.043,-0.119l-0.041,-0.12l-0.041,-0.12l-0.041,-0.119l-0.039,-0.12l-0.039,-0.122l-0.038,-0.121l-0.037,-0.121l-0.037,-0.122l-0.036,-0.122l-0.035,-0.122l-0.035,-0.123l-0.033,-0.123l-0.033,-0.123l-0.033,-0.123l-0.031,-0.124l-0.031,-0.124l-0.03,-0.125l-0.029,-0.124l-0.028,-0.126l-0.028,-0.125l-0.027,-0.125l-0.026,-0.126l-0.026,-0.126l-0.024,-0.127l-0.024,-0.126l-0.023,-0.127l-0.023,-0.127l-0.021,-0.128l-0.021,-0.128l-0.02,-0.128l-0.019,-0.127l-0.019,-0.129l-0.017,-0.127l-0.009,-0.066l-0.008,-0.064l-0.008,-0.065l-0.008,-0.065l-0.008,-0.065l-0.007,-0.064l-0.008,-0.064l-0.007,-0.066l-0.007,-0.065l-0.006,-0.065l-0.007,-0.064l-0.006,-0.066l-0.006,-0.065l-0.006,-0.065l-0.006,-0.065l-0.005,-0.065l-0.006,-0.066l-0.005,-0.065l-0.005,-0.065l-0.004,-0.066l-0.005,-0.066l-0.004,-0.065l-0.004,-0.066l-0.004,-0.066l-0.004,-0.065l-0.003,-0.066l-0.003,-0.066l-0.003,-0.066l-0.003,-0.066l-0.003,-0.066l-0.002,-0.065l-0.002,-0.067l-0.002,-0.066l-0.002,-0.066l-0.002,-0.067l-0.001,-0.066l-0.001,-0.066l-0.001,-0.066l-0.001,-0.067l0,-0.066l-0.001,-0.067l0,-0.066l0,-0.067l0.001,-0.066l0,-0.067l0.001,-0.067l0.001,-0.066l0.001,-0.066l0.001,-0.066l0.002,-0.067l0.002,-0.065l0.002,-0.067l0.002,-0.066l0.002,-0.066l0.003,-0.066l0.003,-0.066l0.003,-0.065l0.003,-0.066l0.003,-0.067l0.004,-0.065l0.004,-0.066l0.004,-0.066l0.004,-0.065l0.005,-0.066l0.004,-0.065l0.005,-0.065l0.005,-0.066l0.006,-0.065l0.005,-0.065l0.006,-0.066l0.006,-0.065l0.006,-0.065l0.006,-0.065l0.007,-0.065l0.006,-0.065l0.007,-0.065l0.007,-0.065l0.008,-0.065l0.007,-0.064l0.008,-0.064l0.008,-0.065l0.008,-0.065l0.008,-0.065l0.009,-0.066l0.017,-0.127l0.019,-0.128l0.019,-0.128l0.02,-0.128l0.021,-0.128l0.021,-0.127l0.023,-0.128l0.023,-0.126l0.024,-0.127l0.024,-0.126l0.026,-0.127l0.026,-0.125l0.027,-0.126l0.028,-0.125l0.028,-0.125l0.029,-0.125l0.03,-0.124l0.031,-0.124l0.031,-0.124l0.033,-0.124l0.033,-0.123l0.033,-0.123l0.035,-0.122l0.035,-0.123l0.036,-0.122l0.037,-0.121l0.037,-0.122l0.038,-0.121l0.039,-0.121l0.039,-0.12l0.041,-0.12l0.041,-0.12l0.041,-0.12l0.043,-0.118l0.043,-0.119l0.044,-0.119l0.044,-0.118l0.045,-0.117l0.046,-0.118l0.047,-0.117l0.047,-0.116l0.048,-0.117l0.049,-0.116l0.049,-0.116l0.05,-0.115l0.051,-0.114l0.051,-0.115l0.052,-0.114l0.053,-0.114l0.053,-0.113l0.054,-0.113l0.055,-0.113l0.056,-0.112l0.056,-0.112l0.056,-0.111l0.058,-0.111l0.058,-0.111l0.058,-0.11l0.059,-0.11l0.06,-0.11l0.061,-0.109l0.061,-0.108l0.062,-0.109l0.063,-0.108l0.063,-0.107l0.063,-0.107l0.065,-0.106l0.064,-0.106l0.066,-0.106l0.066,-0.105l0.067,-0.105l0.068,-0.105l0.067,-0.103l0.069,-0.104l0.069,-0.103l0.07,-0.103l0.071,-0.102l0.071,-0.102l0.071,-0.101l0.072,-0.101l0.073,-0.1l0.074,-0.1l0.074,-0.1l0.074,-0.099l0.075,-0.098l0.076,-0.099l0.076,-0.097l0.077,-0.097l0.078,-0.097l0.077,-0.096l0.079,-0.096l0.079,-0.095l0.08,-0.095l0.08,-0.094l0.081,-0.094l0.081,-0.093l0.082,-0.093l0.082,-0.092l0.083,-0.092l0.084,-0.091l0.083,-0.091l0.085,-0.091l0.085,-0.089l0.086,-0.089l0.086,-0.089l0.087,-0.089l0.087,-0.087l0.088,-0.087l0.088,-0.087l0.089,-0.086l0.089,-0.086l0.089,-0.085l0.091,-0.084l0.091,-0.084l0.091,-0.084l0.092,-0.083l0.092,-0.082l0.093,-0.082l0.093,-0.082l0.094,-0.08l0.094,-0.08l0.095,-0.08l0.095,-0.079l0.096,-0.079l0.096,-0.077l0.097,-0.078l0.097,-0.077l0.098,-0.076l0.098,-0.076l0.098,-0.075l0.099,-0.075l0.1,-0.073l0.099,-0.073l0.101,-0.074l0.101,-0.072l0.101,-0.071l0.102,-0.071l0.102,-0.071l0.103,-0.07l0.103,-0.069l0.103,-0.068l0.104,-0.069l0.105,-0.067l0.105,-0.067l0.105,-0.066l0.106,-0.066l0.106,-0.065l0.106,-0.064l0.107,-0.063l0.108,-0.064l0.108,-0.062l0.108,-0.062l0.108,-0.061l0.109,-0.061l0.11,-0.06l0.11,-0.059l0.11,-0.058l0.111,-0.058l0.111,-0.058l0.111,-0.056l0.112,-0.056l0.112,-0.056l0.112,-0.054l0.114,-0.055l0.113,-0.053l0.114,-0.053l0.114,-0.052l0.115,-0.051l0.114,-0.051l0.116,-0.05l0.115,-0.049l0.116,-0.049l0.117,-0.048l0.116,-0.047l0.117,-0.047l0.117,-0.046l0.118,-0.045l0.119,-0.044l0.118,-0.044l0.118,-0.043l0.119,-0.043l0.12,-0.041l0.12,-0.041l0.12,-0.04l0.12,-0.04l0.121,-0.039l0.121,-0.038l0.121,-0.037l0.122,-0.037l0.123,-0.036l0.121,-0.035l0.123,-0.035l0.123,-0.033l0.123,-0.033l0.124,-0.033l0.124,-0.031l0.124,-0.031l0.125,-0.03l0.124,-0.029l0.125,-0.028l0.125,-0.028l0.126,-0.027l0.125,-0.026l0.127,-0.026l0.126,-0.024l0.127,-0.024l0.126,-0.023l0.127,-0.023l0.128,-0.021l0.128,-0.021l0.128,-0.02l0.128,-0.019l0.129,-0.019l0.126,-0.017l0.066,-0.009l0.065,-0.008l0.064,-0.008l0.066,-0.008l0.064,-0.008l0.064,-0.007l0.065,-0.007l0.065,-0.008l0.065,-0.007l0.065,-0.006l0.065,-0.007l0.066,-0.006l0.064,-0.006l0.065,-0.006l0.066,-0.006l0.064,-0.005l0.066,-0.006l0.066,-0.005l0.064,-0.004l0.066,-0.005l0.067,-0.005l0.064,-0.004l0.066,-0.004l0.067,-0.004l0.064,-0.003l0.066,-0.004l0.067,-0.003l0.065,-0.003l0.067,-0.003l0.065,-0.003l0.066,-0.002l0.066,-0.002l0.066,-0.002l0.067,-0.002l0.067,-0.002l0.065,-0.001l0.066,-0.001l0.066,-0.001l0.067,-0.001l0.067,0l0.067,-0.001l0.066,0l0.066,0Zm-0.125,2.5l-0.058,0.001l-0.059,0l-0.058,0.001l-0.059,0.001l-0.058,0.001l-0.059,0.001l-0.058,0.001l-0.058,0.002l-0.058,0.001l-0.059,0.002l-0.058,0.003l-0.058,0.002l-0.058,0.002l-0.058,0.003l-0.058,0.003l-0.058,0.003l-0.058,0.003l-0.057,0.003l-0.058,0.004l-0.058,0.004l-0.057,0.004l-0.058,0.004l-0.058,0.004l-0.057,0.005l-0.057,0.004l-0.058,0.005l-0.057,0.005l-0.058,0.005l-0.057,0.006l-0.057,0.005l-0.057,0.006l-0.057,0.006l-0.057,0.006l-0.057,0.006l-0.057,0.007l-0.057,0.006l-0.057,0.007l-0.057,0.007l-0.056,0.007l-0.057,0.007l-0.057,0.008l-0.113,0.015l-0.113,0.016l-0.112,0.017l-0.113,0.018l-0.112,0.018l-0.112,0.019l-0.111,0.02l-0.112,0.02l-0.111,0.021l-0.111,0.022l-0.111,0.022l-0.11,0.023l-0.11,0.024l-0.11,0.024l-0.11,0.025l-0.11,0.026l-0.109,0.026l-0.109,0.027l-0.109,0.027l-0.108,0.029l-0.108,0.029l-0.108,0.029l-0.108,0.031l-0.107,0.03l-0.107,0.032l-0.107,0.032l-0.107,0.033l-0.106,0.033l-0.106,0.035l-0.106,0.034l-0.105,0.036l-0.105,0.036l-0.105,0.036l-0.105,0.037l-0.104,0.038l-0.104,0.039l-0.104,0.039l-0.103,0.039l-0.103,0.041l-0.103,0.041l-0.102,0.041l-0.103,0.042l-0.101,0.043l-0.102,0.043l-0.101,0.044l-0.101,0.045l-0.101,0.045l-0.1,0.046l-0.1,0.046l-0.099,0.047l-0.1,0.047l-0.098,0.048l-0.099,0.049l-0.098,0.049l-0.098,0.05l-0.098,0.051l-0.097,0.05l-0.097,0.052l-0.096,0.052l-0.097,0.053l-0.095,0.053l-0.096,0.054l-0.095,0.054l-0.095,0.055l-0.094,0.055l-0.094,0.056l-0.094,0.057l-0.093,0.057l-0.093,0.058l-0.092,0.058l-0.093,0.058l-0.091,0.06l-0.092,0.06l-0.091,0.06l-0.09,0.061l-0.091,0.061l-0.09,0.062l-0.089,0.062l-0.089,0.063l-0.089,0.064l-0.088,0.064l-0.088,0.064l-0.087,0.065l-0.087,0.066l-0.087,0.066l-0.086,0.067l-0.086,0.067l-0.086,0.067l-0.085,0.068l-0.084,0.069l-0.084,0.069l-0.084,0.07l-0.084,0.07l-0.082,0.07l-0.083,0.071l-0.082,0.072l-0.082,0.072l-0.081,0.072l-0.081,0.073l-0.08,0.073l-0.08,0.074l-0.079,0.075l-0.079,0.075l-0.079,0.075l-0.078,0.076l-0.077,0.076l-0.077,0.077l-0.077,0.077l-0.076,0.077l-0.076,0.078l-0.075,0.079l-0.075,0.079l-0.075,0.079l-0.074,0.08l-0.073,0.08l-0.073,0.081l-0.072,0.081l-0.072,0.082l-0.072,0.082l-0.071,0.083l-0.07,0.082l-0.07,0.084l-0.07,0.084l-0.069,0.084l-0.069,0.084l-0.068,0.085l-0.067,0.086l-0.067,0.086l-0.067,0.086l-0.066,0.087l-0.066,0.087l-0.065,0.087l-0.064,0.088l-0.064,0.088l-0.064,0.089l-0.063,0.089l-0.062,0.09l-0.062,0.089l-0.061,0.091l-0.061,0.09l-0.06,0.091l-0.06,0.092l-0.06,0.091l-0.058,0.093l-0.058,0.092l-0.058,0.093l-0.057,0.093l-0.057,0.094l-0.056,0.094l-0.055,0.094l-0.055,0.095l-0.054,0.095l-0.054,0.096l-0.053,0.095l-0.053,0.097l-0.052,0.096l-0.052,0.097l-0.05,0.097l-0.051,0.098l-0.05,0.098l-0.049,0.098l-0.049,0.099l-0.048,0.098l-0.047,0.1l-0.047,0.099l-0.046,0.1l-0.046,0.1l-0.045,0.101l-0.045,0.101l-0.044,0.101l-0.043,0.102l-0.043,0.101l-0.042,0.103l-0.041,0.102l-0.041,0.103l-0.041,0.103l-0.039,0.103l-0.039,0.104l-0.039,0.104l-0.038,0.104l-0.037,0.105l-0.036,0.105l-0.036,0.105l-0.036,0.105l-0.034,0.106l-0.035,0.106l-0.033,0.106l-0.033,0.107l-0.032,0.107l-0.032,0.107l-0.03,0.107l-0.031,0.108l-0.029,0.108l-0.029,0.108l-0.029,0.108l-0.027,0.109l-0.027,0.109l-0.026,0.109l-0.026,0.11l-0.025,0.11l-0.024,0.11l-0.024,0.11l-0.023,0.11l-0.022,0.111l-0.022,0.111l-0.021,0.111l-0.02,0.112l-0.02,0.111l-0.019,0.112l-0.018,0.112l-0.018,0.113l-0.017,0.112l-0.016,0.113l-0.015,0.113l-0.008,0.057l-0.007,0.057l-0.007,0.056l-0.007,0.057l-0.007,0.057l-0.006,0.057l-0.007,0.057l-0.006,0.057l-0.006,0.057l-0.006,0.057l-0.006,0.057l-0.005,0.057l-0.006,0.057l-0.005,0.058l-0.005,0.057l-0.005,0.058l-0.004,0.057l-0.005,0.057l-0.004,0.058l-0.004,0.058l-0.004,0.057l-0.004,0.058l-0.004,0.058l-0.003,0.057l-0.003,0.058l-0.003,0.058l-0.003,0.058l-0.003,0.058l-0.002,0.058l-0.002,0.058l-0.003,0.058l-0.002,0.059l-0.001,0.058l-0.002,0.058l-0.001,0.058l-0.001,0.059l-0.001,0.058l-0.001,0.059l-0.001,0.058l0,0.059l-0.001,0.058l0,0.059l0,0.058l0.001,0.059l0,0.058l0.001,0.059l0.001,0.058l0.001,0.059l0.001,0.058l0.001,0.058l0.002,0.059l0.001,0.058l0.002,0.058l0.003,0.058l0.002,0.058l0.002,0.058l0.003,0.058l0.003,0.058l0.003,0.058l0.003,0.058l0.003,0.058l0.004,0.058l0.004,0.057l0.004,0.058l0.004,0.057l0.004,0.058l0.005,0.057l0.004,0.058l0.005,0.057l0.005,0.058l0.005,0.057l0.006,0.057l0.005,0.057l0.006,0.058l0.006,0.057l0.006,0.057l0.006,0.057l0.007,0.057l0.006,0.056l0.007,0.057l0.007,0.057l0.007,0.057l0.007,0.056l0.008,0.057l0.015,0.113l0.016,0.113l0.017,0.113l0.018,0.112l0.018,0.112l0.019,0.112l0.02,0.112l0.02,0.111l0.021,0.111l0.022,0.111l0.022,0.111l0.023,0.111l0.024,0.11l0.024,0.11l0.025,0.11l0.026,0.109l0.026,0.109l0.027,0.109l0.027,0.109l0.029,0.109l0.029,0.108l0.029,0.108l0.031,0.107l0.03,0.108l0.032,0.107l0.032,0.107l0.033,0.106l0.033,0.107l0.035,0.106l0.034,0.105l0.036,0.106l0.036,0.105l0.036,0.105l0.037,0.104l0.038,0.105l0.039,0.104l0.039,0.103l0.039,0.104l0.041,0.103l0.041,0.102l0.041,0.103l0.042,0.102l0.043,0.102l0.043,0.101l0.044,0.102l0.045,0.1l0.045,0.101l0.046,0.1l0.046,0.1l0.047,0.1l0.047,0.099l0.048,0.099l0.049,0.099l0.049,0.098l0.05,0.098l0.051,0.097l0.05,0.097l0.052,0.097l0.052,0.097l0.053,0.096l0.053,0.096l0.054,0.095l0.054,0.095l0.055,0.095l0.055,0.094l0.056,0.094l0.057,0.094l0.057,0.093l0.058,0.093l0.058,0.093l0.058,0.092l0.06,0.092l0.06,0.091l0.06,0.091l0.061,0.091l0.061,0.09l0.062,0.09l0.062,0.089l0.063,0.09l0.064,0.088l0.064,0.088l0.064,0.088l0.065,0.088l0.066,0.087l0.066,0.087l0.067,0.086l0.067,0.086l0.067,0.085l0.068,0.085l0.069,0.085l0.069,0.084l0.07,0.084l0.07,0.083l0.07,0.083l0.071,0.082l0.072,0.082l0.072,0.082l0.072,0.081l0.073,0.081l0.073,0.08l0.074,0.08l0.075,0.08l0.075,0.079l0.075,0.078l0.076,0.078l0.076,0.078l0.077,0.077l0.077,0.077l0.077,0.076l0.078,0.076l0.079,0.075l0.079,0.075l0.079,0.074l0.08,0.074l0.08,0.073l0.081,0.073l0.081,0.073l0.082,0.072l0.082,0.071l0.083,0.071l0.082,0.071l0.084,0.07l0.084,0.07l0.084,0.069l0.084,0.068l0.085,0.068l0.086,0.068l0.086,0.067l0.086,0.066l0.087,0.066l0.087,0.066l0.087,0.065l0.088,0.065l0.088,0.064l0.089,0.063l0.089,0.063l0.089,0.062l0.09,0.062l0.091,0.062l0.09,0.061l0.091,0.06l0.092,0.06l0.091,0.059l0.093,0.059l0.092,0.058l0.093,0.058l0.093,0.057l0.094,0.056l0.094,0.056l0.094,0.056l0.095,0.054l0.095,0.055l0.096,0.054l0.095,0.053l0.097,0.052l0.096,0.052l0.097,0.052l0.097,0.051l0.098,0.05l0.098,0.05l0.098,0.049l0.099,0.049l0.098,0.048l0.1,0.048l0.099,0.046l0.1,0.047l0.1,0.045l0.101,0.046l0.101,0.044l0.101,0.044l0.102,0.043l0.101,0.043l0.103,0.042l0.102,0.042l0.103,0.041l0.103,0.04l0.103,0.04l0.104,0.039l0.104,0.038l0.104,0.038l0.105,0.037l0.105,0.037l0.105,0.036l0.105,0.035l0.106,0.035l0.106,0.034l0.106,0.033l0.107,0.033l0.107,0.032l0.107,0.032l0.107,0.031l0.108,0.03l0.108,0.03l0.108,0.029l0.108,0.028l0.109,0.028l0.109,0.027l0.109,0.026l0.11,0.026l0.11,0.025l0.11,0.024l0.11,0.024l0.11,0.023l0.111,0.022l0.111,0.022l0.111,0.021l0.112,0.02l0.111,0.019l0.112,0.019l0.112,0.019l0.113,0.017l0.112,0.017l0.113,0.016l0.113,0.016l0.057,0.007l0.057,0.007l0.056,0.008l0.057,0.007l0.057,0.006l0.057,0.007l0.057,0.006l0.057,0.007l0.057,0.006l0.057,0.006l0.057,0.005l0.057,0.006l0.057,0.005l0.058,0.005l0.057,0.005l0.058,0.005l0.057,0.005l0.057,0.004l0.058,0.005l0.058,0.004l0.057,0.004l0.058,0.003l0.058,0.004l0.057,0.003l0.058,0.004l0.058,0.003l0.058,0.002l0.058,0.003l0.058,0.003l0.058,0.002l0.058,0.002l0.059,0.002l0.058,0.002l0.058,0.001l0.058,0.002l0.059,0.001l0.058,0.001l0.059,0.001l0.058,0l0.059,0.001l0.058,0l0.059,0l0.058,0l0.059,0l0.058,-0.001l0.059,0l0.058,-0.001l0.059,-0.001l0.058,-0.001l0.058,-0.002l0.059,-0.001l0.058,-0.002l0.058,-0.002l0.058,-0.002l0.058,-0.002l0.058,-0.003l0.058,-0.003l0.058,-0.002l0.058,-0.003l0.058,-0.004l0.058,-0.003l0.058,-0.004l0.057,-0.003l0.058,-0.004l0.057,-0.004l0.058,-0.005l0.057,-0.004l0.058,-0.005l0.057,-0.005l0.058,-0.005l0.057,-0.005l0.057,-0.005l0.057,-0.006l0.058,-0.005l0.057,-0.006l0.057,-0.006l0.057,-0.007l0.057,-0.006l0.056,-0.007l0.057,-0.006l0.057,-0.007l0.057,-0.008l0.056,-0.007l0.057,-0.007l0.113,-0.016l0.113,-0.016l0.113,-0.017l0.112,-0.017l0.112,-0.019l0.112,-0.019l0.112,-0.019l0.111,-0.02l0.111,-0.021l0.111,-0.022l0.111,-0.022l0.111,-0.023l0.11,-0.024l0.11,-0.024l0.11,-0.025l0.109,-0.026l0.109,-0.026l0.109,-0.027l0.109,-0.028l0.109,-0.028l0.108,-0.029l0.108,-0.03l0.107,-0.03l0.108,-0.031l0.107,-0.032l0.107,-0.032l0.106,-0.033l0.107,-0.033l0.106,-0.034l0.105,-0.035l0.106,-0.035l0.105,-0.036l0.105,-0.037l0.104,-0.037l0.105,-0.038l0.104,-0.038l0.103,-0.039l0.104,-0.04l0.103,-0.04l0.102,-0.041l0.103,-0.042l0.102,-0.042l0.102,-0.043l0.101,-0.043l0.102,-0.044l0.1,-0.044l0.101,-0.046l0.1,-0.045l0.1,-0.047l0.1,-0.046l0.099,-0.048l0.099,-0.048l0.098,-0.049l0.099,-0.049l0.098,-0.05l0.097,-0.05l0.097,-0.051l0.097,-0.052l0.097,-0.052l0.096,-0.052l0.096,-0.053l0.095,-0.054l0.095,-0.055l0.095,-0.054l0.094,-0.056l0.094,-0.056l0.094,-0.056l0.093,-0.057l0.093,-0.058l0.093,-0.058l0.092,-0.059l0.092,-0.059l0.091,-0.06l0.091,-0.06l0.091,-0.061l0.09,-0.062l0.09,-0.062l0.089,-0.062l0.09,-0.063l0.088,-0.063l0.088,-0.064l0.088,-0.065l0.088,-0.065l0.087,-0.066l0.087,-0.066l0.086,-0.066l0.086,-0.067l0.085,-0.068l0.085,-0.068l0.085,-0.068l0.084,-0.069l0.084,-0.07l0.083,-0.07l0.083,-0.071l0.082,-0.071l0.082,-0.071l0.082,-0.072l0.081,-0.073l0.081,-0.073l0.08,-0.073l0.08,-0.074l0.08,-0.074l0.079,-0.075l0.078,-0.075l0.078,-0.076l0.078,-0.076l0.077,-0.077l0.077,-0.077l0.076,-0.078l0.076,-0.078l0.075,-0.078l0.075,-0.079l0.074,-0.08l0.074,-0.08l0.073,-0.08l0.073,-0.081l0.073,-0.081l0.072,-0.082l0.071,-0.082l0.071,-0.082l0.071,-0.083l0.07,-0.083l0.07,-0.084l0.069,-0.084l0.068,-0.085l0.068,-0.085l0.068,-0.085l0.067,-0.086l0.066,-0.086l0.066,-0.087l0.066,-0.087l0.065,-0.088l0.065,-0.088l0.064,-0.088l0.063,-0.088l0.063,-0.09l0.062,-0.089l0.062,-0.09l0.062,-0.09l0.061,-0.091l0.06,-0.091l0.06,-0.091l0.059,-0.092l0.059,-0.092l0.058,-0.093l0.058,-0.093l0.057,-0.093l0.056,-0.094l0.056,-0.094l0.056,-0.094l0.054,-0.095l0.055,-0.095l0.054,-0.095l0.053,-0.096l0.052,-0.096l0.052,-0.097l0.052,-0.097l0.051,-0.097l0.05,-0.097l0.05,-0.098l0.049,-0.098l0.049,-0.099l0.048,-0.099l0.048,-0.099l0.046,-0.1l0.047,-0.1l0.045,-0.1l0.046,-0.101l0.044,-0.1l0.044,-0.102l0.043,-0.101l0.043,-0.102l0.042,-0.102l0.042,-0.103l0.041,-0.102l0.04,-0.103l0.04,-0.104l0.039,-0.103l0.038,-0.104l0.038,-0.105l0.037,-0.104l0.037,-0.105l0.036,-0.105l0.035,-0.106l0.035,-0.105l0.034,-0.106l0.033,-0.107l0.033,-0.106l0.032,-0.107l0.032,-0.107l0.031,-0.108l0.03,-0.107l0.03,-0.108l0.029,-0.108l0.028,-0.109l0.028,-0.109l0.027,-0.109l0.026,-0.109l0.026,-0.109l0.025,-0.11l0.024,-0.11l0.024,-0.11l0.023,-0.111l0.022,-0.111l0.022,-0.111l0.021,-0.111l0.02,-0.111l0.019,-0.112l0.019,-0.112l0.019,-0.112l0.017,-0.112l0.017,-0.113l0.016,-0.113l0.016,-0.113l0.007,-0.057l0.007,-0.056l0.008,-0.057l0.007,-0.057l0.006,-0.057l0.007,-0.056l0.006,-0.057l0.007,-0.057l0.006,-0.057l0.006,-0.057l0.005,-0.058l0.006,-0.057l0.005,-0.057l0.005,-0.057l0.005,-0.058l0.005,-0.057l0.005,-0.058l0.004,-0.057l0.005,-0.058l0.004,-0.057l0.004,-0.058l0.003,-0.057l0.004,-0.058l0.003,-0.058l0.004,-0.058l0.003,-0.058l0.002,-0.058l0.003,-0.058l0.003,-0.058l0.002,-0.058l0.002,-0.058l0.002,-0.058l0.002,-0.058l0.001,-0.059l0.002,-0.058l0.001,-0.058l0.001,-0.059l0.001,-0.058l0,-0.059l0.001,-0.058l0,-0.059l0,-0.058l0,-0.059l0,-0.058l-0.001,-0.059l0,-0.058l-0.001,-0.059l-0.001,-0.058l-0.001,-0.059l-0.002,-0.058l-0.001,-0.058l-0.002,-0.058l-0.002,-0.059l-0.002,-0.058l-0.002,-0.058l-0.003,-0.058l-0.003,-0.058l-0.002,-0.058l-0.003,-0.058l-0.004,-0.058l-0.003,-0.057l-0.004,-0.058l-0.003,-0.058l-0.004,-0.057l-0.004,-0.058l-0.005,-0.058l-0.004,-0.057l-0.005,-0.057l-0.005,-0.058l-0.005,-0.057l-0.005,-0.058l-0.005,-0.057l-0.006,-0.057l-0.005,-0.057l-0.006,-0.057l-0.006,-0.057l-0.007,-0.057l-0.006,-0.057l-0.007,-0.057l-0.006,-0.057l-0.007,-0.057l-0.008,-0.056l-0.007,-0.057l-0.007,-0.057l-0.016,-0.113l-0.016,-0.113l-0.017,-0.112l-0.017,-0.113l-0.019,-0.112l-0.019,-0.112l-0.019,-0.111l-0.02,-0.112l-0.021,-0.111l-0.022,-0.111l-0.022,-0.111l-0.023,-0.11l-0.024,-0.11l-0.024,-0.11l-0.025,-0.11l-0.026,-0.11l-0.026,-0.109l-0.027,-0.109l-0.028,-0.109l-0.028,-0.108l-0.029,-0.108l-0.03,-0.108l-0.03,-0.108l-0.031,-0.107l-0.032,-0.107l-0.032,-0.107l-0.033,-0.107l-0.033,-0.106l-0.034,-0.106l-0.035,-0.106l-0.035,-0.105l-0.036,-0.105l-0.037,-0.105l-0.037,-0.105l-0.038,-0.104l-0.038,-0.104l-0.039,-0.104l-0.04,-0.103l-0.04,-0.103l-0.041,-0.103l-0.042,-0.102l-0.042,-0.103l-0.043,-0.101l-0.043,-0.102l-0.044,-0.101l-0.044,-0.101l-0.046,-0.101l-0.045,-0.1l-0.047,-0.1l-0.046,-0.099l-0.048,-0.1l-0.048,-0.098l-0.049,-0.099l-0.049,-0.098l-0.05,-0.098l-0.05,-0.098l-0.051,-0.097l-0.052,-0.097l-0.052,-0.096l-0.052,-0.097l-0.053,-0.095l-0.054,-0.096l-0.055,-0.095l-0.054,-0.095l-0.056,-0.094l-0.056,-0.094l-0.056,-0.094l-0.057,-0.093l-0.058,-0.093l-0.058,-0.092l-0.059,-0.093l-0.059,-0.091l-0.06,-0.092l-0.06,-0.091l-0.061,-0.09l-0.062,-0.091l-0.062,-0.089l-0.062,-0.09l-0.063,-0.089l-0.063,-0.089l-0.064,-0.088l-0.065,-0.088l-0.065,-0.087l-0.066,-0.087l-0.066,-0.087l-0.066,-0.086l-0.067,-0.086l-0.068,-0.086l-0.068,-0.085l-0.068,-0.084l-0.069,-0.084l-0.07,-0.084l-0.07,-0.084l-0.071,-0.082l-0.071,-0.083l-0.071,-0.082l-0.072,-0.082l-0.073,-0.081l-0.073,-0.081l-0.073,-0.08l-0.074,-0.08l-0.074,-0.079l-0.075,-0.079l-0.075,-0.079l-0.076,-0.078l-0.076,-0.077l-0.077,-0.077l-0.077,-0.077l-0.078,-0.076l-0.078,-0.076l-0.078,-0.075l-0.079,-0.075l-0.08,-0.075l-0.08,-0.074l-0.08,-0.073l-0.081,-0.073l-0.081,-0.072l-0.082,-0.072l-0.082,-0.072l-0.082,-0.071l-0.083,-0.07l-0.083,-0.07l-0.084,-0.07l-0.084,-0.069l-0.085,-0.069l-0.085,-0.068l-0.085,-0.067l-0.086,-0.067l-0.086,-0.067l-0.087,-0.066l-0.087,-0.066l-0.088,-0.065l-0.088,-0.064l-0.088,-0.064l-0.088,-0.064l-0.09,-0.063l-0.089,-0.062l-0.09,-0.062l-0.09,-0.061l-0.091,-0.061l-0.091,-0.06l-0.091,-0.06l-0.092,-0.06l-0.092,-0.058l-0.093,-0.058l-0.093,-0.058l-0.093,-0.057l-0.094,-0.057l-0.094,-0.056l-0.094,-0.055l-0.095,-0.055l-0.095,-0.054l-0.095,-0.054l-0.096,-0.053l-0.096,-0.053l-0.097,-0.052l-0.097,-0.052l-0.097,-0.05l-0.097,-0.051l-0.098,-0.05l-0.099,-0.049l-0.098,-0.049l-0.099,-0.048l-0.099,-0.047l-0.1,-0.047l-0.1,-0.046l-0.1,-0.046l-0.101,-0.045l-0.1,-0.045l-0.102,-0.044l-0.101,-0.043l-0.102,-0.043l-0.102,-0.042l-0.103,-0.041l-0.102,-0.041l-0.103,-0.041l-0.104,-0.039l-0.103,-0.039l-0.104,-0.039l-0.105,-0.038l-0.104,-0.037l-0.105,-0.036l-0.105,-0.036l-0.106,-0.036l-0.105,-0.034l-0.106,-0.035l-0.107,-0.033l-0.106,-0.033l-0.107,-0.032l-0.107,-0.032l-0.108,-0.03l-0.107,-0.031l-0.108,-0.029l-0.108,-0.029l-0.109,-0.029l-0.109,-0.027l-0.109,-0.027l-0.109,-0.026l-0.109,-0.026l-0.11,-0.025l-0.11,-0.024l-0.11,-0.024l-0.111,-0.023l-0.111,-0.022l-0.111,-0.022l-0.111,-0.021l-0.111,-0.02l-0.112,-0.02l-0.112,-0.019l-0.112,-0.018l-0.112,-0.018l-0.113,-0.017l-0.113,-0.016l-0.113,-0.015l-0.057,-0.008l-0.056,-0.007l-0.057,-0.007l-0.057,-0.007l-0.057,-0.007l-0.056,-0.006l-0.057,-0.007l-0.057,-0.006l-0.057,-0.006l-0.057,-0.006l-0.058,-0.006l-0.057,-0.005l-0.057,-0.006l-0.057,-0.005l-0.058,-0.005l-0.057,-0.005l-0.058,-0.004l-0.057,-0.005l-0.058,-0.004l-0.057,-0.004l-0.058,-0.004l-0.057,-0.004l-0.058,-0.004l-0.058,-0.003l-0.058,-0.003l-0.058,-0.003l-0.058,-0.003l-0.058,-0.003l-0.058,-0.002l-0.058,-0.002l-0.058,-0.003l-0.058,-0.002l-0.058,-0.001l-0.059,-0.002l-0.058,-0.001l-0.058,-0.001l-0.059,-0.001l-0.058,-0.001l-0.059,-0.001l-0.058,0l-0.059,-0.001l-0.058,0l-0.059,0Z" style="fill:#a1a1a1;"/><circle cx="101.162" cy="36.41" r="18.133" style="fill:#f0f0f0;"/></svg>