<?xml version="1.0" encoding="UTF-8" standalone="no"?><!DOCTYPE svg PUBLIC "-//W3C//DTD SVG 1.1//EN" "http://www.w3.org/Graphics/SVG/1.1/DTD/svg11.dtd"><svg width="100%" height="100%" viewBox="0 0 126 126" version="1.1" xmlns="http://www.w3.org/2000/svg" xmlns:xlink="http://www.w3.org/1999/xlink" xml:space="preserve" xmlns:serif="http://www.serif.com/" style="fill-rule:evenodd;clip-rule:evenodd;stroke-linejoin:round;stroke-miterlimit:1.41421;"><rect id="wireframes" x="0.151" y="0.07" width="124.8" height="124.8" style="fill:none;"/><rect x="7.783" y="17.75" width="109.773" height="86.533" style="fill:#fff;fill-rule:nonzero;"/><path d="M117.779,17.211c0.188,0.125 0.19,0.127 0.316,0.315l0.044,0.224l0,86.532c0,0 0.174,0.433 -0.583,0.584l-109.773,0c-0.222,-0.045 -0.224,-0.046 -0.412,-0.171l-0.171,-0.413l0,-86.532c0.044,-0.222 0.045,-0.225 0.171,-0.413l0.412,-0.171l109.773,0c0.074,0.015 0.149,0.03 0.223,0.045Zm-109.413,1.122l0,85.366l108.607,0l0,-85.366c-36.202,0 -72.405,0 -108.607,0Z" style="fill:#b8b8b8;fill-rule:nonzero;"/><rect x="10.597" y="19.93" width="104.379" height="4.883" style="fill:#f54d3d;fill-rule:nonzero;"/><rect x="7.545" y="26.502" width="109.872" height="1.2" style="fill:#b8b8b8;fill-rule:nonzero;"/><rect x="13.039" y="22.229" width="2.442" height="1.2" style="fill:#b8b8b8;fill-rule:nonzero;"/><rect x="17.007" y="22.229" width="2.442" height="1.2" style="fill:#b8b8b8;fill-rule:nonzero;"/><rect x="20.974" y="22.229" width="2.442" height="1.2" style="fill:#b8b8b8;fill-rule:nonzero;"/><rect x="109.788" y="22.229" width="2.442" height="1.2" style="fill:#b8b8b8;fill-rule:nonzero;"/><rect x="12.233" y="31.1" width="100.873" height="73.182" style="fill:#f1f2f2;fill-rule:nonzero;"/><path d="M113.329,30.561l0.316,0.316l0.044,0.223l0,73.182c-0.044,0.222 -0.045,0.225 -0.171,0.413l-0.412,0.171l-100.873,0c-0.222,-0.045 -0.224,-0.046 -0.412,-0.171l-0.171,-0.413l0,-73.182c0.044,-0.221 0.045,-0.224 0.171,-0.412l0.412,-0.171l100.873,0c0.074,0.015 0.149,0.03 0.223,0.044Zm-100.513,1.123l0,72.015l99.707,0l0,-72.015c-33.236,0 -66.471,0 -99.707,0Z" style="fill:#b8b8b8;fill-rule:nonzero;"/><rect x="16.396" y="35.19" width="92.476" height="27.163" style="fill:#a1a1a1;fill-rule:nonzero;"/><path d="M33.997,66.181c0.304,0.039 0.535,0.291 0.548,0.597l0,12.208c-0.014,0.325 -0.271,0.586 -0.6,0.6l-12.208,0c-0.324,-0.014 -0.586,-0.271 -0.6,-0.6l0,-12.208c0.014,-0.324 0.271,-0.585 0.6,-0.6l12.208,0c0.018,0.001 0.035,0.002 0.052,0.003Zm-11.66,1.197l0,11.008l11.008,0l0,-11.008c-3.669,0 -7.339,0 -11.008,0Z" style="fill:#b8b8b8;fill-rule:nonzero;"/><path d="M34.402,78.652l-0.824,0.825l-12.362,-12.362l0.825,-0.825c4.12,4.121 8.241,8.241 12.361,12.362Z" style="fill:#b8b8b8;fill-rule:nonzero;"/><path d="M34.402,67.115l-12.361,12.362l-0.825,-0.825l12.362,-12.362c0.275,0.275 0.55,0.55 0.824,0.825Z" style="fill:#b8b8b8;fill-rule:nonzero;"/><path d="M56.888,66.181c0.303,0.039 0.534,0.291 0.547,0.597l0,12.208c-0.014,0.325 -0.271,0.586 -0.6,0.6l-12.513,0c-0.324,-0.014 -0.586,-0.271 -0.6,-0.6l0,-12.208c0.014,-0.324 0.271,-0.585 0.6,-0.6l12.513,0c0.018,0.001 0.035,0.002 0.053,0.003Zm-11.966,1.197l0,11.008l11.313,0l0,-11.008c-3.771,0 -7.542,0 -11.313,0Z" style="fill:#b8b8b8;fill-rule:nonzero;"/><path d="M57.148,78.652l-0.825,0.825l-12.361,-12.362l0.825,-0.825c4.12,4.121 8.241,8.241 12.361,12.362Z" style="fill:#b8b8b8;fill-rule:nonzero;"/><path d="M57.148,67.115l-12.361,12.362l-0.825,-0.825l12.361,-12.362c0.275,0.275 0.55,0.55 0.825,0.825Z" style="fill:#b8b8b8;fill-rule:nonzero;"/><path d="M80.083,66.181c0.303,0.039 0.534,0.291 0.548,0.597l0,12.208c-0.015,0.325 -0.272,0.586 -0.6,0.6l-12.514,0c-0.324,-0.014 -0.585,-0.271 -0.6,-0.6l0,-12.208c0.014,-0.324 0.271,-0.585 0.6,-0.6l12.514,0c0.017,0.001 0.034,0.002 0.052,0.003Zm-11.966,1.197l0,11.008l11.314,0l0,-11.008c-3.772,0 -7.543,0 -11.314,0Z" style="fill:#b8b8b8;fill-rule:nonzero;"/><path d="M80.389,78.652l-0.825,0.825l-12.362,-12.362l0.825,-0.825c4.12,4.121 8.241,8.241 12.362,12.362Z" style="fill:#b8b8b8;fill-rule:nonzero;"/><path d="M80.389,67.115l-12.362,12.362l-0.825,-0.825l12.362,-12.362c0.275,0.275 0.55,0.55 0.825,0.825Z" style="fill:#b8b8b8;fill-rule:nonzero;"/><path d="M102.668,66.181c0.304,0.04 0.534,0.286 0.547,0.597l0,12.208c-0.014,0.325 -0.271,0.586 -0.6,0.6l-12.208,0c-0.324,-0.014 -0.585,-0.271 -0.6,-0.6l0,-12.208c0.015,-0.324 0.271,-0.585 0.6,-0.6l12.208,0c0.018,0.001 0.035,0.002 0.053,0.003Zm-11.661,1.197l0,11.008l11.008,0l0,-11.008c-3.669,0 -7.338,0 -11.008,0Z" style="fill:#b8b8b8;fill-rule:nonzero;"/><path d="M103.134,78.652l-0.824,0.825l-12.362,-12.362l0.824,-0.825c4.121,4.121 8.242,8.241 12.362,12.362Z" style="fill:#b8b8b8;fill-rule:nonzero;"/><path d="M103.134,67.115l-12.362,12.362l-0.824,-0.825l12.362,-12.362c0.274,0.275 0.549,0.55 0.824,0.825Z" style="fill:#b8b8b8;fill-rule:nonzero;"/><rect x="21.279" y="82.964" width="4.578" height="1.2" style="fill:#b8b8b8;fill-rule:nonzero;"/><rect x="21.279" y="86.322" width="15.565" height="1.2" style="fill:#b8b8b8;fill-rule:nonzero;"/><rect x="21.279" y="89.984" width="15.565" height="1.2" style="fill:#b8b8b8;fill-rule:nonzero;"/><rect x="21.279" y="93.341" width="15.565" height="1.2" style="fill:#b8b8b8;fill-rule:nonzero;"/><rect x="27.689" y="82.964" width="3.662" height="1.2" style="fill:#b8b8b8;fill-rule:nonzero;"/><rect x="44.169" y="39.931" width="4.273" height="1.2" style="fill:#6d6d6d;fill-rule:nonzero;"/><rect x="44.169" y="43.288" width="15.26" height="1.2" style="fill:#6d6d6d;fill-rule:nonzero;"/><rect x="44.169" y="46.951" width="15.26" height="1.2" style="fill:#6d6d6d;fill-rule:nonzero;"/><rect x="44.169" y="50.308" width="15.26" height="1.2" style="fill:#6d6d6d;fill-rule:nonzero;"/><rect x="50.579" y="39.931" width="3.357" height="1.2" style="fill:#6d6d6d;fill-rule:nonzero;"/><rect x="43.559" y="82.964" width="4.578" height="1.2" style="fill:#b8b8b8;fill-rule:nonzero;"/><rect x="43.559" y="86.321" width="15.26" height="1.2" style="fill:#b8b8b8;fill-rule:nonzero;"/><rect x="43.559" y="89.984" width="15.26" height="1.2" style="fill:#b8b8b8;fill-rule:nonzero;"/><rect x="43.559" y="93.341" width="15.26" height="1.2" style="fill:#b8b8b8;fill-rule:nonzero;"/><rect x="49.968" y="82.964" width="3.662" height="1.2" style="fill:#b8b8b8;fill-rule:nonzero;"/><rect x="66.754" y="82.964" width="4.578" height="1.2" style="fill:#b8b8b8;fill-rule:nonzero;"/><rect x="66.754" y="86.322" width="15.565" height="1.2" style="fill:#b8b8b8;fill-rule:nonzero;"/><rect x="66.754" y="89.984" width="15.565" height="1.2" style="fill:#b8b8b8;fill-rule:nonzero;"/><rect x="66.754" y="93.341" width="15.565" height="1.2" style="fill:#b8b8b8;fill-rule:nonzero;"/><rect x="73.163" y="82.964" width="3.662" height="1.2" style="fill:#b8b8b8;fill-rule:nonzero;"/><rect x="89.644" y="82.964" width="4.273" height="1.2" style="fill:#b8b8b8;fill-rule:nonzero;"/><rect x="89.644" y="86.321" width="15.26" height="1.2" style="fill:#b8b8b8;fill-rule:nonzero;"/><rect x="89.644" y="89.984" width="15.26" height="1.2" style="fill:#b8b8b8;fill-rule:nonzero;"/><rect x="89.644" y="93.341" width="15.26" height="1.2" style="fill:#b8b8b8;fill-rule:nonzero;"/><rect x="96.054" y="82.964" width="3.357" height="1.2" style="fill:#b8b8b8;fill-rule:nonzero;"/><rect x="88.729" y="39.931" width="4.273" height="1.2" style="fill:#6d6d6d;fill-rule:nonzero;"/><rect x="88.729" y="43.288" width="15.26" height="1.2" style="fill:#6d6d6d;fill-rule:nonzero;"/><rect x="88.729" y="46.951" width="15.26" height="1.2" style="fill:#6d6d6d;fill-rule:nonzero;"/><rect x="88.729" y="50.308" width="15.26" height="1.2" style="fill:#6d6d6d;fill-rule:nonzero;"/><rect x="95.138" y="39.931" width="3.357" height="1.2" style="fill:#6d6d6d;fill-rule:nonzero;"/><rect x="22.123" y="40.495" width="16.812" height="16.318" style="fill:#f54d3d;fill-rule:nonzero;"/><path d="M38.962,40.378c0.054,0.019 0.086,0.058 0.093,0.117l0,16.318c-0.012,0.104 -0.06,0.113 -0.12,0.12l-16.812,0c-0.104,-0.012 -0.113,-0.06 -0.12,-0.12l0,-16.318c0.012,-0.104 0.059,-0.113 0.12,-0.12l16.812,0c0.009,0.001 0.018,0.002 0.027,0.003Zm-16.719,0.237l0,16.078l16.572,0l0,-16.078c-5.524,0 -11.048,0 -16.572,0Z" style="fill:#b8b8b8;fill-rule:nonzero;"/><path d="M38.996,39.915c0.29,0.046 0.506,0.281 0.522,0.58l0,16.318c-0.016,0.316 -0.261,0.566 -0.583,0.583l-16.812,0c-0.317,-0.016 -0.566,-0.261 -0.583,-0.583l0,-16.318c0.016,-0.316 0.26,-0.566 0.583,-0.583l16.812,0c0.02,0.001 0.041,0.002 0.061,0.003Zm-16.29,1.164l0,15.151l15.646,0l0,-15.151c-5.216,0 -10.431,0 -15.646,0Z" style="fill:#b8b8b8;fill-rule:nonzero;"/><rect x="66.625" y="40.495" width="16.812" height="16.318" style="fill:#fff;fill-rule:nonzero;"/><path d="M83.464,40.378c0.055,0.019 0.087,0.058 0.093,0.117l0,16.318c-0.007,0.064 -0.021,0.109 -0.12,0.12l-16.812,0c-0.104,-0.012 -0.113,-0.06 -0.12,-0.12l0,-16.318c0.007,-0.064 0.022,-0.109 0.12,-0.12l16.812,0c0.009,0.001 0.018,0.002 0.027,0.003Zm-16.719,0.237l0,16.078l16.572,0l0,-16.078c-5.524,0 -11.048,0 -16.572,0Z" style="fill:#b8b8b8;fill-rule:nonzero;"/><path d="M83.498,39.915c0.29,0.046 0.507,0.281 0.523,0.58l0,16.318c-0.017,0.316 -0.261,0.566 -0.584,0.583l-16.812,0c-0.316,-0.016 -0.566,-0.261 -0.583,-0.583l0,-16.318c0.017,-0.316 0.261,-0.566 0.583,-0.583l16.812,0c0.021,0.001 0.041,0.002 0.061,0.003Zm-16.29,1.164l0,15.151l15.646,0l0,-15.151c-5.215,0 -10.43,0 -15.646,0Z" style="fill:#b8b8b8;fill-rule:nonzero;"/><rect x="21.279" y="97.146" width="7.63" height="1.526" style="fill:#dddedf;fill-rule:nonzero;"/><rect x="43.559" y="97.146" width="7.63" height="1.526" style="fill:#dddedf;fill-rule:nonzero;"/><rect x="66.754" y="97.146" width="7.63" height="1.526" style="fill:#dddedf;fill-rule:nonzero;"/><rect x="89.644" y="97.146" width="7.325" height="1.526" style="fill:#dddedf;fill-rule:nonzero;"/><rect x="97.509" y="101.276" width="8.986" height="5.914" style="fill:#a1a1a1;fill-rule:nonzero;"/><path d="M94.671,104.035l0,-2.759l2.838,0l0,5.914l-2.838,0l0,-3.155Z" style="fill:#f1f2f2;fill-rule:nonzero;"/><path d="M20.887,104.232l8.986,-2.956l0,5.914l-8.986,-2.958Z" style="fill:#e6e7e8;fill-rule:nonzero;"/><path d="M29.873,104.035l0,-2.759l64.798,0l0,2.759l-64.561,0l-0.237,0Z" style="fill:#f54d3d;fill-rule:nonzero;"/><path d="M29.873,107.19l0,-3.155l64.798,0l0,3.155l-64.798,0Z" style="fill:#f54d3d;fill-rule:nonzero;"/><rect x="29.873" y="106.606" width="64.798" height="1.167" style="fill:#a1a1a1;fill-rule:nonzero;"/><rect x="29.873" y="100.693" width="64.798" height="1.167" style="fill:#a1a1a1;fill-rule:nonzero;"/><rect x="30.11" y="103.452" width="64.798" height="1.167" style="fill:#a1a1a1;fill-rule:nonzero;"/><path d="M97.509,101.859l-2.254,0l0,4.747l2.254,0l0,1.167c0,0 -2.874,-0.001 -2.874,-0.001c-0.112,-0.011 -0.13,-0.021 -0.178,-0.04c-0.219,-0.087 -0.36,-0.252 -0.369,-0.542l0,-5.914c0.004,-0.113 0.013,-0.131 0.029,-0.18c0.076,-0.236 0.253,-0.394 0.554,-0.403l2.838,0c0,0.389 0,0.777 0,1.166Z" style="fill:#a1a1a1;fill-rule:nonzero;"/><path d="M106.539,100.694c0.133,0.015 0.154,0.03 0.209,0.057c0.197,0.094 0.322,0.302 0.33,0.525l0,5.914c-0.005,0.134 -0.018,0.156 -0.04,0.213c-0.085,0.217 -0.305,0.361 -0.543,0.37l-8.986,0c-0.317,-0.012 -0.569,-0.204 -0.583,-0.583l0,-5.914c0.005,-0.134 0.017,-0.156 0.04,-0.213c0.085,-0.218 0.305,-0.361 0.543,-0.37l8.986,0c0.015,0 0.029,0.001 0.044,0.001Zm-8.447,1.165l0,4.747l7.82,0l0,-4.747c-2.607,0 -5.213,0 -7.82,0Z" style="fill:#a1a1a1;fill-rule:nonzero;"/><path d="M29.908,100.694c0.302,0.029 0.534,0.213 0.548,0.582l0,5.914c-0.005,0.135 -0.018,0.157 -0.041,0.215c-0.109,0.276 -0.373,0.44 -0.724,0.339l-8.987,-2.958c-0.283,-0.105 -0.283,-0.183 -0.338,-0.29c-0.154,-0.303 -0.042,-0.676 0.338,-0.818l8.987,-2.956c0.087,-0.025 0.112,-0.031 0.217,-0.028Zm-7.155,3.538l6.537,2.152l0,-4.302c-2.179,0.717 -4.358,1.434 -6.537,2.15Z" style="fill:#a1a1a1;fill-rule:nonzero;"/><path d="M35.474,48.489c0,2.64 -2.14,4.78 -4.78,4.78c-2.64,0 -4.78,-2.14 -4.78,-4.78c0,-2.64 2.14,-4.78 4.78,-4.78c2.64,0 4.78,2.14 4.78,4.78Z" style="fill:#fff;fill-rule:nonzero;"/><rect x="29.988" y="46.177" width="1.2" height="4.578" style="fill:#231f20;fill-rule:nonzero;"/><rect x="28.299" y="47.866" width="4.578" height="1.2" style="fill:#231f20;fill-rule:nonzero;"/><path d="M79.482,48.489c0,2.64 -2.14,4.78 -4.78,4.78c-2.64,0 -4.78,-2.14 -4.78,-4.78c0,-2.64 2.14,-4.78 4.78,-4.78c2.64,0 4.78,2.14 4.78,4.78Z" style="fill:#f54d3d;fill-rule:nonzero;"/><rect x="73.937" y="46.177" width="1.2" height="4.578" style="fill:#231f20;fill-rule:nonzero;"/><rect x="72.248" y="47.866" width="4.578" height="1.2" style="fill:#231f20;fill-rule:nonzero;"/></svg>