<?xml version="1.0" encoding="UTF-8" standalone="no"?><!DOCTYPE svg PUBLIC "-//W3C//DTD SVG 1.1//EN" "http://www.w3.org/Graphics/SVG/1.1/DTD/svg11.dtd"><svg width="100%" height="100%" viewBox="0 0 126 126" version="1.1" xmlns="http://www.w3.org/2000/svg" xmlns:xlink="http://www.w3.org/1999/xlink" xml:space="preserve" xmlns:serif="http://www.serif.com/" style="fill-rule:evenodd;clip-rule:evenodd;stroke-linejoin:round;stroke-miterlimit:1.41421;"><rect id="wordpress" x="0.141" y="0.221" width="124.8" height="124.8" style="fill:none;"/><path d="M114.318,32.618l0.684,0.338l0.549,0.529l0.365,0.67l0.146,0.748l-0.086,0.758l-0.311,0.696l-35.65,55.238l-0.466,0.536l-0.598,0.383l-0.681,0.2l-0.71,0l-0.682,-0.2l-0.598,-0.383l-0.466,-0.536l-35.649,-55.238l-0.311,-0.696l-0.087,-0.758l0.146,-0.748l0.365,-0.67l0.55,-0.529l0.683,-0.338l0.754,-0.116l71.299,0l0.754,0.116Zm-72.053,2.384l35.65,55.237l35.649,-55.237l-71.299,0Z" style="fill:#a1a1a1;"/><path d="M77.915,90.239l-35.65,-55.237l71.299,0l-35.649,55.237Z" style="fill:#f54d3d;"/><path d="M83.571,32.618l0.683,0.338l0.55,0.529l0.365,0.67l0.146,0.748l-0.086,0.758l-0.311,0.696l-35.65,55.238l-0.466,0.536l-0.598,0.383l-0.681,0.2l-0.711,0l-0.681,-0.2l-0.598,-0.383l-0.466,-0.536l-35.65,-55.238l-0.311,-0.696l-0.086,-0.758l0.146,-0.748l0.365,-0.67l0.55,-0.529l0.683,-0.338l0.754,-0.116l71.299,0l0.754,0.116Zm-72.053,2.384l35.65,55.237l35.649,-55.237l-71.299,0Z" style="fill:#a1a1a1;"/></svg>