<?xml version="1.0" encoding="UTF-8" standalone="no"?><!DOCTYPE svg PUBLIC "-//W3C//DTD SVG 1.1//EN" "http://www.w3.org/Graphics/SVG/1.1/DTD/svg11.dtd"><svg width="100%" height="100%" viewBox="0 0 73 73" version="1.1" xmlns="http://www.w3.org/2000/svg" xmlns:xlink="http://www.w3.org/1999/xlink" xml:space="preserve" style="fill-rule:evenodd;clip-rule:evenodd;stroke-linejoin:round;stroke-miterlimit:1.41421;"><path d="M36.737,13.296c-0.098,0 -0.18,-0.076 -0.187,-0.176c-0.006,-0.102 0.072,-0.191 0.175,-0.199c0.437,-0.027 0.88,-0.045 1.32,-0.049l0.002,0c0.103,0 0.186,0.082 0.187,0.185c0.001,0.103 -0.082,0.188 -0.185,0.189c-0.433,0.005 -0.87,0.022 -1.3,0.049l-0.012,0.001ZM40.665,13.356l-0.018,-0.001c-0.429,-0.041 -0.865,-0.071 -1.297,-0.089c-0.104,-0.004 -0.184,-0.091 -0.179,-0.195c0.004,-0.103 0.096,-0.185 0.195,-0.179c0.438,0.019 0.881,0.049 1.317,0.091c0.103,0.009 0.179,0.101 0.169,0.204c-0.01,0.097 -0.092,0.169 -0.187,0.169ZM34.136,13.605c-0.09,0 -0.169,-0.064 -0.185,-0.155c-0.018,-0.102 0.05,-0.199 0.153,-0.216c0.431,-0.076 0.87,-0.14 1.307,-0.192c0.1,-0.012 0.195,0.061 0.207,0.164c0.013,0.103 -0.06,0.195 -0.164,0.208c-0.429,0.051 -0.862,0.114 -1.286,0.188l-0.032,0.003ZM43.256,13.746l-0.039,-0.004c-0.422,-0.087 -0.853,-0.163 -1.279,-0.227c-0.102,-0.016 -0.173,-0.111 -0.158,-0.214c0.016,-0.102 0.111,-0.173 0.214,-0.157c0.433,0.065 0.871,0.143 1.3,0.232c0.101,0.021 0.166,0.12 0.145,0.221c-0.018,0.089 -0.096,0.149 -0.183,0.149ZM31.582,14.193c-0.081,0 -0.156,-0.052 -0.18,-0.134c-0.028,-0.1 0.029,-0.204 0.128,-0.233c0.422,-0.121 0.852,-0.232 1.279,-0.331c0.102,-0.023 0.201,0.039 0.224,0.14c0.024,0.102 -0.039,0.202 -0.14,0.225c-0.421,0.097 -0.844,0.207 -1.259,0.327l-0.052,0.006ZM45.79,14.415l-0.058,-0.009c-0.411,-0.133 -0.832,-0.256 -1.248,-0.366c-0.099,-0.026 -0.16,-0.129 -0.133,-0.228c0.026,-0.101 0.129,-0.16 0.228,-0.134c0.424,0.112 0.851,0.237 1.269,0.371c0.097,0.033 0.152,0.138 0.12,0.237c-0.026,0.079 -0.1,0.129 -0.178,0.129ZM29.108,15.057c-0.074,0 -0.143,-0.044 -0.173,-0.116c-0.04,-0.096 0.006,-0.205 0.102,-0.245c0.406,-0.167 0.821,-0.324 1.235,-0.469c0.098,-0.034 0.205,0.018 0.238,0.116c0.035,0.097 -0.017,0.204 -0.115,0.238c-0.407,0.142 -0.816,0.297 -1.216,0.462l-0.071,0.014ZM48.24,15.358l-0.077,-0.017c-0.394,-0.177 -0.798,-0.345 -1.202,-0.501c-0.098,-0.037 -0.145,-0.145 -0.108,-0.241c0.037,-0.097 0.145,-0.145 0.242,-0.108c0.41,0.158 0.821,0.329 1.222,0.509c0.094,0.041 0.136,0.152 0.094,0.247c-0.031,0.069 -0.1,0.111 -0.171,0.111ZM26.747,16.181c-0.067,0 -0.132,-0.036 -0.165,-0.098c-0.05,-0.091 -0.016,-0.205 0.075,-0.253c0.385,-0.211 0.781,-0.413 1.175,-0.6c0.093,-0.044 0.205,-0.004 0.25,0.089c0.043,0.093 0.004,0.205 -0.089,0.25c-0.388,0.184 -0.778,0.382 -1.157,0.589l-0.089,0.023ZM50.572,16.56l-0.095,-0.026c-0.373,-0.218 -0.757,-0.43 -1.14,-0.628c-0.092,-0.047 -0.128,-0.16 -0.081,-0.252c0.048,-0.092 0.16,-0.129 0.252,-0.081c0.391,0.201 0.78,0.416 1.159,0.638c0.089,0.052 0.119,0.167 0.067,0.256c-0.035,0.059 -0.098,0.093 -0.162,0.093ZM24.517,17.555c-0.059,0 -0.117,-0.029 -0.153,-0.081c-0.059,-0.085 -0.038,-0.202 0.047,-0.261c0.361,-0.25 0.732,-0.493 1.103,-0.722c0.089,-0.054 0.205,-0.027 0.259,0.061c0.053,0.088 0.026,0.203 -0.061,0.258c-0.366,0.225 -0.732,0.465 -1.088,0.711l-0.107,0.034ZM52.76,18.006l-0.111,-0.037c-0.348,-0.258 -0.707,-0.509 -1.067,-0.746c-0.086,-0.058 -0.11,-0.173 -0.052,-0.26c0.056,-0.086 0.173,-0.11 0.259,-0.053c0.366,0.242 0.73,0.497 1.082,0.758c0.083,0.062 0.101,0.179 0.04,0.262c-0.037,0.049 -0.094,0.076 -0.151,0.076ZM22.448,19.16c-0.052,0 -0.104,-0.021 -0.141,-0.064c-0.068,-0.078 -0.059,-0.196 0.02,-0.264c0.331,-0.287 0.674,-0.569 1.02,-0.837c0.082,-0.064 0.2,-0.049 0.263,0.033c0.063,0.082 0.048,0.199 -0.034,0.263c-0.34,0.264 -0.679,0.541 -1.005,0.824c-0.035,0.031 -0.079,0.045 -0.123,0.045ZM54.778,19.679c-0.045,0 -0.09,-0.017 -0.126,-0.05c-0.318,-0.293 -0.647,-0.581 -0.979,-0.857c-0.08,-0.066 -0.092,-0.184 -0.026,-0.264c0.066,-0.079 0.185,-0.09 0.265,-0.024c0.337,0.28 0.672,0.573 0.993,0.87c0.077,0.07 0.081,0.189 0.012,0.265c-0.037,0.039 -0.088,0.06 -0.139,0.06ZM20.563,20.98c-0.045,0 -0.091,-0.016 -0.128,-0.05c-0.075,-0.071 -0.08,-0.189 -0.009,-0.265c0.298,-0.32 0.608,-0.636 0.925,-0.942c0.074,-0.072 0.193,-0.07 0.265,0.005c0.072,0.074 0.07,0.193 -0.005,0.265c-0.312,0.3 -0.618,0.613 -0.911,0.928c-0.037,0.039 -0.087,0.059 -0.137,0.059ZM56.605,21.557c-0.053,0 -0.104,-0.021 -0.141,-0.064c-0.285,-0.326 -0.581,-0.648 -0.881,-0.956c-0.073,-0.074 -0.071,-0.193 0.004,-0.265c0.073,-0.072 0.192,-0.07 0.264,0.004c0.305,0.313 0.606,0.64 0.896,0.971c0.067,0.078 0.059,0.197 -0.019,0.264c-0.035,0.031 -0.079,0.046 -0.123,0.046ZM18.883,22.992c-0.039,0 -0.079,-0.012 -0.112,-0.037c-0.083,-0.062 -0.1,-0.18 -0.038,-0.262c0.263,-0.351 0.539,-0.7 0.819,-1.037c0.066,-0.079 0.184,-0.09 0.264,-0.024c0.079,0.067 0.09,0.185 0.024,0.264c-0.277,0.332 -0.548,0.675 -0.807,1.021c-0.037,0.05 -0.093,0.075 -0.15,0.075ZM58.218,23.62c-0.058,0 -0.116,-0.028 -0.153,-0.08c-0.247,-0.353 -0.508,-0.705 -0.773,-1.045c-0.063,-0.081 -0.05,-0.199 0.033,-0.263c0.081,-0.064 0.199,-0.049 0.262,0.033c0.27,0.344 0.534,0.701 0.786,1.061c0.058,0.085 0.037,0.202 -0.047,0.26l-0.108,0.034ZM17.428,25.174l-0.095,-0.026c-0.089,-0.052 -0.119,-0.167 -0.067,-0.256c0.223,-0.376 0.459,-0.753 0.705,-1.119c0.057,-0.086 0.173,-0.11 0.259,-0.052c0.086,0.057 0.11,0.173 0.052,0.259c-0.241,0.361 -0.474,0.732 -0.693,1.103c-0.035,0.059 -0.097,0.091 -0.161,0.091ZM59.602,25.843c-0.067,0 -0.13,-0.035 -0.165,-0.097c-0.208,-0.377 -0.429,-0.755 -0.655,-1.121c-0.055,-0.087 -0.029,-0.203 0.059,-0.258c0.089,-0.055 0.204,-0.027 0.258,0.06c0.231,0.372 0.456,0.755 0.667,1.14c0.049,0.09 0.015,0.204 -0.074,0.254l-0.09,0.022ZM16.217,27.503l-0.077,-0.017c-0.094,-0.043 -0.136,-0.154 -0.093,-0.248c0.181,-0.4 0.375,-0.8 0.578,-1.19c0.049,-0.092 0.161,-0.127 0.253,-0.08c0.091,0.048 0.127,0.161 0.08,0.252c-0.2,0.385 -0.391,0.779 -0.57,1.172c-0.031,0.07 -0.099,0.111 -0.171,0.111ZM60.734,28.202c-0.074,0 -0.143,-0.044 -0.173,-0.116c-0.164,-0.397 -0.343,-0.796 -0.53,-1.184c-0.045,-0.094 -0.006,-0.206 0.087,-0.251c0.095,-0.045 0.206,-0.005 0.251,0.088c0.19,0.395 0.371,0.801 0.538,1.203c0.04,0.096 -0.004,0.206 -0.1,0.245l-0.073,0.015ZM15.266,29.949l-0.059,-0.009c-0.098,-0.033 -0.152,-0.138 -0.119,-0.236c0.137,-0.419 0.286,-0.838 0.445,-1.246c0.039,-0.097 0.147,-0.145 0.243,-0.108c0.097,0.038 0.145,0.147 0.108,0.243c-0.159,0.402 -0.305,0.815 -0.44,1.227c-0.026,0.079 -0.1,0.129 -0.178,0.129ZM61.606,30.67c-0.082,0 -0.157,-0.053 -0.181,-0.135c-0.12,-0.412 -0.254,-0.828 -0.398,-1.238c-0.035,-0.097 0.016,-0.204 0.113,-0.238c0.099,-0.035 0.205,0.016 0.24,0.114c0.147,0.415 0.283,0.839 0.405,1.257c0.029,0.1 -0.028,0.203 -0.127,0.232l-0.052,0.008ZM14.588,32.48l-0.04,-0.004c-0.1,-0.021 -0.165,-0.121 -0.143,-0.222c0.09,-0.428 0.193,-0.861 0.306,-1.284c0.027,-0.101 0.13,-0.16 0.23,-0.133c0.1,0.027 0.159,0.13 0.133,0.23c-0.113,0.417 -0.214,0.842 -0.304,1.264c-0.017,0.088 -0.096,0.149 -0.182,0.149ZM62.205,33.221c-0.089,0 -0.169,-0.065 -0.185,-0.155c-0.075,-0.425 -0.164,-0.853 -0.262,-1.274c-0.024,-0.1 0.039,-0.201 0.139,-0.225c0.1,-0.024 0.201,0.039 0.226,0.14c0.099,0.426 0.189,0.861 0.266,1.293c0.018,0.102 -0.049,0.199 -0.151,0.218l-0.033,0.003ZM14.187,35.07l-0.019,-0.001c-0.102,-0.011 -0.178,-0.103 -0.167,-0.206c0.043,-0.436 0.099,-0.876 0.166,-1.31c0.016,-0.102 0.112,-0.172 0.214,-0.156c0.102,0.015 0.172,0.112 0.157,0.214c-0.066,0.426 -0.122,0.86 -0.164,1.289c-0.01,0.097 -0.091,0.17 -0.187,0.17ZM62.523,35.821c-0.097,0 -0.18,-0.076 -0.186,-0.175c-0.03,-0.43 -0.071,-0.866 -0.124,-1.294c-0.012,-0.103 0.061,-0.196 0.163,-0.209c0.103,-0.013 0.196,0.061 0.209,0.163c0.054,0.435 0.095,0.878 0.125,1.315c0.007,0.103 -0.071,0.192 -0.174,0.2l-0.013,0ZM14.068,37.687c-0.103,0 -0.187,-0.083 -0.188,-0.186l-0.001,-0.187c0,-0.375 0.01,-0.756 0.027,-1.134c0.005,-0.103 0.096,-0.179 0.195,-0.178c0.104,0.004 0.183,0.092 0.179,0.196c-0.017,0.371 -0.026,0.746 -0.026,1.116l0.001,0.184c0,0.103 -0.083,0.188 -0.186,0.189l-0.001,0ZM62.547,38.812l-0.01,0c-0.104,-0.006 -0.183,-0.094 -0.178,-0.197c0.023,-0.43 0.035,-0.867 0.035,-1.301c0,-0.123 -0.002,-0.245 -0.002,-0.368c-0.002,-0.103 0.08,-0.189 0.183,-0.19c0.1,0.001 0.189,0.081 0.191,0.184c0.002,0.124 0.003,0.249 0.003,0.375c0,0.44 -0.013,0.884 -0.035,1.32c-0.006,0.1 -0.089,0.177 -0.187,0.177ZM14.227,40.302c-0.095,0 -0.175,-0.07 -0.186,-0.165c-0.051,-0.437 -0.089,-0.878 -0.115,-1.316c-0.007,-0.104 0.072,-0.192 0.175,-0.198c0.097,-0.005 0.192,0.072 0.199,0.175c0.025,0.431 0.063,0.866 0.112,1.296c0.012,0.103 -0.061,0.195 -0.164,0.207l-0.021,0.001ZM62.267,41.417l-0.03,-0.002c-0.102,-0.017 -0.172,-0.113 -0.156,-0.216c0.07,-0.426 0.128,-0.859 0.174,-1.288c0.011,-0.103 0.102,-0.178 0.207,-0.167c0.103,0.011 0.177,0.104 0.165,0.207c-0.046,0.435 -0.106,0.875 -0.175,1.308c-0.015,0.093 -0.095,0.158 -0.185,0.158ZM14.666,42.886c-0.086,0 -0.163,-0.06 -0.182,-0.147c-0.098,-0.428 -0.183,-0.864 -0.257,-1.295c-0.017,-0.102 0.051,-0.199 0.154,-0.216c0.101,-0.018 0.198,0.051 0.215,0.153c0.072,0.424 0.158,0.854 0.253,1.275c0.023,0.101 -0.04,0.202 -0.141,0.224l-0.042,0.006ZM61.708,43.977l-0.051,-0.007c-0.099,-0.027 -0.158,-0.131 -0.13,-0.23c0.115,-0.418 0.22,-0.843 0.312,-1.263c0.021,-0.101 0.122,-0.165 0.222,-0.143c0.102,0.023 0.166,0.122 0.144,0.223c-0.094,0.427 -0.2,0.858 -0.317,1.282c-0.023,0.084 -0.099,0.138 -0.18,0.138ZM15.384,45.405c-0.078,0 -0.151,-0.049 -0.178,-0.126c-0.143,-0.415 -0.276,-0.839 -0.395,-1.26c-0.029,-0.1 0.029,-0.204 0.128,-0.232c0.1,-0.028 0.203,0.03 0.232,0.129c0.118,0.415 0.249,0.833 0.389,1.241c0.035,0.098 -0.017,0.205 -0.116,0.238l-0.06,0.01ZM60.872,46.463l-0.069,-0.013c-0.095,-0.038 -0.143,-0.147 -0.105,-0.243c0.161,-0.404 0.312,-0.816 0.448,-1.224c0.033,-0.098 0.139,-0.151 0.238,-0.117c0.098,0.032 0.15,0.138 0.117,0.237c-0.139,0.413 -0.292,0.832 -0.455,1.242c-0.029,0.074 -0.099,0.118 -0.174,0.118ZM16.369,47.831c-0.07,0 -0.137,-0.04 -0.169,-0.108c-0.186,-0.395 -0.364,-0.801 -0.529,-1.207c-0.039,-0.097 0.006,-0.205 0.103,-0.244c0.094,-0.04 0.204,0.006 0.243,0.102c0.163,0.4 0.339,0.8 0.522,1.189c0.045,0.094 0.004,0.206 -0.09,0.25l-0.08,0.018ZM59.771,48.845l-0.088,-0.022c-0.091,-0.048 -0.126,-0.161 -0.078,-0.253c0.203,-0.381 0.397,-0.773 0.579,-1.167c0.043,-0.093 0.155,-0.134 0.248,-0.09c0.094,0.042 0.135,0.154 0.092,0.247c-0.185,0.4 -0.383,0.798 -0.588,1.186c-0.034,0.063 -0.098,0.099 -0.165,0.099ZM17.612,50.134c-0.063,0 -0.125,-0.032 -0.161,-0.09c-0.228,-0.374 -0.449,-0.758 -0.657,-1.144c-0.048,-0.09 -0.015,-0.204 0.076,-0.253c0.091,-0.05 0.205,-0.015 0.254,0.075c0.205,0.38 0.422,0.759 0.647,1.126c0.053,0.089 0.027,0.205 -0.061,0.258l-0.098,0.028ZM58.419,51.093l-0.105,-0.032c-0.086,-0.058 -0.109,-0.175 -0.05,-0.26c0.242,-0.358 0.478,-0.727 0.7,-1.097c0.054,-0.089 0.17,-0.117 0.257,-0.064c0.089,0.053 0.118,0.168 0.065,0.257c-0.226,0.376 -0.466,0.751 -0.712,1.114c-0.036,0.053 -0.096,0.082 -0.155,0.082ZM19.096,52.291c-0.056,0 -0.112,-0.025 -0.149,-0.073c-0.267,-0.347 -0.529,-0.706 -0.777,-1.067c-0.059,-0.085 -0.037,-0.201 0.048,-0.26c0.086,-0.059 0.202,-0.037 0.26,0.048c0.245,0.355 0.503,0.708 0.766,1.051c0.063,0.082 0.048,0.199 -0.034,0.262c-0.034,0.027 -0.075,0.039 -0.114,0.039ZM56.833,53.181c-0.043,0 -0.086,-0.014 -0.122,-0.045c-0.078,-0.067 -0.088,-0.185 -0.021,-0.264c0.278,-0.327 0.552,-0.669 0.815,-1.014c0.063,-0.082 0.18,-0.099 0.263,-0.036c0.082,0.063 0.098,0.18 0.035,0.263c-0.267,0.35 -0.545,0.697 -0.827,1.029c-0.037,0.045 -0.09,0.067 -0.143,0.067ZM20.803,54.278c-0.049,0 -0.099,-0.02 -0.135,-0.058c-0.304,-0.318 -0.603,-0.647 -0.887,-0.978c-0.068,-0.079 -0.059,-0.196 0.02,-0.264c0.077,-0.068 0.196,-0.059 0.264,0.019c0.28,0.327 0.573,0.651 0.874,0.964c0.071,0.075 0.069,0.193 -0.006,0.264c-0.036,0.036 -0.083,0.053 -0.13,0.053ZM55.033,55.086c-0.049,0 -0.099,-0.02 -0.136,-0.058c-0.071,-0.075 -0.068,-0.194 0.007,-0.265c0.313,-0.297 0.622,-0.607 0.918,-0.921c0.072,-0.075 0.19,-0.079 0.265,-0.007c0.075,0.071 0.079,0.189 0.008,0.264c-0.302,0.319 -0.616,0.634 -0.933,0.936c-0.036,0.034 -0.082,0.051 -0.129,0.051ZM22.715,56.07c-0.043,0 -0.086,-0.014 -0.12,-0.043c-0.336,-0.283 -0.669,-0.578 -0.989,-0.878c-0.074,-0.071 -0.078,-0.189 -0.007,-0.265c0.071,-0.075 0.189,-0.079 0.265,-0.008c0.314,0.295 0.641,0.586 0.972,0.864c0.079,0.067 0.089,0.184 0.023,0.264c-0.037,0.044 -0.091,0.066 -0.144,0.066ZM53.04,56.786c-0.056,0 -0.111,-0.025 -0.149,-0.073c-0.063,-0.083 -0.047,-0.2 0.035,-0.263c0.343,-0.262 0.684,-0.536 1.011,-0.817c0.08,-0.066 0.197,-0.057 0.265,0.021c0.068,0.079 0.057,0.197 -0.021,0.265c-0.333,0.284 -0.679,0.563 -1.027,0.829c-0.034,0.026 -0.074,0.038 -0.114,0.038ZM24.809,57.648l-0.104,-0.031c-0.363,-0.245 -0.726,-0.503 -1.077,-0.767c-0.082,-0.062 -0.099,-0.18 -0.037,-0.263c0.062,-0.082 0.18,-0.099 0.262,-0.037c0.346,0.261 0.703,0.515 1.061,0.755c0.086,0.058 0.108,0.174 0.051,0.261c-0.036,0.053 -0.096,0.082 -0.156,0.082ZM50.877,58.262c-0.063,0 -0.125,-0.032 -0.16,-0.09c-0.054,-0.088 -0.026,-0.204 0.063,-0.258c0.369,-0.223 0.737,-0.459 1.093,-0.703c0.086,-0.058 0.202,-0.036 0.261,0.049c0.058,0.086 0.036,0.203 -0.05,0.261c-0.361,0.246 -0.734,0.486 -1.11,0.714l-0.097,0.027ZM27.062,58.992l-0.087,-0.022c-0.389,-0.204 -0.776,-0.422 -1.154,-0.646c-0.089,-0.053 -0.117,-0.168 -0.064,-0.257c0.053,-0.089 0.168,-0.118 0.257,-0.065c0.37,0.221 0.753,0.436 1.135,0.636c0.092,0.048 0.127,0.162 0.079,0.253c-0.034,0.064 -0.098,0.101 -0.166,0.101ZM48.569,59.495c-0.07,0 -0.138,-0.04 -0.17,-0.108c-0.043,-0.093 -0.002,-0.205 0.091,-0.249c0.39,-0.182 0.781,-0.377 1.161,-0.58c0.092,-0.049 0.205,-0.015 0.254,0.076c0.049,0.092 0.014,0.205 -0.077,0.254c-0.386,0.206 -0.783,0.405 -1.179,0.59l-0.08,0.017ZM29.449,60.083l-0.069,-0.012c-0.408,-0.16 -0.818,-0.335 -1.218,-0.518c-0.094,-0.043 -0.135,-0.154 -0.092,-0.248c0.043,-0.094 0.154,-0.136 0.249,-0.092c0.393,0.18 0.796,0.351 1.198,0.509c0.097,0.038 0.144,0.147 0.106,0.243c-0.03,0.074 -0.1,0.118 -0.174,0.118ZM46.14,60.472c-0.077,0 -0.15,-0.049 -0.177,-0.127c-0.033,-0.098 0.019,-0.204 0.117,-0.238c0.41,-0.139 0.82,-0.291 1.22,-0.452c0.094,-0.039 0.204,0.008 0.243,0.104c0.039,0.096 -0.008,0.205 -0.104,0.244c-0.406,0.163 -0.823,0.318 -1.238,0.459l-0.061,0.01ZM31.938,60.91l-0.049,-0.007c-0.423,-0.115 -0.848,-0.244 -1.264,-0.382c-0.098,-0.032 -0.152,-0.138 -0.119,-0.237c0.033,-0.098 0.139,-0.151 0.237,-0.118c0.41,0.136 0.828,0.262 1.245,0.376c0.099,0.026 0.158,0.13 0.131,0.229c-0.022,0.083 -0.098,0.139 -0.181,0.139ZM43.617,61.18c-0.085,0 -0.163,-0.06 -0.182,-0.147c-0.023,-0.101 0.04,-0.201 0.142,-0.223c0.422,-0.095 0.846,-0.201 1.261,-0.318c0.101,-0.028 0.203,0.031 0.231,0.13c0.028,0.1 -0.031,0.203 -0.13,0.231c-0.422,0.118 -0.852,0.226 -1.28,0.322l-0.042,0.005ZM34.501,61.459l-0.031,-0.002c-0.433,-0.069 -0.869,-0.15 -1.297,-0.242c-0.102,-0.022 -0.165,-0.121 -0.144,-0.222c0.021,-0.102 0.12,-0.166 0.222,-0.145c0.422,0.091 0.851,0.171 1.278,0.239c0.103,0.016 0.172,0.112 0.156,0.214c-0.015,0.093 -0.094,0.158 -0.184,0.158ZM41.033,61.609c-0.094,0 -0.176,-0.07 -0.186,-0.166c-0.012,-0.103 0.063,-0.196 0.166,-0.207c0.429,-0.048 0.863,-0.108 1.287,-0.178c0.103,-0.017 0.199,0.052 0.216,0.154c0.016,0.102 -0.052,0.198 -0.154,0.215c-0.432,0.071 -0.872,0.133 -1.308,0.181l-0.021,0.001ZM37.107,61.728l-0.01,0c-0.439,-0.021 -0.881,-0.055 -1.316,-0.1c-0.103,-0.011 -0.178,-0.102 -0.167,-0.206c0.01,-0.102 0.102,-0.177 0.205,-0.167c0.428,0.044 0.866,0.078 1.297,0.099c0.103,0.006 0.183,0.093 0.178,0.197c-0.005,0.1 -0.088,0.177 -0.187,0.177ZM38.417,61.758c-0.102,0 -0.187,-0.083 -0.187,-0.186c0,-0.104 0.083,-0.188 0.186,-0.188c0.432,-0.002 0.87,-0.015 1.301,-0.039c0.102,-0.006 0.192,0.073 0.198,0.176c0.005,0.103 -0.074,0.191 -0.177,0.197c-0.438,0.026 -0.882,0.039 -1.32,0.04l-0.001,0Z" style="fill:#bbbdc0;fill-rule:nonzero;"/><path d="M19.404,58.854c-0.4,0 -0.725,-0.326 -0.725,-0.726c0,-0.402 0.325,-0.726 0.725,-0.726c0.401,0 0.726,0.324 0.726,0.726c0,0.4 -0.325,0.726 -0.726,0.726ZM21.557,57.702l-0.356,0c-0.083,0 -0.172,-0.063 -0.198,-0.142l-0.066,-0.161c-0.037,-0.074 -0.02,-0.182 0.038,-0.241l0.252,-0.252c0.058,-0.057 0.058,-0.153 0,-0.211l-0.389,-0.39c-0.059,-0.059 -0.154,-0.059 -0.213,0l-0.251,0.251c-0.059,0.059 -0.167,0.077 -0.241,0.04l-0.161,-0.067c-0.077,-0.026 -0.142,-0.115 -0.142,-0.197l0,-0.357c0,-0.082 -0.068,-0.15 -0.151,-0.15l-0.55,0c-0.083,0 -0.15,0.068 -0.15,0.15l0,0.357c0,0.082 -0.064,0.171 -0.143,0.197l-0.16,0.067c-0.074,0.037 -0.183,0.019 -0.241,-0.04l-0.251,-0.251c-0.058,-0.059 -0.154,-0.059 -0.212,0l-0.39,0.39c-0.059,0.058 -0.059,0.154 0,0.211l0.251,0.252c0.059,0.059 0.077,0.167 0.04,0.241l-0.066,0.161c-0.027,0.079 -0.116,0.142 -0.199,0.142l-0.355,0c-0.083,0 -0.15,0.068 -0.15,0.151l0,0.55c0,0.082 0.067,0.15 0.15,0.15l0.355,0c0.083,0 0.172,0.063 0.199,0.142l0.066,0.162c0.037,0.073 0.019,0.182 -0.04,0.24l-0.251,0.252c-0.059,0.058 -0.059,0.154 0,0.212l0.39,0.39c0.058,0.058 0.154,0.058 0.212,0l0.251,-0.252c0.058,-0.059 0.167,-0.076 0.241,-0.04l0.16,0.067c0.079,0.027 0.143,0.115 0.143,0.198l0,0.356c0,0.083 0.067,0.15 0.15,0.15l0.55,0c0.083,0 0.151,-0.067 0.151,-0.15l0,-0.356c0,-0.083 0.065,-0.171 0.142,-0.198l0.161,-0.067c0.074,-0.036 0.182,-0.019 0.241,0.04l0.251,0.252c0.059,0.058 0.154,0.058 0.213,0l0.389,-0.39c0.058,-0.058 0.058,-0.154 0,-0.212l-0.252,-0.252c-0.058,-0.058 -0.075,-0.167 -0.038,-0.24l0.066,-0.162c0.026,-0.079 0.115,-0.142 0.198,-0.142l0.356,0c0.083,0 0.15,-0.068 0.15,-0.15l0,-0.55c0,-0.083 -0.067,-0.151 -0.15,-0.151Z" style="fill:#596274;fill-rule:nonzero;"/><path d="M46.733,21.471l-15.713,0c-1.905,0 -3.448,1.546 -3.448,3.446l0,37.597c0,1.902 1.543,3.444 3.448,3.444l15.713,0c1.902,0 3.445,-1.542 3.445,-3.444l0,-37.597c0,-1.9 -1.543,-3.446 -3.445,-3.446Z" style="fill:#474f59;fill-rule:nonzero;"/><path d="M35.911,24.131l5.924,0c0.168,0 0.303,0.136 0.303,0.304c0,0.166 -0.135,0.303 -0.303,0.303l-5.924,0c-0.165,0 -0.299,-0.137 -0.299,-0.303c0,-0.168 0.134,-0.304 0.299,-0.304Z" style="fill:#fff;fill-rule:nonzero;"/><path d="M38.874,63.42c-1.1,0 -1.993,-0.895 -1.993,-1.995c0,-1.102 0.893,-1.993 1.993,-1.993c1.104,0 1.995,0.891 1.995,1.993c0,1.1 -0.891,1.995 -1.995,1.995Z" style="fill:#2f363d;fill-rule:nonzero;"/><rect x="29.084" y="28.243" width="19.583" height="29.012" style="fill:#01b9cc;fill-rule:nonzero;"/><path d="M29.084,57.255l19.583,0l0,-29.012l-19.583,29.012Z" style="fill:#00acc1;fill-rule:nonzero;"/><path d="M38.874,60.042c-0.762,0 -1.383,0.621 -1.383,1.383c0,0.764 0.621,1.384 1.383,1.384c0.766,0 1.383,-0.62 1.383,-1.384c0,-0.762 -0.617,-1.383 -1.383,-1.383Z" style="fill:#474f59;fill-rule:nonzero;"/><rect x="33.883" y="39.279" width="30.505" height="5.053" style="fill:#feca00;fill-rule:nonzero;"/><rect x="59.335" y="39.279" width="5.052" height="5.053" style="fill:#ffb41e;fill-rule:nonzero;"/><rect x="33.883" y="39.279" width="5.052" height="5.053" style="fill:#ffb41e;fill-rule:nonzero;"/><rect x="42.628" y="41.5" width="15.09" height="0.612" style="fill:#474f59;fill-rule:nonzero;"/><rect x="42.628" y="41.5" width="8.509" height="0.612" style="fill:#01b9cc;fill-rule:nonzero;"/><path d="M51.698,41.806c0,0.262 -0.213,0.476 -0.477,0.476c-0.263,0 -0.477,-0.214 -0.477,-0.476c0,-0.264 0.214,-0.478 0.477,-0.478c0.264,0 0.477,0.214 0.477,0.478Z" style="fill:url(#_Linear1);"/><path d="M51.221,41.352c-0.249,0 -0.452,0.203 -0.452,0.454c0,0.249 0.203,0.452 0.452,0.452c0.25,0 0.453,-0.203 0.453,-0.452c0,-0.251 -0.203,-0.454 -0.453,-0.454ZM51.221,42.306c-0.276,0 -0.5,-0.225 -0.5,-0.5c0,-0.277 0.224,-0.501 0.5,-0.501c0.276,0 0.501,0.224 0.501,0.501c0,0.275 -0.225,0.5 -0.501,0.5Z" style="fill:#e4e4e4;fill-rule:nonzero;"/><path d="M37.511,41.806c0,0.657 -0.533,1.191 -1.191,1.191c-0.659,0 -1.192,-0.534 -1.192,-1.191c0,-0.659 0.533,-1.193 1.192,-1.193c0.658,0 1.191,0.534 1.191,1.193Z" style="fill:#fff;fill-rule:nonzero;"/><path d="M36.932,41.806l-0.467,0.269l-0.467,0.27l0,-0.539l0,-0.54l0.467,0.27l0.467,0.27Z" style="fill:#d67041;fill-rule:nonzero;"/><path d="M40.269,41.433l0.087,0.014l0.068,0.04l0.043,0.062l0.016,0.08l-0.011,0.071l-0.03,0.062l-0.043,0.057l-0.054,0.057l-0.155,0.158l0.045,-0.01l0.041,-0.004l0.177,0l0.031,0.011l0.011,0.028l0,0.071l-0.473,0l0,-0.039l0.005,-0.025l0.016,-0.024l0.209,-0.209l0.047,-0.052l0.035,-0.047l0.022,-0.049l0.007,-0.052l-0.007,-0.043l-0.021,-0.032l-0.031,-0.019l-0.042,-0.006l-0.069,0.021l-0.039,0.057l-0.016,0.026l-0.026,0.008l-0.016,-0.001l-0.062,-0.011l0.028,-0.087l0.051,-0.063l0.07,-0.037l0.086,-0.013Z" style="fill:#fff;fill-rule:nonzero;"/><path d="M40.588,42.065l0.006,-0.028l0.016,-0.023l0.023,-0.015l0.028,-0.006l0.028,0.006l0.023,0.015l0.015,0.023l0.006,0.028l-0.006,0.029l-0.015,0.022l-0.023,0.015l-0.028,0.005l-0.028,-0.005l-0.023,-0.015l-0.016,-0.022l-0.006,-0.029ZM40.588,41.725l0.006,-0.028l0.016,-0.023l0.023,-0.015l0.028,-0.006l0.028,0.006l0.023,0.015l0.015,0.023l0.006,0.028l-0.006,0.028l-0.015,0.024l-0.023,0.014l-0.028,0.006l-0.028,-0.006l-0.023,-0.014l-0.016,-0.024l-0.006,-0.028Z" style="fill:#fff;fill-rule:nonzero;"/><path d="M41.074,41.433l0.087,0.014l0.068,0.04l0.044,0.062l0.016,0.08l-0.011,0.071l-0.03,0.062l-0.044,0.057l-0.053,0.057l-0.155,0.158l0.044,-0.01l0.041,-0.004l0.178,0l0.03,0.011l0.011,0.028l0,0.071l-0.472,0l0,-0.039l0.004,-0.025l0.016,-0.024l0.21,-0.209l0.047,-0.052l0.034,-0.047l0.022,-0.049l0.007,-0.052l-0.007,-0.043l-0.021,-0.032l-0.032,-0.019l-0.04,-0.006l-0.071,0.021l-0.037,0.057l-0.016,0.026l-0.027,0.008l-0.015,-0.001l-0.062,-0.011l0.027,-0.087l0.051,-0.063l0.071,-0.037l0.085,-0.013Z" style="fill:#fff;fill-rule:nonzero;"/><path d="M41.637,41.433l0.088,0.014l0.065,0.038l0.042,0.056l0.014,0.07l-0.007,0.058l-0.023,0.043l-0.033,0.032l-0.046,0.021c0.041,0.013 0.072,0.033 0.092,0.06c0.021,0.026 0.031,0.06 0.031,0.1l-0.019,0.092l-0.051,0.065l-0.076,0.042l-0.09,0.014l-0.09,-0.012l-0.068,-0.035l-0.048,-0.058l-0.035,-0.077l0.052,-0.022l0.028,-0.006l0.022,0.005l0.015,0.015l0.018,0.033l0.025,0.029l0.033,0.02l0.047,0.009l0.052,-0.011l0.037,-0.025l0.023,-0.035l0.008,-0.039l-0.006,-0.045l-0.022,-0.035l-0.048,-0.022l-0.084,-0.008l0,-0.084l0.072,-0.007l0.046,-0.022l0.024,-0.033l0.006,-0.041l-0.027,-0.075l-0.072,-0.024l-0.07,0.022l-0.039,0.056l-0.015,0.026l-0.027,0.008l-0.015,-0.001l-0.063,-0.011l0.028,-0.087l0.051,-0.063l0.07,-0.037l0.085,-0.013Z" style="fill:#fff;fill-rule:nonzero;"/><path d="M62.317,42.592c-0.053,-0.053 -0.053,-0.14 -0.001,-0.192c0.328,-0.328 0.329,-0.861 0,-1.189c-0.052,-0.053 -0.052,-0.138 0.001,-0.192c0.052,-0.053 0.137,-0.053 0.191,0c0.433,0.434 0.433,1.139 0,1.573c-0.054,0.052 -0.139,0.052 -0.191,0Z" style="fill:#fff;fill-rule:nonzero;"/><path d="M62.024,42.29c-0.05,-0.05 -0.05,-0.132 0,-0.182c0.168,-0.167 0.168,-0.439 0,-0.605c-0.05,-0.05 -0.05,-0.132 0,-0.182c0.051,-0.051 0.132,-0.051 0.183,0c0.267,0.267 0.267,0.702 0,0.969c-0.051,0.051 -0.132,0.051 -0.183,0Z" style="fill:#fff;fill-rule:nonzero;"/><path d="M60.929,41.806l0.867,-0.694l0,1.387l-0.867,-0.693Z" style="fill:#fff;fill-rule:nonzero;"/><rect x="60.926" y="41.436" width="0.609" height="0.738" style="fill:#fff;fill-rule:nonzero;"/><rect x="22.031" y="30.261" width="23.62" height="3.85" style="fill:#fff;fill-rule:nonzero;"/><path d="M45.689,30.224l-23.695,0l0,3.924l23.695,0l0,-3.924ZM45.614,30.298l0,3.776l-23.546,0l0,-3.776l23.546,0Z" style="fill:#feca00;fill-rule:nonzero;"/><rect x="41.763" y="30.224" width="3.925" height="3.924" style="fill:#feca00;fill-rule:nonzero;"/><path d="M43.422,32.475c-0.256,0 -0.462,-0.206 -0.462,-0.461c0,-0.255 0.206,-0.463 0.462,-0.463c0.254,0 0.461,0.208 0.461,0.463c0,0.255 -0.207,0.461 -0.461,0.461ZM43.422,31.292c-0.398,0 -0.722,0.324 -0.722,0.722c0,0.397 0.324,0.72 0.722,0.72c0.396,0 0.72,-0.323 0.72,-0.72c0,-0.398 -0.324,-0.722 -0.72,-0.722Z" style="fill:#fff;fill-rule:nonzero;"/><path d="M44.394,33.145l-0.055,-0.024l-0.55,-0.582l0.002,-0.107l0.107,0.003l0.551,0.583l-0.003,0.106l-0.052,0.021Z" style="fill:#fff;fill-rule:nonzero;"/><path d="M44.394,33.227c-0.042,0 -0.083,-0.017 -0.114,-0.05l-0.344,-0.363c-0.06,-0.064 -0.057,-0.163 0.006,-0.222c0.064,-0.06 0.163,-0.058 0.222,0.006l0.345,0.363c0.059,0.063 0.056,0.163 -0.006,0.223c-0.031,0.028 -0.07,0.043 -0.109,0.043Z" style="fill:#fff;fill-rule:nonzero;"/><path d="M24.044,31.866l-0.011,0.014l-0.015,0.004l-0.023,-0.01l-0.034,-0.022l-0.049,-0.023l-0.069,-0.009l-0.069,0.01l-0.049,0.028l-0.03,0.041l-0.011,0.053l0.018,0.058l0.046,0.041l0.065,0.028l0.075,0.026l0.075,0.029l0.064,0.041l0.047,0.061l0.017,0.089l-0.018,0.104l-0.056,0.086l-0.09,0.056c-0.035,0.014 -0.075,0.021 -0.12,0.021c-0.054,0 -0.105,-0.01 -0.15,-0.03c-0.045,-0.02 -0.083,-0.047 -0.116,-0.081l0.034,-0.055l0.011,-0.01l0.015,-0.005l0.029,0.014l0.039,0.029l0.058,0.029l0.083,0.014l0.073,-0.012l0.054,-0.031l0.035,-0.05l0.012,-0.062l-0.018,-0.064l-0.046,-0.041l-0.064,-0.028l-0.075,-0.024l-0.075,-0.028l-0.064,-0.042l-0.047,-0.063l-0.017,-0.095l0.017,-0.087l0.051,-0.074l0.082,-0.052c0.032,-0.013 0.07,-0.02 0.112,-0.02c0.047,0 0.091,0.008 0.13,0.023l0.103,0.065l-0.029,0.054Z" style="fill:#aab1bb;fill-rule:nonzero;"/><path d="M24.461,32.051c-0.051,0 -0.091,0.014 -0.12,0.044c-0.03,0.029 -0.047,0.07 -0.055,0.122l0.327,0l-0.01,-0.067l-0.029,-0.053l-0.049,-0.035l-0.064,-0.011ZM24.459,31.973l0.1,0.018l0.078,0.052l0.051,0.084c0.013,0.033 0.02,0.072 0.02,0.114l-0.006,0.034l-0.02,0.008l-0.399,0l0.015,0.099l0.039,0.07l0.059,0.042l0.077,0.014l0.069,-0.009l0.049,-0.02l0.036,-0.02l0.023,-0.009l0.02,0.01l0.031,0.038l-0.048,0.041l-0.058,0.029l-0.064,0.017l-0.066,0.006c-0.042,0 -0.08,-0.007 -0.115,-0.021l-0.091,-0.061c-0.025,-0.028 -0.045,-0.061 -0.058,-0.102c-0.015,-0.039 -0.022,-0.085 -0.022,-0.136c0,-0.043 0.006,-0.082 0.019,-0.118l0.056,-0.094l0.088,-0.063c0.034,-0.015 0.074,-0.023 0.117,-0.023Z" style="fill:#aab1bb;fill-rule:nonzero;"/><path d="M25.009,32.518l0.051,-0.006l0.043,-0.016l0.039,-0.024l0.036,-0.035l0,-0.123c-0.047,0 -0.089,0.003 -0.123,0.009l-0.082,0.024l-0.047,0.035l-0.015,0.045l0.008,0.042l0.021,0.028l0.031,0.016l0.038,0.005ZM25.283,32.582l-0.046,0l-0.026,-0.004l-0.012,-0.02l-0.012,-0.056l-0.046,0.038l-0.048,0.028l-0.052,0.018l-0.063,0.006l-0.066,-0.01l-0.053,-0.029l-0.036,-0.05l-0.013,-0.071l0.02,-0.068l0.063,-0.059c0.029,-0.017 0.067,-0.031 0.114,-0.042c0.047,-0.011 0.104,-0.016 0.171,-0.016l0,-0.047c0,-0.047 -0.009,-0.083 -0.029,-0.107l-0.088,-0.036l-0.065,0.01l-0.046,0.022l-0.033,0.022l-0.028,0.009l-0.018,-0.006l-0.013,-0.013l-0.019,-0.034l0.107,-0.072c0.038,-0.015 0.081,-0.023 0.128,-0.023l0.089,0.017l0.066,0.046l0.04,0.071l0.014,0.093l0,0.383Z" style="fill:#aab1bb;fill-rule:nonzero;"/><path d="M25.443,32.582l0,-0.599l0.06,0l0.024,0.006l0.009,0.023l0.006,0.093c0.022,-0.042 0.046,-0.074 0.077,-0.098c0.031,-0.023 0.065,-0.035 0.107,-0.035l0.044,0.005l0.038,0.016l-0.014,0.079l-0.018,0.014l-0.026,-0.005l-0.048,-0.005l-0.092,0.032c-0.025,0.021 -0.046,0.052 -0.062,0.092l0,0.382l-0.105,0Z" style="fill:#aab1bb;fill-rule:nonzero;"/><path d="M26.33,32.089l-0.01,0.01l-0.014,0.004l-0.018,-0.007l-0.027,-0.017l-0.039,-0.017l-0.056,-0.007l-0.078,0.016l-0.056,0.045l-0.034,0.072l-0.012,0.094l0.012,0.097l0.035,0.071l0.055,0.044l0.073,0.015l0.063,-0.009l0.042,-0.021l0.027,-0.02l0.022,-0.009l0.02,0.01l0.028,0.038l-0.096,0.07c-0.04,0.015 -0.081,0.023 -0.125,0.023l-0.104,-0.021l-0.084,-0.06l-0.056,-0.097c-0.014,-0.038 -0.02,-0.082 -0.02,-0.131c0,-0.044 0.006,-0.085 0.018,-0.124l0.055,-0.097l0.088,-0.065c0.035,-0.015 0.076,-0.023 0.121,-0.023c0.042,0 0.079,0.007 0.112,0.021l0.085,0.057l-0.027,0.038Z" style="fill:#aab1bb;fill-rule:nonzero;"/><path d="M26.473,32.582l0,-0.872l0.106,0l0,0.353l0.085,-0.065c0.031,-0.017 0.067,-0.025 0.108,-0.025l0.087,0.016l0.063,0.047l0.038,0.072l0.012,0.092l0,0.382l-0.104,0l0,-0.382c0,-0.045 -0.011,-0.08 -0.031,-0.105c-0.022,-0.025 -0.053,-0.038 -0.096,-0.038l-0.087,0.023l-0.075,0.061l0,0.441l-0.106,0Z" style="fill:#aab1bb;fill-rule:nonzero;"/><path d="M25.33,21.344c0,2.804 -2.273,5.076 -5.076,5.076c-2.804,0 -5.077,-2.272 -5.077,-5.076c0,-2.803 2.273,-5.077 5.077,-5.077c2.803,0 5.076,2.274 5.076,5.077Z" style="fill:#01b9cc;fill-rule:nonzero;"/><path d="M63.389,24.568c0,2.804 -2.273,5.076 -5.076,5.076c-2.804,0 -5.076,-2.272 -5.076,-5.076c0,-2.803 2.272,-5.076 5.076,-5.076c2.803,0 5.076,2.273 5.076,5.076Z" style="fill:#fff;fill-rule:nonzero;"/><rect x="22.828" y="6.857" width="35.305" height="1.262" style="fill:#596274;fill-rule:nonzero;"/><rect x="22.828" y="6.857" width="22.366" height="1.262" style="fill:#feca00;fill-rule:nonzero;"/><path d="M46.177,7.488c0,0.543 -0.44,0.984 -0.983,0.984c-0.544,0 -0.984,-0.441 -0.984,-0.984c0,-0.543 0.44,-0.983 0.984,-0.983c0.543,0 0.983,0.44 0.983,0.983Z" style="fill:url(#_Linear2);"/><path d="M45.194,6.554c-0.515,0 -0.935,0.419 -0.935,0.934c0,0.515 0.42,0.934 0.935,0.934c0.515,0 0.934,-0.419 0.934,-0.934c0,-0.515 -0.419,-0.934 -0.934,-0.934ZM45.194,8.521c-0.57,0 -1.033,-0.464 -1.033,-1.033c0,-0.569 0.463,-1.032 1.033,-1.032c0.569,0 1.032,0.463 1.032,1.032c0,0.569 -0.463,1.033 -1.032,1.033Z" style="fill:#e4e4e4;fill-rule:nonzero;"/><rect x="41.808" y="11.259" width="7.145" height="5.211" style="fill:#feca00;fill-rule:nonzero;"/><path d="M45.381,13.495l-1.599,-1.599l1.599,-1.599l1.6,1.599l-1.6,1.599Z" style="fill:#feca00;fill-rule:nonzero;"/><path d="M43.42,14.574l0.424,0l0,-1.345c0,-0.041 0.001,-0.081 0.004,-0.122l-0.352,0.301l-0.028,0.016l-0.026,0.005l-0.037,-0.01l-0.025,-0.021l-0.077,-0.105l0.587,-0.509l0.199,0l0,1.79l0.388,0l0,0.188l-1.057,0l0,-0.188Z" style="fill:#fff;fill-rule:nonzero;"/><path d="M45.449,12.766c0.083,0 0.162,0.013 0.234,0.038c0.072,0.024 0.135,0.061 0.188,0.108c0.053,0.047 0.094,0.104 0.124,0.172c0.031,0.068 0.046,0.145 0.046,0.232c0,0.073 -0.011,0.141 -0.033,0.204c-0.022,0.062 -0.052,0.122 -0.09,0.18c-0.037,0.056 -0.081,0.112 -0.129,0.166c-0.05,0.053 -0.102,0.108 -0.157,0.164l-0.519,0.532l0.112,-0.024l0.108,-0.009l0.661,0l0.064,0.023l0.023,0.06l0,0.15l-1.317,0l0,-0.085l0.011,-0.053l0.034,-0.052l0.632,-0.634c0.052,-0.053 0.1,-0.105 0.143,-0.153c0.043,-0.049 0.08,-0.099 0.111,-0.149c0.031,-0.049 0.054,-0.099 0.071,-0.15c0.016,-0.051 0.024,-0.106 0.024,-0.163c0,-0.058 -0.009,-0.109 -0.027,-0.153c-0.019,-0.043 -0.043,-0.079 -0.076,-0.108c-0.032,-0.028 -0.07,-0.049 -0.112,-0.063c-0.044,-0.015 -0.09,-0.022 -0.14,-0.022c-0.05,0 -0.095,0.008 -0.138,0.022c-0.042,0.015 -0.08,0.035 -0.112,0.061l-0.082,0.093c-0.023,0.036 -0.039,0.075 -0.048,0.118l-0.032,0.059l-0.059,0.017l-0.014,0l-0.017,-0.002l-0.128,-0.022c0.012,-0.09 0.038,-0.17 0.074,-0.24c0.037,-0.068 0.084,-0.127 0.14,-0.173c0.056,-0.047 0.121,-0.083 0.194,-0.107c0.072,-0.025 0.151,-0.037 0.236,-0.037Z" style="fill:#fff;fill-rule:nonzero;"/><path d="M47.479,13.775c0,-0.15 -0.013,-0.276 -0.039,-0.379c-0.025,-0.102 -0.059,-0.184 -0.102,-0.247c-0.043,-0.062 -0.092,-0.107 -0.148,-0.134c-0.056,-0.027 -0.114,-0.041 -0.175,-0.041c-0.06,0 -0.119,0.014 -0.174,0.041c-0.057,0.027 -0.105,0.072 -0.148,0.134c-0.041,0.063 -0.076,0.145 -0.101,0.247c-0.025,0.103 -0.038,0.229 -0.038,0.379c0,0.151 0.013,0.277 0.038,0.379c0.025,0.102 0.06,0.184 0.101,0.247c0.043,0.062 0.091,0.107 0.148,0.134c0.055,0.027 0.114,0.04 0.174,0.04c0.061,0 0.119,-0.013 0.175,-0.04c0.056,-0.027 0.105,-0.072 0.148,-0.134c0.043,-0.063 0.077,-0.145 0.102,-0.247c0.026,-0.102 0.039,-0.228 0.039,-0.379ZM47.733,13.775c0,0.173 -0.019,0.323 -0.056,0.449c-0.037,0.126 -0.088,0.23 -0.152,0.313c-0.064,0.082 -0.14,0.144 -0.228,0.185c-0.087,0.04 -0.181,0.06 -0.282,0.06c-0.1,0 -0.195,-0.02 -0.281,-0.06c-0.087,-0.041 -0.162,-0.103 -0.227,-0.185c-0.064,-0.083 -0.114,-0.187 -0.151,-0.313c-0.037,-0.126 -0.055,-0.276 -0.055,-0.449c0,-0.172 0.018,-0.322 0.055,-0.448c0.037,-0.126 0.087,-0.232 0.151,-0.315c0.065,-0.083 0.14,-0.145 0.227,-0.185c0.086,-0.04 0.181,-0.061 0.281,-0.061c0.101,0 0.195,0.021 0.282,0.061c0.088,0.04 0.164,0.102 0.228,0.185c0.064,0.083 0.115,0.189 0.152,0.315c0.037,0.126 0.056,0.276 0.056,0.448Z" style="fill:#fff;fill-rule:nonzero;"/><rect x="2.757" y="27.703" width="7.888" height="7.888" style="fill:#596274;fill-rule:nonzero;"/><rect x="4.985" y="30.018" width="0.752" height="0.752" style="fill:#fff;fill-rule:nonzero;"/><rect x="4.985" y="31.271" width="0.752" height="0.752" style="fill:#fff;fill-rule:nonzero;"/><rect x="4.985" y="32.524" width="0.752" height="0.752" style="fill:#fff;fill-rule:nonzero;"/><path d="M7.942,30.018l-0.244,0l-0.604,0l-0.61,0l-0.142,0l0,0.752l2.108,0l0,-0.752l-0.508,0Z" style="fill:#fff;fill-rule:nonzero;"/><path d="M7.698,31.271l-0.604,0l-0.61,0l-0.142,0l0,0.753l2.108,0l0,-0.753l-0.508,0l-0.244,0Z" style="fill:#fff;fill-rule:nonzero;"/><path d="M7.698,32.524l-0.604,0l-0.61,0l-0.142,0l0,0.752l2.108,0l0,-0.752l-0.508,0l-0.244,0Z" style="fill:#fff;fill-rule:nonzero;"/><path d="M19.445,23.202l-0.906,0.266l-0.667,-2.267l0.905,-0.267l0.668,2.268Z" style="fill:#fff;fill-rule:nonzero;"/><path d="M22.611,20.885c0,-0.291 -0.236,-0.525 -0.524,-0.525c0,0 -1.208,0.03 -1.201,-0.247c0.001,-0.07 0.004,-0.145 0.01,-0.23c0.012,-0.098 0.03,-0.193 0.037,-0.276c0.047,-0.601 -0.159,-0.93 -0.341,-0.93c-0.043,0 -0.371,0.022 -0.351,0.198c0.009,0.083 0.044,0.504 -0.065,0.859c-0.221,0.408 -1.021,1.243 -1.234,1.296l0.583,1.572c0,0 0.232,-0.117 0.873,-0.058c0.382,0.034 0.744,0.061 0.946,0.087c0.202,0.026 0.515,0.012 0.589,-0.184c0.017,-0.045 0.026,-0.087 0.03,-0.126c0.165,-0.059 0.288,-0.21 0.298,-0.392l-0.005,-0.103c0.123,-0.073 0.21,-0.203 0.219,-0.354c0.003,-0.071 -0.01,-0.14 -0.038,-0.201c0.106,-0.096 0.174,-0.233 0.174,-0.386Z" style="fill:#fff;fill-rule:nonzero;"/><path d="M59.449,22.553c-0.476,0.006 -0.888,0.309 -1.112,0.756c-0.233,-0.442 -0.654,-0.733 -1.128,-0.728c-0.724,0.011 -1.3,0.703 -1.29,1.548c0.002,0.166 0.027,0.325 0.071,0.473c0.102,0.485 0.838,1.28 1.516,1.918c0.33,0.31 0.882,0.745 0.882,0.745c0.233,-0.169 0.542,-0.45 0.863,-0.766c0.661,-0.655 1.378,-1.469 1.467,-1.956c0.04,-0.15 0.061,-0.309 0.059,-0.475c-0.012,-0.845 -0.606,-1.523 -1.328,-1.515Z" style="fill:#ffb41e;fill-rule:nonzero;"/><path d="M16.911,54.652c-3.518,0 -6.37,-2.852 -6.37,-6.37c0,-3.518 2.852,-6.37 6.37,-6.37c3.518,0 6.371,2.852 6.371,6.37c0,3.518 -2.853,6.37 -6.371,6.37Z" style="fill:#feca00;fill-rule:nonzero;"/><path d="M19.989,45.558l-0.003,-0.003c-0.061,-0.048 -0.139,-0.065 -0.214,-0.047l-2.111,0.513l-1.551,0.377l-1.247,-1.247l0,-0.003l-0.305,0l0,1.784l-0.106,-0.011c-0.123,0 -0.259,0.034 -0.395,0.098c-0.306,0.143 -0.602,0.451 -0.549,0.736c0.019,0.103 0.082,0.182 0.173,0.23l1.637,1.638c-0.083,0.025 -0.168,0.058 -0.253,0.098c-0.502,0.236 -0.987,0.74 -0.9,1.21c0.022,0.124 0.085,0.226 0.175,0.305l-0.006,0.005l3.362,3.362c2.973,-0.366 5.309,-2.778 5.562,-5.784l-3.266,-3.265l-0.003,0.004Z" style="fill:#ffb41e;fill-rule:nonzero;"/><path d="M20.077,49.175l0.004,0l0,-2.264l0,-1.16c0,-0.077 -0.035,-0.149 -0.095,-0.196c-0.061,-0.048 -0.139,-0.065 -0.214,-0.047l-3.693,0.897c-0.112,0.028 -0.191,0.128 -0.191,0.244l0,2.928c-0.055,-0.01 -0.112,-0.017 -0.174,-0.017c-0.2,0 -0.424,0.055 -0.649,0.161c-0.502,0.236 -0.987,0.74 -0.9,1.21c0.054,0.288 0.308,0.467 0.664,0.467c0.201,0 0.425,-0.056 0.649,-0.161c0.485,-0.229 0.956,-0.709 0.906,-1.165l0.004,0l0,-2.067l3.193,-0.775l0,1.45c-0.055,-0.01 -0.112,-0.017 -0.173,-0.017c-0.201,0 -0.425,0.055 -0.649,0.161c-0.502,0.236 -0.988,0.74 -0.901,1.21c0.054,0.288 0.309,0.467 0.664,0.467c0.202,0 0.426,-0.055 0.649,-0.16c0.486,-0.229 0.957,-0.71 0.906,-1.166Z" style="fill:#fff;fill-rule:nonzero;"/><path d="M14.706,47.233c0.034,0.179 -0.174,0.435 -0.464,0.571c-0.289,0.136 -0.55,0.102 -0.583,-0.077c-0.034,-0.179 0.173,-0.434 0.463,-0.571c0.29,-0.136 0.551,-0.102 0.584,0.077Z" style="fill:#ec8457;fill-rule:nonzero;"/><path d="M13.913,48.04c-0.216,0 -0.371,-0.109 -0.405,-0.285c-0.053,-0.285 0.243,-0.593 0.549,-0.736c0.136,-0.064 0.272,-0.098 0.395,-0.098c0.216,0 0.371,0.109 0.404,0.284c0.054,0.286 -0.242,0.593 -0.549,0.737c-0.135,0.064 -0.272,0.098 -0.394,0.098Z" style="fill:#fff;fill-rule:nonzero;"/><rect x="14.558" y="45.148" width="0.305" height="2.084" style="fill:#fff;fill-rule:nonzero;"/><path d="M61.447,51.502c0,1.954 -1.585,3.539 -3.539,3.539c-1.954,0 -3.539,-1.585 -3.539,-3.539c0,-1.954 1.585,-3.538 3.539,-3.538c1.954,0 3.539,1.584 3.539,3.538Z" style="fill:#fff;fill-rule:nonzero;"/><path d="M57.908,48.25c-1.792,0 -3.251,1.458 -3.251,3.252c0,1.792 1.459,3.252 3.251,3.252c1.793,0 3.251,-1.46 3.251,-3.252c0,-1.794 -1.458,-3.252 -3.251,-3.252ZM57.908,55.327c-2.109,0 -3.825,-1.716 -3.825,-3.825c0,-2.109 1.716,-3.826 3.825,-3.826c2.11,0 3.826,1.717 3.826,3.826c0,2.109 -1.716,3.825 -3.826,3.825Z" style="fill:#bbbdc0;fill-rule:nonzero;"/><path d="M57.908,49.428c-1.144,0 -2.074,0.931 -2.074,2.074c0,1.144 0.93,2.075 2.074,2.075c1.144,0 2.074,-0.931 2.074,-2.075c0,-1.143 -0.93,-2.074 -2.074,-2.074ZM57.908,53.942c-1.345,0 -2.44,-1.094 -2.44,-2.44c0,-1.346 1.095,-2.441 2.44,-2.441c1.346,0 2.441,1.095 2.441,2.441c0,1.346 -1.095,2.44 -2.441,2.44Z" style="fill:#bbbdc0;fill-rule:nonzero;"/><path d="M64.461,55.366c-0.405,0 -0.746,0.271 -0.855,0.64c-0.141,-0.036 -0.286,-0.059 -0.437,-0.068l0,-0.611c0,-0.493 -0.399,-0.893 -0.893,-0.893c-0.491,0 -0.891,0.4 -0.891,0.893l0,0.605l-0.43,0l0,-1.418c0,-0.493 -0.4,-0.892 -0.893,-0.892c-0.493,0 -0.893,0.399 -0.893,0.892l0,1.424c-0.147,0.005 -0.291,0.024 -0.43,0.057l0,-4.24c0,-0.493 -0.399,-0.893 -0.893,-0.893c-0.492,0 -0.892,0.4 -0.892,0.893l0,6.395l-0.005,0.1l0,2.224l-0.412,-0.411l0,-1.783c0,-0.727 -0.59,-1.318 -1.317,-1.318l-0.44,0l-0.054,0.004l0,1.65l-0.006,-0.001l-0.003,2.19l2.956,2.893c0.416,0.395 0.976,0.639 1.595,0.639l3.767,0c1.28,0 2.318,-1.039 2.318,-2.319l0,-1.549l0,-2.219l0,-1.991c0,-0.493 -0.399,-0.893 -0.892,-0.893Z" style="fill:#01b9cc;fill-rule:nonzero;"/><path d="M57.59,61.082l0,-2.832l0.004,-0.1l0,-6.395c0,-0.379 0.239,-0.703 0.572,-0.831c-0.099,-0.039 -0.206,-0.062 -0.32,-0.062c-0.492,0 -0.892,0.4 -0.892,0.893l0,6.395l-0.005,0.1l0,2.192l0.641,0.64Z" style="fill:#00acc1;fill-rule:nonzero;"/><path d="M68.813,29.932l-4.054,0l-0.163,-0.502l-0.027,-0.07l-0.001,-0.002l-0.024,-0.035l-0.013,-0.013l-0.018,-0.017l-0.027,-0.02l-0.008,-0.006c-0.052,-0.031 -0.113,-0.042 -0.177,-0.031l-0.567,0.048c-0.14,0.008 -0.245,0.127 -0.238,0.266c0.008,0.139 0.126,0.245 0.266,0.238l0.409,-0.035l1.002,3.15c-0.087,0.106 -0.143,0.239 -0.143,0.388c0,0.335 0.273,0.607 0.608,0.607c0.245,0 0.455,-0.146 0.551,-0.354l0.811,-0.003c0.095,0.21 0.306,0.357 0.552,0.357c0.335,0 0.607,-0.272 0.607,-0.607c0,-0.335 -0.272,-0.608 -0.607,-0.608c-0.245,0 -0.455,0.146 -0.551,0.354l-0.811,0.003c-0.096,-0.21 -0.306,-0.357 -0.552,-0.357l-0.005,0.001l-0.118,-0.368l2.61,0c0.305,0 0.357,-0.206 0.551,-0.55l0.688,-1.283c0.263,-0.505 -0.248,-0.551 -0.551,-0.551Z" style="fill:#596274;fill-rule:nonzero;"/><defs><linearGradient id="_Linear1" x1="0" y1="0" x2="1" y2="0" gradientUnits="userSpaceOnUse" gradientTransform="matrix(-4.16874e-08,-0.953698,0.953698,-4.16874e-08,51.2215,42.2821)"><stop offset="0%" style="stop-color:#e9eaea;stop-opacity:1"/><stop offset="100%" style="stop-color:#fff;stop-opacity:1"/></linearGradient><linearGradient id="_Linear2" x1="0" y1="0" x2="1" y2="0" gradientUnits="userSpaceOnUse" gradientTransform="matrix(-8.59641e-08,-1.96663,1.96663,-8.59641e-08,45.1933,8.4716)"><stop offset="0%" style="stop-color:#e9eaea;stop-opacity:1"/><stop offset="100%" style="stop-color:#fff;stop-opacity:1"/></linearGradient></defs></svg>