<?xml version="1.0" encoding="UTF-8" standalone="no"?><!DOCTYPE svg PUBLIC "-//W3C//DTD SVG 1.1//EN" "http://www.w3.org/Graphics/SVG/1.1/DTD/svg11.dtd"><svg width="100%" height="100%" viewBox="0 0 73 73" version="1.1" xmlns="http://www.w3.org/2000/svg" xmlns:xlink="http://www.w3.org/1999/xlink" xml:space="preserve" style="fill-rule:evenodd;clip-rule:evenodd;stroke-linejoin:round;stroke-miterlimit:1.41421;"><g><path d="M67.465,60.785c0,0.15 -0.122,0.272 -0.271,0.272l-35.554,0c-0.151,0 -0.272,-0.122 -0.272,-0.272l0,-50.639c0,-0.15 0.121,-0.271 0.272,-0.271l35.554,0c0.149,0 0.271,0.121 0.271,0.271l0,50.639Z" style="fill:#f2f2f2;fill-rule:nonzero;"/><path d="M67.465,12.767l0,-2.621c0,-0.15 -0.122,-0.271 -0.271,-0.271l-35.554,0c-0.151,0 -0.272,0.121 -0.272,0.271l0,2.621l36.097,0Z" style="fill:#ced6d8;fill-rule:nonzero;"/><path d="M36.174,11.295c0,0.255 -0.207,0.463 -0.462,0.463c-0.256,0 -0.463,-0.208 -0.463,-0.463c0,-0.255 0.207,-0.462 0.463,-0.462c0.255,0 0.462,0.207 0.462,0.462Z" style="fill:#dce4e7;fill-rule:nonzero;"/><path d="M34.663,11.295c0,0.255 -0.207,0.463 -0.462,0.463c-0.256,0 -0.462,-0.208 -0.462,-0.463c0,-0.255 0.206,-0.462 0.462,-0.462c0.255,0 0.462,0.207 0.462,0.462Z" style="fill:#dce4e7;fill-rule:nonzero;"/><path d="M33.153,11.295c0,0.255 -0.208,0.463 -0.463,0.463c-0.257,0 -0.463,-0.208 -0.463,-0.463c0,-0.255 0.206,-0.462 0.463,-0.462c0.255,0 0.463,0.207 0.463,0.462Z" style="fill:#dce4e7;fill-rule:nonzero;"/><rect x="34.315" y="16.844" width="6.455" height="0.741" style="fill:#596274;fill-rule:nonzero;"/><rect x="37.451" y="18.027" width="8.981" height="0.741" style="fill:#596274;fill-rule:nonzero;"/><rect x="37.451" y="19.208" width="8.093" height="0.741" style="fill:#596274;fill-rule:nonzero;"/><rect x="37.451" y="20.391" width="6.456" height="0.741" style="fill:#596274;fill-rule:nonzero;"/><rect x="34.315" y="30.211" width="6.455" height="0.741" style="fill:#596274;fill-rule:nonzero;"/><rect x="37.451" y="31.393" width="17.3" height="0.741" style="fill:#596274;fill-rule:nonzero;"/><rect x="37.451" y="32.575" width="14.593" height="0.741" style="fill:#596274;fill-rule:nonzero;"/><rect x="39.088" y="33.757" width="6.456" height="0.741" style="fill:#596274;fill-rule:nonzero;"/><rect x="34.315" y="23.8" width="6.455" height="0.741" style="fill:#596274;fill-rule:nonzero;"/><rect x="37.451" y="24.982" width="26.529" height="0.741" style="fill:#596274;fill-rule:nonzero;"/><rect x="37.451" y="26.164" width="25.64" height="0.741" style="fill:#596274;fill-rule:nonzero;"/><rect x="37.451" y="27.346" width="6.456" height="0.741" style="fill:#596274;fill-rule:nonzero;"/></g><rect x="13.542" y="47.966" width="40.916" height="18.033" style="fill:#2f363d;fill-rule:nonzero;"/><rect x="13.542" y="47.596" width="40.916" height="18.033" style="fill:#474f59;fill-rule:nonzero;"/><rect x="16.574" y="51.009" width="2.885" height="2.885" style="fill:#2f363d;fill-rule:nonzero;"/><rect x="20.57" y="51.009" width="2.886" height="2.885" style="fill:#2f363d;fill-rule:nonzero;"/><rect x="24.566" y="51.009" width="2.886" height="2.885" style="fill:#2f363d;fill-rule:nonzero;"/><rect x="28.561" y="51.009" width="2.886" height="2.885" style="fill:#2f363d;fill-rule:nonzero;"/><rect x="32.557" y="51.009" width="2.886" height="2.885" style="fill:#2f363d;fill-rule:nonzero;"/><rect x="36.553" y="51.009" width="2.886" height="2.885" style="fill:#2f363d;fill-rule:nonzero;"/><rect x="40.548" y="51.009" width="2.886" height="2.885" style="fill:#2f363d;fill-rule:nonzero;"/><rect x="44.544" y="51.009" width="2.885" height="2.885" style="fill:#2f363d;fill-rule:nonzero;"/><rect x="48.54" y="51.009" width="2.886" height="2.885" style="fill:#2f363d;fill-rule:nonzero;"/><rect x="16.574" y="54.992" width="2.885" height="2.886" style="fill:#2f363d;fill-rule:nonzero;"/><rect x="20.57" y="54.992" width="2.886" height="2.886" style="fill:#2f363d;fill-rule:nonzero;"/><rect x="24.566" y="54.992" width="2.886" height="2.886" style="fill:#2f363d;fill-rule:nonzero;"/><rect x="28.561" y="54.992" width="2.886" height="2.886" style="fill:#2f363d;fill-rule:nonzero;"/><rect x="32.557" y="54.992" width="2.886" height="2.886" style="fill:#2f363d;fill-rule:nonzero;"/><rect x="36.553" y="54.992" width="2.886" height="2.886" style="fill:#2f363d;fill-rule:nonzero;"/><rect x="40.548" y="54.992" width="2.886" height="2.886" style="fill:#2f363d;fill-rule:nonzero;"/><rect x="44.544" y="54.992" width="2.885" height="2.886" style="fill:#2f363d;fill-rule:nonzero;"/><rect x="48.54" y="54.992" width="2.886" height="2.886" style="fill:#2f363d;fill-rule:nonzero;"/><rect x="16.574" y="58.977" width="2.885" height="2.886" style="fill:#2f363d;fill-rule:nonzero;"/><path d="M38.243,58.977l-1.69,0l-15.983,0l0,2.885l18.869,0l0,-2.885l-1.196,0Z" style="fill:#2f363d;fill-rule:nonzero;"/><rect x="40.548" y="58.977" width="2.886" height="2.886" style="fill:#2f363d;fill-rule:nonzero;"/><rect x="44.544" y="58.977" width="2.885" height="2.886" style="fill:#2f363d;fill-rule:nonzero;"/><rect x="48.54" y="58.977" width="2.886" height="2.886" style="fill:#2f363d;fill-rule:nonzero;"/><rect x="16.574" y="50.638" width="2.885" height="2.885" style="fill:#596274;fill-rule:nonzero;"/><rect x="20.57" y="50.638" width="2.886" height="2.885" style="fill:#596274;fill-rule:nonzero;"/><rect x="24.566" y="50.638" width="2.886" height="2.885" style="fill:#596274;fill-rule:nonzero;"/><rect x="28.561" y="50.638" width="2.886" height="2.885" style="fill:#596274;fill-rule:nonzero;"/><rect x="32.557" y="50.638" width="2.886" height="2.885" style="fill:#596274;fill-rule:nonzero;"/><rect x="36.553" y="50.638" width="2.886" height="2.885" style="fill:#596274;fill-rule:nonzero;"/><rect x="40.548" y="50.638" width="2.886" height="2.885" style="fill:#596274;fill-rule:nonzero;"/><rect x="44.544" y="50.638" width="2.885" height="2.885" style="fill:#596274;fill-rule:nonzero;"/><rect x="48.54" y="50.638" width="2.886" height="2.885" style="fill:#596274;fill-rule:nonzero;"/><rect x="16.574" y="54.622" width="2.885" height="2.886" style="fill:#596274;fill-rule:nonzero;"/><rect x="20.57" y="54.622" width="2.886" height="2.886" style="fill:#596274;fill-rule:nonzero;"/><rect x="24.566" y="54.622" width="2.886" height="2.886" style="fill:#596274;fill-rule:nonzero;"/><rect x="28.561" y="54.622" width="2.886" height="2.886" style="fill:#596274;fill-rule:nonzero;"/><rect x="32.557" y="54.622" width="2.886" height="2.886" style="fill:#596274;fill-rule:nonzero;"/><rect x="36.553" y="54.622" width="2.886" height="2.886" style="fill:#596274;fill-rule:nonzero;"/><rect x="40.548" y="54.622" width="2.886" height="2.886" style="fill:#596274;fill-rule:nonzero;"/><rect x="44.544" y="54.622" width="2.885" height="2.886" style="fill:#596274;fill-rule:nonzero;"/><rect x="48.54" y="54.622" width="2.886" height="2.886" style="fill:#596274;fill-rule:nonzero;"/><rect x="16.574" y="58.606" width="2.885" height="2.886" style="fill:#596274;fill-rule:nonzero;"/><path d="M38.243,58.606l-1.69,0l-15.983,0l0,2.886l18.869,0l0,-2.886l-1.196,0Z" style="fill:#596274;fill-rule:nonzero;"/><rect x="40.548" y="58.606" width="2.886" height="2.886" style="fill:#596274;fill-rule:nonzero;"/><rect x="44.544" y="58.606" width="2.885" height="2.886" style="fill:#596274;fill-rule:nonzero;"/><rect x="48.54" y="58.606" width="2.886" height="2.886" style="fill:#596274;fill-rule:nonzero;"/><path d="M35.128,34.973c0,0.446 -0.177,0.873 -0.492,1.188c-0.315,0.315 -0.743,0.492 -1.188,0.492c-4.153,0 -14.57,0 -14.57,0l0,-18.313c0,0 10.411,0 14.567,0c0.929,0 1.683,0.754 1.683,1.683c0,3.487 0,11.466 0,14.95Z" style="fill:#feca00;fill-rule:nonzero;"/><text x="21.353px" y="31.047px" style="font-family:'Jaapokkienchance-Regular', 'Jaapokki enchance';font-size:10px;fill:#fff;">E<tspan x="26.483px " y="31.047px ">N</tspan></text><path d="M18.878,31.708l0,4.945l5.758,-4.945l-5.758,0Z" style="fill:#00616e;"/><path d="M24.636,31.708c0,0 -13.294,0 -18.066,0c-0.928,0 -1.68,-0.753 -1.68,-1.68c0,-3.486 0,-11.468 0,-14.953c0,-0.928 0.752,-1.68 1.68,-1.68c3.264,0 10.149,0 10.149,0l7.917,18.313Z" style="fill:#00bcd4;fill-rule:nonzero;"/><text x="7.248px" y="26.5px" style="font-family:'Jaapokkienchance-Regular', 'Jaapokki enchance';font-size:10px;fill:#fff;">E<tspan x="12.378px " y="26.5px ">S</tspan></text></svg>