<?xml version="1.0" encoding="UTF-8" standalone="no"?><!DOCTYPE svg PUBLIC "-//W3C//DTD SVG 1.1//EN" "http://www.w3.org/Graphics/SVG/1.1/DTD/svg11.dtd"><svg width="100%" height="100%" viewBox="0 0 73 73" version="1.1" xmlns="http://www.w3.org/2000/svg" xmlns:xlink="http://www.w3.org/1999/xlink" xml:space="preserve" style="fill-rule:evenodd;clip-rule:evenodd;stroke-linejoin:round;stroke-miterlimit:1.41421;"><clipPath id="_clip1"><rect id="content" x="0.171" y="0.074" width="72" height="72"/></clipPath><g clip-path="url(#_clip1)"><path d="M26.44,53.754c9.926,0 18.004,-8.077 18.004,-18.006c0,-9.927 -8.078,-18.006 -18.004,-18.006l0,36.012Z" style="fill:#dce4e7;fill-rule:nonzero;"/><path d="M26.44,17.742c-9.93,0 -18.009,8.079 -18.009,18.006c0,9.929 8.079,18.006 18.009,18.006l0,-36.012Z" style="fill:#f2f2f2;fill-rule:nonzero;"/><path d="M13.933,41.104c-0.025,0.049 0.297,0.379 0.422,0.491c0.125,0.114 0.389,0.654 0.443,0.831c0.054,0.178 0.022,0.467 0.006,0.536c-0.017,0.068 0.06,0.219 0.072,0.281c0.011,0.063 -0.11,0.592 -0.063,0.805c0.046,0.213 -0.25,0.878 -0.244,1.207c0.008,0.331 0.156,0.761 0.218,0.729c0.059,-0.032 0.08,0.3 -0.021,0.34c-0.101,0.04 -0.218,0.303 -0.161,0.316c0.056,0.014 -0.004,0.274 0.012,0.377c0.014,0.104 0.103,0.789 0.122,0.96c0.019,0.171 0.263,0.588 0.314,0.728c0.051,0.142 0.103,0.41 0.123,0.45c0.019,0.041 0.045,0.082 0.048,0.085c0.003,0.001 0.201,0.074 0.256,0.118c0.059,0.042 0.444,0.015 0.57,-0.012c0.126,-0.025 0.01,-0.14 -0.046,-0.202c-0.057,-0.063 -0.107,-0.368 -0.173,-0.398c-0.065,-0.03 -0.092,-0.418 -0.036,-0.503c0.058,-0.087 0.288,-0.224 0.314,-0.295c0.025,-0.073 0.031,-0.41 -0.03,-0.456c-0.062,-0.046 0.018,-0.457 -0.029,-0.66c-0.046,-0.203 0.354,-0.388 0.377,-0.55c0.023,-0.161 0.456,-0.335 0.555,-0.416c0.097,-0.08 0.182,-0.542 0.137,-0.643c-0.049,-0.098 0.159,-0.178 0.252,-0.178c0.091,0 0.194,-0.067 0.23,-0.067c0.036,-0.002 0.146,-0.205 0.204,-0.253c0.06,-0.046 0.182,-0.534 0.289,-0.614c0.109,-0.082 0.197,-0.376 0.197,-0.462c0,-0.086 0.164,-0.343 0.218,-0.421c0.054,-0.078 0.459,-0.263 0.531,-0.292c0.072,-0.03 0.181,-0.679 0.21,-0.912c0.027,-0.233 0.15,-0.545 0.158,-0.622c0.007,-0.077 0.138,-0.143 0.162,-0.166c0.024,-0.025 0.119,-0.322 0.182,-0.391c0.062,-0.068 0.286,-0.351 0.291,-0.415c0.005,-0.063 0.039,-0.225 0.076,-0.361l-0.001,-0.158l0.002,-0.253c-0.07,-0.196 -0.288,-0.441 -0.344,-0.387c-0.055,0.054 -0.305,-0.173 -0.432,-0.22c-0.129,-0.047 -0.447,-0.087 -0.527,-0.087c-0.081,0 -0.359,-0.229 -0.483,-0.268c-0.125,-0.038 -0.443,-0.1 -0.502,-0.137c-0.058,-0.037 -0.135,-0.51 -0.392,-0.665c-0.256,-0.155 -0.706,-0.516 -0.755,-0.649c-0.049,-0.132 -0.541,-0.41 -0.695,-0.493c-0.15,-0.084 -0.381,-0.105 -0.409,-0.074c-0.03,0.029 -0.22,-0.256 -0.318,-0.338c-0.097,-0.08 -0.392,-0.147 -0.405,-0.075c-0.013,0.073 -0.21,0.035 -0.255,-0.027c-0.046,-0.061 -0.199,0.024 -0.27,0.049c-0.071,0.022 -0.316,0.396 -0.427,0.487c-0.114,0.088 -0.248,-0.084 -0.321,-0.117c-0.075,-0.031 -0.357,0.057 -0.435,0.111c-0.076,0.054 -0.255,-0.396 -0.213,-0.603c0.04,-0.208 -0.186,-0.62 -0.361,-0.63c-0.175,-0.011 -0.23,-0.443 -0.196,-0.604c0.036,-0.159 -0.316,-0.26 -0.403,-0.27c-0.089,-0.012 -0.309,0.213 -0.345,0.322c-0.039,0.107 -0.835,-0.147 -0.74,-0.625c0.092,-0.478 0.471,-0.972 0.564,-1.031c0.094,-0.058 0.606,-0.087 0.719,-0.023c0.113,0.067 0.216,-0.001 0.235,-0.029c0.019,-0.03 0.437,0.004 0.562,0.056c0.124,0.05 0.303,0.532 0.432,0.592c0.13,0.059 0.177,-0.313 0.198,-0.403c0.021,-0.09 -0.063,-0.319 -0.094,-0.384c-0.032,-0.064 0.207,-0.649 0.404,-0.749c0.193,-0.1 0.4,-0.425 0.384,-0.483c-0.018,-0.057 0.156,-0.102 0.202,-0.127c0.047,-0.023 -0.008,-0.496 0.07,-0.6c0.077,-0.101 0.443,-0.318 0.56,-0.368c0.115,-0.048 0.202,-0.347 0.162,-0.399c-0.044,-0.053 0.298,-0.344 0.476,-0.401c0.177,-0.054 0.331,0.102 0.288,0.126c0.034,-0.018 0.28,-0.145 0.385,-0.214c0.121,-0.081 0.001,-0.302 -0.077,-0.367c-0.079,-0.065 -0.032,-0.322 0.063,-0.345c0.094,-0.023 0.176,-0.246 0.151,-0.293c-0.025,-0.048 0.391,0.038 0.55,-0.079c0.156,-0.118 0.045,0.281 -0.071,0.443c-0.115,0.16 0.085,0.313 0.159,0.282c0.074,-0.031 0.154,0.086 0.169,0.131c0.015,0.045 0.176,-0.047 0.28,-0.002c0.105,0.047 0.166,-0.143 0.176,-0.23c0.007,-0.088 -0.251,-0.269 -0.292,-0.374c-0.039,-0.105 -0.057,-0.714 -0.063,-0.839c-0.005,-0.126 -0.174,-0.329 -0.227,-0.292c-0.054,0.035 -0.164,-0.325 -0.25,-0.403c-0.088,-0.078 -0.108,-0.25 -0.105,-0.308c0.005,-0.058 -0.295,-0.371 -0.366,-0.516c-0.072,-0.144 -0.173,-0.115 -0.18,-0.05c-0.008,0.068 -0.214,0.076 -0.299,0.068c-0.087,-0.007 -0.157,-0.337 -0.157,-0.463c0,-0.124 -0.386,-0.146 -0.449,-0.247c-0.062,-0.099 -0.315,-0.052 -0.354,-0.122c-0.041,-0.07 -0.264,-0.133 -0.306,-0.107c-0.047,0.026 -0.025,0.921 -0.066,1.163c-0.045,0.24 -0.248,0.454 -0.324,0.448c-0.074,-0.005 -0.03,0.172 0.022,0.157c0.053,-0.017 -0.145,0.263 -0.171,0.447c-0.026,0.182 -0.213,-0.009 -0.241,-0.175c-0.031,-0.167 -0.213,-0.392 -0.248,-0.334c-0.035,0.056 -0.159,-0.069 -0.215,-0.033c-0.054,0.036 -0.398,-0.2 -0.537,-0.277c-0.138,-0.072 -0.216,-0.5 -0.295,-0.537c-0.081,-0.039 -0.013,-0.089 -0.017,-0.154c-0.002,-0.064 0.27,-0.312 0.352,-0.411c0.081,-0.098 0.379,-0.485 0.497,-0.569c0.119,-0.083 0.211,-0.305 0.19,-0.346c-0.019,-0.04 0.506,-0.204 0.649,-0.254c0.141,-0.048 0.265,-0.446 0.284,-0.56c0.019,-0.114 -0.089,-0.33 -0.155,-0.359c-0.066,-0.028 0.199,-0.037 0.286,0.007c0.088,0.042 0.36,-0.081 0.467,-0.025c0.106,0.058 0.323,0.186 0.479,0.286l-0.034,0.291l-0.063,0.494c-0.414,0.172 -0.533,0.468 -0.388,0.462c0.144,-0.007 0.807,0.287 0.994,0.421c0.186,0.134 0.246,-0.194 0.301,-0.303c0.054,-0.109 0.037,-0.426 -0.007,-0.488c-0.046,-0.064 0.215,-0.041 0.289,0.03c0.073,0.069 0.159,-0.074 0.216,-0.099c0.056,-0.025 0.084,-0.297 0.115,-0.351c0.03,-0.055 -0.124,-0.11 -0.128,-0.179c-0.006,-0.068 -0.304,-0.198 -0.399,-0.243c-0.098,-0.046 -0.12,-0.251 -0.072,-0.287c0.047,-0.036 -0.033,-0.297 -0.081,-0.383c-0.047,-0.087 -0.357,-0.157 -0.462,-0.157c-0.103,0 -0.211,-0.24 -0.269,-0.275c-0.061,-0.034 -0.46,-0.079 -0.557,-0.05c-0.099,0.029 -0.28,-0.283 -0.446,-0.187c-0.167,0.095 -0.339,-0.112 -0.414,-0.152c-0.075,-0.042 -0.466,0.377 -0.462,0.671c0.004,0.295 0.152,0.579 0.213,0.587c0.062,0.008 -0.014,0.274 -0.082,0.35c-0.066,0.076 -0.231,-0.081 -0.169,-0.147c0.061,-0.066 -0.169,-0.375 -0.249,-0.5c-0.056,-0.09 -0.26,-0.17 -0.396,-0.225c-0.081,0.086 -0.159,0.176 -0.237,0.265c0.03,0.106 0.066,0.246 0.031,0.352c-0.058,0.179 -0.208,0.206 -0.217,0.129c-0.005,-0.035 -0.079,-0.061 -0.168,-0.073c-2.182,2.615 -3.634,5.858 -4.049,9.411c0.086,0.1 0.185,0.218 0.211,0.302c0.049,0.157 0.324,0.261 0.376,0.294c0.052,0.032 0.069,-0.303 0.033,-0.389c-0.036,-0.087 0.066,-0.14 0.064,-0.075c-0.003,0.064 0.259,0.357 0.345,0.464c0.085,0.107 0.173,0.793 0.256,0.941c0.082,0.147 0.874,0.453 1.13,0.506c0.255,0.054 0.577,0.339 0.627,0.422c0.049,0.082 0.389,0.123 0.461,0.156c0.073,0.034 0.247,0.263 0.319,0.311c0.073,0.049 0.129,0.185 0.129,0.222c0,0.037 0.449,0.205 0.557,0.325c0.108,0.12 0.288,0.087 0.322,0.036c0.033,-0.05 0.122,0.239 0.169,0.337c0.045,0.101 0.056,0.346 0.021,0.385c-0.035,0.038 -0.1,0.488 -0.175,0.578c-0.077,0.091 -0.235,0.745 -0.202,0.873c0.035,0.131 0.245,0.397 0.337,0.438c0.089,0.039 0.051,0.178 -0.02,0.188c-0.072,0.009 -0.039,0.634 0.131,0.727c0.168,0.092 0.308,0.369 0.284,0.417Z" style="fill:#01b9cc;fill-rule:nonzero;"/><path d="M16.052,30.137l0.002,-0.002l-0.002,0.002Z" style="fill:#01b9cc;fill-rule:nonzero;"/><path d="M14.822,22.542c0.215,-0.036 0.573,-0.096 0.598,-0.156c0.018,-0.049 0.02,-0.198 -0.019,-0.25l0.103,0.004c0.082,0 0.218,-0.448 0.305,-0.553c0.086,-0.105 0.579,-0.26 0.696,-0.33c0.117,-0.072 0.374,-0.32 0.473,-0.348c0.099,-0.029 0.243,-0.26 0.221,-0.306c-0.021,-0.046 0.333,-0.261 0.47,-0.319c0.133,-0.057 0.204,-0.216 0.153,-0.222c-0.032,-0.004 -0.785,0.389 -1.474,0.78c-0.786,0.534 -1.524,1.131 -2.216,1.778c0.216,-0.016 0.548,-0.054 0.69,-0.078Z" style="fill:#01b9cc;fill-rule:nonzero;"/><path d="M27.844,44.953c0.231,-0.136 0.622,-0.715 0.751,-0.837c0.128,-0.121 0.222,-0.559 0.25,-0.655c0.025,-0.096 0.222,-0.251 0.294,-0.272c0.074,-0.021 0.306,-0.991 0.511,-1.204c0.206,-0.211 0.446,-1.238 0.421,-1.607c-0.026,-0.368 0.131,-1.073 0.18,-1.242c0.049,-0.169 0.306,-0.469 0.386,-0.531c0.078,-0.063 0.573,-0.796 0.733,-1.058c0.159,-0.262 0.312,-0.839 0.281,-0.973c-0.031,-0.136 -0.376,-0.23 -0.44,-0.164c-0.063,0.067 -0.388,0.122 -0.492,0.122c-0.104,0 -0.342,-0.556 -0.488,-0.67c-0.148,-0.114 -0.281,-0.751 -0.366,-0.87c-0.085,-0.121 -0.323,-0.426 -0.397,-0.497c-0.074,-0.069 -0.088,-0.406 -0.105,-0.498c-0.016,-0.093 0.144,0.06 0.172,0.194c0.028,0.134 0.409,0.676 0.527,0.859c0.118,0.183 0.429,0.765 0.508,0.947c0.08,0.181 0.771,0.09 0.996,-0.017c0.226,-0.107 0.505,-0.285 0.516,-0.347c0.011,-0.064 0.368,-0.228 0.468,-0.308c0.099,-0.08 0.187,-0.496 0.252,-0.563c0.064,-0.067 -0.052,-0.464 -0.126,-0.583c-0.074,-0.118 -0.434,-0.212 -0.506,-0.165c-0.073,0.047 -0.229,-0.266 -0.283,-0.382c-0.056,-0.115 -0.33,-0.255 -0.36,-0.333c-0.029,-0.08 0.074,-0.205 0.118,-0.231c0.043,-0.028 0.549,0.327 0.696,0.505c0.144,0.176 0.31,0.501 0.34,0.557c0.025,0.057 0.425,0.086 0.515,0.02c0.089,-0.066 0.191,-0.048 0.227,0.037l0.125,-0.022l0.438,-0.068c0.208,0.224 0.269,0.419 0.264,0.464c-0.006,0.043 0.126,0.226 0.211,0.245c0.085,0.021 0.147,0.308 0.173,0.378c0.026,0.072 0.276,0.502 0.327,0.682c0.052,0.181 0.265,0.534 0.315,0.628c0.051,0.095 0.093,0.368 0.093,0.443c0,0.075 0.161,0.221 0.261,0.215c0.098,-0.007 0.3,-0.636 0.347,-0.869c0.046,-0.234 0.209,-0.427 0.254,-0.427c0.046,0 0.082,-0.131 0.082,-0.181c0,-0.049 0.255,-0.044 0.276,-0.108c0.022,-0.064 0.098,-0.479 0.188,-0.542c0.092,-0.063 0.413,-0.274 0.527,-0.313c0.112,-0.04 0.399,0.209 0.465,0.325c0.064,0.115 0.123,0.412 0.098,0.459c-0.024,0.049 0.152,0.304 0.307,0.3c0.152,-0.005 0.2,0.194 0.204,0.266c0.008,0.073 0.208,0.278 0.25,0.37c0.04,0.091 0.028,0.343 0,0.4c-0.027,0.056 -0.008,0.385 0.021,0.478c0.03,0.091 0.501,0.571 0.679,0.716c0.177,0.144 0.26,-0.296 0.17,-0.434c-0.09,-0.137 -0.4,-0.456 -0.471,-0.551c-0.073,-0.096 -0.085,-0.479 -0.058,-0.586c0.026,-0.107 0.269,0.059 0.37,0.136c0.102,0.078 0.233,0.25 0.237,0.309c0.004,0.056 0.637,-0.297 0.659,-0.683c0.021,-0.385 0.232,-0.819 0.253,-0.92c0.022,-0.102 -0.063,-0.24 -0.116,-0.244c-0.054,-0.005 0.094,-0.294 0.272,-0.289c0.178,0.005 0.605,-0.471 0.706,-0.66c0.101,-0.189 0.305,-0.344 0.328,-0.368c0.024,-0.022 0.166,-0.469 0.191,-0.654c0.023,-0.184 -0.105,-0.473 -0.121,-0.569c-0.014,-0.095 -0.167,-0.315 -0.207,-0.384c-0.039,-0.069 -0.077,-0.327 -0.052,-0.377c0.023,-0.046 0.183,-0.098 0.201,-0.141c0.016,-0.044 0.2,-0.239 0.186,-0.325c-0.012,-0.087 0.113,0.111 0.199,0.183c0.082,0.071 0.173,0.53 0.277,0.581c0.103,0.05 0.524,-0.487 0.472,-0.834c-0.051,-0.347 0.123,-0.79 0.223,-0.83c0.078,-0.03 0.273,-0.311 0.408,-0.511c-0.923,-2.669 -2.457,-5.054 -4.434,-6.99l-0.068,-0.002l-0.155,-0.033c-0.258,-0.054 -0.407,-0.331 -0.363,-0.394c0.013,-0.021 0.011,-0.066 -0.002,-0.122c-0.145,-0.13 -0.292,-0.258 -0.442,-0.383c-0.122,-0.004 -0.251,0 -0.326,-0.003c-0.155,-0.006 -0.49,-0.117 -0.55,-0.176c-0.06,-0.06 -0.263,0.053 -0.275,0.165c-0.013,0.112 -0.365,0.163 -0.399,0.249c-0.035,0.085 -0.216,0.091 -0.251,0.043c-0.035,-0.048 -0.362,0.115 -0.525,0.139c-0.162,0.023 -0.464,0.154 -0.538,0.186c-0.073,0.032 -0.245,0.201 -0.273,0.272c-0.027,0.07 -0.236,0.186 -0.304,0.213c-0.067,0.026 -0.052,0.33 0.033,0.374c0.087,0.042 -0.16,-0.037 -0.269,-0.094c-0.11,-0.054 -0.231,0.129 -0.264,0.194c-0.036,0.062 -0.135,-0.038 -0.13,-0.129c0.004,-0.091 -0.269,-0.164 -0.306,-0.092c-0.037,0.072 -0.226,-0.025 -0.303,-0.065c-0.08,-0.041 -0.418,0.312 -0.544,0.439c-0.125,0.127 -0.727,0.225 -0.839,0.178c-0.113,-0.047 -0.224,0.266 -0.127,0.287c0.096,0.019 -0.244,-0.016 -0.43,0.002c-0.187,0.018 -0.731,0.235 -0.859,0.331c-0.131,0.097 -0.235,-0.021 -0.235,-0.095c0,-0.074 -0.206,-0.143 -0.268,-0.164c-0.061,-0.02 -0.181,0.406 -0.288,0.489c-0.109,0.083 -0.238,-0.333 -0.491,-0.402c-0.254,-0.068 -0.65,-0.313 -0.762,-0.343c-0.112,-0.029 -0.338,-0.265 -0.403,-0.333c-0.063,-0.07 -0.388,-0.126 -0.492,-0.126c-0.103,0 -0.438,0.192 -0.528,0.268c-0.091,0.077 -0.227,0.06 -0.271,0.089c-0.046,0.027 -0.424,0.398 -0.571,0.515c-0.147,0.115 -0.405,0.617 -0.487,0.736c-0.085,0.118 -0.206,0.141 -0.255,0.144c-0.049,0.003 -0.09,0.136 -0.09,0.185c0,0.049 -0.435,0.276 -0.481,0.475c-0.046,0.197 0.044,0.649 0.044,0.81c0,0.16 0.161,0.478 0.282,0.483c0.119,0.006 0.058,0.273 0.026,0.348c-0.032,0.076 0.076,0.158 0.072,0.221c-0.002,0.064 -0.306,0.154 -0.399,0.19c-0.095,0.034 -0.244,0.246 -0.265,0.324c-0.017,0.069 -0.308,0.117 -0.403,0.21c0.024,-0.067 0.056,-0.158 0.082,-0.21c0.055,-0.106 -0.021,-0.29 -0.067,-0.327c-0.046,-0.039 -0.067,-0.563 -0.141,-0.675c-0.072,-0.113 -0.256,-0.302 -0.301,-0.339c-0.046,-0.037 0.031,-0.175 0.058,-0.234c0.026,-0.058 -0.245,-0.091 -0.319,-0.048c-0.074,0.043 -0.114,0.561 -0.145,0.703c-0.03,0.142 0.134,0.359 0.18,0.37c0.044,0.011 0.031,0.266 -0.063,0.273c-0.096,0.01 -0.182,0.383 -0.135,0.468c0.049,0.085 -0.067,0.252 -0.124,0.29c-0.055,0.039 0.366,0.017 0.559,0.012c0.19,-0.006 0.34,0.081 0.32,0.097c-0.02,0.015 -0.367,0.066 -0.43,0.149c-0.06,0.083 -0.296,0.241 -0.342,0.304c-0.046,0.063 0.078,0.203 0.177,0.196c0.099,-0.006 0.214,0.346 0.292,0.41c0.077,0.065 0.049,0.247 0.015,0.297c-0.034,0.05 -0.504,-0.034 -0.682,0.011c-0.178,0.044 -0.403,0.421 -0.419,0.563c-0.016,0.143 0.029,0.551 0.052,0.665c0.023,0.112 0.396,0.182 0.471,0.238c0.078,0.054 0.433,0.001 0.509,0.035c0.072,0.036 0.314,-0.362 0.362,-0.545c0.044,-0.185 0.426,-0.523 0.506,-0.649c0.079,-0.125 0.49,-0.11 0.59,-0.176c0.101,-0.064 0.044,0.311 0.093,0.518c0.048,0.207 0.441,0.181 0.383,-0.014c-0.057,-0.193 0.04,-0.277 0.055,-0.207c0.017,0.069 0.394,0.223 0.465,0.333c0.072,0.109 0.051,0.341 -0.032,0.338c-0.085,-0.003 -0.088,0.255 0.002,0.283c0.088,0.026 0.206,-0.291 0.3,-0.338c0.096,-0.047 0.174,-0.245 0.129,-0.259c-0.043,-0.016 0.08,-0.193 0.134,-0.135c0.054,0.058 -0.201,-0.385 -0.362,-0.546c-0.16,-0.162 -0.047,-0.091 0.253,0.16l0.207,0.29c0.04,0.051 0.093,0.211 0.13,0.269l0.047,0.085c0.041,0.102 0.077,0.38 0.077,0.455c0,0.075 0.163,0.223 0.261,0.216c0.098,-0.007 0.173,0.047 0.153,0.05c-0.02,0.004 0.065,0.197 0.163,0.202c0.098,0.003 0.14,-0.25 0.042,-0.256c-0.099,-0.005 -0.083,-0.371 -0.096,-0.529c-0.012,-0.16 0.071,-0.289 0.104,-0.289c0.035,0 -0.004,0.326 -0.001,0.401c0.001,0.076 0.043,0.224 0.089,0.33l0.102,0.077l0.227,0.175c0.326,-0.096 0.764,-0.022 0.748,0.044c-0.019,0.067 0.241,0.084 0.256,-0.025c0.015,-0.106 0.027,0.004 0.027,0.078c0,0.074 -0.214,0.365 -0.249,0.499c-0.036,0.134 -0.788,0.044 -1.112,0.019c-0.325,-0.025 -0.802,0.085 -0.838,0.182c-0.037,0.097 -0.542,-0.222 -0.775,-0.32c-0.232,-0.098 -0.413,-0.451 -0.46,-0.496c-0.048,-0.047 0.04,-0.161 0.017,-0.232c-0.021,-0.069 -0.551,-0.084 -0.704,-0.027c-0.155,0.057 -0.947,0.141 -1.135,0.224c-0.188,0.083 -0.47,-0.006 -0.558,-0.022c-0.089,-0.015 -0.299,0.244 -0.405,0.291c-0.108,0.047 -0.241,0.413 -0.3,0.817l-0.144,0.28l-0.094,0.179c-0.262,0.2 -0.551,0.865 -0.637,0.998c-0.084,0.134 -0.152,1.091 -0.152,1.413c0,0.322 0.279,1.004 0.36,1.192c0.079,0.187 0.565,0.605 0.726,0.704c0.163,0.097 0.691,0.111 0.865,0.111c0.171,-0.001 0.369,-0.165 0.436,-0.366l0.253,0.026l0.116,0.011c0.006,0.143 0.38,0.256 0.472,0.306c0.092,0.05 0.339,0.011 0.411,-0.009c0.074,-0.022 0.156,0.64 0.103,0.831c-0.053,0.191 0.131,0.861 0.183,1.063c0.055,0.201 0.285,0.754 0.308,0.952c0.022,0.199 -0.134,0.856 -0.161,1.087c-0.026,0.232 0.288,0.877 0.371,1.098c0.081,0.222 0.148,0.7 0.148,0.811c0,0.11 0.344,0.777 0.421,1.052c0.079,0.275 0.939,0.343 1.17,0.207Z" style="fill:#00acc1;fill-rule:nonzero;"/><path d="M42.688,36.779c0.023,0.049 0.239,-0.123 0.368,-0.143c0.131,-0.02 0.212,-0.369 0.111,-0.393c-0.102,-0.028 -0.23,-0.296 -0.304,-0.328c-0.073,-0.033 -0.216,0.114 -0.21,0.221c0.005,0.105 -0.236,0.148 -0.282,0.236c-0.045,0.088 -0.043,0.151 0.008,0.142c0.047,-0.008 0.287,0.216 0.309,0.265Z" style="fill:#5f9ca4;fill-rule:nonzero;"/><path d="M42.423,38.67c0.063,-0.025 -0.007,-0.369 -0.142,-0.397c-0.135,-0.028 -0.508,0.453 -0.438,0.731c0.072,0.275 0.149,0.259 0.188,0.2c0.039,-0.058 0.261,0.038 0.327,0.06c0.065,0.021 0.065,-0.046 0,-0.147c-0.066,-0.103 0.001,-0.424 0.065,-0.447Z" style="fill:#5f9ca4;fill-rule:nonzero;"/><path d="M41.686,38.335c0.015,-0.124 0.039,-0.508 0.06,-0.584c0.021,-0.077 -0.21,-0.298 -0.322,-0.337c-0.112,-0.039 -0.477,0.748 -0.737,0.887c-0.262,0.141 -0.355,0.621 -0.287,0.732c0.07,0.11 0.614,0.169 0.708,0.252c0.096,0.083 0.201,-0.013 0.258,-0.027c0.058,-0.014 0.039,-0.051 0.018,-0.066c-0.023,-0.013 0.189,-0.236 0.22,-0.379c0.029,-0.14 0.067,-0.357 0.082,-0.478Z" style="fill:#5f9ca4;fill-rule:nonzero;"/><path d="M40.207,41.178c-0.204,-0.077 -0.444,0.043 -0.463,0.123c-0.02,0.078 0.785,0.207 1.053,0.278c0.266,0.073 0.434,0.096 0.372,0.052c-0.061,-0.046 -0.758,-0.376 -0.962,-0.453Z" style="fill:#5f9ca4;fill-rule:nonzero;"/><path d="M41.841,34.407c0.065,-0.09 -0.089,-0.512 -0.168,-0.416c-0.077,0.095 -0.021,0.34 0.004,0.427c0.024,0.083 0.099,0.079 0.164,-0.011Z" style="fill:#5f9ca4;fill-rule:nonzero;"/><path d="M42.327,35.311c0.047,-0.109 -0.058,-0.229 -0.232,-0.266c-0.174,-0.036 -0.149,0.488 -0.072,0.556c0.076,0.065 0.257,-0.18 0.304,-0.29Z" style="fill:#5f9ca4;fill-rule:nonzero;"/><path d="M43.233,38.558c0.209,0.146 0.674,0.079 0.688,-0.203c-0.205,-0.135 -0.705,-0.112 -0.688,0.203Z" style="fill:#5f9ca4;fill-rule:nonzero;"/><path d="M43.121,32.133c-0.087,0.06 -0.132,0.214 -0.106,0.277l-0.035,-0.001c-0.07,0 -0.077,0.275 -0.005,0.322c0.072,0.047 0.248,-0.215 0.34,-0.276c0.092,-0.063 0.278,-0.102 0.305,-0.081c0.028,0.02 0.188,-0.03 0.36,-0.108c0.03,-0.014 0.065,-0.059 0.101,-0.122c-0.04,-0.202 -0.089,-0.399 -0.136,-0.597c-0.088,0.064 -0.186,0.133 -0.231,0.173c-0.092,0.083 -0.48,0.335 -0.593,0.413Z" style="fill:#5f9ca4;fill-rule:nonzero;"/><path d="M38.362,37.66l0.002,0.001c-0.037,-0.027 -0.041,-0.029 -0.002,-0.001Z" style="fill:#5f9ca4;fill-rule:nonzero;"/><path d="M39.659,38.868c-0.075,-0.17 -0.325,-0.458 -0.554,-0.641l-0.088,-0.143l-0.095,-0.157c-0.086,-0.172 -0.343,-0.307 -0.365,-0.359c-0.023,-0.05 -0.105,0.152 -0.193,0.093c0.047,0.032 0.143,0.101 0.278,0.197c0.243,0.173 0.708,1.346 0.815,1.428c0.105,0.082 0.277,-0.247 0.202,-0.418Z" style="fill:#5f9ca4;fill-rule:nonzero;"/><path d="M35.941,36.973c-0.065,0.134 0.345,0.415 0.376,0.351c0.035,-0.065 -0.051,-0.39 -0.125,-0.462c-0.072,-0.071 -0.186,-0.021 -0.251,0.111Z" style="fill:#5f9ca4;fill-rule:nonzero;"/><path d="M30.501,43.238c0.016,0.139 0.299,0.25 0.381,0.227c0.083,-0.023 0.311,-0.444 0.343,-0.565c0.032,-0.122 0.058,-0.382 0.058,-0.444c0,-0.062 0.038,-0.202 0.071,-0.22c0.029,-0.016 0.082,-0.159 0.114,-0.317c0.031,-0.16 -0.171,-0.899 -0.176,-1.029c-0.004,-0.131 -0.152,0.067 -0.188,0.198c-0.041,0.132 -0.409,0.399 -0.491,0.511c-0.08,0.112 -0.171,0.49 -0.139,0.556c0.03,0.063 -0.032,0.321 -0.069,0.393c-0.036,0.071 0.081,0.55 0.096,0.69Z" style="fill:#5f9ca4;fill-rule:nonzero;"/><path d="M17.225,48.357c0.082,0 0.164,0 0.249,0c0.044,-0.268 -0.261,-0.223 -0.249,0Z" style="fill:#01b9cc;fill-rule:nonzero;"/><path d="M23.825,20.496c-0.104,0.014 -0.373,-0.041 -0.419,-0.091c-0.047,-0.048 -0.448,-0.092 -0.564,-0.043c-0.117,0.049 -0.037,-0.283 0.124,-0.32c0.161,-0.035 0.025,-0.264 -0.147,-0.265c-0.172,-0.001 -0.597,-0.063 -0.697,-0.041c-0.1,0.022 -0.295,-0.069 -0.366,-0.08c-0.071,-0.01 -0.581,0.153 -0.823,0.141c-0.241,-0.011 -0.833,0.013 -0.961,0.049c-0.129,0.034 -0.223,0.285 -0.204,0.374c0.019,0.09 -0.573,0.088 -0.759,0.09c-0.187,0.003 -1.18,0.214 -1.438,0.357c-0.261,0.142 -0.463,0.507 -0.376,0.514c0.085,0.007 -0.145,0.213 -0.283,0.262c-0.14,0.048 -0.472,0.069 -0.55,0.148c-0.079,0.077 0.082,0.131 0.113,0.184c0.032,0.052 0.125,-0.046 0.213,0.005c0.085,0.049 0.376,0.072 0.452,0.101c0.078,0.031 -0.245,0.093 -0.396,0.103c-0.153,0.011 -0.118,0.31 0.005,0.35c0.124,0.042 0.442,0.086 0.475,0.034c0.033,-0.053 0.378,0.056 0.534,0.074c0.155,0.017 0.273,0.407 0.321,0.492c0.049,0.084 0.058,0.381 0.047,0.467c-0.011,0.086 0.275,0.243 0.327,0.188c0.05,-0.055 0.036,0.134 -0.079,0.124c-0.115,-0.009 -0.039,0.32 0.101,0.368c0.142,0.047 0.045,0.25 -0.036,0.312c-0.082,0.061 -0.037,0.256 -0.121,0.326c-0.082,0.068 0.296,0.725 0.294,1.063c-0.002,0.338 0.208,0.613 0.289,0.613c0.081,0 0.358,0.068 0.394,0.14c0.036,0.072 0.171,-0.05 0.224,-0.105c0.052,-0.055 0.166,-0.218 0.25,-0.361c0.086,-0.143 0.277,-0.82 0.302,-0.893c0.026,-0.073 0.343,-0.027 0.417,-0.064c0.071,-0.038 0.28,-0.201 0.338,-0.251c0.06,-0.048 0.513,-0.239 0.638,-0.33c0.123,-0.088 0.329,-0.472 0.425,-0.554c0.097,-0.082 -0.049,-0.059 -0.17,-0.138c-0.12,-0.079 -0.067,-0.176 -0.031,-0.213c0.034,-0.037 0.399,0.061 0.525,0.11c0.127,0.05 0.367,-0.124 0.276,-0.192c-0.093,-0.066 -0.045,-0.065 0,-0.036c0.044,0.028 0.091,-0.223 0.043,-0.27c-0.048,-0.047 0.37,-0.352 0.296,-0.641c-0.073,-0.288 0.114,-0.585 0.227,-0.588c0.113,-0.003 0.08,-0.326 -0.056,-0.356c-0.134,-0.029 -0.008,-0.059 0.043,-0.106c0.05,-0.045 0.114,-0.333 0.085,-0.387c-0.03,-0.057 0.206,-0.119 0.246,-0.185c0.042,-0.065 0.312,-0.194 0.408,-0.216c0.094,-0.021 0.146,-0.275 0.044,-0.263Z" style="fill:#01b9cc;fill-rule:nonzero;"/><path d="M26.17,20.732c-0.129,-0.044 -0.388,0.098 -0.356,0.179c0.033,0.081 -0.211,-0.104 -0.383,-0.016c-0.171,0.09 -0.218,0.39 -0.14,0.429c0.08,0.04 0.136,0.278 0.138,0.324c0.002,0.047 0.333,0.014 0.418,-0.055c0.085,-0.071 0.072,0.241 -0.011,0.325c-0.083,0.084 0.031,0.253 0.123,0.267c0.091,0.013 0.216,0.23 0.31,0.228c0.095,-0.003 0.257,-0.367 0.293,-0.502c0.037,-0.136 0.353,-0.03 0.497,0.014c0.144,0.043 0.196,-0.5 0.04,-0.583c-0.155,-0.081 -0.35,-0.041 -0.415,-0.102c-0.064,-0.064 -0.175,-0.122 -0.248,-0.133c-0.072,-0.01 -0.139,-0.332 -0.266,-0.375Z" style="fill:#5f9ca4;fill-rule:nonzero;"/><path d="M27.428,20.992c0.253,0.036 0.539,-0.173 0.601,-0.233c0.062,-0.057 -0.704,-0.214 -0.996,-0.223c-0.292,-0.009 -0.527,0.03 -0.523,0.089c0.005,0.056 0.662,0.33 0.918,0.367Z" style="fill:#5f9ca4;fill-rule:nonzero;"/><path d="M22.793,27.863c-0.068,-0.028 -0.105,0.224 -0.09,0.319c0.016,0.096 0.251,0.088 0.35,0.07c0.099,-0.016 0.177,-0.097 0.173,-0.18c-0.005,-0.081 -0.146,-0.456 -0.203,-0.456c-0.056,0 -0.163,0.274 -0.23,0.247Z" style="fill:#01b9cc;fill-rule:nonzero;"/><path d="M23.545,24.941c-0.052,-0.092 -0.451,-0.081 -0.548,-0.087c-0.097,-0.005 -0.395,-0.104 -0.452,-0.168c-0.055,-0.063 -0.099,0.245 -0.189,0.285c-0.092,0.04 0.044,0.099 0.082,0.066c0.036,-0.033 -0.003,0.159 -0.044,0.224c-0.04,0.067 0.265,0.113 0.3,0.212c0.035,0.1 0.161,0.164 0.281,0.145c0.12,-0.02 0.361,-0.144 0.446,-0.152c0.084,-0.009 0.176,-0.432 0.124,-0.525Z" style="fill:#01b9cc;fill-rule:nonzero;"/><path d="M31.914,22.658c0.137,-0.137 0.7,-0.321 0.764,-0.464c0.064,-0.142 -0.04,-0.257 -0.096,-0.257c-0.057,0 -0.128,0.07 -0.141,0.094c-0.013,0.022 -0.66,0.175 -0.858,0.271c-0.2,0.095 -0.429,0.242 -0.513,0.328c-0.083,0.084 -0.219,0.725 -0.268,0.796c-0.048,0.073 0.214,0.334 0.331,0.406c0.117,0.071 0.277,0.035 0.32,0.021c0.047,-0.015 -0.058,-0.462 -0.118,-0.618c-0.062,-0.156 0.442,-0.437 0.579,-0.577Z" style="fill:#5f9ca4;fill-rule:nonzero;"/><path d="M31.222,20.989c0.213,0.212 0.33,-0.094 0.564,-0.064c-0.005,-0.429 -0.585,-0.282 -0.564,0.064Z" style="fill:#5f9ca4;fill-rule:nonzero;"/><path d="M35.357,21.069c-0.005,0.079 0.589,0.143 0.763,0.112c0.174,-0.03 -0.036,-0.301 -0.291,-0.286c-0.253,0.017 -0.464,0.095 -0.472,0.174Z" style="fill:#5f9ca4;fill-rule:nonzero;"/><path d="M13.815,25.482c-0.062,0.057 -0.008,0.349 0.11,0.357c0.119,0.009 0.31,-0.439 0.456,-0.35c0.145,0.091 0.245,0.126 0.22,0.078c-0.024,-0.047 -0.44,-0.229 -0.491,-0.262c-0.05,-0.031 -0.232,0.12 -0.295,0.177Z" style="fill:#01b9cc;fill-rule:nonzero;"/><path d="M15.337,35.36c0,0.049 0.259,0.043 0.301,-0.037c0.042,-0.079 0.02,-0.144 -0.05,-0.144c-0.069,0 -0.251,0.132 -0.251,0.181Z" style="fill:#01b9cc;fill-rule:nonzero;"/><path d="M14.182,34.935c0.124,-0.024 0.065,0.176 0.095,0.248c0.03,0.073 0.328,0.13 0.387,0.179c0.061,0.048 0.214,-0.091 0.332,-0.076c0.119,0.015 -0.039,-0.412 -0.238,-0.4c-0.199,0.013 -0.358,-0.18 -0.404,-0.204c-0.049,-0.021 -0.28,-0.162 -0.346,-0.215c-0.065,-0.053 -0.574,-0.098 -0.747,-0.098c-0.173,0 -0.363,0.175 -0.389,0.233c-0.027,0.059 0.273,0.097 0.359,0.052c0.086,-0.046 0.489,0.05 0.571,0.147c0.083,0.097 0.254,0.157 0.38,0.134Z" style="fill:#01b9cc;fill-rule:nonzero;"/><path d="M13.639,35.36c0,0.049 0.262,0.019 0.325,0.021c0.063,0.001 0.061,-0.042 -0.005,-0.095c-0.066,-0.053 -0.32,0.025 -0.32,0.074Z" style="fill:#01b9cc;fill-rule:nonzero;"/><path d="M13.824,34.013c-0.068,-0.027 -0.123,0.08 -0.123,0.131c0,0.05 0.037,0.091 0.084,0.091c0.046,0 0.107,-0.195 0.039,-0.222Z" style="fill:#01b9cc;fill-rule:nonzero;"/><path d="M14.373,34.055c-0.023,-0.051 -0.135,-0.092 -0.168,-0.092c-0.035,0 -0.058,0.087 -0.052,0.193c0.005,0.105 0.243,-0.052 0.22,-0.101Z" style="fill:#01b9cc;fill-rule:nonzero;"/><path d="M14.769,34.664c0.105,-0.052 0.118,-0.179 0.055,-0.171c-0.063,0.006 -0.179,-0.183 -0.247,-0.209c-0.068,-0.028 -0.124,0.113 -0.124,0.174c0,0.062 0.039,0.104 0.085,0.091c0.047,-0.011 0.123,0.164 0.231,0.115Z" style="fill:#01b9cc;fill-rule:nonzero;"/><path d="M44.021,40.31c-0.055,0.029 -0.319,0.059 -0.354,0.008c-0.034,-0.053 -0.086,0.107 -0.143,0.132c-0.056,0.026 -0.025,0.164 0.059,0.121c0.058,-0.028 0.309,0.11 0.512,0.238c0.04,-0.202 0.076,-0.404 0.109,-0.609c-0.073,0.039 -0.148,0.091 -0.183,0.11Z" style="fill:#5f9ca4;fill-rule:nonzero;"/><path d="M13.933,41.104c-0.025,0.049 0.297,0.379 0.422,0.491c0.125,0.114 0.389,0.654 0.443,0.831c0.054,0.178 0.022,0.467 0.006,0.536c-0.017,0.068 0.06,0.219 0.072,0.281c0.011,0.063 -0.11,0.592 -0.063,0.805c0.046,0.213 -0.25,0.878 -0.244,1.207c0.008,0.331 0.156,0.761 0.218,0.729c0.059,-0.032 0.08,0.3 -0.021,0.34c-0.101,0.04 -0.218,0.303 -0.161,0.316c0.056,0.014 -0.004,0.274 0.012,0.377c0.014,0.104 0.103,0.789 0.122,0.96c0.019,0.171 0.263,0.588 0.314,0.728c0.051,0.142 0.103,0.41 0.123,0.45c0.019,0.041 0.045,0.082 0.048,0.085c0.003,0.001 0.201,0.074 0.256,0.118c0.059,0.042 0.444,0.015 0.57,-0.012c0.126,-0.025 0.01,-0.14 -0.046,-0.202c-0.057,-0.063 -0.107,-0.368 -0.173,-0.398c-0.065,-0.03 -0.092,-0.418 -0.036,-0.503c0.058,-0.087 0.288,-0.224 0.314,-0.295c0.025,-0.073 0.031,-0.41 -0.03,-0.456c-0.062,-0.046 0.018,-0.457 -0.029,-0.66c-0.046,-0.203 0.354,-0.388 0.377,-0.55c0.023,-0.161 0.456,-0.335 0.555,-0.416c0.097,-0.08 0.182,-0.542 0.137,-0.643c-0.049,-0.098 0.159,-0.178 0.252,-0.178c0.091,0 0.194,-0.067 0.23,-0.067c0.036,-0.002 0.146,-0.205 0.204,-0.253c0.06,-0.046 0.182,-0.534 0.289,-0.614c0.109,-0.082 0.197,-0.376 0.197,-0.462c0,-0.086 0.164,-0.343 0.218,-0.421c0.054,-0.078 0.459,-0.263 0.531,-0.292c0.072,-0.03 0.181,-0.679 0.21,-0.912c0.027,-0.233 0.15,-0.545 0.158,-0.622c0.007,-0.077 0.138,-0.143 0.162,-0.166c0.024,-0.025 0.119,-0.322 0.182,-0.391c0.062,-0.068 0.286,-0.351 0.291,-0.415c0.005,-0.063 0.039,-0.225 0.076,-0.361l-0.001,-0.158l0.002,-0.253c-0.07,-0.196 -0.288,-0.441 -0.344,-0.387c-0.055,0.054 -0.305,-0.173 -0.432,-0.22c-0.129,-0.047 -0.447,-0.087 -0.527,-0.087c-0.081,0 -0.359,-0.229 -0.483,-0.268c-0.125,-0.038 -0.443,-0.1 -0.502,-0.137c-0.058,-0.037 -0.135,-0.51 -0.392,-0.665c-0.256,-0.155 -0.706,-0.516 -0.755,-0.649c-0.049,-0.132 -0.541,-0.41 -0.695,-0.493c-0.15,-0.084 -0.381,-0.105 -0.409,-0.074c-0.03,0.029 -0.22,-0.256 -0.318,-0.338c-0.097,-0.08 -0.392,-0.147 -0.405,-0.075c-0.013,0.073 -0.21,0.035 -0.255,-0.027c-0.046,-0.061 -0.199,0.024 -0.27,0.049c-0.071,0.022 -0.316,0.396 -0.427,0.487c-0.114,0.088 -0.248,-0.084 -0.321,-0.117c-0.075,-0.031 -0.357,0.057 -0.435,0.111c-0.076,0.054 -0.255,-0.396 -0.213,-0.603c0.04,-0.208 -0.186,-0.62 -0.361,-0.63c-0.175,-0.011 -0.23,-0.443 -0.196,-0.604c0.036,-0.159 -0.316,-0.26 -0.403,-0.27c-0.089,-0.012 -0.309,0.213 -0.345,0.322c-0.039,0.107 -0.835,-0.147 -0.74,-0.625c0.092,-0.478 0.471,-0.972 0.564,-1.031c0.094,-0.058 0.606,-0.087 0.719,-0.023c0.113,0.067 0.216,-0.001 0.235,-0.029c0.019,-0.03 0.437,0.004 0.562,0.056c0.124,0.05 0.303,0.532 0.432,0.592c0.13,0.059 0.177,-0.313 0.198,-0.403c0.021,-0.09 -0.063,-0.319 -0.094,-0.384c-0.032,-0.064 0.207,-0.649 0.404,-0.749c0.193,-0.1 0.4,-0.425 0.384,-0.483c-0.018,-0.057 0.156,-0.102 0.202,-0.127c0.047,-0.023 -0.008,-0.496 0.07,-0.6c0.077,-0.101 0.443,-0.318 0.56,-0.368c0.115,-0.048 0.202,-0.347 0.162,-0.399c-0.044,-0.053 0.298,-0.344 0.476,-0.401c0.177,-0.054 0.331,0.102 0.288,0.126c0.034,-0.018 0.28,-0.145 0.385,-0.214c0.121,-0.081 0.001,-0.302 -0.077,-0.367c-0.079,-0.065 -0.032,-0.322 0.063,-0.345c0.094,-0.023 0.176,-0.246 0.151,-0.293c-0.025,-0.048 0.391,0.038 0.55,-0.079c0.156,-0.118 0.045,0.281 -0.071,0.443c-0.115,0.16 0.085,0.313 0.159,0.282c0.074,-0.031 0.154,0.086 0.169,0.131c0.015,0.045 0.176,-0.047 0.28,-0.002c0.105,0.047 0.166,-0.143 0.176,-0.23c0.007,-0.088 -0.251,-0.269 -0.292,-0.374c-0.039,-0.105 -0.057,-0.714 -0.063,-0.839c-0.005,-0.126 -0.174,-0.329 -0.227,-0.292c-0.054,0.035 -0.164,-0.325 -0.25,-0.403c-0.088,-0.078 -0.108,-0.25 -0.105,-0.308c0.005,-0.058 -0.295,-0.371 -0.366,-0.516c-0.072,-0.144 -0.173,-0.115 -0.18,-0.05c-0.008,0.068 -0.214,0.076 -0.299,0.068c-0.087,-0.007 -0.157,-0.337 -0.157,-0.463c0,-0.124 -0.386,-0.146 -0.449,-0.247c-0.062,-0.099 -0.315,-0.052 -0.354,-0.122c-0.041,-0.07 -0.264,-0.133 -0.306,-0.107c-0.047,0.026 -0.025,0.921 -0.066,1.163c-0.045,0.24 -0.248,0.454 -0.324,0.448c-0.074,-0.005 -0.03,0.172 0.022,0.157c0.053,-0.017 -0.145,0.263 -0.171,0.447c-0.026,0.182 -0.213,-0.009 -0.241,-0.175c-0.031,-0.167 -0.213,-0.392 -0.248,-0.334c-0.035,0.056 -0.159,-0.069 -0.215,-0.033c-0.054,0.036 -0.398,-0.2 -0.537,-0.277c-0.138,-0.072 -0.216,-0.5 -0.295,-0.537c-0.081,-0.039 -0.013,-0.089 -0.017,-0.154c-0.002,-0.064 0.27,-0.312 0.352,-0.411c0.081,-0.098 0.379,-0.485 0.497,-0.569c0.119,-0.083 0.211,-0.305 0.19,-0.346c-0.019,-0.04 0.506,-0.204 0.649,-0.254c0.141,-0.048 0.265,-0.446 0.284,-0.56c0.019,-0.114 -0.089,-0.33 -0.155,-0.359c-0.066,-0.028 0.199,-0.037 0.286,0.007c0.088,0.042 0.36,-0.081 0.467,-0.025c0.106,0.058 0.323,0.186 0.479,0.286l-0.034,0.291l-0.063,0.494c-0.414,0.172 -0.533,0.468 -0.388,0.462c0.144,-0.007 0.807,0.287 0.994,0.421c0.186,0.134 0.246,-0.194 0.301,-0.303c0.054,-0.109 0.037,-0.426 -0.007,-0.488c-0.046,-0.064 0.215,-0.041 0.289,0.03c0.073,0.069 0.159,-0.074 0.216,-0.099c0.056,-0.025 0.084,-0.297 0.115,-0.351c0.03,-0.055 -0.124,-0.11 -0.128,-0.179c-0.006,-0.068 -0.304,-0.198 -0.399,-0.243c-0.098,-0.046 -0.12,-0.251 -0.072,-0.287c0.047,-0.036 -0.033,-0.297 -0.081,-0.383c-0.047,-0.087 -0.357,-0.157 -0.462,-0.157c-0.103,0 -0.211,-0.24 -0.269,-0.275c-0.061,-0.034 -0.46,-0.079 -0.557,-0.05c-0.099,0.029 -0.28,-0.283 -0.446,-0.187c-0.167,0.095 -0.339,-0.112 -0.414,-0.152c-0.075,-0.042 -0.466,0.377 -0.462,0.671c0.004,0.295 0.152,0.579 0.213,0.587c0.062,0.008 -0.014,0.274 -0.082,0.35c-0.066,0.076 -0.231,-0.081 -0.169,-0.147c0.061,-0.066 -0.169,-0.375 -0.249,-0.5c-0.056,-0.09 -0.26,-0.17 -0.396,-0.225c-0.081,0.086 -0.159,0.176 -0.237,0.265c0.03,0.106 0.066,0.246 0.031,0.352c-0.058,0.179 -0.208,0.206 -0.217,0.129c-0.005,-0.035 -0.079,-0.061 -0.168,-0.073c-0.082,0.097 -0.161,0.198 -0.24,0.297c-0.077,0.098 -0.155,0.195 -0.231,0.295c-0.081,0.105 -0.162,0.213 -0.24,0.321c-0.072,0.097 -0.14,0.195 -0.21,0.293c-0.103,0.146 -0.203,0.294 -0.3,0.443c-0.096,0.143 -0.189,0.287 -0.278,0.433c-0.077,0.125 -0.152,0.252 -0.226,0.379c-0.05,0.088 -0.102,0.176 -0.152,0.264c-0.074,0.133 -0.148,0.267 -0.219,0.403c-0.041,0.076 -0.08,0.154 -0.119,0.231c-0.162,0.318 -0.318,0.642 -0.461,0.97l-0.012,0.027c-0.071,0.162 -0.137,0.326 -0.203,0.491c-0.025,0.062 -0.049,0.125 -0.074,0.187c-0.065,0.169 -0.129,0.338 -0.189,0.511l-0.029,0.085c-0.2,0.574 -0.37,1.16 -0.51,1.758c-0.01,0.04 -0.02,0.08 -0.028,0.12c-0.142,0.619 -0.251,1.249 -0.326,1.889l-0.002,0.014c0.086,0.1 0.185,0.218 0.211,0.302c0.049,0.157 0.324,0.261 0.376,0.294c0.052,0.032 0.069,-0.303 0.033,-0.389c-0.036,-0.087 0.066,-0.14 0.064,-0.075c-0.003,0.064 0.259,0.357 0.345,0.464c0.085,0.107 0.173,0.793 0.256,0.941c0.082,0.147 0.874,0.453 1.13,0.506c0.255,0.054 0.577,0.339 0.627,0.422c0.049,0.082 0.389,0.123 0.461,0.156c0.073,0.034 0.247,0.263 0.319,0.311c0.073,0.049 0.129,0.185 0.129,0.222c0,0.037 0.449,0.205 0.557,0.325c0.108,0.12 0.288,0.087 0.322,0.036c0.033,-0.05 0.122,0.239 0.169,0.337c0.045,0.101 0.056,0.346 0.021,0.385c-0.035,0.038 -0.1,0.488 -0.175,0.578c-0.077,0.091 -0.235,0.745 -0.202,0.873c0.035,0.131 0.245,0.397 0.337,0.438c0.089,0.039 0.051,0.178 -0.02,0.188c-0.072,0.009 -0.039,0.634 0.131,0.727c0.168,0.092 0.308,0.369 0.284,0.417Z" style="fill:#01b9cc;fill-rule:nonzero;"/><path d="M16.054,30.135l-0.002,0.002" style="fill:#01b9cc;fill-rule:nonzero;"/><path d="M14.822,22.542c0.215,-0.036 0.573,-0.096 0.598,-0.156c0.018,-0.049 0.02,-0.198 -0.019,-0.25l0.103,0.004c0.082,0 0.218,-0.448 0.305,-0.553c0.086,-0.105 0.579,-0.26 0.696,-0.33c0.117,-0.072 0.374,-0.32 0.473,-0.348c0.099,-0.029 0.243,-0.26 0.221,-0.306c-0.021,-0.046 0.333,-0.261 0.47,-0.319c0.133,-0.057 0.204,-0.216 0.153,-0.222c-0.032,-0.004 -0.785,0.389 -1.474,0.78l-0.019,0.015c-0.197,0.133 -0.391,0.273 -0.583,0.414c-0.131,0.096 -0.257,0.197 -0.385,0.297c-0.067,0.053 -0.135,0.105 -0.201,0.159c-0.151,0.123 -0.301,0.248 -0.45,0.374l-0.093,0.082c-0.163,0.144 -0.324,0.288 -0.485,0.437c0.216,-0.016 0.548,-0.054 0.69,-0.078Z" style="fill:#01b9cc;fill-rule:nonzero;"/><path d="M26.216,31.334c-0.085,-0.003 -0.088,0.255 0.002,0.283c0.063,0.019 0.144,-0.145 0.222,-0.253l0,-1.003l-0.021,-0.022c-0.106,-0.108 -0.09,-0.111 0.021,-0.027l0,-6.16c-0.094,0.085 -0.181,0.165 -0.237,0.21c-0.147,0.115 -0.405,0.617 -0.487,0.736c-0.085,0.118 -0.206,0.141 -0.255,0.144c-0.049,0.003 -0.09,0.136 -0.09,0.185c0,0.049 -0.435,0.276 -0.481,0.475c-0.046,0.197 0.044,0.649 0.044,0.81c0,0.16 0.161,0.478 0.282,0.483c0.119,0.006 0.058,0.273 0.026,0.348c-0.032,0.076 0.076,0.158 0.072,0.221c-0.002,0.064 -0.306,0.154 -0.399,0.19c-0.095,0.034 -0.244,0.246 -0.265,0.324c-0.017,0.069 -0.308,0.117 -0.403,0.21c0.024,-0.067 0.056,-0.158 0.082,-0.21c0.055,-0.106 -0.021,-0.29 -0.067,-0.327c-0.046,-0.039 -0.067,-0.563 -0.141,-0.675c-0.072,-0.113 -0.256,-0.302 -0.301,-0.339c-0.046,-0.037 0.031,-0.175 0.058,-0.234c0.026,-0.058 -0.245,-0.091 -0.319,-0.048c-0.074,0.043 -0.114,0.561 -0.145,0.703c-0.03,0.142 0.134,0.359 0.18,0.37c0.044,0.011 0.031,0.266 -0.063,0.273c-0.096,0.01 -0.182,0.383 -0.135,0.468c0.049,0.085 -0.067,0.252 -0.124,0.29c-0.055,0.039 0.366,0.017 0.559,0.012c0.19,-0.006 0.34,0.081 0.32,0.097c-0.02,0.015 -0.367,0.066 -0.43,0.149c-0.06,0.083 -0.296,0.241 -0.342,0.304c-0.046,0.063 0.078,0.203 0.177,0.196c0.099,-0.006 0.214,0.346 0.292,0.41c0.077,0.065 0.049,0.247 0.015,0.297c-0.034,0.05 -0.504,-0.034 -0.682,0.011c-0.178,0.044 -0.403,0.421 -0.419,0.563c-0.016,0.143 0.029,0.551 0.052,0.665c0.023,0.112 0.396,0.182 0.471,0.238c0.078,0.054 0.433,0.001 0.509,0.035c0.072,0.036 0.314,-0.362 0.362,-0.545c0.044,-0.185 0.426,-0.523 0.506,-0.649c0.079,-0.125 0.49,-0.11 0.59,-0.176c0.101,-0.064 0.044,0.311 0.093,0.518c0.048,0.207 0.441,0.181 0.383,-0.014c-0.057,-0.193 0.04,-0.277 0.055,-0.207c0.017,0.069 0.394,0.223 0.465,0.333c0.072,0.109 0.051,0.341 -0.032,0.338Z" style="fill:#01b9cc;fill-rule:nonzero;"/><path d="M26.44,32.553c-0.078,-0.042 -0.15,-0.078 -0.206,-0.101c-0.232,-0.098 -0.413,-0.451 -0.46,-0.496c-0.048,-0.047 0.04,-0.161 0.017,-0.232c-0.021,-0.069 -0.551,-0.084 -0.704,-0.027c-0.155,0.057 -0.947,0.141 -1.135,0.224c-0.188,0.083 -0.47,-0.006 -0.558,-0.022c-0.089,-0.015 -0.299,0.244 -0.405,0.291c-0.108,0.047 -0.241,0.413 -0.3,0.817l-0.144,0.28l-0.094,0.179c-0.262,0.2 -0.551,0.865 -0.637,0.998c-0.084,0.134 -0.152,1.091 -0.152,1.413c0,0.322 0.279,1.004 0.36,1.192c0.079,0.187 0.565,0.605 0.726,0.704c0.163,0.097 0.691,0.111 0.865,0.111c0.171,-0.001 0.369,-0.165 0.436,-0.366l0.253,0.026l0.116,0.011c0.006,0.143 0.38,0.256 0.472,0.306c0.092,0.05 0.339,0.011 0.411,-0.009c0.074,-0.022 0.156,0.64 0.103,0.831c-0.053,0.191 0.131,0.861 0.183,1.063c0.055,0.201 0.285,0.754 0.308,0.952c0.022,0.199 -0.134,0.856 -0.161,1.087c-0.026,0.232 0.288,0.877 0.371,1.098c0.081,0.222 0.148,0.7 0.148,0.811c0,0.056 0.09,0.256 0.187,0.475l0,-11.616Z" style="fill:#01b9cc;fill-rule:nonzero;"/><path d="M17.225,48.357c0.082,0 0.164,0 0.249,0c0.044,-0.268 -0.261,-0.223 -0.249,0Z" style="fill:#01b9cc;fill-rule:nonzero;"/><path d="M22.213,23.736c0.127,0.05 0.367,-0.124 0.276,-0.192c-0.093,-0.066 -0.045,-0.065 0,-0.036c0.044,0.028 0.091,-0.223 0.043,-0.27c-0.048,-0.047 0.37,-0.352 0.296,-0.641c-0.073,-0.288 0.114,-0.585 0.227,-0.588c0.113,-0.003 0.08,-0.326 -0.056,-0.356c-0.134,-0.029 -0.008,-0.059 0.043,-0.106c0.05,-0.045 0.114,-0.333 0.085,-0.387c-0.03,-0.057 0.206,-0.119 0.246,-0.185c0.042,-0.065 0.312,-0.194 0.408,-0.216c0.094,-0.021 0.146,-0.275 0.044,-0.263c-0.104,0.014 -0.373,-0.041 -0.419,-0.091c-0.047,-0.048 -0.448,-0.092 -0.564,-0.043c-0.117,0.049 -0.037,-0.283 0.124,-0.32c0.161,-0.035 0.025,-0.264 -0.147,-0.265c-0.172,-0.001 -0.597,-0.063 -0.697,-0.041c-0.1,0.022 -0.295,-0.069 -0.366,-0.08c-0.071,-0.01 -0.581,0.153 -0.823,0.141c-0.241,-0.011 -0.833,0.013 -0.961,0.049c-0.129,0.034 -0.223,0.285 -0.204,0.374c0.019,0.09 -0.573,0.088 -0.759,0.09c-0.187,0.003 -1.18,0.214 -1.438,0.357c-0.261,0.142 -0.463,0.507 -0.376,0.514c0.085,0.007 -0.145,0.213 -0.283,0.262c-0.14,0.048 -0.472,0.069 -0.55,0.148c-0.079,0.077 0.082,0.131 0.113,0.184c0.032,0.052 0.125,-0.046 0.213,0.005c0.085,0.049 0.376,0.072 0.452,0.101c0.078,0.031 -0.245,0.093 -0.396,0.103c-0.153,0.011 -0.118,0.31 0.005,0.35c0.124,0.042 0.442,0.086 0.475,0.034c0.033,-0.053 0.378,0.056 0.534,0.074c0.155,0.017 0.273,0.407 0.321,0.492c0.049,0.084 0.058,0.381 0.047,0.467c-0.011,0.086 0.275,0.243 0.327,0.188c0.05,-0.055 0.036,0.134 -0.079,0.124c-0.115,-0.009 -0.039,0.32 0.101,0.368c0.142,0.047 0.045,0.25 -0.036,0.312c-0.082,0.061 -0.037,0.256 -0.121,0.326c-0.082,0.068 0.296,0.725 0.294,1.063c-0.002,0.338 0.208,0.613 0.289,0.613c0.081,0 0.358,0.068 0.394,0.14c0.036,0.072 0.171,-0.05 0.224,-0.105c0.052,-0.055 0.166,-0.218 0.25,-0.361c0.086,-0.143 0.277,-0.82 0.302,-0.893c0.026,-0.073 0.343,-0.027 0.417,-0.064c0.071,-0.038 0.28,-0.201 0.338,-0.251c0.06,-0.048 0.513,-0.239 0.638,-0.33c0.123,-0.088 0.329,-0.472 0.425,-0.554c0.097,-0.082 -0.049,-0.059 -0.17,-0.138c-0.12,-0.079 -0.067,-0.176 -0.031,-0.213c0.034,-0.037 0.399,0.061 0.525,0.11Z" style="fill:#01b9cc;fill-rule:nonzero;"/><path d="M26.17,20.732c-0.129,-0.044 -0.388,0.098 -0.356,0.179c0.033,0.081 -0.211,-0.104 -0.383,-0.016c-0.171,0.09 -0.218,0.39 -0.14,0.429c0.08,0.04 0.136,0.278 0.138,0.324c0.002,0.047 0.333,0.014 0.418,-0.055c0.085,-0.071 0.072,0.241 -0.011,0.325c-0.083,0.084 0.031,0.253 0.123,0.267c0.091,0.013 0.216,0.23 0.31,0.228c0.048,-0.002 0.113,-0.095 0.171,-0.203l0,-1.102l-0.002,-0.001c-0.074,-0.01 -0.141,-0.332 -0.268,-0.375Z" style="fill:#01b9cc;fill-rule:nonzero;"/><path d="M23.053,28.252c0.099,-0.016 0.177,-0.097 0.173,-0.18c-0.005,-0.081 -0.146,-0.456 -0.203,-0.456c-0.056,0 -0.163,0.274 -0.23,0.247c-0.068,-0.028 -0.105,0.224 -0.09,0.319c0.016,0.096 0.251,0.088 0.35,0.07Z" style="fill:#01b9cc;fill-rule:nonzero;"/><path d="M22.694,25.473c0.035,0.1 0.161,0.164 0.281,0.145c0.12,-0.02 0.361,-0.144 0.446,-0.152c0.084,-0.009 0.176,-0.432 0.124,-0.525c-0.052,-0.092 -0.451,-0.081 -0.548,-0.087c-0.097,-0.005 -0.395,-0.104 -0.452,-0.168c-0.055,-0.063 -0.099,0.245 -0.189,0.285c-0.092,0.04 0.044,0.099 0.082,0.066c0.036,-0.033 -0.003,0.159 -0.044,0.224c-0.04,0.067 0.265,0.113 0.3,0.212Z" style="fill:#01b9cc;fill-rule:nonzero;"/><path d="M13.815,25.482c-0.062,0.057 -0.008,0.349 0.11,0.357c0.119,0.009 0.31,-0.439 0.456,-0.35c0.145,0.091 0.245,0.126 0.22,0.078c-0.024,-0.047 -0.44,-0.229 -0.491,-0.262c-0.05,-0.031 -0.232,0.12 -0.295,0.177Z" style="fill:#01b9cc;fill-rule:nonzero;"/><path d="M15.337,35.36c0,0.049 0.259,0.043 0.301,-0.037c0.042,-0.079 0.02,-0.144 -0.05,-0.144c-0.069,0 -0.251,0.132 -0.251,0.181Z" style="fill:#01b9cc;fill-rule:nonzero;"/><path d="M14.182,34.935c0.124,-0.024 0.065,0.176 0.095,0.248c0.03,0.073 0.328,0.13 0.387,0.179c0.061,0.048 0.214,-0.091 0.332,-0.076c0.119,0.015 -0.039,-0.412 -0.238,-0.4c-0.199,0.013 -0.358,-0.18 -0.404,-0.204c-0.049,-0.021 -0.28,-0.162 -0.346,-0.215c-0.065,-0.053 -0.574,-0.098 -0.747,-0.098c-0.173,0 -0.363,0.175 -0.389,0.233c-0.027,0.059 0.273,0.097 0.359,0.052c0.086,-0.046 0.489,0.05 0.571,0.147c0.083,0.097 0.254,0.157 0.38,0.134Z" style="fill:#01b9cc;fill-rule:nonzero;"/><path d="M13.639,35.36c0,0.049 0.262,0.019 0.325,0.021c0.063,0.001 0.061,-0.042 -0.005,-0.095c-0.066,-0.053 -0.32,0.025 -0.32,0.074Z" style="fill:#01b9cc;fill-rule:nonzero;"/><path d="M13.824,34.013c-0.068,-0.027 -0.123,0.08 -0.123,0.131c0,0.05 0.037,0.091 0.084,0.091c0.046,0 0.107,-0.195 0.039,-0.222Z" style="fill:#01b9cc;fill-rule:nonzero;"/><path d="M14.373,34.055c-0.023,-0.051 -0.135,-0.092 -0.168,-0.092c-0.035,0 -0.058,0.087 -0.052,0.193c0.005,0.105 0.243,-0.052 0.22,-0.101Z" style="fill:#01b9cc;fill-rule:nonzero;"/><path d="M14.769,34.664c0.105,-0.052 0.118,-0.179 0.055,-0.171c-0.063,0.006 -0.179,-0.183 -0.247,-0.209c-0.068,-0.028 -0.124,0.113 -0.124,0.174c0,0.062 0.039,0.104 0.085,0.091c0.047,-0.011 0.123,0.164 0.231,0.115Z" style="fill:#01b9cc;fill-rule:nonzero;"/><path d="M15.42,22.176l-0.06,0.07c0.016,0.022 0.09,-0.032 0.06,-0.07Z" style="fill:#01b9cc;fill-rule:nonzero;"/><path d="M17.415,28.12c-0.015,-0.022 -0.091,0.035 -0.063,0.07l0.063,-0.07Z" style="fill:#01b9cc;fill-rule:nonzero;"/><path d="M27.399,10.615l-0.34,2.057l-2.056,0.338l2.056,0.338l0.34,2.057l0.337,-2.057l2.056,-0.338l-2.056,-0.338l-0.337,-2.057Z" style="fill:#dce4e7;fill-rule:nonzero;"/><path d="M8.201,18.31l-0.338,2.057l-2.057,0.339l2.057,0.337l0.338,2.057l0.338,-2.057l2.056,-0.337l-2.056,-0.339l-0.338,-2.057Z" style="fill:#dce4e7;fill-rule:nonzero;"/><path d="M33.993,8.887l-0.176,1.068l-1.067,0.176l1.067,0.175l0.176,1.07l0.176,-1.07l1.068,-0.175l-1.068,-0.176l-0.176,-1.068Z" style="fill:#ced6d8;fill-rule:nonzero;"/><path d="M2.337,40.887l-0.338,2.057l-2.057,0.339l2.057,0.337l0.338,2.057l0.337,-2.057l2.057,-0.337l-2.057,-0.339l-0.337,-2.057Z" style="fill:#ced6d8;fill-rule:nonzero;"/><path d="M10.002,48.584l-0.175,1.069l-1.068,0.176l1.068,0.176l0.175,1.068l0.176,-1.068l1.069,-0.176l-1.069,-0.176l-0.176,-1.069Z" style="fill:#dce4e7;fill-rule:nonzero;"/><path d="M48.129,40.791l-0.34,2.057l-2.058,0.339l2.058,0.337l0.34,2.057l0.336,-2.057l2.057,-0.337l-2.057,-0.339l-0.336,-2.057Z" style="fill:#a7dbe9;fill-rule:nonzero;"/><path d="M4.627,29.067l-0.177,1.068l-1.067,0.175l1.067,0.177l0.177,1.069l0.175,-1.069l1.068,-0.177l-1.068,-0.175l-0.175,-1.068Z" style="fill:#dce4e7;fill-rule:nonzero;"/><path d="M42.503,56.929c0.03,0.294 0.267,0.529 0.567,0.529l11.592,0c0.301,0 0.538,-0.235 0.569,-0.529l-12.728,0Z" style="fill:#d1d3d4;fill-rule:nonzero;"/><path d="M32.282,56.825l34.036,0l0,-21.08c0,-0.476 -0.385,-0.869 -0.866,-0.869l-33.17,0c-0.482,0 -0.869,0.393 -0.869,0.869l0,21.08l0.869,0Z" style="fill:#474f59;fill-rule:nonzero;"/><path d="M31.488,56.75l34.755,0l0,-21.005c0,-0.438 -0.355,-0.793 -0.791,-0.793l-33.17,0c-0.438,0 -0.794,0.355 -0.794,0.793l0,21.005ZM66.318,56.9l-34.905,0c-0.042,0 -0.075,-0.034 -0.075,-0.075l0,-21.08c0,-0.52 0.423,-0.944 0.944,-0.944l33.17,0c0.519,0 0.941,0.424 0.941,0.944l0,21.08c0,0.041 -0.034,0.075 -0.075,0.075Z" style="fill:#bcbec0;fill-rule:nonzero;"/><rect x="33.577" y="36.965" width="30.58" height="17.722" style="fill:#2f363d;fill-rule:nonzero;"/><path d="M69.537,56.929l-14.306,0c-0.031,0.294 -0.268,0.529 -0.569,0.529l-11.592,0c-0.3,0 -0.537,-0.235 -0.567,-0.529l-14.308,0c-0.005,0.07 -0.022,0.136 -0.022,0.209l0,0.629c0,1.039 0.841,1.1 1.884,1.1l37.619,0c1.036,0 1.885,-0.061 1.885,-1.1l0,-0.629c0,-0.073 -0.017,-0.139 -0.024,-0.209Z" style="fill:#e7e8e9;fill-rule:nonzero;"/><path d="M28.262,57.004l-0.003,0.021c-0.005,0.037 -0.011,0.074 -0.011,0.113l0,0.629c0,0.951 0.75,1.025 1.809,1.025l37.619,0c1.06,0 1.81,-0.074 1.81,-1.025l0,-0.629c0,-0.042 -0.007,-0.081 -0.013,-0.121l-0.002,-0.013l-14.176,0c-0.062,0.306 -0.324,0.529 -0.633,0.529l-11.592,0c-0.309,0 -0.57,-0.223 -0.632,-0.529l-14.176,0ZM67.676,58.942l-37.619,0c-0.918,0 -1.959,0 -1.959,-1.175l0,-0.629c0,-0.046 0.006,-0.09 0.013,-0.134l0.009,-0.081c0.003,-0.039 0.036,-0.07 0.075,-0.07l14.308,0c0.038,0 0.07,0.03 0.074,0.068c0.028,0.263 0.239,0.461 0.493,0.461l11.592,0c0.254,0 0.467,-0.198 0.494,-0.461c0.004,-0.039 0.037,-0.068 0.075,-0.068l14.306,0c0.039,0 0.071,0.03 0.075,0.069l0.01,0.073c0.007,0.046 0.014,0.093 0.014,0.143l0,0.629c0,1.175 -1.086,1.175 -1.96,1.175Z" style="fill:#bcbec0;fill-rule:nonzero;"/><rect x="35.171" y="38.277" width="7.458" height="0.375" style="fill:#01b9cc;fill-rule:nonzero;"/><rect x="57.017" y="38.21" width="4.977" height="0.374" style="fill:#feca00;fill-rule:nonzero;"/><rect x="52.429" y="38.21" width="3.625" height="0.375" style="fill:#feca00;fill-rule:nonzero;"/><rect x="48.867" y="38.21" width="2.427" height="0.375" style="fill:#feca00;fill-rule:nonzero;"/><path d="M10.406,56.623c-2.139,0 -3.809,-0.585 -4.805,-1.821c-2.098,-2.606 -0.801,-7.676 3.469,-13.563c0.057,-0.078 0.167,-0.094 0.245,-0.039c0.078,0.057 0.095,0.167 0.039,0.245c-4.172,5.751 -5.473,10.662 -3.48,13.137c3.417,4.244 15.278,0.386 26.44,-8.602c8.992,-7.241 14.615,-14.694 17.749,-19.671c0.052,-0.082 0.159,-0.106 0.241,-0.055c0.082,0.052 0.107,0.16 0.055,0.242c-3.148,5 -8.796,12.486 -17.826,19.757c-8.13,6.547 -16.659,10.37 -22.127,10.37Z" style="fill:#f2f2f2;fill-rule:nonzero;"/><path d="M10.479,54.491c-1.577,0 -2.816,-0.423 -3.597,-1.318c-1.68,-1.926 -0.855,-5.927 2.265,-10.975c0.047,-0.076 0.145,-0.098 0.22,-0.052c0.074,0.047 0.098,0.145 0.052,0.22c-2.997,4.848 -3.855,8.81 -2.296,10.597c3.12,3.575 14.04,-0.826 24.341,-9.814c8.1,-7.067 13.245,-14.082 16.134,-18.723c0.047,-0.074 0.146,-0.097 0.22,-0.051c0.075,0.047 0.098,0.145 0.052,0.22c-2.902,4.659 -8.067,11.701 -16.196,18.795c-7.918,6.908 -16.231,11.101 -21.195,11.101Z" style="fill:#f2f2f2;fill-rule:nonzero;"/><path d="M49.801,24.269c1.89,1.344 2.667,3.667 2.135,5.787c0.554,-0.362 1.051,-0.83 1.457,-1.402c1.751,-2.462 1.174,-5.875 -1.287,-7.626c-2.462,-1.75 -5.876,-1.173 -7.626,1.288c-0.406,0.572 -0.686,1.195 -0.846,1.838c1.828,-1.199 4.278,-1.228 6.167,0.115Z" style="fill:#596274;fill-rule:nonzero;"/><path d="M53.139,21.985l-2.307,3.243c1.122,1.347 1.525,3.15 1.104,4.828c0.554,-0.362 1.051,-0.83 1.457,-1.402c1.471,-2.068 1.298,-4.808 -0.254,-6.669Z" style="fill:#474f59;fill-rule:nonzero;"/><path d="M49.389,24.849c0.548,0.389 1.016,0.85 1.399,1.361c1.797,-0.967 3.608,-2.574 5.102,-4.675c2.372,-3.336 3.307,-7.021 2.681,-9.599c-2.641,0.255 -5.815,2.348 -8.187,5.684c-1.494,2.101 -2.417,4.339 -2.74,6.354c0.608,0.195 1.197,0.485 1.745,0.875Z" style="fill:#feca00;fill-rule:nonzero;"/><path d="M58.571,11.936l-0.025,0.002l-9.172,12.9l0.015,0.011c0.548,0.389 1.016,0.85 1.399,1.361c1.797,-0.967 3.608,-2.574 5.102,-4.675c2.372,-3.336 3.307,-7.021 2.681,-9.599Z" style="fill:#fbb300;fill-rule:nonzero;"/><path d="M56.326,15.094c0.691,0.492 1.352,0.999 1.982,1.513c0.491,-1.718 0.586,-3.343 0.263,-4.671c-1.361,0.131 -2.865,0.755 -4.326,1.781c0.692,0.427 1.388,0.885 2.081,1.377Z" style="fill:#596274;fill-rule:nonzero;"/><path d="M58.546,11.938l-2.237,3.145l0.017,0.011c0.691,0.492 1.352,0.999 1.982,1.513c0.491,-1.718 0.586,-3.343 0.263,-4.671l-0.025,0.002Z" style="fill:#474f59;fill-rule:nonzero;"/><path d="M52.298,20.758c-0.77,0.341 -1.864,1.371 -2.851,2.759c-0.987,1.388 -1.601,2.76 -1.67,3.599c0.77,-0.341 1.864,-1.371 2.851,-2.759c0.988,-1.388 1.601,-2.759 1.67,-3.599Z" style="fill:#596274;fill-rule:nonzero;"/><path d="M52.262,20.776l-4.48,6.3l-0.005,0.04c0.77,-0.341 1.864,-1.371 2.851,-2.759c0.988,-1.388 1.601,-2.759 1.67,-3.599l-0.036,0.018Z" style="fill:#474f59;fill-rule:nonzero;"/><path d="M53.137,19.578c-0.853,-0.607 -1.054,-1.794 -0.447,-2.647c0.607,-0.853 1.793,-1.054 2.647,-0.447c0.853,0.607 1.054,1.794 0.448,2.647c-0.608,0.853 -1.795,1.054 -2.648,0.447Z" style="fill:#596274;fill-rule:nonzero;"/><path d="M55.001,16.956c-0.593,-0.421 -1.418,-0.282 -1.84,0.311c-0.422,0.593 -0.281,1.417 0.312,1.839c0.592,0.421 1.417,0.283 1.839,-0.311c0.421,-0.593 0.282,-1.418 -0.311,-1.839Z" style="fill:#fff;fill-rule:nonzero;"/><path d="M55.337,16.484l-0.016,-0.011l-0.336,0.472l0.016,0.011c0.593,0.421 0.732,1.246 0.311,1.839c-0.422,0.594 -1.247,0.732 -1.839,0.311l-0.016,-0.012l-0.335,0.472l0.015,0.012c0.853,0.607 2.04,0.406 2.648,-0.447c0.606,-0.853 0.405,-2.04 -0.448,-2.647Z" style="fill:#474f59;fill-rule:nonzero;"/><path d="M55.312,18.795c0.421,-0.593 0.282,-1.418 -0.311,-1.839l-0.016,-0.011l-1.528,2.149l0.016,0.012c0.592,0.421 1.417,0.283 1.839,-0.311Z" style="fill:#d1ecfb;fill-rule:nonzero;"/><g><rect x="53.566" y="43.009" width="6.587" height="6.587" style="fill:#feca00;fill-rule:nonzero;"/><rect x="53.566" y="43.009" width="6.587" height="6.587" style="fill:#feca00;fill-rule:nonzero;"/><path d="M60.371,42.805l-6.805,0l0,6.805l6.805,0l0,-6.805ZM60.152,43.023l0,6.369l-6.368,0l0,-6.369l6.368,0Z" style="fill:#ffb41e;fill-rule:nonzero;"/><path d="M53.784,49.501c-0.028,0 -0.056,-0.011 -0.077,-0.032c-0.043,-0.043 -0.043,-0.112 0,-0.154l6.368,-6.368c0.043,-0.043 0.112,-0.043 0.154,0c0.043,0.042 0.043,0.111 0,0.154l-6.368,6.368c-0.021,0.021 -0.049,0.032 -0.077,0.032Z" style="fill:#ffb41e;fill-rule:nonzero;"/><path d="M53.784,49.501c-0.028,0 -0.056,-0.011 -0.077,-0.032c-0.043,-0.043 -0.043,-0.112 0,-0.154l6.368,-6.368c0.043,-0.043 0.112,-0.043 0.154,0c0.043,0.042 0.043,0.111 0,0.154l-6.368,6.368c-0.021,0.021 -0.049,0.032 -0.077,0.032Z" style="fill:#ffb41e;fill-rule:nonzero;"/><path d="M60.152,49.501c-0.028,0 -0.055,-0.011 -0.077,-0.032l-6.368,-6.368c-0.043,-0.043 -0.043,-0.112 0,-0.154c0.042,-0.043 0.111,-0.043 0.154,0l6.368,6.368c0.043,0.042 0.043,0.111 0,0.154c-0.021,0.021 -0.049,0.032 -0.077,0.032Z" style="fill:#ffb41e;fill-rule:nonzero;"/><path d="M60.152,49.501c-0.028,0 -0.055,-0.011 -0.077,-0.032l-6.368,-6.368c-0.043,-0.043 -0.043,-0.112 0,-0.154c0.042,-0.043 0.111,-0.043 0.154,0l6.368,6.368c0.043,0.042 0.043,0.111 0,0.154c-0.021,0.021 -0.049,0.032 -0.077,0.032Z" style="fill:#ffb41e;fill-rule:nonzero;"/></g><g><rect x="45.506" y="43.009" width="6.587" height="6.587" style="fill:#feca00;fill-rule:nonzero;"/><rect x="45.506" y="43.009" width="6.587" height="6.587" style="fill:#feca00;fill-rule:nonzero;"/><path d="M52.311,42.805l-6.805,0l0,6.805l6.805,0l0,-6.805ZM52.093,43.023l0,6.369l-6.369,0l0,-6.369l6.369,0Z" style="fill:#ffb41e;fill-rule:nonzero;"/><path d="M45.724,49.501c-0.027,0 -0.055,-0.011 -0.077,-0.032c-0.042,-0.043 -0.042,-0.112 0,-0.154l6.369,-6.368c0.042,-0.043 0.111,-0.043 0.154,0c0.043,0.042 0.043,0.111 0,0.154l-6.368,6.368c-0.022,0.021 -0.05,0.032 -0.078,0.032Z" style="fill:#ffb41e;fill-rule:nonzero;"/><path d="M45.724,49.501c-0.027,0 -0.055,-0.011 -0.077,-0.032c-0.042,-0.043 -0.042,-0.112 0,-0.154l6.369,-6.368c0.042,-0.043 0.111,-0.043 0.154,0c0.043,0.042 0.043,0.111 0,0.154l-6.368,6.368c-0.022,0.021 -0.05,0.032 -0.078,0.032Z" style="fill:#ffb41e;fill-rule:nonzero;"/><path d="M52.093,49.501c-0.028,0 -0.056,-0.011 -0.077,-0.032l-6.369,-6.368c-0.042,-0.043 -0.042,-0.112 0,-0.154c0.043,-0.043 0.112,-0.043 0.155,0l6.368,6.368c0.043,0.042 0.043,0.111 0,0.154c-0.021,0.021 -0.049,0.032 -0.077,0.032Z" style="fill:#ffb41e;fill-rule:nonzero;"/><path d="M52.093,49.501c-0.028,0 -0.056,-0.011 -0.077,-0.032l-6.369,-6.368c-0.042,-0.043 -0.042,-0.112 0,-0.154c0.043,-0.043 0.112,-0.043 0.155,0l6.368,6.368c0.043,0.042 0.043,0.111 0,0.154c-0.021,0.021 -0.049,0.032 -0.077,0.032Z" style="fill:#ffb41e;fill-rule:nonzero;"/></g><g><rect x="37.539" y="43.009" width="6.587" height="6.587" style="fill:#feca00;fill-rule:nonzero;"/><rect x="37.539" y="43.009" width="6.587" height="6.587" style="fill:#feca00;fill-rule:nonzero;"/><path d="M44.344,42.805l-6.805,0l0,6.805l6.805,0l0,-6.805ZM44.126,43.023l0,6.369l-6.369,0l0,-6.369l6.369,0Z" style="fill:#ffb41e;fill-rule:nonzero;"/><path d="M37.757,49.501c-0.027,0 -0.055,-0.011 -0.077,-0.032c-0.042,-0.043 -0.042,-0.112 0,-0.154l6.369,-6.368c0.043,-0.043 0.111,-0.043 0.154,0c0.043,0.042 0.043,0.111 0,0.154l-6.368,6.368c-0.022,0.021 -0.05,0.032 -0.078,0.032Z" style="fill:#ffb41e;fill-rule:nonzero;"/><path d="M37.757,49.501c-0.027,0 -0.055,-0.011 -0.077,-0.032c-0.042,-0.043 -0.042,-0.112 0,-0.154l6.369,-6.368c0.043,-0.043 0.111,-0.043 0.154,0c0.043,0.042 0.043,0.111 0,0.154l-6.368,6.368c-0.022,0.021 -0.05,0.032 -0.078,0.032Z" style="fill:#ffb41e;fill-rule:nonzero;"/><path d="M44.126,49.501c-0.028,0 -0.056,-0.011 -0.077,-0.032l-6.369,-6.368c-0.042,-0.043 -0.042,-0.112 0,-0.154c0.043,-0.043 0.112,-0.043 0.155,0l6.368,6.368c0.043,0.042 0.043,0.111 0,0.154c-0.021,0.021 -0.049,0.032 -0.077,0.032Z" style="fill:#ffb41e;fill-rule:nonzero;"/><path d="M44.126,49.501c-0.028,0 -0.056,-0.011 -0.077,-0.032l-6.369,-6.368c-0.042,-0.043 -0.042,-0.112 0,-0.154c0.043,-0.043 0.112,-0.043 0.155,0l6.368,6.368c0.043,0.042 0.043,0.111 0,0.154c-0.021,0.021 -0.049,0.032 -0.077,0.032Z" style="fill:#ffb41e;fill-rule:nonzero;"/></g><rect x="37.473" y="51.092" width="6.666" height="0.243" style="fill:#01b9cc;fill-rule:nonzero;"/><rect x="37.473" y="51.723" width="6.066" height="0.243" style="fill:#01b9cc;fill-rule:nonzero;"/><rect x="37.473" y="52.353" width="6.666" height="0.243" style="fill:#01b9cc;fill-rule:nonzero;"/><rect x="37.473" y="52.984" width="5.32" height="0.243" style="fill:#01b9cc;fill-rule:nonzero;"/><rect x="37.473" y="50.492" width="3.6" height="0.243" style="fill:#01b9cc;fill-rule:nonzero;"/><rect x="45.492" y="51.092" width="6.666" height="0.243" style="fill:#01b9cc;fill-rule:nonzero;"/><rect x="53.456" y="51.092" width="6.666" height="0.243" style="fill:#01b9cc;fill-rule:nonzero;"/><rect x="45.492" y="51.723" width="6.066" height="0.243" style="fill:#01b9cc;fill-rule:nonzero;"/><rect x="53.456" y="51.723" width="6.066" height="0.243" style="fill:#01b9cc;fill-rule:nonzero;"/><rect x="45.492" y="52.353" width="6.666" height="0.243" style="fill:#01b9cc;fill-rule:nonzero;"/><rect x="53.456" y="52.353" width="6.666" height="0.243" style="fill:#01b9cc;fill-rule:nonzero;"/><rect x="45.492" y="52.984" width="5.32" height="0.243" style="fill:#01b9cc;fill-rule:nonzero;"/><rect x="53.456" y="52.984" width="5.32" height="0.243" style="fill:#01b9cc;fill-rule:nonzero;"/><rect x="45.492" y="50.492" width="3.6" height="0.243" style="fill:#01b9cc;fill-rule:nonzero;"/><rect x="53.456" y="50.492" width="3.6" height="0.243" style="fill:#01b9cc;fill-rule:nonzero;"/><g><path d="M61.705,39.144l-0.972,-0.316l-0.973,-0.316l0.316,0.973l0.316,0.972l0.342,-0.665l0.519,0.519l0.307,-0.306l-0.52,-0.519l0.665,-0.342Z" style="fill:#ced6d8;fill-rule:nonzero;"/><path d="M60.733,38.828l-0.973,-0.316l0.011,0.032l1.625,1.625l0.164,-0.164l-0.52,-0.519l0.665,-0.342l-0.972,-0.316Z" style="fill:#dce4e7;fill-rule:nonzero;"/></g></g></svg>