<?xml version="1.0" encoding="UTF-8" standalone="no"?><!DOCTYPE svg PUBLIC "-//W3C//DTD SVG 1.1//EN" "http://www.w3.org/Graphics/SVG/1.1/DTD/svg11.dtd"><svg width="100%" height="100%" viewBox="0 0 73 73" version="1.1" xmlns="http://www.w3.org/2000/svg" xmlns:xlink="http://www.w3.org/1999/xlink" xml:space="preserve" style="fill-rule:evenodd;clip-rule:evenodd;stroke-linejoin:round;stroke-miterlimit:1.41421;"><path d="M26.347,42.791c9.358,0 16.973,-7.613 16.973,-16.973c0,-9.358 -7.615,-16.975 -16.973,-16.975" style="fill:#dce4e7;fill-rule:nonzero;"/><path d="M26.32,8.815c-9.361,0 -16.977,7.616 -16.977,16.974c0,9.361 7.616,16.973 16.977,16.973" style="fill:#f2f2f2;fill-rule:nonzero;"/><path d="M42.557,30.403c-0.224,0.006 -0.514,0.111 -0.518,0.187c-0.004,0.077 -0.313,0.215 -0.415,0.256c-0.101,0.041 -0.3,0.357 -0.343,0.46c-0.042,0.104 -0.294,0.073 -0.389,0.115c-0.091,0.041 -0.282,0.195 -0.284,0.288c0,0.092 -0.053,0.083 -0.115,-0.023l-0.123,0.129l-0.145,0.161c-0.083,0.26 -0.359,0.589 -0.454,0.618c-0.095,0.026 -0.111,0.484 -0.111,0.668c0,0.186 0.072,0.413 0.16,0.506l0.018,0.148l0.033,0.29c-0.051,0.225 0.119,0.427 0.17,0.467c0.049,0.038 0.469,-0.075 0.629,-0.114c0.067,-0.015 0.151,-0.052 0.229,-0.093c0.751,-1.256 1.34,-2.617 1.749,-4.053l-0.091,-0.01Z" style="fill:#5f9ca4;fill-rule:nonzero;"/><path d="M14.53,30.838c-0.023,0.047 0.28,0.358 0.398,0.463c0.117,0.107 0.367,0.617 0.417,0.784c0.051,0.167 0.021,0.439 0.005,0.505c-0.016,0.063 0.057,0.206 0.069,0.264c0.011,0.059 -0.105,0.558 -0.06,0.759c0.043,0.201 -0.235,0.828 -0.229,1.138c0.006,0.312 0.147,0.718 0.204,0.688c0.056,-0.031 0.077,0.283 -0.019,0.32c-0.095,0.038 -0.205,0.285 -0.152,0.298c0.053,0.012 -0.003,0.258 0.012,0.355c0.012,0.099 0.096,0.745 0.114,0.906c0.018,0.161 0.248,0.552 0.297,0.686c0.048,0.134 0.097,0.386 0.116,0.424l0.045,0.08c0.002,0.001 0.189,0.07 0.241,0.11c0.057,0.041 0.419,0.015 0.538,-0.009c0.118,-0.025 0.009,-0.134 -0.044,-0.191c-0.054,-0.06 -0.101,-0.347 -0.163,-0.376c-0.06,-0.028 -0.087,-0.394 -0.034,-0.474c0.055,-0.082 0.271,-0.21 0.296,-0.279c0.023,-0.068 0.03,-0.386 -0.028,-0.43c-0.059,-0.043 0.018,-0.429 -0.027,-0.621c-0.044,-0.191 0.333,-0.366 0.355,-0.518c0.021,-0.153 0.43,-0.316 0.523,-0.392c0.092,-0.076 0.172,-0.512 0.129,-0.607c-0.045,-0.092 0.15,-0.168 0.238,-0.168c0.085,0 0.184,-0.062 0.217,-0.062c0.033,-0.002 0.137,-0.194 0.193,-0.239c0.055,-0.044 0.171,-0.504 0.271,-0.58c0.104,-0.076 0.186,-0.354 0.186,-0.435c0,-0.081 0.155,-0.324 0.206,-0.397c0.051,-0.073 0.432,-0.248 0.501,-0.275c0.066,-0.028 0.17,-0.639 0.198,-0.86c0.025,-0.22 0.139,-0.514 0.148,-0.586c0.007,-0.072 0.13,-0.134 0.151,-0.157c0.025,-0.024 0.115,-0.303 0.174,-0.368c0.058,-0.064 0.269,-0.331 0.275,-0.391c0.003,-0.059 0.035,-0.212 0.07,-0.34l-0.001,-0.15l0.002,-0.238c-0.067,-0.185 -0.271,-0.415 -0.323,-0.364c-0.052,0.05 -0.288,-0.163 -0.409,-0.209c-0.12,-0.044 -0.42,-0.082 -0.496,-0.082c-0.076,0 -0.338,-0.215 -0.456,-0.251c-0.117,-0.037 -0.417,-0.095 -0.473,-0.13c-0.054,-0.035 -0.127,-0.481 -0.369,-0.627c-0.241,-0.146 -0.665,-0.486 -0.712,-0.611c-0.046,-0.125 -0.511,-0.388 -0.654,-0.466c-0.143,-0.079 -0.36,-0.097 -0.386,-0.069c-0.029,0.027 -0.208,-0.241 -0.3,-0.319c-0.092,-0.075 -0.37,-0.138 -0.382,-0.071c-0.013,0.07 -0.197,0.033 -0.242,-0.025c-0.042,-0.058 -0.186,0.023 -0.253,0.046c-0.067,0.021 -0.298,0.373 -0.402,0.459c-0.108,0.083 -0.234,-0.079 -0.304,-0.11c-0.07,-0.029 -0.336,0.053 -0.409,0.105c-0.071,0.051 -0.24,-0.373 -0.201,-0.569c0.038,-0.196 -0.176,-0.584 -0.341,-0.594c-0.164,-0.01 -0.217,-0.418 -0.184,-0.569c0.033,-0.15 -0.298,-0.245 -0.38,-0.254c-0.084,-0.012 -0.291,0.2 -0.325,0.302c-0.037,0.102 -0.787,-0.138 -0.698,-0.589c0.087,-0.45 0.444,-0.915 0.532,-0.972c0.089,-0.053 0.572,-0.082 0.677,-0.021c0.108,0.063 0.205,0 0.222,-0.028c0.018,-0.027 0.412,0.005 0.53,0.053c0.118,0.047 0.286,0.503 0.407,0.559c0.123,0.056 0.168,-0.295 0.187,-0.38c0.02,-0.085 -0.06,-0.301 -0.089,-0.362c-0.029,-0.061 0.196,-0.612 0.381,-0.706c0.183,-0.095 0.377,-0.401 0.362,-0.455c-0.016,-0.054 0.147,-0.097 0.191,-0.12c0.044,-0.022 -0.008,-0.468 0.066,-0.566c0.073,-0.096 0.417,-0.3 0.527,-0.346c0.109,-0.046 0.191,-0.328 0.153,-0.378c-0.041,-0.048 0.282,-0.323 0.45,-0.377c0.167,-0.051 0.312,0.096 0.27,0.119c0.033,-0.017 0.264,-0.138 0.363,-0.202c0.113,-0.077 0.001,-0.285 -0.073,-0.346c-0.073,-0.061 -0.029,-0.304 0.059,-0.325c0.09,-0.022 0.167,-0.231 0.144,-0.277c-0.024,-0.045 0.369,0.037 0.518,-0.074c0.146,-0.111 0.043,0.265 -0.068,0.418c-0.107,0.151 0.082,0.294 0.151,0.265c0.07,-0.029 0.146,0.082 0.159,0.124c0.014,0.042 0.166,-0.044 0.264,-0.001c0.098,0.043 0.157,-0.135 0.166,-0.217c0.007,-0.083 -0.237,-0.254 -0.275,-0.353c-0.038,-0.098 -0.054,-0.673 -0.059,-0.792c-0.005,-0.118 -0.163,-0.309 -0.215,-0.275c-0.051,0.033 -0.155,-0.306 -0.236,-0.379c-0.082,-0.074 -0.101,-0.236 -0.098,-0.291c0.005,-0.054 -0.278,-0.35 -0.345,-0.486c-0.068,-0.136 -0.164,-0.108 -0.169,-0.047c-0.008,0.064 -0.202,0.072 -0.283,0.064c-0.082,-0.007 -0.148,-0.318 -0.148,-0.436c0,-0.117 -0.364,-0.138 -0.423,-0.232c-0.06,-0.095 -0.296,-0.05 -0.335,-0.116c-0.037,-0.065 -0.247,-0.126 -0.288,-0.101c-0.043,0.024 -0.023,0.868 -0.062,1.096c-0.042,0.226 -0.233,0.428 -0.305,0.422c-0.069,-0.005 -0.028,0.163 0.021,0.148c0.05,-0.016 -0.136,0.249 -0.161,0.422c-0.025,0.172 -0.201,-0.009 -0.229,-0.165c-0.028,-0.157 -0.2,-0.369 -0.232,-0.316c-0.033,0.054 -0.15,-0.064 -0.203,-0.03c-0.051,0.034 -0.375,-0.189 -0.506,-0.261c-0.13,-0.069 -0.205,-0.471 -0.279,-0.506c-0.076,-0.036 -0.011,-0.084 -0.014,-0.145c-0.003,-0.062 0.253,-0.295 0.33,-0.387c0.077,-0.093 0.358,-0.459 0.469,-0.537c0.112,-0.079 0.199,-0.287 0.18,-0.327c-0.02,-0.037 0.476,-0.193 0.611,-0.239c0.133,-0.046 0.25,-0.421 0.268,-0.528c0.018,-0.107 -0.084,-0.311 -0.147,-0.338c-0.062,-0.026 0.188,-0.036 0.271,0.006c0.083,0.04 0.338,-0.076 0.44,-0.022c0.1,0.053 0.304,0.174 0.451,0.268l-0.032,0.274l-0.059,0.466c-0.391,0.162 -0.503,0.442 -0.367,0.436c0.137,-0.006 0.762,0.271 0.938,0.397c0.175,0.126 0.231,-0.183 0.283,-0.286c0.052,-0.102 0.035,-0.4 -0.006,-0.46c-0.044,-0.06 0.203,-0.039 0.271,0.028c0.07,0.065 0.151,-0.069 0.205,-0.093c0.054,-0.024 0.08,-0.279 0.109,-0.331c0.028,-0.052 -0.118,-0.105 -0.121,-0.168c-0.006,-0.065 -0.286,-0.187 -0.376,-0.23c-0.093,-0.043 -0.114,-0.237 -0.068,-0.27c0.044,-0.034 -0.032,-0.28 -0.077,-0.362c-0.044,-0.081 -0.337,-0.147 -0.435,-0.147c-0.097,0 -0.198,-0.228 -0.254,-0.26c-0.057,-0.032 -0.433,-0.074 -0.525,-0.047c-0.093,0.028 -0.263,-0.266 -0.421,-0.177c-0.156,0.09 -0.319,-0.104 -0.389,-0.143c-0.072,-0.039 -0.439,0.356 -0.436,0.632c0.004,0.279 0.143,0.547 0.201,0.554c0.058,0.008 -0.013,0.259 -0.078,0.331c-0.062,0.07 -0.217,-0.076 -0.159,-0.14c0.058,-0.061 -0.16,-0.352 -0.235,-0.47c-0.053,-0.086 -0.245,-0.161 -0.373,-0.213c-0.077,0.083 -0.149,0.166 -0.223,0.251c0.028,0.1 0.062,0.232 0.029,0.33c-0.055,0.17 -0.196,0.196 -0.205,0.122c-0.004,-0.032 -0.075,-0.057 -0.159,-0.068c-2.055,2.466 -3.424,5.523 -3.816,8.873c0.082,0.093 0.175,0.204 0.199,0.283c0.047,0.148 0.306,0.247 0.355,0.278c0.047,0.029 0.065,-0.286 0.03,-0.367c-0.033,-0.083 0.063,-0.132 0.061,-0.071c-0.003,0.06 0.244,0.337 0.324,0.438c0.081,0.1 0.164,0.746 0.242,0.886c0.078,0.139 0.825,0.427 1.066,0.477c0.24,0.051 0.544,0.32 0.59,0.398c0.047,0.078 0.367,0.117 0.436,0.148c0.068,0.032 0.232,0.248 0.3,0.293c0.069,0.045 0.122,0.174 0.122,0.209c0,0.035 0.422,0.193 0.525,0.306c0.102,0.113 0.272,0.082 0.303,0.035c0.032,-0.048 0.115,0.224 0.16,0.318c0.042,0.094 0.052,0.324 0.019,0.362c-0.033,0.035 -0.094,0.46 -0.164,0.544c-0.073,0.086 -0.222,0.703 -0.191,0.825c0.033,0.122 0.231,0.374 0.317,0.412c0.085,0.036 0.048,0.168 -0.018,0.177c-0.068,0.009 -0.036,0.598 0.123,0.685c0.158,0.086 0.291,0.348 0.268,0.393Z" style="fill:#5f9ca4;fill-rule:nonzero;"/><path d="M16.528,20.5l0.001,-0.002l-0.001,0.002Z" style="fill:#5f9ca4;fill-rule:nonzero;"/><path d="M15.367,13.34c0.204,-0.035 0.542,-0.09 0.564,-0.148c0.018,-0.046 0.02,-0.186 -0.018,-0.234l0.098,0.004c0.077,0 0.205,-0.424 0.287,-0.523c0.082,-0.098 0.546,-0.244 0.656,-0.311c0.111,-0.067 0.354,-0.3 0.447,-0.327c0.093,-0.027 0.229,-0.245 0.208,-0.289c-0.021,-0.043 0.315,-0.246 0.442,-0.3c0.126,-0.054 0.193,-0.204 0.145,-0.21c-0.03,-0.003 -0.74,0.368 -1.389,0.735c-0.74,0.505 -1.437,1.067 -2.088,1.677c0.202,-0.015 0.515,-0.051 0.648,-0.074Z" style="fill:#5f9ca4;fill-rule:nonzero;"/><path d="M27.644,34.467c0.218,-0.129 0.586,-0.675 0.708,-0.788c0.12,-0.116 0.209,-0.529 0.235,-0.619c0.024,-0.091 0.209,-0.236 0.277,-0.256c0.07,-0.02 0.288,-0.935 0.482,-1.135c0.194,-0.2 0.42,-1.167 0.397,-1.516c-0.024,-0.346 0.123,-1.01 0.17,-1.17c0.045,-0.159 0.288,-0.442 0.363,-0.5c0.075,-0.06 0.541,-0.75 0.692,-0.997c0.15,-0.249 0.292,-0.792 0.264,-0.919c-0.029,-0.128 -0.354,-0.216 -0.415,-0.154c-0.059,0.063 -0.366,0.115 -0.462,0.115c-0.1,0 -0.323,-0.524 -0.463,-0.631c-0.138,-0.108 -0.263,-0.708 -0.343,-0.821c-0.081,-0.114 -0.305,-0.401 -0.375,-0.468c-0.068,-0.065 -0.082,-0.383 -0.098,-0.47c-0.015,-0.087 0.136,0.057 0.162,0.183c0.027,0.127 0.385,0.638 0.497,0.81c0.111,0.172 0.405,0.721 0.478,0.892c0.076,0.172 0.728,0.085 0.94,-0.015c0.212,-0.1 0.476,-0.269 0.485,-0.328c0.011,-0.06 0.347,-0.214 0.441,-0.29c0.094,-0.074 0.177,-0.467 0.239,-0.529c0.06,-0.065 -0.05,-0.439 -0.12,-0.55c-0.07,-0.112 -0.408,-0.201 -0.477,-0.157c-0.069,0.045 -0.215,-0.251 -0.268,-0.359c-0.051,-0.109 -0.309,-0.241 -0.337,-0.316c-0.029,-0.074 0.07,-0.191 0.111,-0.217c0.04,-0.026 0.517,0.309 0.656,0.476c0.135,0.166 0.293,0.474 0.32,0.526c0.024,0.053 0.402,0.081 0.486,0.018c0.083,-0.062 0.18,-0.044 0.213,0.035l0.119,-0.02l0.413,-0.064c0.195,0.212 0.253,0.395 0.248,0.437c-0.006,0.041 0.119,0.213 0.199,0.231c0.08,0.02 0.138,0.291 0.163,0.357c0.025,0.067 0.261,0.473 0.309,0.643c0.049,0.17 0.249,0.503 0.296,0.591c0.049,0.09 0.089,0.347 0.089,0.418c0,0.07 0.15,0.209 0.245,0.202c0.092,-0.006 0.283,-0.599 0.328,-0.819c0.043,-0.22 0.197,-0.402 0.238,-0.402c0.045,0 0.078,-0.123 0.078,-0.171c0,-0.046 0.24,-0.041 0.261,-0.101c0.021,-0.061 0.092,-0.453 0.178,-0.511c0.085,-0.06 0.387,-0.259 0.495,-0.295c0.106,-0.038 0.378,0.196 0.439,0.306c0.06,0.109 0.115,0.388 0.092,0.433c-0.023,0.046 0.143,0.286 0.289,0.282c0.144,-0.004 0.189,0.184 0.193,0.252c0.006,0.068 0.197,0.261 0.236,0.348c0.037,0.086 0.026,0.323 0,0.376c-0.025,0.054 -0.008,0.364 0.02,0.451c0.027,0.087 0.471,0.538 0.64,0.675c0.166,0.137 0.245,-0.278 0.159,-0.409c-0.085,-0.129 -0.376,-0.43 -0.443,-0.519c-0.069,-0.091 -0.081,-0.451 -0.055,-0.553c0.024,-0.1 0.254,0.057 0.349,0.13c0.096,0.073 0.22,0.236 0.223,0.29c0.004,0.053 0.601,-0.28 0.621,-0.643c0.021,-0.363 0.219,-0.772 0.239,-0.867c0.021,-0.097 -0.058,-0.228 -0.109,-0.231c-0.05,-0.005 0.089,-0.278 0.256,-0.272c0.168,0.005 0.57,-0.445 0.666,-0.623c0.095,-0.178 0.287,-0.323 0.308,-0.346c0.024,-0.021 0.157,-0.443 0.18,-0.617c0.024,-0.173 -0.098,-0.446 -0.112,-0.536c-0.015,-0.089 -0.159,-0.298 -0.197,-0.362c-0.036,-0.066 -0.071,-0.309 -0.048,-0.355l0.189,-0.134c0.016,-0.041 0.189,-0.224 0.175,-0.306c-0.012,-0.082 0.107,0.105 0.188,0.172c0.077,0.067 0.163,0.5 0.261,0.548c0.098,0.047 0.494,-0.459 0.445,-0.786c-0.048,-0.327 0.116,-0.745 0.21,-0.782c0.074,-0.029 0.259,-0.293 0.385,-0.482c-0.87,-2.516 -2.316,-4.765 -4.18,-6.589l-0.064,-0.003l-0.146,-0.03c-0.243,-0.052 -0.384,-0.313 -0.343,-0.373c0.013,-0.019 0.01,-0.062 -0.001,-0.114c-0.136,-0.123 -0.276,-0.243 -0.416,-0.361c-0.116,-0.004 -0.237,0 -0.308,-0.003c-0.146,-0.006 -0.462,-0.11 -0.518,-0.166c-0.058,-0.056 -0.249,0.051 -0.26,0.156c-0.012,0.106 -0.344,0.153 -0.375,0.234c-0.034,0.08 -0.204,0.087 -0.237,0.04c-0.034,-0.045 -0.342,0.109 -0.496,0.132c-0.153,0.021 -0.437,0.145 -0.507,0.176c-0.069,0.03 -0.231,0.189 -0.257,0.255c-0.026,0.066 -0.222,0.176 -0.286,0.202c-0.064,0.024 -0.05,0.311 0.03,0.351c0.082,0.04 -0.15,-0.033 -0.253,-0.087c-0.105,-0.051 -0.217,0.122 -0.25,0.182c-0.033,0.059 -0.126,-0.036 -0.121,-0.122c0.002,-0.085 -0.254,-0.154 -0.289,-0.086c-0.034,0.068 -0.213,-0.022 -0.286,-0.061c-0.075,-0.039 -0.394,0.294 -0.512,0.413c-0.119,0.12 -0.686,0.212 -0.791,0.167c-0.106,-0.043 -0.211,0.252 -0.12,0.272c0.09,0.017 -0.23,-0.015 -0.406,0.002c-0.176,0.016 -0.689,0.221 -0.81,0.312c-0.121,0.091 -0.221,-0.02 -0.221,-0.09c0,-0.069 -0.194,-0.134 -0.253,-0.154c-0.056,-0.019 -0.17,0.383 -0.271,0.46c-0.103,0.079 -0.224,-0.314 -0.463,-0.378c-0.239,-0.065 -0.612,-0.296 -0.718,-0.323c-0.106,-0.028 -0.319,-0.251 -0.38,-0.316c-0.059,-0.064 -0.366,-0.117 -0.463,-0.117c-0.097,0 -0.414,0.181 -0.498,0.252c-0.086,0.072 -0.213,0.058 -0.256,0.084c-0.042,0.026 -0.399,0.375 -0.538,0.485c-0.139,0.109 -0.382,0.582 -0.459,0.694c-0.08,0.112 -0.194,0.133 -0.241,0.136l-0.085,0.175c0,0.046 -0.409,0.26 -0.453,0.447c-0.043,0.187 0.042,0.612 0.042,0.764c0,0.151 0.15,0.451 0.265,0.456c0.113,0.005 0.055,0.258 0.025,0.328c-0.031,0.07 0.072,0.149 0.068,0.208c-0.002,0.06 -0.289,0.145 -0.377,0.179c-0.088,0.032 -0.23,0.232 -0.25,0.306c-0.015,0.064 -0.289,0.11 -0.379,0.197c0.022,-0.062 0.053,-0.149 0.076,-0.198c0.053,-0.099 -0.019,-0.273 -0.061,-0.308c-0.044,-0.037 -0.064,-0.53 -0.133,-0.636c-0.069,-0.106 -0.242,-0.285 -0.285,-0.32c-0.042,-0.035 0.03,-0.165 0.054,-0.22c0.024,-0.054 -0.23,-0.086 -0.299,-0.045c-0.07,0.04 -0.107,0.529 -0.137,0.662c-0.029,0.134 0.126,0.339 0.168,0.349c0.043,0.01 0.031,0.25 -0.058,0.258c-0.09,0.009 -0.172,0.36 -0.126,0.44c0.046,0.081 -0.065,0.237 -0.118,0.274c-0.052,0.036 0.345,0.016 0.526,0.011c0.181,-0.005 0.32,0.076 0.302,0.091c-0.018,0.015 -0.345,0.063 -0.405,0.141c-0.057,0.078 -0.279,0.227 -0.323,0.286c-0.043,0.06 0.074,0.192 0.168,0.186c0.093,-0.007 0.201,0.325 0.275,0.386c0.072,0.061 0.046,0.233 0.015,0.281c-0.034,0.046 -0.477,-0.033 -0.644,0.009c-0.168,0.041 -0.38,0.397 -0.395,0.531c-0.014,0.134 0.027,0.519 0.05,0.626c0.021,0.106 0.372,0.173 0.443,0.224c0.073,0.052 0.408,0.002 0.479,0.035c0.068,0.033 0.296,-0.342 0.342,-0.515c0.042,-0.174 0.403,-0.492 0.478,-0.612c0.074,-0.117 0.46,-0.103 0.555,-0.166c0.096,-0.06 0.042,0.295 0.087,0.488c0.046,0.196 0.416,0.171 0.362,-0.012c-0.054,-0.181 0.037,-0.262 0.052,-0.195c0.017,0.064 0.371,0.21 0.438,0.313c0.068,0.103 0.048,0.322 -0.03,0.318c-0.08,-0.001 -0.083,0.24 0.002,0.267c0.083,0.025 0.194,-0.273 0.284,-0.318c0.089,-0.044 0.162,-0.231 0.12,-0.245c-0.041,-0.014 0.076,-0.181 0.127,-0.126c0.05,0.056 -0.19,-0.363 -0.341,-0.515c-0.151,-0.152 -0.045,-0.085 0.237,0.152l0.196,0.273c0.037,0.048 0.088,0.198 0.122,0.253l0.044,0.081c0.04,0.095 0.074,0.358 0.074,0.428c0,0.07 0.153,0.21 0.245,0.204c0.093,-0.008 0.164,0.044 0.145,0.047c-0.02,0.004 0.062,0.185 0.154,0.189c0.092,0.004 0.132,-0.234 0.038,-0.241c-0.091,-0.003 -0.078,-0.348 -0.089,-0.497c-0.011,-0.151 0.067,-0.274 0.097,-0.274c0.034,0 -0.002,0.308 -0.001,0.38c0.001,0.07 0.041,0.211 0.084,0.31l0.097,0.073l0.214,0.164c0.308,-0.091 0.719,-0.021 0.705,0.042c-0.017,0.063 0.226,0.078 0.24,-0.023c0.016,-0.101 0.027,0.003 0.027,0.074c0,0.068 -0.202,0.343 -0.235,0.47c-0.034,0.126 -0.743,0.041 -1.049,0.017c-0.305,-0.023 -0.755,0.081 -0.79,0.172c-0.034,0.091 -0.511,-0.21 -0.729,-0.302c-0.219,-0.092 -0.39,-0.425 -0.435,-0.467c-0.045,-0.045 0.038,-0.152 0.016,-0.218c-0.021,-0.067 -0.52,-0.08 -0.662,-0.026c-0.146,0.053 -0.894,0.132 -1.07,0.21c-0.178,0.079 -0.445,-0.005 -0.528,-0.02c-0.082,-0.014 -0.281,0.23 -0.381,0.274c-0.102,0.044 -0.228,0.39 -0.283,0.77l-0.137,0.265l-0.087,0.169c-0.247,0.188 -0.52,0.813 -0.601,0.94c-0.079,0.126 -0.144,1.028 -0.144,1.332c0,0.303 0.265,0.946 0.34,1.124c0.075,0.177 0.533,0.569 0.686,0.664c0.152,0.09 0.65,0.104 0.814,0.103c0.162,0 0.349,-0.155 0.411,-0.343l0.239,0.023l0.11,0.011c0.005,0.134 0.358,0.241 0.444,0.288c0.086,0.047 0.318,0.011 0.389,-0.009c0.068,-0.02 0.146,0.604 0.096,0.784c-0.051,0.18 0.122,0.812 0.173,1.002c0.051,0.19 0.267,0.711 0.29,0.898c0.02,0.187 -0.127,0.807 -0.152,1.024c-0.025,0.219 0.271,0.827 0.349,1.036c0.077,0.209 0.141,0.659 0.141,0.764c0,0.104 0.323,0.732 0.396,0.991c0.074,0.26 0.885,0.324 1.103,0.196Z" style="fill:#00acc1;fill-rule:nonzero;"/><path d="M41.636,26.761c0.023,0.046 0.227,-0.116 0.348,-0.135c0.123,-0.018 0.2,-0.347 0.104,-0.371c-0.096,-0.026 -0.217,-0.278 -0.286,-0.308c-0.069,-0.03 -0.205,0.108 -0.198,0.208c0.005,0.1 -0.222,0.14 -0.266,0.223c-0.042,0.082 -0.041,0.142 0.007,0.134c0.046,-0.008 0.272,0.203 0.291,0.249Z" style="fill:#5f9ca4;fill-rule:nonzero;"/><path d="M41.387,28.544c0.06,-0.023 -0.007,-0.348 -0.134,-0.375c-0.127,-0.025 -0.48,0.427 -0.412,0.689c0.067,0.26 0.14,0.244 0.177,0.189c0.036,-0.054 0.246,0.035 0.308,0.057c0.061,0.02 0.061,-0.043 0,-0.139c-0.062,-0.097 0.001,-0.399 0.061,-0.421Z" style="fill:#5f9ca4;fill-rule:nonzero;"/><path d="M40.693,28.227c0.014,-0.115 0.037,-0.479 0.056,-0.549c0.019,-0.073 -0.197,-0.281 -0.304,-0.318c-0.106,-0.038 -0.449,0.705 -0.695,0.836c-0.245,0.134 -0.334,0.585 -0.27,0.69c0.066,0.104 0.579,0.158 0.667,0.238c0.09,0.079 0.19,-0.013 0.244,-0.026c0.054,-0.014 0.037,-0.048 0.016,-0.061c-0.021,-0.014 0.179,-0.224 0.208,-0.358c0.028,-0.132 0.063,-0.337 0.078,-0.452Z" style="fill:#5f9ca4;fill-rule:nonzero;"/><path d="M39.298,29.463c-0.192,-0.073 -0.419,0.041 -0.436,0.115c-0.019,0.074 0.74,0.195 0.993,0.263c0.251,0.069 0.408,0.091 0.35,0.048c-0.058,-0.043 -0.715,-0.353 -0.907,-0.426Z" style="fill:#5f9ca4;fill-rule:nonzero;"/><path d="M40.838,24.525c0.062,-0.085 -0.084,-0.483 -0.158,-0.392c-0.072,0.089 -0.02,0.32 0.003,0.402c0.024,0.08 0.095,0.075 0.155,-0.01Z" style="fill:#5f9ca4;fill-rule:nonzero;"/><path d="M41.296,25.377c0.045,-0.103 -0.054,-0.216 -0.219,-0.25c-0.164,-0.035 -0.139,0.46 -0.067,0.523c0.071,0.062 0.242,-0.17 0.286,-0.273Z" style="fill:#5f9ca4;fill-rule:nonzero;"/><path d="M42.151,28.438c0.197,0.137 0.635,0.074 0.648,-0.191c-0.193,-0.127 -0.665,-0.106 -0.648,0.191Z" style="fill:#5f9ca4;fill-rule:nonzero;"/><path d="M42.044,22.381c-0.081,0.056 -0.124,0.203 -0.099,0.262l-0.033,-0.001c-0.066,0 -0.073,0.258 -0.003,0.302c0.066,0.045 0.232,-0.201 0.32,-0.26c0.085,-0.059 0.26,-0.095 0.286,-0.076c0.027,0.019 0.178,-0.027 0.339,-0.101c0.029,-0.013 0.063,-0.056 0.096,-0.116c-0.037,-0.189 -0.084,-0.375 -0.128,-0.562c-0.084,0.06 -0.174,0.125 -0.218,0.163c-0.086,0.079 -0.452,0.315 -0.56,0.389Z" style="fill:#00acc1;fill-rule:nonzero;"/><path d="M37.558,27.592l0.002,0l-0.002,0Z" style="fill:#5f9ca4;fill-rule:nonzero;"/><path d="M38.781,28.731c-0.071,-0.161 -0.306,-0.432 -0.522,-0.605l-0.084,-0.135l-0.088,-0.148c-0.081,-0.163 -0.323,-0.289 -0.345,-0.337c-0.021,-0.047 -0.098,0.142 -0.182,0.087c0.045,0.03 0.135,0.095 0.263,0.185c0.228,0.164 0.668,1.269 0.767,1.347c0.099,0.078 0.262,-0.233 0.191,-0.394Z" style="fill:#5f9ca4;fill-rule:nonzero;"/><path d="M35.277,26.945c-0.061,0.125 0.325,0.39 0.355,0.33c0.033,-0.062 -0.05,-0.368 -0.118,-0.436c-0.069,-0.067 -0.176,-0.018 -0.237,0.106Z" style="fill:#5f9ca4;fill-rule:nonzero;"/><path d="M30.148,32.85c0.016,0.132 0.282,0.236 0.359,0.215c0.079,-0.022 0.294,-0.419 0.324,-0.533c0.03,-0.117 0.054,-0.361 0.054,-0.42c0,-0.058 0.036,-0.19 0.067,-0.206c0.027,-0.015 0.077,-0.151 0.108,-0.3c0.029,-0.15 -0.162,-0.847 -0.166,-0.969c-0.005,-0.124 -0.143,0.062 -0.178,0.186c-0.038,0.125 -0.384,0.377 -0.461,0.482c-0.076,0.105 -0.162,0.462 -0.132,0.524c0.029,0.06 -0.03,0.303 -0.065,0.371c-0.034,0.066 0.076,0.518 0.09,0.65Z" style="fill:#5f9ca4;fill-rule:nonzero;"/><path d="M17.634,37.675c0.077,0 0.154,0 0.234,0c0.042,-0.252 -0.247,-0.21 -0.234,0Z" style="fill:#5f9ca4;fill-rule:nonzero;"/><path d="M23.855,11.411c-0.099,0.013 -0.352,-0.038 -0.395,-0.085c-0.044,-0.046 -0.423,-0.087 -0.533,-0.041c-0.109,0.046 -0.033,-0.267 0.118,-0.301c0.153,-0.034 0.023,-0.249 -0.139,-0.25c-0.162,-0.001 -0.562,-0.06 -0.656,-0.039c-0.095,0.02 -0.278,-0.065 -0.345,-0.076c-0.067,-0.009 -0.549,0.144 -0.775,0.133c-0.228,-0.01 -0.787,0.013 -0.906,0.047c-0.123,0.032 -0.21,0.269 -0.193,0.352c0.017,0.085 -0.541,0.083 -0.716,0.086c-0.176,0.002 -1.112,0.201 -1.357,0.336c-0.243,0.133 -0.434,0.477 -0.353,0.484c0.08,0.006 -0.136,0.201 -0.268,0.247c-0.131,0.045 -0.444,0.065 -0.518,0.139c-0.073,0.073 0.078,0.124 0.108,0.174c0.029,0.049 0.117,-0.044 0.2,0.005c0.081,0.045 0.354,0.067 0.427,0.095c0.074,0.029 -0.233,0.087 -0.374,0.097c-0.144,0.011 -0.112,0.291 0.004,0.33c0.117,0.039 0.417,0.081 0.448,0.032c0.031,-0.05 0.356,0.052 0.504,0.07c0.145,0.016 0.258,0.383 0.302,0.463c0.046,0.08 0.055,0.36 0.044,0.441c-0.01,0.081 0.26,0.228 0.309,0.176c0.047,-0.051 0.034,0.128 -0.074,0.118c-0.108,-0.009 -0.038,0.302 0.095,0.347c0.133,0.044 0.042,0.236 -0.034,0.294c-0.077,0.058 -0.035,0.241 -0.114,0.307c-0.078,0.064 0.279,0.685 0.276,1.002c-0.001,0.319 0.198,0.578 0.273,0.578c0.076,0 0.338,0.065 0.372,0.132c0.035,0.068 0.161,-0.047 0.211,-0.1c0.048,-0.05 0.157,-0.204 0.235,-0.338c0.082,-0.135 0.262,-0.774 0.285,-0.843c0.024,-0.068 0.325,-0.025 0.393,-0.06c0.068,-0.035 0.263,-0.19 0.319,-0.236c0.056,-0.046 0.483,-0.227 0.602,-0.312c0.115,-0.083 0.31,-0.446 0.401,-0.523c0.089,-0.077 -0.047,-0.055 -0.161,-0.129c-0.112,-0.075 -0.064,-0.166 -0.03,-0.201c0.032,-0.036 0.377,0.057 0.497,0.104c0.118,0.047 0.344,-0.118 0.258,-0.181c-0.088,-0.062 -0.041,-0.062 0,-0.034l0.041,-0.254c-0.046,-0.046 0.349,-0.333 0.28,-0.605c-0.07,-0.272 0.108,-0.552 0.213,-0.555c0.107,-0.003 0.075,-0.307 -0.052,-0.335c-0.127,-0.028 -0.008,-0.056 0.04,-0.099c0.047,-0.043 0.107,-0.314 0.081,-0.367c-0.03,-0.052 0.192,-0.111 0.231,-0.173c0.04,-0.062 0.294,-0.183 0.384,-0.203c0.089,-0.021 0.139,-0.26 0.042,-0.249Z" style="fill:#5f9ca4;fill-rule:nonzero;"/><path d="M26.066,11.634c-0.122,-0.041 -0.366,0.093 -0.336,0.168c0.032,0.077 -0.199,-0.097 -0.36,-0.014c-0.162,0.084 -0.206,0.367 -0.132,0.405c0.074,0.036 0.127,0.261 0.129,0.304c0.003,0.044 0.314,0.013 0.394,-0.053c0.079,-0.065 0.069,0.229 -0.01,0.308c-0.079,0.08 0.029,0.238 0.115,0.252c0.087,0.012 0.204,0.216 0.294,0.214c0.09,-0.002 0.242,-0.345 0.276,-0.473c0.035,-0.128 0.331,-0.028 0.468,0.013c0.136,0.041 0.185,-0.471 0.038,-0.55c-0.146,-0.076 -0.33,-0.037 -0.391,-0.096c-0.061,-0.059 -0.166,-0.114 -0.235,-0.125c-0.066,-0.009 -0.131,-0.313 -0.25,-0.353Z" style="fill:#00acc1;fill-rule:nonzero;"/><path d="M27.251,11.879c0.24,0.034 0.509,-0.163 0.567,-0.219c0.059,-0.055 -0.664,-0.202 -0.939,-0.211c-0.275,-0.01 -0.496,0.029 -0.492,0.083c0.004,0.053 0.624,0.312 0.864,0.347Z" style="fill:#00acc1;fill-rule:nonzero;"/><path d="M22.882,18.357c-0.063,-0.027 -0.098,0.211 -0.084,0.299c0.015,0.091 0.235,0.084 0.329,0.067c0.095,-0.015 0.167,-0.091 0.164,-0.17c-0.004,-0.077 -0.137,-0.43 -0.192,-0.43c-0.053,0 -0.154,0.259 -0.217,0.234Z" style="fill:#5f9ca4;fill-rule:nonzero;"/><path d="M23.591,15.602c-0.049,-0.087 -0.425,-0.076 -0.516,-0.083c-0.092,-0.004 -0.373,-0.097 -0.426,-0.158c-0.053,-0.059 -0.093,0.231 -0.179,0.27c-0.087,0.036 0.042,0.093 0.077,0.062c0.035,-0.031 -0.002,0.149 -0.041,0.211c-0.037,0.062 0.25,0.106 0.283,0.2c0.032,0.094 0.151,0.153 0.265,0.136c0.113,-0.018 0.34,-0.135 0.42,-0.144c0.079,-0.008 0.167,-0.407 0.117,-0.494Z" style="fill:#5f9ca4;fill-rule:nonzero;"/><path d="M31.48,13.45c0.129,-0.129 0.66,-0.304 0.721,-0.438c0.06,-0.133 -0.038,-0.243 -0.092,-0.243c-0.053,0 -0.119,0.067 -0.132,0.089c-0.012,0.021 -0.621,0.165 -0.809,0.256c-0.189,0.089 -0.404,0.228 -0.484,0.309c-0.079,0.079 -0.207,0.683 -0.252,0.75c-0.046,0.069 0.202,0.315 0.311,0.383c0.112,0.067 0.262,0.032 0.304,0.02c0.043,-0.014 -0.056,-0.436 -0.113,-0.583c-0.059,-0.146 0.418,-0.413 0.546,-0.543Z" style="fill:#00acc1;fill-rule:nonzero;"/><path d="M30.827,11.876c0.201,0.199 0.311,-0.089 0.532,-0.06c-0.003,-0.405 -0.551,-0.266 -0.532,0.06Z" style="fill:#5f9ca4;fill-rule:nonzero;"/><path d="M34.727,11.952c-0.006,0.074 0.555,0.134 0.718,0.105c0.164,-0.029 -0.033,-0.283 -0.273,-0.269c-0.239,0.016 -0.439,0.089 -0.445,0.164Z" style="fill:#00acc1;fill-rule:nonzero;"/><path d="M14.419,16.112c-0.06,0.054 -0.008,0.329 0.104,0.337c0.113,0.008 0.292,-0.414 0.429,-0.331c0.138,0.086 0.231,0.119 0.208,0.074c-0.024,-0.045 -0.414,-0.216 -0.463,-0.248c-0.048,-0.029 -0.218,0.114 -0.278,0.168Z" style="fill:#5f9ca4;fill-rule:nonzero;"/><path d="M15.854,25.424c0,0.046 0.244,0.039 0.283,-0.036c0.04,-0.074 0.019,-0.135 -0.048,-0.135c-0.064,0 -0.235,0.124 -0.235,0.171Z" style="fill:#5f9ca4;fill-rule:nonzero;"/><path d="M14.765,25.022c0.117,-0.021 0.061,0.167 0.09,0.235c0.027,0.068 0.308,0.122 0.365,0.168c0.056,0.046 0.2,-0.085 0.312,-0.072c0.112,0.015 -0.037,-0.388 -0.225,-0.377c-0.187,0.014 -0.337,-0.169 -0.381,-0.192c-0.045,-0.02 -0.263,-0.152 -0.326,-0.203c-0.061,-0.05 -0.54,-0.092 -0.703,-0.092c-0.163,0 -0.342,0.165 -0.367,0.219c-0.026,0.056 0.258,0.093 0.339,0.05c0.081,-0.043 0.461,0.048 0.538,0.139c0.078,0.09 0.239,0.148 0.358,0.125Z" style="fill:#5f9ca4;fill-rule:nonzero;"/><path d="M14.253,25.424c0,0.046 0.247,0.017 0.306,0.02c0.059,0 0.058,-0.04 -0.005,-0.091c-0.061,-0.05 -0.301,0.024 -0.301,0.071Z" style="fill:#5f9ca4;fill-rule:nonzero;"/><path d="M14.427,24.154c-0.064,-0.026 -0.115,0.075 -0.115,0.123c0,0.047 0.035,0.086 0.078,0.086c0.044,0 0.101,-0.184 0.037,-0.209Z" style="fill:#5f9ca4;fill-rule:nonzero;"/><path d="M14.945,24.193c-0.022,-0.047 -0.128,-0.086 -0.159,-0.086c-0.033,0 -0.055,0.082 -0.049,0.181c0.006,0.1 0.229,-0.049 0.208,-0.095Z" style="fill:#5f9ca4;fill-rule:nonzero;"/><path d="M15.317,24.767c0.1,-0.048 0.113,-0.168 0.053,-0.161c-0.059,0.006 -0.168,-0.173 -0.234,-0.197c-0.063,-0.025 -0.116,0.106 -0.116,0.164c0,0.059 0.037,0.097 0.081,0.087c0.044,-0.011 0.115,0.153 0.216,0.107Z" style="fill:#5f9ca4;fill-rule:nonzero;"/><path d="M42.893,28.644c-0.05,0.028 -0.3,0.057 -0.333,0.008c-0.033,-0.05 -0.082,0.101 -0.136,0.125c-0.051,0.025 -0.024,0.155 0.056,0.113c0.056,-0.026 0.292,0.105 0.483,0.224c0.037,-0.189 0.071,-0.38 0.103,-0.572c-0.069,0.036 -0.14,0.085 -0.173,0.102Z" style="fill:#5f9ca4;fill-rule:nonzero;"/><path d="M14.53,30.838c-0.023,0.047 0.28,0.358 0.398,0.463c0.117,0.107 0.367,0.617 0.417,0.784c0.051,0.167 0.021,0.439 0.005,0.505c-0.016,0.063 0.057,0.206 0.069,0.264c0.011,0.059 -0.105,0.558 -0.06,0.759c0.043,0.201 -0.235,0.828 -0.229,1.138c0.006,0.312 0.147,0.718 0.204,0.688c0.056,-0.031 0.077,0.283 -0.019,0.32c-0.095,0.038 -0.205,0.285 -0.152,0.298c0.053,0.012 -0.003,0.258 0.012,0.355c0.012,0.099 0.096,0.745 0.114,0.906c0.018,0.161 0.248,0.552 0.297,0.686c0.048,0.134 0.097,0.386 0.116,0.424l0.045,0.08c0.002,0.001 0.189,0.07 0.241,0.11c0.057,0.041 0.419,0.015 0.538,-0.009c0.118,-0.025 0.009,-0.134 -0.044,-0.191c-0.054,-0.06 -0.101,-0.347 -0.163,-0.376c-0.06,-0.028 -0.087,-0.394 -0.034,-0.474c0.055,-0.082 0.271,-0.21 0.296,-0.279c0.023,-0.068 0.03,-0.386 -0.028,-0.43c-0.059,-0.043 0.018,-0.429 -0.027,-0.621c-0.044,-0.191 0.333,-0.366 0.355,-0.518c0.021,-0.153 0.43,-0.316 0.523,-0.392c0.092,-0.076 0.172,-0.512 0.129,-0.607c-0.045,-0.092 0.15,-0.168 0.238,-0.168c0.085,0 0.184,-0.062 0.217,-0.062c0.033,-0.002 0.137,-0.194 0.193,-0.239c0.055,-0.044 0.171,-0.504 0.271,-0.58c0.104,-0.076 0.186,-0.354 0.186,-0.435c0,-0.081 0.155,-0.324 0.206,-0.397c0.051,-0.073 0.432,-0.248 0.501,-0.275c0.066,-0.028 0.17,-0.639 0.198,-0.86c0.025,-0.22 0.139,-0.514 0.148,-0.586c0.007,-0.072 0.13,-0.134 0.151,-0.157c0.025,-0.024 0.115,-0.303 0.174,-0.368c0.058,-0.064 0.269,-0.331 0.275,-0.391c0.003,-0.059 0.035,-0.212 0.07,-0.34l-0.001,-0.15l0.002,-0.238c-0.067,-0.185 -0.271,-0.415 -0.323,-0.364c-0.052,0.05 -0.288,-0.163 -0.409,-0.209c-0.12,-0.044 -0.42,-0.082 -0.496,-0.082c-0.076,0 -0.338,-0.215 -0.456,-0.251c-0.117,-0.037 -0.417,-0.095 -0.473,-0.13c-0.054,-0.035 -0.127,-0.481 -0.369,-0.627c-0.241,-0.146 -0.665,-0.486 -0.712,-0.611c-0.046,-0.125 -0.511,-0.388 -0.654,-0.466c-0.143,-0.079 -0.36,-0.097 -0.386,-0.069c-0.029,0.027 -0.208,-0.241 -0.3,-0.319c-0.092,-0.075 -0.37,-0.138 -0.382,-0.071c-0.013,0.07 -0.197,0.033 -0.242,-0.025c-0.042,-0.058 -0.186,0.023 -0.253,0.046c-0.067,0.021 -0.298,0.373 -0.402,0.459c-0.108,0.083 -0.234,-0.079 -0.304,-0.11c-0.07,-0.029 -0.336,0.053 -0.409,0.105c-0.071,0.051 -0.24,-0.373 -0.201,-0.569c0.038,-0.196 -0.176,-0.584 -0.341,-0.594c-0.164,-0.01 -0.217,-0.418 -0.184,-0.569c0.033,-0.15 -0.298,-0.245 -0.38,-0.254c-0.084,-0.012 -0.291,0.2 -0.325,0.302c-0.037,0.102 -0.787,-0.138 -0.698,-0.589c0.087,-0.45 0.444,-0.915 0.532,-0.972c0.089,-0.053 0.572,-0.082 0.677,-0.021c0.108,0.063 0.205,0 0.222,-0.028c0.018,-0.027 0.412,0.005 0.53,0.053c0.118,0.047 0.286,0.503 0.407,0.559c0.123,0.056 0.168,-0.295 0.187,-0.38c0.02,-0.085 -0.06,-0.301 -0.089,-0.362c-0.029,-0.061 0.196,-0.612 0.381,-0.706c0.183,-0.095 0.377,-0.401 0.362,-0.455c-0.016,-0.054 0.147,-0.097 0.191,-0.12c0.044,-0.022 -0.008,-0.468 0.066,-0.566c0.073,-0.096 0.417,-0.3 0.527,-0.346c0.109,-0.046 0.191,-0.328 0.153,-0.378c-0.041,-0.048 0.282,-0.323 0.45,-0.377c0.167,-0.051 0.312,0.096 0.27,0.119c0.033,-0.017 0.264,-0.138 0.363,-0.202c0.113,-0.077 0.001,-0.285 -0.073,-0.346c-0.073,-0.061 -0.029,-0.304 0.059,-0.325c0.09,-0.022 0.167,-0.231 0.144,-0.277c-0.024,-0.045 0.369,0.037 0.518,-0.074c0.146,-0.111 0.043,0.265 -0.068,0.418c-0.107,0.151 0.082,0.294 0.151,0.265c0.07,-0.029 0.146,0.082 0.159,0.124c0.014,0.042 0.166,-0.044 0.264,-0.001c0.098,0.043 0.157,-0.135 0.166,-0.217c0.007,-0.083 -0.237,-0.254 -0.275,-0.353c-0.038,-0.098 -0.054,-0.673 -0.059,-0.792c-0.005,-0.118 -0.163,-0.309 -0.215,-0.275c-0.051,0.033 -0.155,-0.306 -0.236,-0.379c-0.082,-0.074 -0.101,-0.236 -0.098,-0.291c0.005,-0.054 -0.278,-0.35 -0.345,-0.486c-0.068,-0.136 -0.164,-0.108 -0.169,-0.047c-0.008,0.064 -0.202,0.072 -0.283,0.064c-0.082,-0.007 -0.148,-0.318 -0.148,-0.436c0,-0.117 -0.364,-0.138 -0.423,-0.232c-0.06,-0.095 -0.296,-0.05 -0.335,-0.116c-0.037,-0.065 -0.247,-0.126 -0.288,-0.101c-0.043,0.024 -0.023,0.868 -0.062,1.096c-0.042,0.226 -0.233,0.428 -0.305,0.422c-0.069,-0.005 -0.028,0.163 0.021,0.148c0.05,-0.016 -0.136,0.249 -0.161,0.422c-0.025,0.172 -0.201,-0.009 -0.229,-0.165c-0.028,-0.157 -0.2,-0.369 -0.232,-0.316c-0.033,0.054 -0.15,-0.064 -0.203,-0.03c-0.051,0.034 -0.375,-0.189 -0.506,-0.261c-0.13,-0.069 -0.205,-0.471 -0.279,-0.506c-0.076,-0.036 -0.011,-0.084 -0.014,-0.145c-0.003,-0.062 0.253,-0.295 0.33,-0.387c0.077,-0.093 0.358,-0.459 0.469,-0.537c0.112,-0.079 0.199,-0.287 0.18,-0.327c-0.02,-0.037 0.476,-0.193 0.611,-0.239c0.133,-0.046 0.25,-0.421 0.268,-0.528c0.018,-0.107 -0.084,-0.311 -0.147,-0.338c-0.062,-0.026 0.188,-0.036 0.271,0.006c0.083,0.04 0.338,-0.076 0.44,-0.022c0.1,0.053 0.304,0.174 0.451,0.268l-0.032,0.274l-0.059,0.466c-0.391,0.162 -0.503,0.442 -0.367,0.436c0.137,-0.006 0.762,0.271 0.938,0.397c0.175,0.126 0.231,-0.183 0.283,-0.286c0.052,-0.102 0.035,-0.4 -0.006,-0.46c-0.044,-0.06 0.203,-0.039 0.271,0.028c0.07,0.065 0.151,-0.069 0.205,-0.093c0.054,-0.024 0.08,-0.279 0.109,-0.331c0.028,-0.052 -0.118,-0.105 -0.121,-0.168c-0.006,-0.065 -0.286,-0.187 -0.376,-0.23c-0.093,-0.043 -0.114,-0.237 -0.068,-0.27c0.044,-0.034 -0.032,-0.28 -0.077,-0.362c-0.044,-0.081 -0.337,-0.147 -0.435,-0.147c-0.097,0 -0.198,-0.228 -0.254,-0.26c-0.057,-0.032 -0.433,-0.074 -0.525,-0.047c-0.093,0.028 -0.263,-0.266 -0.421,-0.177c-0.156,0.09 -0.319,-0.104 -0.389,-0.143c-0.072,-0.039 -0.439,0.356 -0.436,0.632c0.004,0.279 0.143,0.547 0.201,0.554c0.058,0.008 -0.013,0.259 -0.078,0.331c-0.062,0.07 -0.217,-0.076 -0.159,-0.14c0.058,-0.061 -0.16,-0.352 -0.235,-0.47c-0.053,-0.086 -0.245,-0.161 -0.373,-0.213c-0.077,0.083 -0.149,0.166 -0.223,0.251c0.028,0.1 0.062,0.232 0.029,0.33c-0.055,0.17 -0.196,0.196 -0.205,0.122c-0.004,-0.032 -0.075,-0.057 -0.159,-0.068c-0.077,0.091 -0.15,0.186 -0.225,0.28c-0.074,0.092 -0.146,0.184 -0.217,0.277c-0.078,0.1 -0.154,0.202 -0.227,0.304c-0.068,0.091 -0.132,0.183 -0.198,0.276c-0.097,0.139 -0.191,0.277 -0.283,0.417c-0.091,0.136 -0.178,0.271 -0.263,0.409c-0.072,0.117 -0.142,0.238 -0.212,0.357c-0.048,0.082 -0.096,0.166 -0.144,0.249c-0.069,0.125 -0.139,0.252 -0.205,0.379c-0.039,0.073 -0.076,0.146 -0.113,0.218c-0.153,0.3 -0.3,0.605 -0.434,0.915l-0.013,0.026c-0.065,0.152 -0.128,0.307 -0.19,0.462c-0.024,0.059 -0.047,0.118 -0.07,0.176c-0.062,0.16 -0.122,0.32 -0.178,0.481l-0.028,0.082c-0.188,0.541 -0.348,1.093 -0.48,1.657l-0.026,0.112c-0.134,0.584 -0.237,1.179 -0.309,1.782l-0.001,0.014c0.082,0.093 0.175,0.204 0.199,0.283c0.047,0.148 0.306,0.247 0.355,0.278c0.047,0.029 0.065,-0.286 0.03,-0.367c-0.033,-0.083 0.063,-0.132 0.061,-0.071c-0.003,0.06 0.244,0.337 0.324,0.438c0.081,0.1 0.164,0.746 0.242,0.886c0.078,0.139 0.825,0.427 1.066,0.477c0.24,0.051 0.544,0.32 0.59,0.398c0.047,0.078 0.367,0.117 0.436,0.148c0.068,0.032 0.232,0.248 0.3,0.293c0.069,0.045 0.122,0.174 0.122,0.209c0,0.035 0.422,0.193 0.525,0.306c0.102,0.113 0.272,0.082 0.303,0.035c0.032,-0.048 0.115,0.224 0.16,0.318c0.042,0.094 0.052,0.324 0.019,0.362c-0.033,0.035 -0.094,0.46 -0.164,0.544c-0.073,0.086 -0.222,0.703 -0.191,0.825c0.033,0.122 0.231,0.374 0.317,0.412c0.085,0.036 0.048,0.168 -0.018,0.177c-0.068,0.009 -0.036,0.598 0.123,0.685c0.158,0.086 0.291,0.348 0.268,0.393Z" style="fill:#00bcd4;fill-rule:nonzero;"/><path d="M16.529,20.498l-0.001,0.002" style="fill:#73bcc5;fill-rule:nonzero;"/><path d="M15.367,13.34c0.204,-0.035 0.542,-0.09 0.564,-0.148c0.018,-0.046 0.02,-0.186 -0.018,-0.234l0.098,0.004c0.077,0 0.205,-0.424 0.287,-0.523c0.082,-0.098 0.546,-0.244 0.656,-0.311c0.111,-0.067 0.354,-0.3 0.447,-0.327c0.093,-0.027 0.229,-0.245 0.208,-0.289c-0.021,-0.043 0.315,-0.246 0.442,-0.3c0.126,-0.054 0.193,-0.204 0.145,-0.21c-0.03,-0.003 -0.74,0.368 -1.389,0.735l-0.018,0.015c-0.185,0.125 -0.368,0.256 -0.55,0.39c-0.124,0.09 -0.241,0.186 -0.363,0.279c-0.063,0.051 -0.127,0.1 -0.189,0.15c-0.143,0.116 -0.285,0.235 -0.424,0.354l-0.087,0.077c-0.155,0.134 -0.307,0.272 -0.457,0.412c0.202,-0.015 0.515,-0.051 0.648,-0.074Z" style="fill:#00bcd4;fill-rule:nonzero;"/><path d="M26.109,21.627c-0.08,-0.001 -0.083,0.24 0.002,0.267c0.06,0.019 0.136,-0.136 0.209,-0.238l0,-0.945l-0.019,-0.021c-0.101,-0.102 -0.086,-0.103 0.019,-0.026l0,-5.807c-0.087,0.081 -0.17,0.156 -0.223,0.198c-0.139,0.109 -0.382,0.582 -0.459,0.694c-0.08,0.112 -0.194,0.133 -0.241,0.136l-0.085,0.175c0,0.046 -0.409,0.26 -0.453,0.447c-0.043,0.187 0.042,0.612 0.042,0.764c0,0.151 0.15,0.451 0.265,0.456c0.113,0.005 0.055,0.258 0.025,0.328c-0.031,0.07 0.072,0.149 0.068,0.208c-0.002,0.06 -0.289,0.145 -0.377,0.179c-0.088,0.032 -0.23,0.232 -0.25,0.306c-0.015,0.064 -0.289,0.11 -0.379,0.197c0.022,-0.062 0.053,-0.149 0.076,-0.198c0.053,-0.099 -0.019,-0.273 -0.061,-0.308c-0.044,-0.037 -0.064,-0.53 -0.133,-0.636c-0.069,-0.106 -0.242,-0.285 -0.285,-0.32c-0.042,-0.035 0.03,-0.165 0.054,-0.22c0.024,-0.054 -0.23,-0.086 -0.299,-0.045c-0.07,0.04 -0.107,0.529 -0.137,0.662c-0.029,0.134 0.126,0.339 0.168,0.349c0.043,0.01 0.031,0.25 -0.058,0.258c-0.09,0.009 -0.172,0.36 -0.126,0.44c0.046,0.081 -0.065,0.237 -0.118,0.274c-0.052,0.036 0.345,0.016 0.526,0.011c0.181,-0.005 0.32,0.076 0.302,0.091c-0.018,0.015 -0.345,0.063 -0.405,0.141c-0.057,0.078 -0.279,0.227 -0.323,0.286c-0.043,0.06 0.074,0.192 0.168,0.186c0.093,-0.007 0.201,0.325 0.275,0.386c0.072,0.061 0.046,0.233 0.015,0.281c-0.034,0.046 -0.477,-0.033 -0.644,0.009c-0.168,0.041 -0.38,0.397 -0.395,0.531c-0.014,0.134 0.027,0.519 0.05,0.626c0.021,0.106 0.372,0.173 0.443,0.224c0.073,0.052 0.408,0.002 0.479,0.035c0.068,0.033 0.296,-0.342 0.342,-0.515c0.042,-0.174 0.403,-0.492 0.478,-0.612c0.074,-0.117 0.46,-0.103 0.555,-0.166c0.096,-0.06 0.042,0.295 0.087,0.488c0.046,0.196 0.416,0.171 0.362,-0.012c-0.054,-0.181 0.037,-0.262 0.052,-0.195c0.017,0.064 0.371,0.21 0.438,0.313c0.068,0.103 0.048,0.322 -0.03,0.318Z" style="fill:#00bcd4;fill-rule:nonzero;"/><path d="M26.32,22.776c-0.074,-0.038 -0.141,-0.071 -0.193,-0.094c-0.219,-0.092 -0.39,-0.425 -0.435,-0.467c-0.045,-0.045 0.038,-0.152 0.016,-0.218c-0.021,-0.067 -0.52,-0.08 -0.662,-0.026c-0.146,0.053 -0.894,0.132 -1.07,0.21c-0.178,0.079 -0.445,-0.005 -0.528,-0.02c-0.082,-0.014 -0.281,0.23 -0.381,0.274c-0.102,0.044 -0.228,0.39 -0.283,0.77l-0.137,0.265l-0.087,0.169c-0.247,0.188 -0.52,0.813 -0.601,0.94c-0.079,0.126 -0.144,1.028 -0.144,1.332c0,0.303 0.265,0.946 0.34,1.124c0.075,0.177 0.533,0.569 0.686,0.664c0.152,0.09 0.65,0.104 0.814,0.103c0.162,0 0.349,-0.155 0.411,-0.343l0.239,0.023l0.11,0.011c0.005,0.134 0.358,0.241 0.444,0.288c0.086,0.047 0.318,0.011 0.389,-0.009c0.068,-0.02 0.146,0.604 0.096,0.784c-0.051,0.18 0.122,0.812 0.173,1.002c0.051,0.19 0.267,0.711 0.29,0.898c0.02,0.187 -0.127,0.807 -0.152,1.024c-0.025,0.219 0.271,0.827 0.349,1.036c0.077,0.209 0.141,0.659 0.141,0.764c0,0.052 0.083,0.24 0.175,0.448l0,-10.952Z" style="fill:#00bcd4;fill-rule:nonzero;"/><path d="M17.634,37.675c0.077,0 0.154,0 0.234,0c0.042,-0.252 -0.247,-0.21 -0.234,0Z" style="fill:#73bcc5;fill-rule:nonzero;"/><path d="M22.337,14.466c0.118,0.047 0.344,-0.118 0.258,-0.181c-0.088,-0.062 -0.041,-0.062 0,-0.034l0.041,-0.254c-0.046,-0.046 0.349,-0.333 0.28,-0.605c-0.07,-0.272 0.108,-0.552 0.213,-0.555c0.107,-0.003 0.075,-0.307 -0.052,-0.335c-0.127,-0.028 -0.008,-0.056 0.04,-0.099c0.047,-0.043 0.107,-0.314 0.081,-0.367c-0.03,-0.052 0.192,-0.111 0.231,-0.173c0.04,-0.062 0.294,-0.183 0.384,-0.203c0.089,-0.021 0.139,-0.26 0.042,-0.249c-0.099,0.013 -0.352,-0.038 -0.395,-0.085c-0.044,-0.046 -0.423,-0.087 -0.533,-0.041c-0.109,0.046 -0.033,-0.267 0.118,-0.301c0.153,-0.034 0.023,-0.249 -0.139,-0.25c-0.162,-0.001 -0.562,-0.06 -0.656,-0.039c-0.095,0.02 -0.278,-0.065 -0.345,-0.076c-0.067,-0.009 -0.549,0.144 -0.775,0.133c-0.228,-0.01 -0.787,0.013 -0.906,0.047c-0.123,0.032 -0.21,0.269 -0.193,0.352c0.017,0.085 -0.541,0.083 -0.716,0.086c-0.176,0.002 -1.112,0.201 -1.357,0.336c-0.243,0.133 -0.434,0.477 -0.353,0.484c0.08,0.006 -0.136,0.201 -0.268,0.247c-0.131,0.045 -0.444,0.065 -0.518,0.139c-0.073,0.073 0.078,0.124 0.108,0.174c0.029,0.049 0.117,-0.044 0.2,0.005c0.081,0.045 0.354,0.067 0.427,0.095c0.074,0.029 -0.233,0.087 -0.374,0.097c-0.144,0.011 -0.112,0.291 0.004,0.33c0.117,0.039 0.417,0.081 0.448,0.032c0.031,-0.05 0.356,0.052 0.504,0.07c0.145,0.016 0.258,0.383 0.302,0.463c0.046,0.08 0.055,0.36 0.044,0.441c-0.01,0.081 0.26,0.228 0.309,0.176c0.047,-0.051 0.034,0.128 -0.074,0.118c-0.108,-0.009 -0.038,0.302 0.095,0.347c0.133,0.044 0.042,0.236 -0.034,0.294c-0.077,0.058 -0.035,0.241 -0.114,0.307c-0.078,0.064 0.279,0.685 0.276,1.002c-0.001,0.319 0.198,0.578 0.273,0.578c0.076,0 0.338,0.065 0.372,0.132c0.035,0.068 0.161,-0.047 0.211,-0.1c0.048,-0.05 0.157,-0.204 0.235,-0.338c0.082,-0.135 0.262,-0.774 0.285,-0.843c0.024,-0.068 0.325,-0.025 0.393,-0.06c0.068,-0.035 0.263,-0.19 0.319,-0.236c0.056,-0.046 0.483,-0.227 0.602,-0.312c0.115,-0.083 0.31,-0.446 0.401,-0.523c0.089,-0.077 -0.047,-0.055 -0.161,-0.129c-0.112,-0.075 -0.064,-0.166 -0.03,-0.201c0.032,-0.036 0.377,0.057 0.497,0.104Z" style="fill:#00bcd4;fill-rule:nonzero;"/><path d="M26.066,11.634c-0.122,-0.041 -0.366,0.093 -0.336,0.168c0.032,0.077 -0.199,-0.097 -0.36,-0.014c-0.162,0.084 -0.206,0.367 -0.132,0.405c0.074,0.036 0.127,0.261 0.129,0.304c0.003,0.044 0.314,0.013 0.394,-0.053c0.079,-0.065 0.069,0.229 -0.01,0.308c-0.079,0.08 0.029,0.238 0.115,0.252c0.087,0.012 0.204,0.216 0.294,0.214c0.045,-0.001 0.105,-0.089 0.16,-0.191l0,-1.04l-0.002,0c-0.068,-0.009 -0.133,-0.313 -0.252,-0.353Z" style="fill:#00bcd4;fill-rule:nonzero;"/><path d="M23.127,18.723c0.095,-0.015 0.167,-0.091 0.164,-0.17c-0.004,-0.077 -0.137,-0.43 -0.192,-0.43c-0.053,0 -0.154,0.259 -0.217,0.234c-0.063,-0.027 -0.098,0.211 -0.084,0.299c0.015,0.091 0.235,0.084 0.329,0.067Z" style="fill:#73bcc5;fill-rule:nonzero;"/><path d="M22.789,16.104c0.032,0.094 0.151,0.153 0.265,0.136c0.113,-0.018 0.34,-0.135 0.42,-0.144c0.079,-0.008 0.167,-0.407 0.117,-0.494c-0.049,-0.087 -0.425,-0.076 -0.516,-0.083c-0.092,-0.004 -0.373,-0.097 -0.426,-0.158c-0.053,-0.059 -0.093,0.231 -0.179,0.27c-0.087,0.036 0.042,0.093 0.077,0.062c0.035,-0.031 -0.002,0.149 -0.041,0.211c-0.037,0.062 0.25,0.106 0.283,0.2Z" style="fill:#00bcd4;fill-rule:nonzero;"/><path d="M14.419,16.112c-0.06,0.054 -0.008,0.329 0.104,0.337c0.113,0.008 0.292,-0.414 0.429,-0.331c0.138,0.086 0.231,0.119 0.208,0.074c-0.024,-0.045 -0.414,-0.216 -0.463,-0.248c-0.048,-0.029 -0.218,0.114 -0.278,0.168Z" style="fill:#73bcc5;fill-rule:nonzero;"/><path d="M15.854,25.424c0,0.046 0.244,0.039 0.283,-0.036c0.04,-0.074 0.019,-0.135 -0.048,-0.135c-0.064,0 -0.235,0.124 -0.235,0.171Z" style="fill:#73bcc5;fill-rule:nonzero;"/><path d="M14.765,25.022c0.117,-0.021 0.061,0.167 0.09,0.235c0.027,0.068 0.308,0.122 0.365,0.168c0.056,0.046 0.2,-0.085 0.312,-0.072c0.112,0.015 -0.037,-0.388 -0.225,-0.377c-0.187,0.014 -0.337,-0.169 -0.381,-0.192c-0.045,-0.02 -0.263,-0.152 -0.326,-0.203c-0.061,-0.05 -0.54,-0.092 -0.703,-0.092c-0.163,0 -0.342,0.165 -0.367,0.219c-0.026,0.056 0.258,0.093 0.339,0.05c0.081,-0.043 0.461,0.048 0.538,0.139c0.078,0.09 0.239,0.148 0.358,0.125Z" style="fill:#73bcc5;fill-rule:nonzero;"/><path d="M14.253,25.424c0,0.046 0.247,0.017 0.306,0.02c0.059,0 0.058,-0.04 -0.005,-0.091c-0.061,-0.05 -0.301,0.024 -0.301,0.071Z" style="fill:#73bcc5;fill-rule:nonzero;"/><path d="M14.427,24.154c-0.064,-0.026 -0.115,0.075 -0.115,0.123c0,0.047 0.035,0.086 0.078,0.086c0.044,0 0.101,-0.184 0.037,-0.209Z" style="fill:#73bcc5;fill-rule:nonzero;"/><path d="M14.945,24.193c-0.022,-0.047 -0.128,-0.086 -0.159,-0.086c-0.033,0 -0.055,0.082 -0.049,0.181c0.006,0.1 0.229,-0.049 0.208,-0.095Z" style="fill:#73bcc5;fill-rule:nonzero;"/><path d="M15.317,24.767c0.1,-0.048 0.113,-0.168 0.053,-0.161c-0.059,0.006 -0.168,-0.173 -0.234,-0.197c-0.063,-0.025 -0.116,0.106 -0.116,0.164c0,0.059 0.037,0.097 0.081,0.087c0.044,-0.011 0.115,0.153 0.216,0.107Z" style="fill:#73bcc5;fill-rule:nonzero;"/><path d="M15.931,12.995l-0.056,0.066l0.056,-0.066Z" style="fill:#d1ecfb;fill-rule:nonzero;"/><path d="M17.813,18.598l-0.059,0.066l0.059,-0.066Z" style="fill:#d1ecfb;fill-rule:nonzero;"/><path d="M27.224,2.096l-0.32,1.94l-1.939,0.319l1.939,0.317l0.32,1.941l0.317,-1.941l1.94,-0.317l-1.94,-0.319l-0.317,-1.94Z" style="fill:#e7e8e9;fill-rule:nonzero;"/><path d="M9.126,9.351l-0.319,1.939l-1.938,0.319l1.938,0.318l0.319,1.939l0.318,-1.939l1.939,-0.318l-1.939,-0.319l-0.318,-1.939Z" style="fill:#e7e8e9;fill-rule:nonzero;"/><path d="M33.44,0.467l-0.166,1.008l-1.006,0.165l1.006,0.166l0.166,1.008l0.166,-1.008l1.007,-0.166l-1.007,-0.165l-0.166,-1.008Z" style="fill:#e7e8e9;fill-rule:nonzero;"/><path d="M6.069,35.699l-0.319,1.94l-1.939,0.319l1.939,0.318l0.319,1.939l0.317,-1.939l1.94,-0.318l-1.94,-0.319l-0.317,-1.94Z" style="fill:#e7e8e9;fill-rule:nonzero;"/><path d="M12.484,39.681l-0.166,1.008l-1.007,0.165l1.007,0.166l0.166,1.008l0.165,-1.008l1.007,-0.166l-1.007,-0.165l-0.165,-1.008Z" style="fill:#e7e8e9;fill-rule:nonzero;"/><path d="M43.066,11.136l-0.32,1.939l-1.939,0.319l1.939,0.318l0.32,1.939l0.317,-1.939l1.94,-0.318l-1.94,-0.319l-0.317,-1.939Z" style="fill:#e7e8e9;fill-rule:nonzero;"/><path d="M43.272,39.886l-0.166,1.008l-1.006,0.166l1.006,0.166l0.166,1.007l0.165,-1.007l1.007,-0.166l-1.007,-0.166l-0.165,-1.008Z" style="fill:#e7e8e9;fill-rule:nonzero;"/><path d="M5.757,19.49l-0.167,1.008l-1.006,0.165l1.006,0.166l0.167,1.008l0.165,-1.008l1.007,-0.166l-1.007,-0.165l-0.165,-1.008Z" style="fill:#e7e8e9;fill-rule:nonzero;"/><path d="M44.961,57.067c-5.882,0 -10.65,-4.771 -10.65,-10.651c0,-5.882 4.768,-10.652 10.65,-10.652c5.882,0 10.649,4.77 10.649,10.652c0,5.88 -4.767,10.651 -10.649,10.651ZM63.894,43.109l-2.449,0c-0.178,-0.862 -0.414,-1.697 -0.711,-2.507l2.047,-1.182c0.49,-0.286 0.659,-0.911 0.377,-1.406l-2.053,-3.553c-0.286,-0.492 -0.916,-0.659 -1.402,-0.378l-2.129,1.23c-0.572,-0.652 -1.196,-1.261 -1.864,-1.816l1.184,-2.05c0.284,-0.495 0.115,-1.121 -0.376,-1.404l-3.553,-2.056c-0.49,-0.279 -1.117,-0.112 -1.403,0.379l-1.226,2.127c-0.817,-0.28 -1.66,-0.491 -2.525,-0.641l0,-2.37c0,-0.566 -0.458,-1.027 -1.027,-1.027l-4.101,0c-0.574,0 -1.033,0.461 -1.033,1.027l0,2.451c-0.857,0.173 -1.693,0.41 -2.504,0.707l-1.18,-2.047c-0.285,-0.493 -0.913,-0.659 -1.409,-0.376l-3.555,2.055c-0.489,0.281 -0.656,0.91 -0.372,1.401l1.227,2.129c-0.652,0.573 -1.26,1.194 -1.814,1.861l-2.049,-1.184c-0.496,-0.283 -1.122,-0.111 -1.406,0.378l-2.056,3.554c-0.282,0.49 -0.113,1.119 0.378,1.402l2.124,1.226c-0.275,0.816 -0.489,1.659 -0.636,2.524l-2.369,0c-0.569,0 -1.03,0.462 -1.029,1.028l-0.001,4.105c0,0.567 0.461,1.025 1.03,1.025l2.452,0c0.17,0.864 0.408,1.703 0.706,2.51l-2.049,1.182c-0.492,0.285 -0.656,0.912 -0.376,1.401l2.05,3.556c0.284,0.489 0.914,0.659 1.406,0.376l2.128,-1.228c0.574,0.653 1.197,1.265 1.864,1.818l-1.186,2.052c-0.283,0.491 -0.116,1.12 0.375,1.402l3.559,2.051c0.491,0.283 1.119,0.116 1.399,-0.374l1.229,-2.125c0.817,0.275 1.657,0.488 2.523,0.635l-0.001,2.373c0.001,0.567 0.46,1.025 1.026,1.023l4.108,0.004c0.567,0 1.027,-0.46 1.027,-1.027l0,-2.452c0.857,-0.173 1.694,-0.411 2.506,-0.707l1.184,2.046c0.284,0.494 0.907,0.659 1.4,0.377l3.558,-2.054c0.488,-0.281 0.657,-0.911 0.373,-1.403l-1.23,-2.128c0.655,-0.571 1.264,-1.194 1.819,-1.861l2.053,1.185c0.492,0.285 1.116,0.114 1.402,-0.377l2.053,-3.558c0.282,-0.487 0.113,-1.117 -0.373,-1.401l-2.13,-1.228c0.279,-0.812 0.49,-1.657 0.641,-2.519l2.369,0c0.566,0 1.023,-0.461 1.025,-1.029l0,-4.106c0.003,-0.568 -0.46,-1.026 -1.025,-1.026Z" style="fill:#00acc1;fill-rule:nonzero;"/><path d="M44.603,57.055c-5.716,-0.187 -10.292,-4.877 -10.292,-10.639c0,-5.763 4.576,-10.454 10.292,-10.642l-0.001,-9.319l-1.919,0c-0.574,0 -1.033,0.461 -1.033,1.027l0,2.451c-0.857,0.173 -1.693,0.41 -2.504,0.707l-1.18,-2.047c-0.285,-0.493 -0.913,-0.659 -1.409,-0.376l-3.555,2.055c-0.489,0.281 -0.656,0.91 -0.372,1.401l1.227,2.129c-0.652,0.573 -1.26,1.194 -1.814,1.861l-2.049,-1.184c-0.496,-0.283 -1.122,-0.111 -1.406,0.378l-2.056,3.554c-0.282,0.49 -0.113,1.119 0.378,1.402l2.124,1.226c-0.275,0.816 -0.489,1.659 -0.636,2.524l-2.369,0c-0.569,0 -1.03,0.462 -1.029,1.028l-0.001,4.105c0,0.567 0.461,1.025 1.03,1.025l2.452,0c0.17,0.864 0.408,1.703 0.706,2.51l-2.049,1.182c-0.492,0.285 -0.656,0.912 -0.376,1.401l2.05,3.556c0.284,0.489 0.914,0.659 1.406,0.376l2.128,-1.228c0.574,0.653 1.197,1.265 1.864,1.818l-1.186,2.052c-0.283,0.491 -0.116,1.12 0.375,1.402l3.559,2.051c0.491,0.283 1.119,0.116 1.399,-0.374l1.229,-2.125c0.817,0.275 1.657,0.488 2.523,0.635l-0.001,2.373c0.001,0.567 0.46,1.025 1.026,1.023l1.468,0.003l0.001,-9.321Z" style="fill:#00bcd4;fill-rule:nonzero;"/><path d="M44.961,57.067c-5.882,0 -10.65,-4.771 -10.65,-10.651c0,-5.882 4.768,-10.652 10.65,-10.652c5.882,0 10.649,4.77 10.649,10.652c0,5.88 -4.767,10.651 -10.649,10.651ZM44.96,33.448c-7.164,0 -12.969,5.805 -12.969,12.969c0,7.159 5.805,12.968 12.969,12.968c7.162,0 12.97,-5.809 12.97,-12.968c0,-7.164 -5.806,-12.969 -12.97,-12.969Z" style="fill:#00acc1;fill-rule:nonzero;"/><path d="M44.96,33.448c-0.121,0 -0.238,0.003 -0.357,0.008l0,2.318c0.119,-0.003 0.236,-0.01 0.358,-0.01c5.882,0 10.649,4.77 10.649,10.652c0,5.88 -4.767,10.651 -10.649,10.651c-0.122,0 -0.239,-0.007 -0.358,-0.012l0,2.323c0.119,0.002 0.237,0.007 0.357,0.007c7.162,0 12.97,-5.809 12.97,-12.968c0,-7.164 -5.806,-12.969 -12.97,-12.969Z" style="fill:#00bcd4;fill-rule:nonzero;"/><path d="M67.243,68.818l-0.007,0.007c-1.614,1.606 -4.226,1.599 -5.833,-0.013l-12.577,-12.636c-1.604,-1.614 -1.598,-4.221 0.007,-5.827l0.007,-0.007c1.616,-1.607 4.228,-1.601 5.833,0.014l12.578,12.636c1.602,1.613 1.598,4.218 -0.008,5.826Z" style="fill:#fbb300;fill-rule:nonzero;"/><path d="M65.449,68.739c-0.62,0.618 -1.634,0.614 -2.255,-0.009l-12.576,-12.637c-0.618,-0.622 -0.618,-1.633 0.002,-2.254c0.628,-0.623 1.641,-0.621 2.261,0.002l12.577,12.636c0.618,0.624 0.618,1.634 -0.003,2.256l-0.006,0.006Z" style="fill:#ffc107;fill-rule:nonzero;"/><path d="M24.296,25.76l0,-0.002c3.056,-3.057 7.116,-4.735 11.428,-4.728c8.887,0.016 16.106,7.26 16.09,16.146c-0.007,4.289 -1.686,8.327 -4.726,11.368c-3.055,3.055 -7.111,4.732 -11.422,4.726c-4.3,-0.007 -8.344,-1.694 -11.387,-4.747c-3.043,-3.053 -4.714,-7.103 -4.707,-11.403c0.008,-4.286 1.684,-8.323 4.724,-11.36Z" style="fill:#474f59;fill-rule:nonzero;"/><path d="M27.215,28.673c-2.261,2.262 -3.511,5.267 -3.519,8.458c-0.012,6.613 5.358,12.004 11.973,12.015c3.208,0.005 6.228,-1.244 8.506,-3.522c2.262,-2.261 3.51,-5.263 3.517,-8.453c0.005,-3.198 -1.24,-6.211 -3.505,-8.484c-2.266,-2.274 -5.275,-3.528 -8.475,-3.534c-3.204,-0.004 -6.222,1.245 -8.497,3.52Z" style="fill:#dce4e7;fill-rule:nonzero;"/><path d="M44.187,28.687c-2.266,-2.274 -5.275,-3.528 -8.475,-3.534c-0.9,-0.001 -1.786,0.1 -2.645,0.292c-1.306,0.59 -2.509,1.414 -3.555,2.463c-2.262,2.26 -3.511,5.265 -3.516,8.456c-0.012,6.613 5.358,12.004 11.972,12.017c0.901,0.002 1.788,-0.1 2.647,-0.291c1.309,-0.593 2.514,-1.419 3.56,-2.466c2.262,-2.261 3.51,-5.263 3.517,-8.453c0.005,-3.198 -1.24,-6.211 -3.505,-8.484Z" style="fill:#d0dfe5;fill-rule:nonzero;"/><path d="M50.456,52.038c-0.806,0.804 -2.112,0.8 -2.917,-0.007l-2.568,-2.651c-0.802,-0.807 -0.801,-2.109 0.002,-2.913l0.005,-0.005c0.807,-0.802 2.111,-0.8 2.917,0.009l2.568,2.651c0.802,0.806 0.8,2.109 -0.003,2.913l-0.004,0.003Z" style="fill:#474f59;fill-rule:nonzero;"/><path d="M35.722,21.941c8.385,0.017 15.195,6.851 15.18,15.234c-0.009,4.05 -1.592,7.857 -4.46,10.725c-2.873,2.875 -6.688,4.457 -10.745,4.457l-0.028,0l0.003,-2.028l0.025,0c3.515,0 6.82,-1.372 9.31,-3.865c2.486,-2.484 3.859,-5.784 3.867,-9.293c0.012,-7.264 -5.889,-13.186 -13.156,-13.201l0.004,-2.029Z" style="fill:#596274;fill-rule:nonzero;"/><path d="M34.311,46.416c0,-5.882 4.768,-10.652 10.65,-10.652c0.927,0 1.823,0.131 2.681,0.354c-0.238,-2.802 -1.441,-5.409 -3.455,-7.431c-0.709,-0.71 -1.497,-1.309 -2.333,-1.814c-0.127,0.171 -0.204,0.381 -0.204,0.609l0,2.451c-0.857,0.173 -1.693,0.41 -2.504,0.707l-1.18,-2.047c-0.285,-0.493 -0.913,-0.659 -1.409,-0.376l-3.555,2.055c-0.489,0.281 -0.656,0.91 -0.372,1.401l1.227,2.129c-0.652,0.573 -1.26,1.194 -1.814,1.861l-2.049,-1.184c-0.496,-0.283 -1.122,-0.111 -1.406,0.378l-2.056,3.554c-0.282,0.49 -0.113,1.119 0.378,1.402l2.124,1.226c-0.275,0.816 -0.489,1.659 -0.636,2.524l-2.369,0c-0.146,0 -0.283,0.031 -0.408,0.085c1.962,3.032 5.249,5.122 9.042,5.444c-0.221,-0.856 -0.352,-1.749 -0.352,-2.676Z" style="fill:#00bcd4;fill-rule:nonzero;"/><path d="M28.399,43.559l-0.001,0.004l-2.369,0c-0.146,0 -0.283,0.031 -0.408,0.085c0.101,0.155 0.207,0.307 0.315,0.458c0.072,0.102 0.149,0.201 0.224,0.301c0.175,0.228 0.357,0.452 0.548,0.667c0.083,0.094 0.167,0.187 0.253,0.279c0.177,0.187 0.36,0.369 0.547,0.545c0.116,0.108 0.231,0.216 0.35,0.319c0.138,0.119 0.278,0.234 0.422,0.347c0.109,0.086 0.223,0.169 0.335,0.252c0.22,0.163 0.447,0.317 0.678,0.463c0.111,0.071 0.223,0.139 0.336,0.206c0.238,0.14 0.482,0.271 0.73,0.395c0.125,0.062 0.249,0.125 0.376,0.183c0.168,0.076 0.337,0.15 0.51,0.218c0.157,0.064 0.319,0.121 0.48,0.177c0.238,0.085 0.478,0.161 0.724,0.23c0.125,0.035 0.254,0.068 0.383,0.099c0.283,0.07 0.57,0.129 0.86,0.178c0.135,0.022 0.268,0.045 0.404,0.062c0.187,0.025 0.377,0.049 0.567,0.065c-0.105,-0.41 -0.19,-0.829 -0.25,-1.257c-2.431,-0.761 -4.52,-2.283 -6.014,-4.276Z" style="fill:#00bcd4;fill-rule:nonzero;"/><path d="M51.914,22.985c-1.513,0 -2.741,-1.228 -2.741,-2.741c0,-1.514 1.228,-2.741 2.741,-2.741c1.513,0 2.74,1.227 2.74,2.741c0,1.513 -1.227,2.741 -2.74,2.741ZM58.247,19.138l-0.818,0c-0.06,-0.289 -0.138,-0.568 -0.238,-0.84l0.685,-0.395c0.163,-0.095 0.22,-0.305 0.126,-0.47l-0.687,-1.189c-0.095,-0.164 -0.307,-0.22 -0.469,-0.126l-0.712,0.411c-0.191,-0.218 -0.4,-0.421 -0.623,-0.607l0.395,-0.686c0.095,-0.166 0.039,-0.375 -0.126,-0.47l-1.189,-0.687c-0.163,-0.095 -0.373,-0.038 -0.469,0.126l-0.409,0.712c-0.273,-0.094 -0.557,-0.165 -0.845,-0.215l0,-0.792c0,-0.19 -0.153,-0.345 -0.344,-0.345l-1.373,0c-0.191,0 -0.345,0.155 -0.345,0.345l0,0.82c-0.287,0.058 -0.566,0.137 -0.838,0.237l-0.395,-0.686c-0.094,-0.166 -0.304,-0.221 -0.47,-0.126l-1.189,0.687c-0.165,0.095 -0.221,0.305 -0.126,0.469l0.411,0.713c-0.218,0.191 -0.421,0.399 -0.607,0.622l-0.686,-0.395c-0.165,-0.095 -0.375,-0.038 -0.469,0.126l-0.688,1.189c-0.096,0.164 -0.039,0.374 0.126,0.469l0.71,0.41c-0.091,0.273 -0.163,0.555 -0.213,0.844l-0.792,0c-0.19,0 -0.344,0.155 -0.344,0.344l0,1.373c0,0.19 0.154,0.343 0.344,0.343l0.82,0c0.058,0.29 0.137,0.57 0.237,0.841l-0.687,0.395c-0.164,0.095 -0.218,0.305 -0.124,0.469l0.686,1.189c0.094,0.164 0.304,0.221 0.469,0.126l0.712,-0.41c0.193,0.218 0.4,0.423 0.624,0.607l-0.397,0.687c-0.094,0.165 -0.039,0.375 0.127,0.468l1.189,0.688c0.165,0.094 0.375,0.039 0.469,-0.126l0.411,-0.711c0.272,0.092 0.555,0.164 0.844,0.212l0,0.795c0,0.19 0.153,0.342 0.343,0.342l1.374,0.001c0.19,0 0.343,-0.153 0.343,-0.343l0,-0.821c0.288,-0.058 0.568,-0.136 0.839,-0.236l0.396,0.683c0.096,0.167 0.303,0.222 0.469,0.127l1.19,-0.687c0.163,-0.093 0.22,-0.304 0.125,-0.47l-0.412,-0.711c0.219,-0.192 0.423,-0.399 0.609,-0.624l0.687,0.397c0.165,0.096 0.373,0.039 0.468,-0.126l0.687,-1.189c0.096,-0.165 0.038,-0.375 -0.125,-0.469l-0.711,-0.411c0.092,-0.272 0.162,-0.555 0.213,-0.843l0.792,0c0.191,0 0.344,-0.155 0.344,-0.345l0,-1.373c0.001,-0.19 -0.154,-0.343 -0.344,-0.343Z" style="fill:#474f59;fill-rule:nonzero;"/><path d="M51.794,23.804c-1.912,-0.063 -3.443,-1.633 -3.443,-3.56c0,-1.929 1.531,-3.498 3.443,-3.559l0,-3.12l-0.643,0c-0.191,0 -0.345,0.155 -0.345,0.345l0,0.82c-0.287,0.058 -0.566,0.137 -0.838,0.237l-0.395,-0.686c-0.094,-0.166 -0.304,-0.221 -0.47,-0.126l-1.189,0.687c-0.165,0.095 -0.221,0.305 -0.126,0.469l0.411,0.713c-0.218,0.191 -0.421,0.399 -0.607,0.622l-0.686,-0.395c-0.165,-0.095 -0.375,-0.038 -0.469,0.126l-0.688,1.189c-0.096,0.164 -0.039,0.374 0.126,0.469l0.71,0.41c-0.091,0.273 -0.163,0.555 -0.213,0.844l-0.792,0c-0.19,0 -0.344,0.155 -0.344,0.344l0,1.373c0,0.19 0.154,0.343 0.344,0.343l0.82,0c0.058,0.29 0.137,0.57 0.237,0.841l-0.687,0.395c-0.164,0.095 -0.218,0.305 -0.124,0.469l0.686,1.189c0.094,0.164 0.304,0.221 0.469,0.126l0.712,-0.41c0.193,0.218 0.4,0.423 0.624,0.607l-0.397,0.687c-0.094,0.165 -0.039,0.375 0.127,0.468l1.189,0.688c0.165,0.094 0.375,0.039 0.469,-0.126l0.411,-0.711c0.272,0.092 0.555,0.164 0.844,0.212l0,0.795c0,0.19 0.153,0.342 0.343,0.342l0.491,0.001l0,-3.118Z" style="fill:#596274;fill-rule:nonzero;"/><path d="M51.914,24.231c-2.202,0 -3.988,-1.785 -3.988,-3.987c0,-2.203 1.786,-3.988 3.988,-3.988c2.202,0 3.986,1.785 3.986,3.988c0,2.202 -1.784,3.987 -3.986,3.987ZM51.913,15.39c-2.681,0 -4.854,2.173 -4.854,4.855c0,2.679 2.173,4.855 4.854,4.855c2.683,0 4.856,-2.176 4.856,-4.855c0,-2.682 -2.173,-4.855 -4.856,-4.855Z" style="fill:#474f59;fill-rule:nonzero;"/><path d="M51.913,15.39l-0.132,0.002l0,0.868l0.133,-0.004c2.202,0 3.986,1.785 3.986,3.988c0,2.202 -1.784,3.987 -3.986,3.987l-0.133,-0.003l0,0.869l0.132,0.003c2.683,0 4.856,-2.176 4.856,-4.855c0,-2.682 -2.173,-4.855 -4.856,-4.855Z" style="fill:#596274;fill-rule:nonzero;"/><path d="M56.215,20.576l0.008,-0.129c0.004,-0.068 0.006,-0.135 0.006,-0.203c0,-0.068 -0.002,-0.136 -0.006,-0.204l-0.008,-0.126l-0.005,-0.066c-0.2,-2.195 -2.051,-3.919 -4.297,-3.919c-2.181,0 -3.989,1.627 -4.274,3.732l-0.003,0.016c-0.007,0.056 -0.013,0.111 -0.019,0.167l-0.005,0.08l-0.01,0.115c-0.002,0.068 -0.004,0.137 -0.004,0.205c0,0.068 0.002,0.136 0.004,0.203l0.01,0.117l0.005,0.078c0.006,0.056 0.012,0.112 0.019,0.166l0.002,0.018c0.285,2.105 2.093,3.733 4.275,3.733c2.246,0 4.097,-1.724 4.297,-3.92l0.005,-0.063Z" style="fill:#00acc1;fill-rule:nonzero;"/><path d="M51.913,15.929c-2.181,0 -3.989,1.627 -4.274,3.732l-0.003,0.016c-0.007,0.056 -0.013,0.111 -0.019,0.167l-0.005,0.08l-0.01,0.115c-0.002,0.068 -0.004,0.137 -0.004,0.205c0,0.068 0.002,0.136 0.004,0.203l0.01,0.117l0.005,0.078c0.006,0.056 0.012,0.112 0.019,0.166l0.002,0.018c0.285,2.105 2.093,3.733 4.275,3.733" style="fill:#00bcd4;fill-rule:nonzero;"/><path d="M55.432,22.007l-0.045,0.087l-0.044,0.079l-0.049,0.084l-0.047,0.076l-0.053,0.083l-0.05,0.074l-0.056,0.078l-0.055,0.072l-0.06,0.076l-0.058,0.069l-0.062,0.074l-0.06,0.064l-0.068,0.072l-0.062,0.062l-0.072,0.068l-0.065,0.06l-0.075,0.064l-0.067,0.056l-0.077,0.062l-0.07,0.052l-0.081,0.057l-0.073,0.049l-0.085,0.055l-0.072,0.045l-0.089,0.051l-0.075,0.042l-0.092,0.047l-0.075,0.037l-0.096,0.043l-0.077,0.033l-0.099,0.04l-0.078,0.03l-0.017,0.006c0.476,-0.475 0.852,-1.201 1.066,-2.067l1.195,0l-0.018,0.04l-0.039,0.08Z" style="fill:#d1ecfb;fill-rule:nonzero;"/><path d="M53.323,16.57l0.099,0.039l0.077,0.034l0.096,0.043l0.075,0.037l0.092,0.047l0.075,0.041l0.089,0.051l0.072,0.046l0.085,0.054l0.073,0.049l0.081,0.059l0.07,0.052l0.077,0.06l0.067,0.056l0.075,0.066l0.065,0.058l0.072,0.068l0.062,0.063l0.068,0.071l0.06,0.065l0.062,0.074l0.058,0.069l0.06,0.075l0.055,0.072l0.056,0.079l0.05,0.074l0.053,0.083l0.047,0.075l0.049,0.085l0.044,0.079l0.045,0.087l0.039,0.081l0.018,0.038l-1.195,0c-0.214,-0.867 -0.591,-1.591 -1.066,-2.066l0.017,0.007l0.078,0.029Z" style="fill:#d1ecfb;fill-rule:nonzero;"/><path d="M54.11,20.244c0,0.442 -0.042,0.867 -0.117,1.264l-1.89,0l0,-2.529l1.89,0c0.075,0.397 0.117,0.822 0.117,1.265Z" style="fill:#d1ecfb;fill-rule:nonzero;"/><path d="M53.908,21.887c-0.322,1.254 -1.003,2.154 -1.805,2.278l0,-2.278l1.805,0Z" style="fill:#d1ecfb;fill-rule:nonzero;"/><path d="M52.103,18.6l0,-2.276c0.802,0.123 1.482,1.022 1.805,2.276l-1.805,0Z" style="fill:#d1ecfb;fill-rule:nonzero;"/><path d="M55.845,20.422l-0.006,0.09l-0.004,0.075l-0.015,0.133l-0.001,0.004c-0.033,0.266 -0.095,0.526 -0.182,0.784l-1.261,0c0.074,-0.4 0.113,-0.825 0.113,-1.264c0,-0.441 -0.039,-0.865 -0.113,-1.265l1.261,0c0.087,0.257 0.148,0.518 0.181,0.781l0.002,0.01l0.015,0.13l0.004,0.076l0.006,0.089c0.003,0.059 0.004,0.119 0.004,0.179c0,0.06 -0.001,0.119 -0.004,0.178Z" style="fill:#d1ecfb;fill-rule:nonzero;"/><path d="M48.009,20.737l-0.003,-0.025l-0.012,-0.121l-0.007,-0.084l-0.005,-0.084c-0.003,-0.059 -0.004,-0.119 -0.004,-0.179c0,-0.06 0.001,-0.12 0.004,-0.181l0.005,-0.082l0.007,-0.085l0.012,-0.121l0.003,-0.025c0.034,-0.26 0.094,-0.518 0.181,-0.771l1.26,0c-0.072,0.4 -0.112,0.824 -0.112,1.265c0,0.439 0.04,0.864 0.112,1.264l-1.261,0c-0.087,-0.254 -0.146,-0.511 -0.18,-0.771Z" style="fill:#fff;fill-rule:nonzero;"/><path d="M49.716,20.244c0,-0.443 0.042,-0.868 0.117,-1.265l1.891,0l0,2.529l-1.891,0c-0.075,-0.397 -0.117,-0.822 -0.117,-1.264Z" style="fill:#fff;fill-rule:nonzero;"/><path d="M51.724,16.324l0,2.276l-1.806,0c0.323,-1.254 1.003,-2.153 1.806,-2.276Z" style="fill:#fff;fill-rule:nonzero;"/><path d="M51.724,21.887l0,2.278c-0.803,-0.124 -1.483,-1.024 -1.807,-2.278l1.807,0Z" style="fill:#fff;fill-rule:nonzero;"/><path d="M50.598,16.534c-0.475,0.475 -0.852,1.2 -1.066,2.066l-1.193,0c0.442,-0.959 1.258,-1.709 2.259,-2.066Z" style="fill:#fff;fill-rule:nonzero;"/><path d="M48.338,21.887l1.194,0c0.214,0.866 0.591,1.591 1.066,2.067c-1.001,-0.357 -1.818,-1.108 -2.26,-2.067Z" style="fill:#fff;fill-rule:nonzero;"/><path d="M58.782,28.386c0.439,0 0.795,-0.356 0.795,-0.795c0,-0.44 -0.356,-0.796 -0.795,-0.796c-0.44,0 -0.797,0.356 -0.797,0.796c0,0.439 0.357,0.795 0.797,0.795ZM56.421,27.124l0.39,0c0.09,0 0.189,-0.07 0.217,-0.156l0.073,-0.177c0.04,-0.081 0.022,-0.199 -0.043,-0.263l-0.276,-0.277c-0.064,-0.063 -0.064,-0.169 0,-0.232l0.427,-0.428c0.064,-0.063 0.169,-0.063 0.234,0l0.275,0.277c0.065,0.064 0.182,0.083 0.264,0.042l0.176,-0.072c0.086,-0.029 0.157,-0.126 0.157,-0.218l0,-0.39c0,-0.09 0.074,-0.164 0.164,-0.164l0.604,0c0.09,0 0.164,0.074 0.164,0.164l0,0.39c0,0.092 0.071,0.189 0.157,0.218l0.176,0.072c0.082,0.041 0.2,0.022 0.264,-0.042l0.276,-0.277c0.064,-0.063 0.169,-0.063 0.233,0l0.427,0.428c0.064,0.063 0.064,0.169 0,0.232l-0.276,0.277c-0.064,0.064 -0.083,0.182 -0.044,0.263l0.073,0.177c0.029,0.086 0.127,0.156 0.217,0.156l0.391,0c0.09,0 0.165,0.074 0.165,0.164l0,0.603c0,0.092 -0.075,0.166 -0.165,0.166l-0.391,0c-0.09,0 -0.188,0.07 -0.217,0.155l-0.073,0.178c-0.039,0.08 -0.02,0.2 0.044,0.264l0.276,0.276c0.064,0.064 0.064,0.168 0,0.232l-0.427,0.428c-0.064,0.064 -0.169,0.064 -0.233,0l-0.276,-0.277c-0.064,-0.063 -0.182,-0.083 -0.264,-0.043l-0.176,0.073c-0.086,0.029 -0.157,0.126 -0.157,0.216l0,0.391c0,0.092 -0.074,0.165 -0.164,0.165l-0.604,0c-0.09,0 -0.164,-0.073 -0.164,-0.165l0,-0.391c0,-0.09 -0.071,-0.187 -0.157,-0.216l-0.176,-0.073c-0.082,-0.04 -0.199,-0.02 -0.264,0.043l-0.275,0.277c-0.065,0.064 -0.17,0.064 -0.234,0l-0.427,-0.428c-0.064,-0.064 -0.064,-0.168 0,-0.232l0.276,-0.276c0.065,-0.064 0.083,-0.184 0.043,-0.264l-0.073,-0.178c-0.028,-0.085 -0.127,-0.155 -0.217,-0.155l-0.39,0c-0.091,0 -0.165,-0.074 -0.165,-0.166l0,-0.603c0,-0.09 0.074,-0.164 0.165,-0.164Z" style="fill:#ffc107;fill-rule:nonzero;"/><path d="M58.772,28.385l0.01,0.001c0.439,0 0.795,-0.356 0.795,-0.795c0,-0.44 -0.356,-0.796 -0.795,-0.796l-0.01,0l0,-1.729l0.311,0c0.09,0 0.164,0.074 0.164,0.164l0,0.39c0,0.092 0.071,0.189 0.157,0.218l0.176,0.072c0.082,0.041 0.2,0.022 0.264,-0.042l0.276,-0.277c0.064,-0.063 0.169,-0.063 0.233,0l0.427,0.428c0.064,0.063 0.064,0.169 0,0.232l-0.276,0.277c-0.064,0.064 -0.083,0.182 -0.044,0.263l0.073,0.177c0.029,0.086 0.127,0.156 0.217,0.156l0.391,0c0.09,0 0.165,0.074 0.165,0.164l0,0.603c0,0.092 -0.075,0.166 -0.165,0.166l-0.391,0c-0.09,0 -0.188,0.07 -0.217,0.155l-0.073,0.178c-0.039,0.08 -0.02,0.2 0.044,0.264l0.276,0.276c0.064,0.064 0.064,0.168 0,0.232l-0.427,0.428c-0.064,0.064 -0.169,0.064 -0.233,0l-0.276,-0.277c-0.064,-0.063 -0.182,-0.083 -0.264,-0.043l-0.176,0.073c-0.086,0.029 -0.157,0.126 -0.157,0.216l0,0.391c0,0.092 -0.074,0.165 -0.164,0.165l-0.311,0l0,-1.73Z" style="fill:#fbb300;fill-rule:nonzero;"/><path d="M12.865,52.468c0.156,0.474 0.401,0.899 0.731,1.257l-2.494,3.488c-1.262,-1.086 -2.172,-2.576 -2.513,-4.271l4.276,-0.474Z" style="fill:#00bcd4;fill-rule:nonzero;"/><path d="M15.414,48.046c-1.454,0.302 -2.557,1.528 -2.701,3.034l-4.271,0.472c0,-0.048 -0.007,-0.097 -0.007,-0.146c0,-4.003 3.069,-7.289 6.979,-7.642l0,4.282Z" style="fill:#474f59;fill-rule:nonzero;"/><path d="M18.644,49.105c-0.478,-0.527 -1.11,-0.91 -1.834,-1.059l0,-4.282c2.277,0.206 4.262,1.406 5.528,3.164l-3.694,2.177Z" style="fill:#f7f4f4;fill-rule:nonzero;"/><path d="M14.727,54.542c0.424,0.19 0.892,0.296 1.385,0.296c1.896,0 3.433,-1.535 3.433,-3.432c0,-0.386 -0.08,-0.75 -0.195,-1.097l3.699,-2.179c0.471,0.994 0.743,2.103 0.743,3.276c0,4.241 -3.44,7.679 -7.68,7.679c-1.415,0 -2.736,-0.389 -3.875,-1.06l2.49,-3.483Z" style="fill:#fbb300;fill-rule:nonzero;"/><path d="M19.194,65.081l-0.049,0.031l-2.847,0l-0.051,-0.031l0,-2.301l0.051,-0.031l2.847,0l0.049,0.031l0,2.301Z" style="fill:#596274;fill-rule:nonzero;"/><path d="M23.212,65.081l-0.05,0.031l-2.847,0l-0.049,-0.031l0,-4.851l0.049,-0.031l2.847,0l0.05,0.031l0,4.851Z" style="fill:#00bcd4;fill-rule:nonzero;"/><path d="M27.23,65.081l-0.05,0.031l-2.847,0l-0.05,-0.031l0,-7.517l0.05,-0.03l2.847,0l0.05,0.03l0,7.517Z" style="fill:#fbb300;fill-rule:nonzero;"/><path d="M63.944,22.454c-0.557,0 -1.007,-0.451 -1.007,-1.007c0,-0.557 0.45,-1.008 1.007,-1.008c0.556,0 1.007,0.451 1.007,1.008c0,0.556 -0.451,1.007 -1.007,1.007ZM66.932,20.855l-0.495,0c-0.115,0 -0.238,-0.088 -0.274,-0.197l-0.093,-0.224c-0.051,-0.102 -0.027,-0.251 0.053,-0.333l0.35,-0.35c0.081,-0.08 0.081,-0.214 0,-0.294l-0.54,-0.541c-0.081,-0.081 -0.213,-0.081 -0.294,0l-0.349,0.35c-0.083,0.08 -0.233,0.105 -0.335,0.054l-0.223,-0.092c-0.11,-0.037 -0.197,-0.16 -0.197,-0.276l0,-0.493c0,-0.115 -0.095,-0.208 -0.209,-0.208l-0.764,0c-0.115,0 -0.209,0.093 -0.209,0.208l0,0.493c0,0.116 -0.088,0.239 -0.198,0.276l-0.223,0.092c-0.103,0.051 -0.254,0.026 -0.334,-0.054l-0.349,-0.35c-0.081,-0.081 -0.213,-0.081 -0.295,0l-0.54,0.541c-0.082,0.08 -0.082,0.214 0,0.294l0.349,0.35c0.081,0.082 0.106,0.231 0.054,0.333l-0.092,0.224c-0.036,0.109 -0.16,0.197 -0.275,0.197l-0.494,0c-0.114,0 -0.209,0.094 -0.209,0.209l0,0.765c0,0.114 0.095,0.208 0.209,0.208l0.494,0c0.115,0 0.239,0.088 0.275,0.197l0.092,0.224c0.052,0.103 0.027,0.252 -0.054,0.333l-0.349,0.35c-0.082,0.081 -0.082,0.214 0,0.295l0.54,0.541c0.082,0.08 0.214,0.08 0.295,0l0.349,-0.35c0.08,-0.081 0.231,-0.106 0.334,-0.054l0.223,0.092c0.11,0.036 0.198,0.159 0.198,0.275l0,0.493c0,0.116 0.094,0.209 0.209,0.209l0.764,0c0.114,0 0.209,-0.093 0.209,-0.209l0,-0.493c0,-0.116 0.087,-0.239 0.197,-0.275l0.223,-0.092c0.102,-0.052 0.252,-0.027 0.335,0.054l0.349,0.35c0.081,0.08 0.213,0.08 0.294,0l0.54,-0.541c0.081,-0.081 0.081,-0.214 0,-0.295l-0.35,-0.35c-0.08,-0.081 -0.104,-0.23 -0.053,-0.333l0.093,-0.224c0.036,-0.109 0.159,-0.197 0.274,-0.197l0.495,0c0.114,0 0.206,-0.094 0.206,-0.208l0,-0.765c0,-0.115 -0.092,-0.209 -0.206,-0.209Z" style="fill:#00bcd4;fill-rule:nonzero;"/></svg>