<?xml version="1.0" encoding="UTF-8" standalone="no"?><!DOCTYPE svg PUBLIC "-//W3C//DTD SVG 1.1//EN" "http://www.w3.org/Graphics/SVG/1.1/DTD/svg11.dtd"><svg width="100%" height="100%" viewBox="0 0 73 73" version="1.1" xmlns="http://www.w3.org/2000/svg" xmlns:xlink="http://www.w3.org/1999/xlink" xml:space="preserve" style="fill-rule:evenodd;clip-rule:evenodd;stroke-linejoin:round;stroke-miterlimit:1.41421;"><g><path d="M59.412,46.445c-2.041,0 -3.82,1.355 -4.755,3.358c0.935,2.006 2.714,3.36 4.755,3.36c2.041,0 3.821,-1.354 4.756,-3.36c-0.935,-2.003 -2.715,-3.358 -4.756,-3.358Z" style="fill:#00acc1;fill-rule:nonzero;"/><path d="M59.412,47.969c-2.041,0 -3.82,0.74 -4.755,1.834c0.935,1.096 2.714,1.835 4.755,1.835c2.041,0 3.821,-0.739 4.756,-1.835c-0.935,-1.094 -2.715,-1.834 -4.756,-1.834Z" style="fill:#fff;fill-rule:nonzero;"/><clipPath id="_clip1"><path d="M59.412,47.969c-2.041,0 -3.82,0.74 -4.755,1.834c0.935,1.096 2.714,1.835 4.755,1.835c2.041,0 3.821,-0.739 4.756,-1.835c-0.935,-1.094 -2.715,-1.834 -4.756,-1.834Z" clip-rule="nonzero"/></clipPath><g clip-path="url(#_clip1)"><path d="M62.445,49.803c0,1.676 -1.358,3.033 -3.033,3.033c-1.675,0 -3.032,-1.357 -3.032,-3.033c0,-1.674 1.357,-3.031 3.032,-3.031c1.675,0 3.033,1.357 3.033,3.031Z" style="fill:#00bcd4;fill-rule:nonzero;"/><path d="M61.187,49.803c0,0.981 -0.795,1.775 -1.775,1.775c-0.98,0 -1.774,-0.794 -1.774,-1.775c0,-0.979 0.794,-1.774 1.774,-1.774c0.98,0 1.775,0.795 1.775,1.774Z" style="fill:#474f59;fill-rule:nonzero;"/></g><path d="M61.67,49.469c-0.226,0.296 -0.65,0.354 -0.946,0.129c-0.297,-0.226 -0.354,-0.65 -0.128,-0.946c0.226,-0.298 0.649,-0.355 0.946,-0.129c0.296,0.226 0.354,0.65 0.128,0.946Z" style="fill:#fff;fill-rule:nonzero;"/><path d="M61.053,50.545c-0.103,0.135 -0.296,0.161 -0.431,0.059c-0.135,-0.102 -0.161,-0.296 -0.058,-0.43c0.103,-0.135 0.295,-0.161 0.43,-0.059c0.134,0.102 0.161,0.296 0.059,0.43Z" style="fill:#fff;fill-rule:nonzero;"/></g><path d="M10.24,26.888c-0.576,-0.923 -0.754,-2.014 -0.505,-3.068c0.512,-2.176 2.698,-3.528 4.873,-3.016c1.05,0.248 1.942,0.891 2.512,1.808c0.574,0.924 0.752,2.014 0.504,3.067c-0.247,1.053 -0.891,1.947 -1.814,2.517c-0.921,0.57 -2.009,0.747 -3.061,0.5c-1.048,-0.247 -1.94,-0.888 -2.509,-1.808ZM16.159,28.759c1.072,-0.663 1.821,-1.703 2.11,-2.928c0.289,-1.227 0.082,-2.493 -0.585,-3.568c-0.665,-1.068 -1.702,-1.815 -2.923,-2.103c-2.53,-0.595 -5.075,0.978 -5.671,3.509c-0.289,1.227 -0.081,2.496 0.586,3.569c0.664,1.068 1.701,1.814 2.921,2.103c1.224,0.288 2.49,0.082 3.562,-0.582Z" style="fill:#2f363d;fill-rule:nonzero;"/><path d="M2.56,31.629l-0.002,-0.002c-0.278,-0.451 -0.045,-1.102 0.521,-1.453l4.435,-2.742c0.566,-0.349 1.251,-0.269 1.53,0.18l0,0.003c0.28,0.451 0.047,1.102 -0.52,1.453l-4.436,2.742c-0.565,0.35 -1.249,0.268 -1.528,-0.181Z" style="fill:#ffb41e;fill-rule:nonzero;"/><path d="M7.127,28.793l-0.001,-0.002c-0.28,-0.451 -0.371,-0.9 -0.203,-1.004l1.312,-0.803c0.169,-0.103 0.53,0.179 0.809,0.628l0.001,0.002c0.28,0.451 0.372,0.902 0.203,1.003l-1.313,0.805c-0.167,0.101 -0.528,-0.18 -0.808,-0.629Z" style="fill:#ffb41e;fill-rule:nonzero;"/><path d="M13.683,28.805c-0.001,0 -0.001,0 -0.002,0c-0.311,0 -0.623,-0.037 -0.932,-0.109c-1.048,-0.247 -1.94,-0.888 -2.509,-1.808c-0.407,-0.653 -0.615,-1.389 -0.614,-2.137c0,-0.31 0.036,-0.622 0.109,-0.931c0.438,-1.861 2.101,-3.119 3.933,-3.124l0.012,0c0.301,0 0.607,0.034 0.913,0.105c0.005,0.001 0.01,0.002 0.015,0.003c1.05,0.248 1.942,0.891 2.512,1.808c0.406,0.654 0.614,1.389 0.613,2.137c0,0.31 -0.036,0.622 -0.109,0.93c-0.247,1.053 -0.891,1.947 -1.814,2.517c-0.648,0.401 -1.379,0.608 -2.121,0.609c-0.002,0 -0.004,0 -0.006,0ZM13.077,21.81c0.283,0 0.568,0.032 0.851,0.1c0.957,0.226 1.77,0.81 2.29,1.648c0.521,0.839 0.684,1.83 0.461,2.789l-0.002,0.005c-0.088,0.373 -0.23,0.724 -0.421,1.043c0.501,-0.485 0.855,-1.103 1.019,-1.798l0.001,-0.006c0.225,-0.959 0.061,-1.949 -0.461,-2.789c-0.519,-0.837 -1.332,-1.422 -2.289,-1.648c-0.283,-0.066 -0.569,-0.099 -0.852,-0.099c-0.678,0 -1.345,0.188 -1.937,0.554c-0.514,0.318 -0.932,0.747 -1.231,1.25c0.19,-0.184 0.402,-0.351 0.634,-0.495c0.592,-0.365 1.258,-0.554 1.937,-0.554Z" style="fill:#7a8290;fill-rule:nonzero;"/><path d="M13.683,28.805c-0.001,0 -0.001,0 -0.002,0c0.001,0 0.001,0 0.002,0ZM13.689,28.805c0.742,-0.001 1.473,-0.208 2.121,-0.609c0.923,-0.57 1.567,-1.464 1.814,-2.517c0.073,-0.308 0.109,-0.62 0.109,-0.93c0,0.31 -0.036,0.622 -0.109,0.93c-0.247,1.053 -0.891,1.947 -1.814,2.517c-0.648,0.401 -1.379,0.608 -2.121,0.609ZM12.749,28.696c-1.048,-0.247 -1.94,-0.888 -2.509,-1.808c-0.407,-0.653 -0.615,-1.389 -0.614,-2.137c-0.001,0.748 0.207,1.484 0.614,2.137c0.569,0.92 1.461,1.561 2.509,1.808ZM9.735,23.82c0.438,-1.862 2.101,-3.12 3.933,-3.124c-1.832,0.005 -3.495,1.263 -3.933,3.124ZM14.608,20.804c-0.005,-0.001 -0.01,-0.002 -0.015,-0.003c0.005,0.001 0.01,0.002 0.015,0.003ZM13.68,20.696c0,0 -0.001,0 -0.001,0c0,0 0.001,0 0.001,0Z" style="fill:#595f65;fill-rule:nonzero;"/><path d="M16.256,27.395c0.191,-0.319 0.333,-0.67 0.421,-1.043l0.002,-0.005c0.223,-0.959 0.06,-1.95 -0.461,-2.789c-0.52,-0.838 -1.333,-1.422 -2.29,-1.648c-0.283,-0.068 -0.568,-0.1 -0.851,-0.1c-0.679,0 -1.345,0.189 -1.937,0.554c-0.232,0.144 -0.444,0.311 -0.634,0.495c0.299,-0.503 0.717,-0.932 1.231,-1.25c0.592,-0.366 1.259,-0.554 1.937,-0.554c0.283,0 0.569,0.033 0.852,0.099c0.957,0.226 1.77,0.811 2.289,1.648c0.522,0.84 0.686,1.83 0.461,2.789l-0.001,0.006c-0.164,0.695 -0.518,1.313 -1.019,1.798Z" style="fill:#959ba5;fill-rule:nonzero;"/><path d="M9.735,23.82c0.512,-2.176 2.698,-3.528 4.873,-3.016c1.05,0.248 1.942,0.891 2.512,1.808c0.574,0.924 0.752,2.013 0.504,3.067l0.385,0.092l0.002,-0.01c0.271,-1.154 0.074,-2.346 -0.554,-3.356c-0.626,-1.008 -1.605,-1.713 -2.757,-1.984c-2.387,-0.564 -4.788,0.92 -5.35,3.309l0.385,0.091l0,-0.001Z" style="fill:#474f59;fill-rule:nonzero;"/><path d="M9.291,28.158c0.305,-0.184 0.613,-0.369 0.921,-0.554c0.14,-0.086 0.236,-0.222 0.269,-0.368c-0.085,-0.112 -0.166,-0.227 -0.24,-0.348c-0.078,-0.126 -0.149,-0.253 -0.214,-0.384c-0.145,-0.037 -0.308,-0.012 -0.448,0.074c-0.308,0.184 -0.617,0.369 -0.927,0.555c-0.292,0.181 -0.277,0.479 -0.093,0.766l0,0.001c0.181,0.292 0.442,0.438 0.732,0.258Z" style="fill:#2f363d;fill-rule:nonzero;"/><path d="M3.403,31.198l4.941,-3.059l-0.047,-0.074l-0.001,-0.001c-0.108,-0.175 -0.187,-0.347 -0.235,-0.501l-4.993,3.091c-0.261,0.162 -0.399,0.416 -0.307,0.566l0.001,0c0.092,0.149 0.38,0.14 0.641,-0.022Z" style="fill:#ffc107;fill-rule:nonzero;"/><path d="M34.242,21.882c-9.108,0 -16.491,7.386 -16.491,16.492l0,1.471l-5.039,10.666l5.27,0c0.132,0.786 0.317,1.552 0.554,2.292c-0.236,0.281 -0.385,0.638 -0.385,1.033c0,0.465 0.201,0.88 0.515,1.172c-0.193,0.266 -0.313,0.591 -0.313,0.945c0,0.617 0.355,1.149 0.865,1.417l0,0.546c0,3.5 2.84,6.34 6.341,6.34l25.174,0l0,-16.491l0,-9.391c0,-9.106 -7.383,-16.492 -16.491,-16.492Z" style="fill:#f2f2f2;fill-rule:nonzero;"/><path d="M30.438,49.778c0,2.465 -1.999,4.464 -4.465,4.464c-2.468,0 -4.468,-1.999 -4.468,-4.464c0,-2.467 2,-4.467 4.468,-4.467c2.466,0 4.465,2 4.465,4.467Z" style="fill:#dce4e7;fill-rule:nonzero;"/><path d="M23.419,40.062c0,0.524 -0.423,0.945 -0.945,0.945c-0.522,0 -0.945,-0.421 -0.945,-0.945c0,-0.52 0.423,-0.944 0.945,-0.944c0.522,0 0.945,0.424 0.945,0.944Z" style="fill:#596274;fill-rule:nonzero;"/><path d="M52.334,20.179c-0.736,0 -1.445,0.115 -2.111,0.336c-0.439,-4.441 -4.18,-7.909 -8.734,-7.909c-4.847,0 -8.78,3.933 -8.78,8.78c0,0.586 0.061,1.163 0.172,1.721l-1.633,0c-2.992,0 -5.421,2.423 -5.421,5.417c0,2.992 2.429,5.429 5.421,5.429l21.69,0c1.592,0 3.022,-0.705 4.015,-1.795c1.39,-1.259 2.266,-3.072 2.266,-5.093c0,-3.804 -3.087,-6.886 -6.885,-6.886Z" style="fill:#00bcd4;fill-rule:nonzero;"/><path d="M52.334,20.179c-0.736,0 -1.445,0.115 -2.111,0.336c-0.419,-4.243 -3.859,-7.592 -8.139,-7.88l0,21.318l10.854,0c1.592,0 3.022,-0.705 4.015,-1.795c1.39,-1.259 2.266,-3.072 2.266,-5.093c0,-3.804 -3.087,-6.886 -6.885,-6.886Z" style="fill:#00acc1;fill-rule:nonzero;"/><path d="M47.744,29.181l-4.361,6.226l6.407,0l-6.407,11.633l0,-7.273l-7.21,0l4.189,-10.586l7.382,0Z" style="fill:#feca00;fill-rule:nonzero;"/><path d="M47.744,29.181l-4.361,6.226l6.407,0l-6.407,11.633l3,-9.197l-7.013,0l3.831,-8.662l4.543,0Z" style="fill:#ffb41e;fill-rule:nonzero;"/><path d="M18.923,16.814c0.356,0 0.645,-0.288 0.645,-0.645c0,-0.356 -0.289,-0.645 -0.645,-0.645c-0.356,0 -0.645,0.289 -0.645,0.645c0,0.357 0.289,0.645 0.645,0.645ZM17.01,15.791l0.316,0c0.074,0 0.153,-0.056 0.177,-0.126l0.059,-0.143c0.032,-0.067 0.017,-0.162 -0.035,-0.214l-0.223,-0.224c-0.053,-0.052 -0.053,-0.137 0,-0.188l0.345,-0.347c0.052,-0.051 0.137,-0.051 0.189,0l0.224,0.225c0.052,0.051 0.147,0.066 0.214,0.034l0.143,-0.059c0.069,-0.023 0.126,-0.102 0.126,-0.176l0,-0.316c0,-0.074 0.06,-0.134 0.133,-0.134l0.49,0c0.074,0 0.133,0.06 0.133,0.134l0,0.316c0,0.074 0.057,0.153 0.127,0.176l0.143,0.059c0.066,0.032 0.162,0.017 0.214,-0.034l0.224,-0.225c0.051,-0.051 0.137,-0.051 0.188,0l0.347,0.347c0.051,0.051 0.051,0.136 0,0.188l-0.224,0.224c-0.052,0.052 -0.068,0.147 -0.035,0.214l0.058,0.143c0.024,0.07 0.103,0.126 0.177,0.126l0.317,0c0.072,0 0.133,0.06 0.133,0.133l0,0.49c0,0.073 -0.061,0.133 -0.133,0.133l-0.317,0c-0.074,0 -0.153,0.058 -0.177,0.127l-0.058,0.143c-0.033,0.066 -0.017,0.162 0.035,0.214l0.224,0.224c0.051,0.052 0.051,0.137 0,0.189l-0.347,0.346c-0.051,0.052 -0.137,0.052 -0.188,0l-0.224,-0.224c-0.052,-0.052 -0.148,-0.068 -0.214,-0.035l-0.143,0.06c-0.07,0.022 -0.127,0.102 -0.127,0.174l0,0.317c0,0.074 -0.059,0.134 -0.133,0.134l-0.49,0c-0.073,0 -0.133,-0.06 -0.133,-0.134l0,-0.317c0,-0.072 -0.057,-0.152 -0.126,-0.174l-0.143,-0.06c-0.067,-0.033 -0.162,-0.017 -0.214,0.035l-0.224,0.224c-0.052,0.052 -0.137,0.052 -0.189,0l-0.345,-0.346c-0.053,-0.052 -0.053,-0.137 0,-0.189l0.223,-0.224c0.052,-0.052 0.067,-0.148 0.035,-0.214l-0.059,-0.143c-0.024,-0.069 -0.103,-0.127 -0.177,-0.127l-0.316,0c-0.073,0 -0.133,-0.06 -0.133,-0.133l0,-0.49c0,-0.073 0.06,-0.133 0.133,-0.133Z" style="fill:#dce4e7;fill-rule:nonzero;"/><path d="M18.916,16.814l0.007,0c0.356,0 0.645,-0.288 0.645,-0.645c0,-0.356 -0.289,-0.645 -0.645,-0.645l-0.007,0l0,-1.401l0.252,0c0.074,0 0.133,0.06 0.133,0.134l0,0.316c0,0.074 0.057,0.153 0.127,0.176l0.143,0.059c0.066,0.032 0.162,0.017 0.214,-0.034l0.224,-0.225c0.051,-0.051 0.137,-0.051 0.188,0l0.347,0.347c0.051,0.051 0.051,0.136 0,0.188l-0.224,0.224c-0.052,0.052 -0.068,0.147 -0.035,0.214l0.058,0.143c0.024,0.07 0.103,0.126 0.177,0.126l0.317,0c0.072,0 0.133,0.06 0.133,0.133l0,0.49c0,0.073 -0.061,0.133 -0.133,0.133l-0.317,0c-0.074,0 -0.153,0.058 -0.177,0.127l-0.058,0.143c-0.033,0.066 -0.017,0.162 0.035,0.214l0.224,0.224c0.051,0.052 0.051,0.137 0,0.189l-0.347,0.346c-0.051,0.052 -0.137,0.052 -0.188,0l-0.224,-0.224c-0.052,-0.052 -0.148,-0.068 -0.214,-0.035l-0.143,0.06c-0.07,0.022 -0.127,0.102 -0.127,0.174l0,0.317c0,0.074 -0.059,0.134 -0.133,0.134l-0.252,0l0,-1.402Z" style="fill:#ced6d8;fill-rule:nonzero;"/><path d="M49.818,11.454c-0.002,0.304 -0.119,0.566 -0.351,0.782c-0.232,0.216 -0.503,0.324 -0.81,0.321c-0.313,-0.003 -0.584,-0.115 -0.813,-0.334c-0.229,-0.22 -0.342,-0.483 -0.339,-0.787c0.002,-0.303 0.12,-0.566 0.352,-0.787c0.232,-0.222 0.505,-0.329 0.817,-0.327c0.308,0.003 0.576,0.115 0.804,0.34c0.229,0.224 0.343,0.489 0.34,0.792ZM49.882,4.819c-0.001,0.164 -0.032,0.38 -0.093,0.65c-0.06,0.27 -0.135,0.588 -0.226,0.951c-0.087,0.344 -0.186,0.772 -0.298,1.285c-0.113,0.514 -0.231,1.148 -0.357,1.904l-0.462,-0.004c-0.116,-0.764 -0.223,-1.403 -0.329,-1.913c-0.104,-0.509 -0.197,-0.935 -0.277,-1.281c-0.074,-0.316 -0.141,-0.626 -0.203,-0.929c-0.062,-0.303 -0.092,-0.53 -0.091,-0.682c0.002,-0.31 0.12,-0.571 0.348,-0.788c0.231,-0.215 0.506,-0.323 0.825,-0.32c0.317,0.003 0.591,0.114 0.822,0.333c0.229,0.221 0.343,0.484 0.341,0.794Z" style="fill:#00acc1;fill-rule:nonzero;"/><path d="M48.601,10.328c-0.281,0.015 -0.53,0.118 -0.744,0.321c-0.232,0.221 -0.35,0.484 -0.352,0.787c-0.003,0.304 0.11,0.567 0.339,0.787c0.211,0.201 0.458,0.308 0.74,0.327l0.017,-2.222Z" style="fill:#00bcd4;fill-rule:nonzero;"/><path d="M47.84,6.411c0.08,0.346 0.173,0.772 0.277,1.281c0.106,0.51 0.213,1.149 0.329,1.913l0.16,0.002l0.047,-5.91c-0.291,0.013 -0.544,0.115 -0.759,0.315c-0.228,0.217 -0.346,0.478 -0.348,0.788c-0.001,0.152 0.029,0.379 0.091,0.682c0.062,0.303 0.129,0.613 0.203,0.929Z" style="fill:#00bcd4;fill-rule:nonzero;"/><path d="M23.689,16.138l2.038,0l0,2l-2.038,0l0,-2ZM21.6,11.855c0.039,-1.855 1.246,-3.205 3.153,-3.205c2.441,0 3.232,1.519 3.232,2.505c0,2.479 -2.141,2.142 -2.362,3.712l0,0.493l-1.752,0l0,-0.585c0.182,-2.245 2.116,-2.035 2.077,-3.439c0,-0.79 -0.416,-1.167 -1.103,-1.167c-0.935,0 -1.337,0.765 -1.337,1.686l-1.908,0Z" style="fill:#feca00;fill-rule:nonzero;"/><path d="M24.753,8.65l-0.055,0.003l0,1.524c0.047,-0.005 0.096,-0.008 0.147,-0.008c0.687,0 1.103,0.377 1.103,1.167c0.024,0.84 -0.659,1.105 -1.25,1.661l0,2.363l0.925,0l0,-0.493c0.221,-1.57 2.362,-1.233 2.362,-3.712c0,-0.986 -0.791,-2.505 -3.232,-2.505Z" style="fill:#ffb41e;fill-rule:nonzero;"/><rect x="24.698" y="16.138" width="1.029" height="1.999" style="fill:#ffb41e;fill-rule:nonzero;"/><path d="M29.51,16.992c0,0.127 -0.048,0.236 -0.144,0.326c-0.097,0.089 -0.213,0.134 -0.349,0.134c-0.136,0 -0.253,-0.045 -0.35,-0.134c-0.098,-0.09 -0.147,-0.199 -0.147,-0.326c0,-0.128 0.049,-0.237 0.147,-0.328c0.097,-0.091 0.214,-0.137 0.35,-0.137c0.136,0 0.252,0.046 0.349,0.137c0.096,0.091 0.144,0.2 0.144,0.328ZM29.458,20.067l-0.056,0.227c-0.166,0.065 -0.299,0.115 -0.398,0.15c-0.099,0.034 -0.214,0.051 -0.345,0.051c-0.201,0 -0.358,-0.049 -0.47,-0.147c-0.111,-0.099 -0.167,-0.224 -0.167,-0.374c0,-0.059 0.004,-0.12 0.013,-0.181c0.008,-0.061 0.021,-0.129 0.04,-0.207l0.208,-0.736c0.019,-0.07 0.034,-0.138 0.046,-0.2c0.013,-0.063 0.019,-0.121 0.019,-0.172c0,-0.094 -0.019,-0.16 -0.058,-0.197c-0.039,-0.037 -0.112,-0.055 -0.222,-0.055c-0.054,0 -0.108,0.007 -0.165,0.025c-0.057,0.016 -0.106,0.033 -0.145,0.047l0.055,-0.226c0.136,-0.056 0.266,-0.103 0.39,-0.142c0.125,-0.04 0.243,-0.06 0.354,-0.06c0.2,0 0.354,0.049 0.463,0.146c0.107,0.096 0.162,0.221 0.162,0.376c0,0.031 -0.004,0.088 -0.011,0.168c-0.007,0.081 -0.022,0.155 -0.042,0.222l-0.207,0.734c-0.017,0.058 -0.032,0.126 -0.046,0.201c-0.013,0.076 -0.02,0.132 -0.02,0.172c0,0.096 0.022,0.163 0.066,0.197c0.043,0.037 0.118,0.054 0.226,0.054c0.051,0 0.108,-0.009 0.172,-0.026c0.063,-0.018 0.109,-0.034 0.138,-0.047Z" style="fill:#fff;fill-rule:nonzero;"/><path d="M29.51,16.992c0,0.127 -0.048,0.236 -0.144,0.326c-0.097,0.089 -0.213,0.134 -0.349,0.134c-0.136,0 -0.253,-0.045 -0.35,-0.134c-0.098,-0.09 -0.147,-0.199 -0.147,-0.326c0,-0.128 0.049,-0.237 0.147,-0.328c0.097,-0.091 0.214,-0.137 0.35,-0.137c0.136,0 0.252,0.046 0.349,0.137c0.096,0.091 0.144,0.2 0.144,0.328ZM29.458,20.067l-0.056,0.227c-0.166,0.065 -0.299,0.115 -0.398,0.15c-0.099,0.034 -0.214,0.051 -0.345,0.051c-0.201,0 -0.358,-0.049 -0.47,-0.147c-0.111,-0.099 -0.167,-0.224 -0.167,-0.374c0,-0.059 0.004,-0.12 0.013,-0.181c0.008,-0.061 0.021,-0.129 0.04,-0.207l0.208,-0.736c0.019,-0.07 0.034,-0.138 0.046,-0.2c0.013,-0.063 0.019,-0.121 0.019,-0.172c0,-0.094 -0.019,-0.16 -0.058,-0.197c-0.039,-0.037 -0.112,-0.055 -0.222,-0.055c-0.054,0 -0.108,0.007 -0.165,0.025c-0.057,0.016 -0.106,0.033 -0.145,0.047l0.055,-0.226c0.136,-0.056 0.266,-0.103 0.39,-0.142c0.125,-0.04 0.243,-0.06 0.354,-0.06c0.2,0 0.354,0.049 0.463,0.146c0.107,0.096 0.162,0.221 0.162,0.376c0,0.031 -0.004,0.088 -0.011,0.168c-0.007,0.081 -0.022,0.155 -0.042,0.222l-0.207,0.734c-0.017,0.058 -0.032,0.126 -0.046,0.201c-0.013,0.076 -0.02,0.132 -0.02,0.172c0,0.096 0.022,0.163 0.066,0.197c0.043,0.037 0.118,0.054 0.226,0.054c0.051,0 0.108,-0.009 0.172,-0.026c0.063,-0.018 0.109,-0.034 0.138,-0.047Z" style="fill:#73bcc5;fill-rule:nonzero;"/><path d="M39.351,13.108c0,1.711 -1.386,3.099 -3.097,3.099c-1.712,0 -3.098,-1.388 -3.098,-3.099c0,-1.71 1.386,-3.098 3.098,-3.098c1.711,0 3.097,1.388 3.097,3.098Z" style="fill:#f2f2f2;fill-rule:nonzero;"/><path d="M37.448,12.733l-0.818,0l0,-0.819l-0.752,0l0,0.819l-0.819,0l0,0.751l0.819,0l0,0.819l0.752,0l0,-0.819l0.818,0l0,-0.751Z" style="fill:#feca00;fill-rule:nonzero;"/><path d="M54.788,26.855c-0.08,0 -0.144,0.065 -0.144,0.143c0,0.079 0.064,0.143 0.144,0.143l3.006,0c0.079,0 0.144,-0.064 0.144,-0.143c0,-0.078 -0.065,-0.143 -0.144,-0.143l-3.006,0Z" style="fill:#596274;fill-rule:nonzero;"/><path d="M52.546,19.503c0,-2.069 1.676,-3.744 3.744,-3.744c2.07,0 3.745,1.675 3.745,3.744c0,0.123 -0.089,1.853 -1.499,3.67c-0.414,0.548 -0.346,1.651 -0.342,1.651l-3.816,0c0.004,0 0.08,-1.103 -0.332,-1.651c-1.412,-1.818 -1.5,-3.547 -1.5,-3.67Z" style="fill:#ffb41e;fill-rule:nonzero;"/><path d="M56.29,24.824c-0.58,0 -1.332,0 -1.912,0c0.004,0 0.08,-1.103 -0.332,-1.651c-1.412,-1.818 -1.5,-3.547 -1.5,-3.67c0,-2.069 1.676,-3.744 3.744,-3.744" style="fill:#feca00;fill-rule:nonzero;"/><path d="M59.24,19.502l-0.33,0c0,-1.444 -1.174,-2.619 -2.62,-2.619l0,-0.329c1.627,0 2.95,1.323 2.95,2.948Z" style="fill:#feca00;fill-rule:nonzero;"/><path d="M57.108,25.116l-0.324,-0.054l0.64,-3.871l0.324,0.055l-0.64,3.87Z" style="fill:#2f363d;fill-rule:nonzero;"/><path d="M55.472,25.116l-0.639,-3.87l0.324,-0.055l0.64,3.871l-0.325,0.054Z" style="fill:#2f363d;fill-rule:nonzero;"/><path d="M57.565,21.736c-0.134,0 -0.192,-0.13 -0.235,-0.226c-0.018,-0.04 -0.055,-0.123 -0.076,-0.123l-0.057,0.108c-0.038,0.096 -0.095,0.241 -0.253,0.241c-0.092,0 -0.149,-0.093 -0.213,-0.203c-0.024,-0.04 -0.066,-0.11 -0.094,-0.138l-0.078,0.118c-0.068,0.115 -0.133,0.223 -0.236,0.223c-0.102,0 -0.165,-0.105 -0.232,-0.217l-0.081,-0.123c-0.025,0.027 -0.063,0.089 -0.085,0.128c-0.066,0.11 -0.127,0.212 -0.225,0.212c-0.11,0 -0.181,-0.118 -0.249,-0.232l-0.075,-0.115c-0.027,0.01 -0.047,0.05 -0.078,0.13c-0.037,0.091 -0.086,0.217 -0.22,0.217l0,-0.175l0.057,-0.107c0.038,-0.096 0.095,-0.242 0.254,-0.242c0.092,0 0.148,0.094 0.212,0.202c0.025,0.041 0.067,0.112 0.095,0.14l0.078,-0.119c0.068,-0.115 0.133,-0.223 0.237,-0.223c0.101,0 0.164,0.106 0.231,0.217l0.081,0.124c0.025,-0.028 0.062,-0.089 0.086,-0.129c0.065,-0.109 0.126,-0.212 0.224,-0.212c0.11,0 0.181,0.119 0.248,0.233l0.076,0.115c0.026,-0.01 0.046,-0.05 0.077,-0.13c0.037,-0.093 0.087,-0.218 0.22,-0.218c0.134,0 0.193,0.131 0.236,0.227c0.017,0.04 0.054,0.122 0.075,0.122l0,0.175Z" style="fill:#2f363d;fill-rule:nonzero;"/><path d="M58.198,24.826l0,1.957c0,0.134 -0.109,0.243 -0.243,0.243l-3.324,0c-0.134,0 -0.243,-0.109 -0.243,-0.243l0,-1.957l3.81,0Z" style="fill:#2f363d;fill-rule:nonzero;"/><path d="M58.274,25.207l-3.966,0c-0.107,0 -0.193,-0.086 -0.193,-0.193c0,-0.106 0.086,-0.191 0.193,-0.191l3.966,0c0.106,0 0.192,0.085 0.192,0.191c0,0.107 -0.086,0.193 -0.192,0.193Z" style="fill:#596274;fill-rule:nonzero;"/><path d="M58.274,25.846l-3.966,0c-0.107,0 -0.193,-0.086 -0.193,-0.191c0,-0.106 0.086,-0.193 0.193,-0.193l3.966,0c0.106,0 0.192,0.087 0.192,0.193c0,0.105 -0.086,0.191 -0.192,0.191Z" style="fill:#596274;fill-rule:nonzero;"/><path d="M58.274,26.486l-3.966,0c-0.107,0 -0.193,-0.086 -0.193,-0.192c0,-0.106 0.086,-0.192 0.193,-0.192l3.966,0c0.106,0 0.192,0.086 0.192,0.192c0,0.106 -0.086,0.192 -0.192,0.192Z" style="fill:#596274;fill-rule:nonzero;"/><path d="M56.29,14.536c-0.055,0 -0.098,-0.043 -0.098,-0.097l0,-2.057c0,-0.054 0.043,-0.097 0.098,-0.097c0.054,0 0.097,0.043 0.097,0.097l0,2.057c0,0.054 -0.043,0.097 -0.097,0.097Z" style="fill:#dce4e7;fill-rule:nonzero;"/><path d="M53.667,15.241l-0.085,-0.049l-1.029,-1.782c-0.027,-0.047 -0.01,-0.106 0.036,-0.134c0.046,-0.026 0.106,-0.01 0.134,0.036l1.028,1.782c0.027,0.047 0.011,0.106 -0.035,0.134l-0.049,0.013Z" style="fill:#dce4e7;fill-rule:nonzero;"/><path d="M51.748,17.161l-0.049,-0.013l-1.783,-1.028c-0.046,-0.028 -0.062,-0.088 -0.036,-0.134c0.028,-0.046 0.088,-0.062 0.134,-0.036l1.783,1.029c0.046,0.027 0.062,0.087 0.036,0.134l-0.085,0.048Z" style="fill:#dce4e7;fill-rule:nonzero;"/><path d="M51.046,19.783l-2.058,0c-0.054,0 -0.097,-0.043 -0.097,-0.097c0,-0.054 0.043,-0.097 0.097,-0.097l2.058,0c0.054,0 0.098,0.043 0.098,0.097c0,0.054 -0.044,0.097 -0.098,0.097Z" style="fill:#dce4e7;fill-rule:nonzero;"/><path d="M62.616,23.432l-0.049,-0.013l-1.783,-1.029c-0.046,-0.027 -0.062,-0.087 -0.035,-0.134c0.028,-0.046 0.087,-0.062 0.134,-0.035l1.782,1.029c0.046,0.027 0.063,0.086 0.036,0.134l-0.085,0.048Z" style="fill:#dce4e7;fill-rule:nonzero;"/><path d="M63.594,19.78l-2.058,0c-0.054,0 -0.097,-0.043 -0.097,-0.097c0,-0.054 0.043,-0.098 0.097,-0.098l2.058,0c0.054,0 0.097,0.044 0.097,0.098c0,0.054 -0.043,0.097 -0.097,0.097Z" style="fill:#dce4e7;fill-rule:nonzero;"/><path d="M60.832,17.158l-0.085,-0.049c-0.026,-0.047 -0.01,-0.106 0.036,-0.133l1.782,-1.029c0.047,-0.026 0.107,-0.01 0.134,0.036c0.027,0.047 0.011,0.106 -0.036,0.134l-1.782,1.028l-0.049,0.013Z" style="fill:#dce4e7;fill-rule:nonzero;"/><path d="M58.912,15.239l-0.049,-0.013c-0.046,-0.027 -0.063,-0.087 -0.036,-0.134l1.029,-1.782c0.028,-0.046 0.088,-0.061 0.134,-0.036c0.046,0.028 0.062,0.087 0.036,0.134l-1.029,1.782l-0.085,0.049Z" style="fill:#dce4e7;fill-rule:nonzero;"/><path d="M56.29,14.536c-0.055,0 -0.098,-0.043 -0.098,-0.097l0,-2.057c0,-0.054 0.043,-0.097 0.098,-0.097c0.054,0 0.097,0.043 0.097,0.097l0,2.057c0,0.054 -0.043,0.097 -0.097,0.097Z" style="fill:#dce4e7;fill-rule:nonzero;"/><path d="M56.292,14.536c-0.054,0 -0.097,-0.043 -0.097,-0.097l0,-2.057c0,-0.054 0.043,-0.097 0.097,-0.097c0.054,0 0.098,0.043 0.098,0.097l0,2.057c0,0.054 -0.044,0.097 -0.098,0.097Z" style="fill:#dce4e7;fill-rule:nonzero;"/><path d="M58.914,15.241l-0.049,-0.013c-0.046,-0.028 -0.062,-0.087 -0.035,-0.134l1.029,-1.782c0.027,-0.046 0.087,-0.062 0.134,-0.036c0.046,0.028 0.062,0.087 0.035,0.134l-1.029,1.782l-0.085,0.049Z" style="fill:#dce4e7;fill-rule:nonzero;"/><path d="M60.833,17.161l-0.084,-0.048c-0.027,-0.047 -0.011,-0.107 0.035,-0.134l1.783,-1.029c0.046,-0.026 0.106,-0.01 0.134,0.036c0.027,0.046 0.01,0.106 -0.036,0.134l-1.782,1.028l-0.05,0.013Z" style="fill:#dce4e7;fill-rule:nonzero;"/><path d="M63.594,19.783l-2.058,0c-0.054,0 -0.097,-0.043 -0.097,-0.097c0,-0.054 0.043,-0.097 0.097,-0.097l2.058,0c0.054,0 0.097,0.043 0.097,0.097c0,0.054 -0.043,0.097 -0.097,0.097Z" style="fill:#dce4e7;fill-rule:nonzero;"/><path d="M49.965,23.432l-0.085,-0.048c-0.026,-0.048 -0.01,-0.107 0.036,-0.134l1.783,-1.029c0.046,-0.027 0.106,-0.011 0.134,0.035c0.026,0.047 0.01,0.107 -0.036,0.134l-1.783,1.029l-0.049,0.013Z" style="fill:#dce4e7;fill-rule:nonzero;"/><path d="M51.046,19.78l-2.058,0c-0.054,0 -0.097,-0.043 -0.097,-0.097c0,-0.054 0.043,-0.098 0.097,-0.098l2.058,0c0.054,0 0.098,0.044 0.098,0.098c0,0.054 -0.044,0.097 -0.098,0.097Z" style="fill:#dce4e7;fill-rule:nonzero;"/><path d="M51.749,17.158l-0.049,-0.013l-1.782,-1.028c-0.046,-0.028 -0.062,-0.087 -0.035,-0.134c0.027,-0.046 0.087,-0.062 0.133,-0.036l1.783,1.029c0.046,0.027 0.062,0.086 0.035,0.133l-0.085,0.049Z" style="fill:#dce4e7;fill-rule:nonzero;"/><path d="M53.67,15.239l-0.085,-0.049l-1.029,-1.782c-0.027,-0.047 -0.01,-0.106 0.036,-0.134c0.046,-0.025 0.107,-0.01 0.134,0.036l1.029,1.782c0.027,0.047 0.01,0.107 -0.036,0.134l-0.049,0.013Z" style="fill:#dce4e7;fill-rule:nonzero;"/><path d="M56.292,14.536c-0.054,0 -0.097,-0.043 -0.097,-0.097l0,-2.057c0,-0.054 0.043,-0.097 0.097,-0.097c0.054,0 0.098,0.043 0.098,0.097l0,2.057c0,0.054 -0.044,0.097 -0.098,0.097Z" style="fill:#dce4e7;fill-rule:nonzero;"/><path d="M55.177,43.626l11.513,-11.513c-0.189,-0.139 -0.446,-0.139 -0.629,0.003l-11.197,11.197l0.313,0.313Z" style="fill:#ffb41e;fill-rule:nonzero;"/><path d="M54.121,42.569l0.743,0.744l11.197,-11.197l0.004,-0.006l-0.005,0.005c0.158,-0.203 0.141,-0.501 -0.049,-0.691c-0.192,-0.192 -0.488,-0.208 -0.692,-0.05l0.004,-0.005l-0.004,0.004l-0.001,-0.001l-11.197,11.197Z" style="fill:#feca00;fill-rule:nonzero;"/><path d="M65.318,31.372c0.142,-0.182 0.142,-0.439 0.003,-0.628l-11.513,11.513l0.313,0.312l11.197,-11.197Z" style="fill:#ffb41e;fill-rule:nonzero;"/><path d="M65.321,30.742c0.139,0.189 0.139,0.447 -0.003,0.63l0.001,0.001l0.004,-0.004l-0.004,0.005c0.204,-0.158 0.5,-0.142 0.692,0.05c0.19,0.19 0.207,0.488 0.049,0.691l0.005,-0.005l-0.004,0.006c0.183,-0.142 0.441,-0.143 0.63,-0.003l0.166,-1.537l-1.536,0.166Z" style="fill:#fff;fill-rule:nonzero;"/><path d="M66.776,31.33l0.081,-0.754l-0.754,0.082c0.082,0.133 0.181,0.26 0.297,0.376c0.116,0.115 0.242,0.214 0.376,0.296Z" style="fill:#ffb41e;fill-rule:nonzero;"/><path d="M55.171,43.631l-0.312,-0.313l-0.403,0.403l0.313,0.313l0.402,-0.403Z" style="fill:#00acc1;fill-rule:nonzero;"/><path d="M54.859,43.318l-0.744,-0.744l-0.403,0.403l0.744,0.744l0.403,-0.403Z" style="fill:#00bcd4;fill-rule:nonzero;"/><path d="M54.115,42.574l-0.312,-0.312l-0.403,0.403l0.312,0.312l0.403,-0.403Z" style="fill:#00acc1;fill-rule:nonzero;"/></svg>