<?xml version="1.0" encoding="UTF-8" standalone="no"?><!DOCTYPE svg PUBLIC "-//W3C//DTD SVG 1.1//EN" "http://www.w3.org/Graphics/SVG/1.1/DTD/svg11.dtd"><svg width="100%" height="100%" viewBox="0 0 73 73" version="1.1" xmlns="http://www.w3.org/2000/svg" xmlns:xlink="http://www.w3.org/1999/xlink" xml:space="preserve" style="fill-rule:evenodd;clip-rule:evenodd;stroke-linejoin:round;stroke-miterlimit:1.41421;"><path d="M24.339,52.636c-0.661,2.705 -1.322,5.409 -1.984,8.114c6.174,0 12.348,0 18.523,0c-0.663,-2.705 -1.323,-5.409 -1.985,-8.114c-4.852,0 -9.702,0 -14.554,0Z" style="fill:#ced6d8;fill-rule:nonzero;"/><path d="M42.022,60.583l-20.813,0c-0.527,0 -0.956,0.262 -0.956,0.585l0,0.218l22.726,0l0,-0.218c0,-0.323 -0.427,-0.585 -0.957,-0.585Z" style="fill:#f7f4f4;fill-rule:nonzero;"/><path d="M0.32,49.478l0,4.471c0,0.862 0.697,1.558 1.558,1.558l59.475,0c0.86,0 1.559,-0.696 1.559,-1.558l0,-4.471l-62.592,0Z" style="fill:#f7f4f4;fill-rule:nonzero;"/><path d="M62.912,49.478l0,-37.863c0,-0.861 -0.699,-1.558 -1.559,-1.558l-59.475,0c-0.861,0 -1.558,0.697 -1.558,1.558l0,37.863l62.592,0Z" style="fill:#2f363d;fill-rule:nonzero;"/><rect x="2.884" y="12.491" width="57.465" height="34.402" style="fill:#fff;fill-rule:nonzero;"/><rect x="6.292" y="21.962" width="15.587" height="8.12" style="fill:#feca00;fill-rule:nonzero;"/><rect x="23.822" y="21.962" width="15.587" height="8.12" style="fill:#00bcd4;fill-rule:nonzero;"/><rect x="41.353" y="21.962" width="15.587" height="8.12" style="fill:#ced6d8;fill-rule:nonzero;"/><rect x="10.577" y="17.113" width="10.376" height="1.127" style="fill:#ced6d8;fill-rule:nonzero;"/><path d="M9.225,17.677c0,0.809 -0.657,1.466 -1.466,1.466c-0.809,0 -1.467,-0.657 -1.467,-1.466c0,-0.81 0.658,-1.466 1.467,-1.466c0.809,0 1.466,0.656 1.466,1.466Z" style="fill:#ced6d8;fill-rule:nonzero;"/><rect x="51.778" y="17.448" width="5.162" height="0.459" style="fill:#ced6d8;fill-rule:nonzero;"/><rect x="45.988" y="17.448" width="5.163" height="0.459" style="fill:#ced6d8;fill-rule:nonzero;"/><rect x="40.2" y="17.448" width="5.162" height="0.459" style="fill:#ced6d8;fill-rule:nonzero;"/><rect x="34.411" y="17.448" width="5.162" height="0.459" style="fill:#ced6d8;fill-rule:nonzero;"/><rect x="28.622" y="17.448" width="5.162" height="0.459" style="fill:#ced6d8;fill-rule:nonzero;"/><rect x="6.292" y="35.191" width="15.587" height="0.458" style="fill:#ced6d8;fill-rule:nonzero;"/><rect x="6.292" y="36.77" width="15.587" height="0.457" style="fill:#ced6d8;fill-rule:nonzero;"/><rect x="6.292" y="38.348" width="15.588" height="0.458" style="fill:#ced6d8;fill-rule:nonzero;"/><rect x="6.292" y="39.927" width="15.588" height="0.458" style="fill:#ced6d8;fill-rule:nonzero;"/><rect x="6.292" y="41.506" width="11.128" height="0.458" style="fill:#ced6d8;fill-rule:nonzero;"/><rect x="6.292" y="32.532" width="10.375" height="1.128" style="fill:#ced6d8;fill-rule:nonzero;"/><rect x="23.822" y="35.191" width="15.587" height="0.458" style="fill:#ced6d8;fill-rule:nonzero;"/><rect x="23.822" y="36.77" width="15.587" height="0.457" style="fill:#ced6d8;fill-rule:nonzero;"/><rect x="23.822" y="38.348" width="15.587" height="0.458" style="fill:#ced6d8;fill-rule:nonzero;"/><rect x="23.822" y="39.927" width="15.587" height="0.458" style="fill:#ced6d8;fill-rule:nonzero;"/><rect x="23.822" y="41.506" width="11.127" height="0.458" style="fill:#ced6d8;fill-rule:nonzero;"/><rect x="23.822" y="32.532" width="10.375" height="1.128" style="fill:#ced6d8;fill-rule:nonzero;"/><rect x="41.352" y="35.191" width="15.587" height="0.458" style="fill:#ced6d8;fill-rule:nonzero;"/><rect x="41.352" y="36.77" width="15.587" height="0.457" style="fill:#ced6d8;fill-rule:nonzero;"/><rect x="41.352" y="38.348" width="15.587" height="0.458" style="fill:#ced6d8;fill-rule:nonzero;"/><rect x="41.352" y="39.927" width="15.587" height="0.458" style="fill:#ced6d8;fill-rule:nonzero;"/><rect x="41.352" y="41.506" width="11.128" height="0.458" style="fill:#ced6d8;fill-rule:nonzero;"/><rect x="41.352" y="32.532" width="10.376" height="1.128" style="fill:#ced6d8;fill-rule:nonzero;"/><g><clipPath id="_clip1"><path d="M62.912,55.408l0,-43.793c0,-0.861 -0.699,-1.558 -1.559,-1.558l-59.475,0c-0.861,0 -1.558,0.697 -1.558,1.558l0,43.793l62.592,0Z"/></clipPath><g clip-path="url(#_clip1)"><rect x="8.06" y="49.478" width="11.039" height="5.93" style="fill:#d4d8da;"/><rect x="8.06" y="46.893" width="11.039" height="2.585" style="fill:#293037;fill-rule:nonzero;"/><path d="M19.099,46.893l-11.039,0l0,-4.929l9.359,0l0,-0.458l-9.359,0l0,-1.04c0,-0.027 0,-0.054 0.002,-0.081l11.035,0c0.001,0.027 0.002,0.054 0.002,0.081l0,6.427ZM19.011,39.927l-10.863,0c0.196,-0.579 0.698,-1.018 1.315,-1.121l8.234,0c0.616,0.103 1.118,0.542 1.314,1.121Z" style="fill:#dce4e7;fill-rule:nonzero;"/><path d="M17.697,38.806l-8.234,0c0.091,-0.015 0.185,-0.023 0.28,-0.023l7.674,0c0.095,0 0.189,0.008 0.28,0.023Z" style="fill:#b1bec4;fill-rule:nonzero;"/><path d="M19.097,40.385l-11.035,0c0.007,-0.159 0.037,-0.313 0.086,-0.458l10.863,0c0.049,0.145 0.078,0.299 0.086,0.458Z" style="fill:#b1bec4;fill-rule:nonzero;"/><rect x="8.06" y="41.506" width="9.36" height="0.458" style="fill:#b1bec4;fill-rule:nonzero;"/><path d="M62.912,55.408l-1.011,0c0.59,-0.221 1.011,-0.791 1.011,-1.459l0,-4.471l0,-18.137l0,24.067Z" style="fill:#cd7851;fill-rule:nonzero;"/><path d="M61.901,55.408l-11.631,0l0,-5.93l12.642,0l0,4.471c0,0.668 -0.421,1.238 -1.011,1.459Z" style="fill:#d4d8da;fill-rule:nonzero;"/><path d="M62.912,49.478l-12.642,0l0,-2.585l10.078,0l0,-15.552l2.564,0l0,18.137Z" style="fill:#293037;fill-rule:nonzero;"/><path d="M60.348,46.893l-10.078,0l0,-4.929l2.21,0l0,-0.458l-2.21,0l0,-1.121l6.669,0l0,-0.458l-6.669,0l0,-1.121l6.669,0l0,-0.458l-6.669,0l0,-1.12l6.669,0l0,-0.458l-6.669,0l0,-1.122l6.669,0l0,-0.457l-6.669,0l0,-1.531l1.459,0l0,-1.128l-1.437,0c0.119,-0.677 0.71,-1.191 1.423,-1.191l8.633,0l0,15.552Z" style="fill:#dce4e7;fill-rule:nonzero;"/><rect x="50.27" y="35.191" width="6.669" height="0.458" style="fill:#b1bec4;fill-rule:nonzero;"/><rect x="50.27" y="36.77" width="6.669" height="0.457" style="fill:#b1bec4;fill-rule:nonzero;"/><rect x="50.27" y="38.348" width="6.669" height="0.458" style="fill:#b1bec4;fill-rule:nonzero;"/><rect x="50.27" y="39.927" width="6.669" height="0.458" style="fill:#b1bec4;fill-rule:nonzero;"/><rect x="50.27" y="41.506" width="2.21" height="0.458" style="fill:#b1bec4;fill-rule:nonzero;"/><path d="M51.729,33.66l-1.459,0l0,-0.875c0,-0.086 0.008,-0.17 0.022,-0.253l1.437,0l0,1.128Z" style="fill:#b1bec4;fill-rule:nonzero;"/></g></g><path d="M15.756,39.663l-7.673,0c-0.93,0 -1.683,0.753 -1.683,1.682l0,18.359c0,0.929 0.753,1.682 1.683,1.682l7.673,0c0.93,0 1.682,-0.753 1.682,-1.682l0,-18.359c0,-0.929 -0.752,-1.682 -1.682,-1.682Z" style="fill:#474f59;fill-rule:nonzero;"/><path d="M10.472,40.961l2.893,0c0.081,0 0.147,0.066 0.147,0.148c0,0.082 -0.066,0.149 -0.147,0.149l-2.893,0c-0.081,0 -0.147,-0.067 -0.147,-0.149c0,-0.082 0.066,-0.148 0.147,-0.148Z" style="fill:#fff;fill-rule:nonzero;"/><path d="M11.919,60.147c-0.537,0 -0.974,-0.437 -0.974,-0.974c0,-0.538 0.437,-0.974 0.974,-0.974c0.538,0 0.973,0.436 0.973,0.974c0,0.537 -0.435,0.974 -0.973,0.974Z" style="fill:#2f363d;fill-rule:nonzero;"/><rect x="7.137" y="42.969" width="9.563" height="14.168" style="fill:#fff;fill-rule:nonzero;"/><rect x="7.685" y="46.239" width="8.461" height="4.353" style="fill:#feca00;fill-rule:nonzero;"/><rect x="10.011" y="44.367" width="6.122" height="0.612" style="fill:#ced6d8;fill-rule:nonzero;"/><path d="M9.277,44.673c0,0.44 -0.357,0.796 -0.796,0.796c-0.439,0 -0.796,-0.356 -0.796,-0.796c0,-0.44 0.357,-0.795 0.796,-0.795c0.439,0 0.796,0.355 0.796,0.795Z" style="fill:#ced6d8;fill-rule:nonzero;"/><rect x="7.685" y="53.384" width="8.461" height="0.25" style="fill:#ced6d8;fill-rule:nonzero;"/><rect x="7.685" y="54.241" width="8.461" height="0.249" style="fill:#ced6d8;fill-rule:nonzero;"/><rect x="7.685" y="55.098" width="8.461" height="0.249" style="fill:#ced6d8;fill-rule:nonzero;"/><rect x="7.685" y="55.955" width="6.141" height="0.249" style="fill:#ced6d8;fill-rule:nonzero;"/><rect x="7.685" y="51.724" width="5.632" height="0.612" style="fill:#ced6d8;fill-rule:nonzero;"/><path d="M69.964,32.415l-19.813,0c-0.797,0 -1.444,0.647 -1.444,1.445l0,26.083c0,0.797 0.647,1.443 1.444,1.443l19.813,0c0.797,0 1.443,-0.646 1.443,-1.443l0,-26.083c0,-0.798 -0.646,-1.445 -1.443,-1.445Z" style="fill:#474f59;fill-rule:nonzero;"/><path d="M60.057,60.649c-0.321,0 -0.581,-0.259 -0.581,-0.58c0,-0.322 0.26,-0.58 0.581,-0.58c0.321,0 0.581,0.258 0.581,0.58c0,0.321 -0.26,0.58 -0.581,0.58Z" style="fill:#2f363d;fill-rule:nonzero;"/><rect x="51.283" y="35.215" width="17.548" height="23.371" style="fill:#fff;fill-rule:nonzero;"/><rect x="58.15" y="37.376" width="6.469" height="0.703" style="fill:#ced6d8;fill-rule:nonzero;"/><path d="M57.306,37.728c0,0.504 -0.408,0.914 -0.914,0.914c-0.505,0 -0.913,-0.41 -0.913,-0.914c0,-0.505 0.408,-0.915 0.913,-0.915c0.506,0 0.914,0.41 0.914,0.915Z" style="fill:#ced6d8;fill-rule:nonzero;"/><rect x="64.497" y="40.174" width="2.553" height="0.344" style="fill:#ced6d8;fill-rule:nonzero;"/><rect x="61.635" y="40.174" width="2.552" height="0.344" style="fill:#ced6d8;fill-rule:nonzero;"/><rect x="58.774" y="40.174" width="2.551" height="0.344" style="fill:#ced6d8;fill-rule:nonzero;"/><rect x="55.912" y="40.174" width="2.552" height="0.344" style="fill:#ced6d8;fill-rule:nonzero;"/><rect x="53.05" y="40.174" width="2.552" height="0.344" style="fill:#ced6d8;fill-rule:nonzero;"/><rect x="52.171" y="41.8" width="7.416" height="6.104" style="fill:#feca00;fill-rule:nonzero;"/><rect x="60.511" y="41.8" width="7.416" height="6.104" style="fill:#00bcd4;fill-rule:nonzero;"/><rect x="52.171" y="51.744" width="7.416" height="0.344" style="fill:#ced6d8;fill-rule:nonzero;"/><rect x="52.171" y="52.931" width="7.416" height="0.344" style="fill:#ced6d8;fill-rule:nonzero;"/><rect x="52.171" y="54.117" width="7.416" height="0.344" style="fill:#ced6d8;fill-rule:nonzero;"/><rect x="52.171" y="55.304" width="7.416" height="0.344" style="fill:#ced6d8;fill-rule:nonzero;"/><rect x="52.171" y="56.491" width="5.294" height="0.344" style="fill:#ced6d8;fill-rule:nonzero;"/><rect x="52.171" y="49.745" width="4.936" height="0.848" style="fill:#ced6d8;fill-rule:nonzero;"/><rect x="60.511" y="51.744" width="7.416" height="0.344" style="fill:#ced6d8;fill-rule:nonzero;"/><rect x="60.511" y="52.931" width="7.416" height="0.344" style="fill:#ced6d8;fill-rule:nonzero;"/><rect x="60.511" y="54.117" width="7.416" height="0.344" style="fill:#ced6d8;fill-rule:nonzero;"/><rect x="60.511" y="55.304" width="7.416" height="0.344" style="fill:#ced6d8;fill-rule:nonzero;"/><rect x="60.511" y="56.491" width="5.295" height="0.344" style="fill:#ced6d8;fill-rule:nonzero;"/><rect x="60.511" y="49.745" width="4.937" height="0.848" style="fill:#ced6d8;fill-rule:nonzero;"/></svg>