<?xml version="1.0" encoding="UTF-8" standalone="no"?><!DOCTYPE svg PUBLIC "-//W3C//DTD SVG 1.1//EN" "http://www.w3.org/Graphics/SVG/1.1/DTD/svg11.dtd"><svg width="100%" height="100%" viewBox="0 0 73 73" version="1.1" xmlns="http://www.w3.org/2000/svg" xmlns:xlink="http://www.w3.org/1999/xlink" xml:space="preserve" style="fill-rule:evenodd;clip-rule:evenodd;stroke-linejoin:round;stroke-miterlimit:1.41421;"><path d="M60.679,67.475c0,0.176 -0.173,0.32 -0.386,0.32l-50.546,0c-0.214,0 -0.387,-0.144 -0.387,-0.32l0,-59.805c0,-0.177 0.173,-0.32 0.387,-0.32l50.546,0c0.213,0 0.386,0.143 0.386,0.32l0,59.805Z" style="fill:#f2f2f2;fill-rule:nonzero;"/><path d="M62.04,7.846l0,-3.95c0,-0.226 -0.184,-0.409 -0.409,-0.409l-53.611,0c-0.226,0 -0.409,0.183 -0.409,0.409l0,3.95l54.429,0Z" style="fill:#ced6d8;fill-rule:nonzero;"/><rect x="7.61" y="22.042" width="54.43" height="20.583" style="fill:#00bcd4;fill-rule:nonzero;"/><rect x="19.984" y="28.414" width="29.576" height="1.942" style="fill:#5f9ca4;fill-rule:nonzero;"/><rect x="16.828" y="32.248" width="35.888" height="0.486" style="fill:#5f9ca4;fill-rule:nonzero;"/><rect x="15.372" y="34.008" width="38.799" height="0.486" style="fill:#5f9ca4;fill-rule:nonzero;"/><rect x="20.129" y="35.767" width="29.286" height="0.487" style="fill:#5f9ca4;fill-rule:nonzero;"/><rect x="27.543" y="12.194" width="14.563" height="3.441" style="fill:#ced6d8;fill-rule:nonzero;"/><rect x="14.551" y="17.554" width="7.206" height="0.486" style="fill:#ced6d8;fill-rule:nonzero;"/><rect x="22.887" y="17.554" width="7.206" height="0.486" style="fill:#ced6d8;fill-rule:nonzero;"/><rect x="31.222" y="17.554" width="7.208" height="0.486" style="fill:#ced6d8;fill-rule:nonzero;"/><rect x="39.556" y="17.554" width="7.208" height="0.486" style="fill:#ced6d8;fill-rule:nonzero;"/><rect x="47.891" y="17.554" width="7.208" height="0.486" style="fill:#ced6d8;fill-rule:nonzero;"/><path d="M59.228,33.365l-0.353,-0.257l0.563,-0.774l-0.563,-0.774l0.353,-0.257l0.75,1.031l-0.75,1.031Z" style="fill:#fff;fill-rule:nonzero;"/><rect x="57.709" y="32.116" width="1.999" height="0.436" style="fill:#fff;fill-rule:nonzero;"/><path d="M10.422,33.365l-0.749,-1.031l0.749,-1.031l0.354,0.257l-0.563,0.774l0.563,0.774l-0.354,0.257Z" style="fill:#fff;fill-rule:nonzero;"/><rect x="9.943" y="32.116" width="1.999" height="0.436" style="fill:#fff;fill-rule:nonzero;"/><rect x="12.179" y="45.443" width="13.186" height="13.186" style="fill:#dce4e7;fill-rule:nonzero;"/><path d="M25.583,45.224l-13.622,0l0,13.623l13.622,0l0,-13.623ZM25.146,45.661l0,12.749l-12.748,0l0,-12.749l12.748,0Z" style="fill:#ced6d8;fill-rule:nonzero;"/><path d="M12.398,58.629c-0.056,0 -0.112,-0.022 -0.154,-0.064c-0.086,-0.086 -0.086,-0.224 0,-0.309l12.748,-12.748c0.085,-0.085 0.223,-0.085 0.308,0c0.086,0.086 0.086,0.223 0,0.309l-12.748,12.748c-0.042,0.042 -0.098,0.064 -0.154,0.064Z" style="fill:#ced6d8;fill-rule:nonzero;"/><path d="M25.146,58.629c-0.056,0 -0.112,-0.022 -0.154,-0.064l-12.748,-12.748c-0.086,-0.086 -0.086,-0.223 0,-0.309c0.085,-0.085 0.222,-0.085 0.308,0l12.748,12.748c0.086,0.085 0.086,0.223 0,0.309c-0.043,0.042 -0.098,0.064 -0.154,0.064Z" style="fill:#ced6d8;fill-rule:nonzero;"/><rect x="28.233" y="45.443" width="13.186" height="13.186" style="fill:#dce4e7;fill-rule:nonzero;"/><path d="M41.636,45.224l-13.622,0l0,13.623l13.622,0l0,-13.623ZM41.199,45.661l0,12.749l-12.748,0l0,-12.749l12.748,0Z" style="fill:#ced6d8;fill-rule:nonzero;"/><path d="M28.451,58.629c-0.055,0 -0.111,-0.022 -0.154,-0.064c-0.085,-0.086 -0.085,-0.224 0,-0.309l12.748,-12.748c0.086,-0.085 0.223,-0.085 0.308,0c0.086,0.086 0.086,0.223 0,0.309l-12.747,12.748c-0.043,0.042 -0.099,0.064 -0.155,0.064Z" style="fill:#ced6d8;fill-rule:nonzero;"/><path d="M41.199,58.629c-0.056,0 -0.111,-0.022 -0.154,-0.064l-12.748,-12.748c-0.085,-0.086 -0.085,-0.223 0,-0.309c0.085,-0.085 0.223,-0.085 0.309,0l12.747,12.748c0.086,0.085 0.086,0.223 0,0.309c-0.042,0.042 -0.098,0.064 -0.154,0.064Z" style="fill:#ced6d8;fill-rule:nonzero;"/><rect x="44.54" y="45.698" width="12.677" height="12.676" style="fill:#fbb300;fill-rule:nonzero;"/><path d="M57.69,45.224l-13.624,0l0,13.623l13.624,0l0,-13.623ZM56.743,46.171l0,11.73l-11.73,0l0,-11.73l11.73,0Z" style="fill:#ffa000;fill-rule:nonzero;"/><rect x="11.961" y="61.624" width="13.344" height="0.486" style="fill:#dce4e7;fill-rule:nonzero;"/><rect x="11.961" y="62.886" width="12.142" height="0.486" style="fill:#dce4e7;fill-rule:nonzero;"/><rect x="11.961" y="64.148" width="13.344" height="0.486" style="fill:#dce4e7;fill-rule:nonzero;"/><rect x="11.961" y="65.41" width="10.649" height="0.486" style="fill:#dce4e7;fill-rule:nonzero;"/><rect x="11.961" y="60.423" width="7.206" height="0.486" style="fill:#ced6d8;fill-rule:nonzero;"/><rect x="28.014" y="61.624" width="13.344" height="0.486" style="fill:#dce4e7;fill-rule:nonzero;"/><rect x="28.014" y="62.886" width="12.142" height="0.486" style="fill:#dce4e7;fill-rule:nonzero;"/><rect x="28.014" y="64.148" width="13.344" height="0.486" style="fill:#dce4e7;fill-rule:nonzero;"/><rect x="28.014" y="65.41" width="10.649" height="0.486" style="fill:#dce4e7;fill-rule:nonzero;"/><rect x="28.014" y="60.423" width="7.206" height="0.486" style="fill:#ced6d8;fill-rule:nonzero;"/><rect x="44.066" y="61.624" width="13.345" height="0.486" style="fill:#dce4e7;fill-rule:nonzero;"/><rect x="44.066" y="62.886" width="12.144" height="0.486" style="fill:#dce4e7;fill-rule:nonzero;"/><rect x="44.066" y="64.148" width="13.345" height="0.486" style="fill:#dce4e7;fill-rule:nonzero;"/><rect x="44.066" y="65.41" width="10.651" height="0.486" style="fill:#dce4e7;fill-rule:nonzero;"/><rect x="44.066" y="60.423" width="7.208" height="0.486" style="fill:#ced6d8;fill-rule:nonzero;"/><path d="M14.642,5.628c0,0.386 -0.312,0.698 -0.697,0.698c-0.385,0 -0.698,-0.312 -0.698,-0.698c0,-0.385 0.313,-0.698 0.698,-0.698c0.385,0 0.697,0.313 0.697,0.698Z" style="fill:#fff;fill-rule:nonzero;"/><path d="M12.363,5.628c0,0.386 -0.311,0.698 -0.697,0.698c-0.386,0 -0.696,-0.312 -0.696,-0.698c0,-0.385 0.31,-0.698 0.696,-0.698c0.386,0 0.697,0.313 0.697,0.698Z" style="fill:#fff;fill-rule:nonzero;"/><path d="M10.086,5.628c0,0.386 -0.313,0.698 -0.699,0.698c-0.385,0 -0.697,-0.312 -0.697,-0.698c0,-0.385 0.312,-0.698 0.697,-0.698c0.386,0 0.699,0.313 0.699,0.698Z" style="fill:#fff;fill-rule:nonzero;"/><path d="M64.537,66.781l-2.497,-2.497l0,-2.364l3.678,3.679l1.363,-1.364l-2.544,2.546Z" style="fill:#4d5969;fill-rule:nonzero;"/><path d="M57.378,67.993l-1.091,-3.359l1.124,0l0,-0.486l-1.283,0l-0.252,-0.776l0.334,0l0,-0.486l-0.491,0l-0.253,-0.776l1.945,0l0,-0.486l-2.102,0l-0.558,-1.716l-0.345,-1.061l3.284,0l0,-1.276l4.35,4.349l0,2.364l-1.821,-1.821l-2.841,5.53Z" style="fill:#b3b3b3;fill-rule:nonzero;"/><path d="M56.743,57.901l-2.645,0l-1.975,-6.078l0.089,0.269l4.531,4.532l0,1.277Z" style="fill:#cd7851;fill-rule:nonzero;"/><path d="M57.69,58.847l-3.284,0l-0.308,-0.946l2.645,0l0,-1.277l0.947,0.947l0,1.276Z" style="fill:#b8643b;fill-rule:nonzero;"/><path d="M57.411,62.11l-1.945,0l-0.157,-0.486l2.102,0l0,0.486Z" style="fill:#beccd1;fill-rule:nonzero;"/><path d="M56.21,63.372l-0.334,0l-0.157,-0.486l0.491,0l0,0.486Z" style="fill:#beccd1;fill-rule:nonzero;"/><path d="M57.411,64.634l-1.124,0l-0.159,-0.486l1.283,0l0,0.486Z" style="fill:#beccd1;fill-rule:nonzero;"/><path d="M65.718,65.599l-3.678,-3.679l0,-6.875l6.254,2.032l-5.53,2.842l4.317,4.316l-1.363,1.364Z" style="fill:#4d5969;fill-rule:nonzero;"/><path d="M62.04,61.92l-4.35,-4.349l0,-3.939l2.519,0.818l1.831,0.595l0,6.875Z" style="fill:#dce4e7;fill-rule:nonzero;"/><path d="M56.743,56.624l-4.531,-4.532l-0.089,-0.269l4.62,1.501l0,3.3Z" style="fill:#cd7851;fill-rule:nonzero;"/><path d="M57.69,57.571l-0.947,-0.947l0,-3.3l0.947,0.308l0,3.939Z" style="fill:#b8643b;fill-rule:nonzero;"/><g><path d="M68.854,55.257l-8.085,-2.627l-8.086,-2.628l2.628,8.086l2.627,8.085l2.841,-5.53l4.318,4.317l2.544,-2.545l-4.317,-4.316l5.53,-2.842Z" style="fill:#ced6d8;fill-rule:nonzero;"/><path d="M60.769,52.63l-8.086,-2.628l0.089,0.27l13.506,13.507l1.363,-1.364l-4.317,-4.316l5.53,-2.842l-8.085,-2.627Z" style="fill:#dce4e7;fill-rule:nonzero;"/></g></svg>