<?xml version="1.0" encoding="UTF-8" standalone="no"?><!DOCTYPE svg PUBLIC "-//W3C//DTD SVG 1.1//EN" "http://www.w3.org/Graphics/SVG/1.1/DTD/svg11.dtd"><svg width="100%" height="100%" viewBox="0 0 73 73" version="1.1" xmlns="http://www.w3.org/2000/svg" xmlns:xlink="http://www.w3.org/1999/xlink" xml:space="preserve" style="fill-rule:evenodd;clip-rule:evenodd;stroke-linejoin:round;stroke-miterlimit:1.41421;"><path d="M1.903,55.654l8.923,-18.816l25.088,11.898l-8.922,18.816l-25.089,-11.898Z" style="fill:#dce4e7;fill-rule:nonzero;"/><path d="M4.116,54.865l7.5,-15.814l22.085,10.474l-7.499,15.814l-22.086,-10.474Z" style="fill:#ffb41e;fill-rule:nonzero;"/><path d="M4.116,54.865l29.585,-5.34l-7.499,15.814l-22.086,-10.474Z" style="fill:#feca00;fill-rule:nonzero;"/><path d="M39.75,50.825l1.842,-20.743l27.657,2.457l-1.843,20.743l-27.656,-2.457Z" style="fill:#f2f2f2;fill-rule:nonzero;"/><path d="M41.551,49.318l1.549,-17.433l24.348,2.163l-1.548,17.433l-24.349,-2.163Z" style="fill:#dce4e7;fill-rule:nonzero;"/><path d="M41.551,49.318l25.897,-15.27l-1.548,17.433l-24.349,-2.163Z" style="fill:#ced6d8;fill-rule:nonzero;"/><path d="M3.286,41.531l2.014,-20.727l27.636,2.685l-2.013,20.726l-27.637,-2.684Z" style="fill:#f2f2f2;fill-rule:nonzero;"/><path d="M5.1,40.037l1.692,-17.419l24.33,2.364l-1.692,17.419l-24.33,-2.364Z" style="fill:#00bcd4;fill-rule:nonzero;"/><path d="M5.1,40.037l26.022,-15.055l-1.692,17.419l-24.33,-2.364Z" style="fill:#00acc1;fill-rule:nonzero;"/><path d="M47.633,20.232l-3.334,0.923l-4.94,-3.643l-11.587,3.205l-2.368,5.664l-12.059,3.334c-1.411,0.39 -2.245,1.859 -1.853,3.272l6.203,22.429c0.391,1.417 1.859,2.248 3.272,1.856l34.289,-9.482c1.414,-0.391 2.244,-1.857 1.853,-3.273l-6.204,-22.43c-0.391,-1.414 -1.855,-2.246 -3.272,-1.855Z" style="fill:#2f363d;fill-rule:nonzero;"/><path d="M47.835,35.006c1.401,5.068 -1.57,10.314 -6.636,11.714c-5.065,1.401 -10.313,-1.572 -11.713,-6.64c-1.402,-5.066 1.571,-10.31 6.637,-11.711c5.067,-1.401 10.312,1.571 11.712,6.637Z" style="fill:#596274;fill-rule:nonzero;"/><path d="M46.599,35.349c1.212,4.384 -1.359,8.92 -5.742,10.133c-4.383,1.211 -8.923,-1.359 -10.135,-5.744c-1.211,-4.383 1.362,-8.919 5.744,-10.131c4.383,-1.212 8.92,1.358 10.133,5.742Z" style="fill:#2f363d;fill-rule:nonzero;"/><path d="M44.555,35.914c0.901,3.255 -1.009,6.624 -4.265,7.525c-3.253,0.9 -6.624,-1.009 -7.524,-4.265c-0.904,-3.256 1.01,-6.625 4.264,-7.525c3.257,-0.9 6.625,1.009 7.525,4.265Z" style="fill:#a5dae8;fill-rule:nonzero;"/><path d="M38.292,35.059c0.319,1.155 -0.358,2.347 -1.513,2.667c-1.151,0.317 -2.347,-0.357 -2.664,-1.511c-0.321,-1.154 0.358,-2.347 1.512,-2.667c1.152,-0.318 2.346,0.358 2.665,1.511Z" style="fill:#fff;fill-rule:nonzero;"/><path d="M36.137,39.152c0.179,0.647 -0.203,1.316 -0.848,1.494c-0.645,0.178 -1.311,-0.2 -1.493,-0.847c-0.176,-0.645 0.201,-1.315 0.846,-1.492c0.647,-0.178 1.317,0.201 1.495,0.845Z" style="fill:#fff;fill-rule:nonzero;"/><path d="M14.759,31.21c-0.984,0.272 -1.991,-0.049 -2.645,-0.745c-0.609,0.655 -0.878,1.599 -0.622,2.522l6.203,22.429c0.391,1.417 1.859,2.248 3.272,1.856l7.179,-1.984l-7.137,-25.806l-6.25,1.728Z" style="fill:#474f59;fill-rule:nonzero;"/><path d="M20.513,27.685c0.115,0.41 -0.126,0.834 -0.536,0.948l-5.015,1.385c-0.409,0.114 -0.834,-0.126 -0.947,-0.536l-0.102,-0.372c-0.115,-0.409 0.127,-0.835 0.538,-0.947l5.013,-1.387c0.409,-0.114 0.834,0.127 0.947,0.538l0.102,0.371Z" style="fill:#474f59;fill-rule:nonzero;"/><path d="M39.929,20.801c0.118,0.422 -0.133,0.862 -0.557,0.978l-9.602,2.656c-0.424,0.118 -0.865,-0.131 -0.983,-0.553l-0.423,-1.538c-0.118,-0.424 0.13,-0.863 0.555,-0.981l9.604,-2.656c0.423,-0.118 0.863,0.132 0.98,0.555l0.426,1.539Z" style="fill:#fff;fill-rule:nonzero;"/><path d="M41.782,9.014l0.417,3.876l-3.539,1.637l3.874,-0.419l1.636,3.54l-0.417,-3.875l3.541,-1.634l-3.877,0.414l-1.635,-3.539Z" style="fill:#dce4e7;fill-rule:nonzero;"/><path d="M35.4,9.03l0.217,2.014l-1.837,0.848l2.014,-0.214l0.848,1.839l-0.218,-2.014l1.84,-0.85l-2.014,0.215l-0.85,-1.838Z" style="fill:#dce4e7;fill-rule:nonzero;"/><g><path d="M56.236,7.2c-3.839,0 -7.182,2.548 -8.942,6.316c1.76,3.771 5.103,6.318 8.942,6.318c3.839,0 7.185,-2.547 8.943,-6.318c-1.758,-3.768 -5.104,-6.316 -8.943,-6.316Z" style="fill:#00acc1;fill-rule:nonzero;"/><path d="M56.236,10.066c-3.839,0 -7.182,1.392 -8.942,3.45c1.76,2.06 5.103,3.45 8.942,3.45c3.839,0 7.185,-1.39 8.943,-3.45c-1.758,-2.058 -5.104,-3.45 -8.943,-3.45Z" style="fill:#fff;fill-rule:nonzero;"/><clipPath id="_clip1"><path d="M56.236,10.066c-3.839,0 -7.182,1.392 -8.942,3.45c1.76,2.06 5.103,3.45 8.942,3.45c3.839,0 7.185,-1.39 8.943,-3.45c-1.758,-2.058 -5.104,-3.45 -8.943,-3.45Z" clip-rule="nonzero"/></clipPath><g clip-path="url(#_clip1)"><path d="M61.938,13.516c0,3.151 -2.552,5.703 -5.702,5.703c-3.149,0 -5.701,-2.552 -5.701,-5.703c0,-3.15 2.552,-5.701 5.701,-5.701c3.15,0 5.702,2.551 5.702,5.701Z" style="fill:#00bcd4;fill-rule:nonzero;"/><path d="M59.573,13.516c0,1.844 -1.493,3.337 -3.337,3.337c-1.843,0 -3.336,-1.493 -3.336,-3.337c0,-1.843 1.493,-3.337 3.336,-3.337c1.844,0 3.337,1.494 3.337,3.337Z" style="fill:#474f59;fill-rule:nonzero;"/></g><path d="M60.481,12.887c-0.424,0.557 -1.221,0.666 -1.777,0.242c-0.559,-0.425 -0.666,-1.222 -0.242,-1.779c0.424,-0.559 1.221,-0.666 1.779,-0.242c0.558,0.424 0.667,1.221 0.24,1.779Z" style="fill:#fff;fill-rule:nonzero;"/><path d="M59.321,14.911c-0.193,0.253 -0.556,0.301 -0.81,0.109c-0.253,-0.191 -0.303,-0.555 -0.109,-0.807c0.193,-0.255 0.555,-0.304 0.808,-0.111c0.253,0.192 0.304,0.556 0.111,0.809Z" style="fill:#fff;fill-rule:nonzero;"/></g></svg>