<?xml version="1.0" encoding="UTF-8" standalone="no"?><!DOCTYPE svg PUBLIC "-//W3C//DTD SVG 1.1//EN" "http://www.w3.org/Graphics/SVG/1.1/DTD/svg11.dtd"><svg width="100%" height="100%" viewBox="0 0 73 73" version="1.1" xmlns="http://www.w3.org/2000/svg" xmlns:xlink="http://www.w3.org/1999/xlink" xml:space="preserve" style="fill-rule:evenodd;clip-rule:evenodd;stroke-linejoin:round;stroke-miterlimit:1.41421;"><rect x="11.051" y="8.057" width="58.338" height="8.553" style="fill:#00bcd4;fill-rule:nonzero;"/><rect x="29.199" y="10.973" width="30.467" height="2.722" style="fill:#fff;fill-rule:nonzero;"/><rect x="59.666" y="10.973" width="5.443" height="2.722" style="fill:#4e4d52;fill-rule:nonzero;"/><rect x="11.051" y="16.61" width="58.338" height="49.784" style="fill:#e6e6e6;fill-rule:nonzero;"/><rect x="15.328" y="16.61" width="49.781" height="45.507" style="fill:#fff;fill-rule:nonzero;"/><rect x="20.333" y="40.435" width="12.342" height="15.468" style="fill:#e3dddb;fill-rule:nonzero;"/><rect x="24.501" y="38.764" width="4.006" height="1.671" style="fill:#e3dddb;fill-rule:nonzero;"/><path d="M22.834,40.435l0,2.335l1.667,0l0,-4.006l-1.667,1.671Z" style="fill:#4e4d52;fill-rule:nonzero;"/><path d="M28.506,38.764l0,4.006l1.672,0l0,-2.335l-1.672,-1.671Z" style="fill:#4e4d52;fill-rule:nonzero;"/><path d="M24.501,40.435l0,2.335l2.005,2.001l2,-2.001l0,-2.335l-4.005,0Z" style="fill:#ccc2be;fill-rule:nonzero;"/><path d="M17.832,45.107l2.501,0l0,-4.672c-0.637,0 -1.283,0.241 -1.768,0.728c-0.488,0.485 -0.733,1.132 -0.733,1.768l0,2.176Z" style="fill:#ccc2be;fill-rule:nonzero;"/><rect x="20.333" y="55.903" width="12.342" height="1.208" style="fill:#4e4d52;fill-rule:nonzero;"/><rect x="17.832" y="45.107" width="2.501" height="1.208" style="fill:#4e4d52;fill-rule:nonzero;"/><rect x="32.674" y="45.107" width="2.504" height="1.208" style="fill:#4e4d52;fill-rule:nonzero;"/><path d="M32.674,45.107l2.504,0l0,-2.176c0,-0.636 -0.243,-1.283 -0.735,-1.768c-0.486,-0.487 -1.127,-0.728 -1.769,-0.728l0,4.672Z" style="fill:#ccc2be;fill-rule:nonzero;"/><rect x="37.678" y="38.764" width="11.216" height="1.839" style="fill:#4e4d52;fill-rule:nonzero;"/><rect x="37.678" y="42.433" width="22.427" height="1.837" style="fill:#ccc2be;fill-rule:nonzero;"/><rect x="37.678" y="46.102" width="22.427" height="1.837" style="fill:#ccc2be;fill-rule:nonzero;"/><rect x="37.678" y="49.769" width="22.427" height="1.839" style="fill:#ccc2be;fill-rule:nonzero;"/><rect x="43.287" y="53.442" width="11.215" height="3.669" style="fill:#fbb300;fill-rule:nonzero;"/><path d="M18.047,12.334c0,0.751 -0.608,1.36 -1.361,1.36c-0.75,0 -1.358,-0.609 -1.358,-1.36c0,-0.75 0.608,-1.361 1.358,-1.361c0.753,0 1.361,0.611 1.361,1.361Z" style="fill:#4e4d52;fill-rule:nonzero;"/><path d="M17.443,12.334c0,0.418 -0.339,0.757 -0.757,0.757c-0.415,0 -0.754,-0.339 -0.754,-0.757c0,-0.419 0.339,-0.755 0.754,-0.755c0.418,0 0.757,0.336 0.757,0.755Z" style="fill:#fff;fill-rule:nonzero;"/><path d="M22.674,12.334c0,0.751 -0.611,1.36 -1.361,1.36c-0.753,0 -1.361,-0.609 -1.361,-1.36c0,-0.75 0.608,-1.361 1.361,-1.361c0.75,0 1.361,0.611 1.361,1.361Z" style="fill:#4e4d52;fill-rule:nonzero;"/><path d="M22.067,12.334c0,0.418 -0.339,0.757 -0.754,0.757c-0.419,0 -0.757,-0.339 -0.757,-0.757c0,-0.419 0.338,-0.755 0.757,-0.755c0.415,0 0.754,0.336 0.754,0.755Z" style="fill:#fff;fill-rule:nonzero;"/><path d="M27.297,12.334c0,0.751 -0.608,1.36 -1.361,1.36c-0.75,0 -1.361,-0.609 -1.361,-1.36c0,-0.75 0.611,-1.361 1.361,-1.361c0.753,0 1.361,0.611 1.361,1.361Z" style="fill:#4e4d52;fill-rule:nonzero;"/><path d="M26.693,12.334c0,0.418 -0.338,0.757 -0.757,0.757c-0.415,0 -0.754,-0.339 -0.754,-0.757c0,-0.419 0.339,-0.755 0.754,-0.755c0.419,0 0.757,0.336 0.757,0.755Z" style="fill:#fff;fill-rule:nonzero;"/><path d="M15.328,16.61l-14.225,13.133l49.781,0l14.221,-13.133l-49.777,0Z" style="fill:#ffc107;fill-rule:nonzero;"/><path d="M4.657,33.301c1.967,0 3.559,-1.596 3.559,-3.558l-7.113,0c0,1.962 1.592,3.558 3.554,3.558Z" style="fill:#fbb300;fill-rule:nonzero;"/><path d="M11.774,33.301c1.962,0 3.554,-1.596 3.554,-3.558l-7.112,0c0,1.962 1.591,3.558 3.558,3.558Z" style="fill:#fbb300;fill-rule:nonzero;"/><path d="M18.886,33.301c1.962,0 3.559,-1.596 3.559,-3.558l-7.117,0c0,1.962 1.596,3.558 3.558,3.558Z" style="fill:#fbb300;fill-rule:nonzero;"/><path d="M25.996,33.301c1.967,0 3.558,-1.596 3.558,-3.558l-7.109,0c0,1.962 1.589,3.558 3.551,3.558Z" style="fill:#fbb300;fill-rule:nonzero;"/><path d="M33.113,33.301c1.962,0 3.553,-1.596 3.553,-3.558l-7.112,0c0,1.962 1.592,3.558 3.559,3.558Z" style="fill:#fbb300;fill-rule:nonzero;"/><path d="M36.666,29.743c0,1.962 1.592,3.558 3.559,3.558c1.962,0 3.55,-1.596 3.55,-3.558l-7.109,0Z" style="fill:#fbb300;fill-rule:nonzero;"/><path d="M43.775,29.743c0,1.962 1.592,3.558 3.559,3.558c1.962,0 3.554,-1.596 3.554,-3.558l-7.113,0Z" style="fill:#fbb300;fill-rule:nonzero;"/></svg>