<?xml version="1.0" encoding="UTF-8" standalone="no"?><!DOCTYPE svg PUBLIC "-//W3C//DTD SVG 1.1//EN" "http://www.w3.org/Graphics/SVG/1.1/DTD/svg11.dtd"><svg width="100%" height="100%" viewBox="0 0 73 73" version="1.1" xmlns="http://www.w3.org/2000/svg" xmlns:xlink="http://www.w3.org/1999/xlink" xml:space="preserve" style="fill-rule:evenodd;clip-rule:evenodd;stroke-linejoin:round;stroke-miterlimit:1.41421;"><path d="M49.319,61.879l0,-27.738l0,-13.908l-9.965,-9.965l-27.799,0l0,51.611l37.764,0Z" style="fill:#f2f2f2;fill-rule:nonzero;"/><rect x="14.896" y="19.469" width="15.342" height="0.614" style="fill:#c2c8c4;fill-rule:nonzero;"/><rect x="14.896" y="20.942" width="12.151" height="0.614" style="fill:#c2c8c4;fill-rule:nonzero;"/><rect x="24.757" y="33.907" width="43.138" height="18.939" style="fill:#00bcd4;fill-rule:nonzero;"/><path d="M25.695,35.685l18.364,11.697c1.254,0.799 3.286,0.799 4.54,0l18.362,-11.697c0.591,-0.376 0.899,-0.863 0.933,-1.356l0,-0.179c-0.006,-0.081 -0.018,-0.162 -0.039,-0.243l-43.053,0c-0.162,0.628 0.134,1.294 0.893,1.778Z" style="fill:#feca00;fill-rule:nonzero;"/><rect x="14.599" y="46.786" width="18.405" height="11.504" style="fill:#feca00;fill-rule:nonzero;"/><path d="M19.099,49.685c0,-0.565 0.458,-1.024 1.025,-1.024c0.567,0 1.025,0.459 1.025,1.024c0,0.568 -0.458,1.027 -1.025,1.027c-0.567,0 -1.025,-0.459 -1.025,-1.027Z" style="fill:#00bcd4;fill-rule:nonzero;"/><path d="M16.243,49.685c0,-0.565 0.458,-1.024 1.025,-1.024c0.566,0 1.025,0.459 1.025,1.024c0,0.568 -0.459,1.027 -1.025,1.027c-0.567,0 -1.025,-0.459 -1.025,-1.027Z" style="fill:#fff;fill-rule:nonzero;"/><path d="M24.005,49.685c0,0.568 -0.458,1.027 -1.025,1.027c-0.566,0 -1.025,-0.459 -1.025,-1.027c0,-0.565 0.459,-1.024 1.025,-1.024c0.567,0 1.025,0.459 1.025,1.024Z" style="fill:#596274;fill-rule:nonzero;"/><path d="M4.172,22.577l0,31.249c0.446,-0.069 0.794,-0.418 0.849,-0.858l0,-30.391l-0.849,0Z" style="fill:#ffb41e;fill-rule:nonzero;"/><path d="M7.039,22.577l-2.018,0l0,30.391l0.003,0.012l0,-0.012c0.061,0.49 0.488,0.87 1.006,0.87c0.518,0 0.943,-0.38 1.005,-0.87l0.001,0.012l0.002,-0.012l0.001,0l0,-30.391Z" style="fill:#feca00;fill-rule:nonzero;"/><path d="M7.039,52.968c0.056,0.44 0.404,0.79 0.848,0.858l0,-31.249l-0.848,0l0,30.391Z" style="fill:#ffb41e;fill-rule:nonzero;"/><rect x="4.172" y="21.469" width="0.848" height="1.094" style="fill:#00acc1;fill-rule:nonzero;"/><rect x="5.021" y="21.469" width="2.019" height="1.094" style="fill:#00bcd4;fill-rule:nonzero;"/><rect x="7.039" y="21.469" width="0.848" height="1.094" style="fill:#00acc1;fill-rule:nonzero;"/><path d="M39.354,20.233l9.965,0l-9.965,-9.965l0,9.965Z" style="fill:#feca00;fill-rule:nonzero;"/><path d="M49.319,20.233l-9.965,0l9.965,9.966l0,-9.966Z" style="fill:#f7f4f4;fill-rule:nonzero;"/><path d="M18.237,14.791c0,-0.662 0.538,-1.198 1.2,-1.198c0.663,0 1.2,0.536 1.2,1.198c0,0.663 -0.537,1.2 -1.2,1.2c-0.662,0 -1.2,-0.537 -1.2,-1.2Z" style="fill:#00bcd4;fill-rule:nonzero;"/><path d="M14.896,14.791c0,-0.662 0.537,-1.198 1.199,-1.198c0.663,0 1.2,0.536 1.2,1.198c0,0.663 -0.537,1.2 -1.2,1.2c-0.662,0 -1.199,-0.537 -1.199,-1.2Z" style="fill:#feca00;fill-rule:nonzero;"/><path d="M23.979,14.791c0,0.663 -0.537,1.2 -1.2,1.2c-0.663,0 -1.2,-0.537 -1.2,-1.2c0,-0.662 0.537,-1.198 1.2,-1.198c0.663,0 1.2,0.536 1.2,1.198Z" style="fill:#596274;fill-rule:nonzero;"/><rect x="14.896" y="17.996" width="10.801" height="0.613" style="fill:#feca00;fill-rule:nonzero;"/><rect x="16.243" y="52.425" width="9.231" height="0.525" style="fill:#fff;fill-rule:nonzero;"/><rect x="16.243" y="53.683" width="13.113" height="0.524" style="fill:#fff;fill-rule:nonzero;"/><rect x="16.243" y="54.942" width="10.385" height="0.525" style="fill:#fff;fill-rule:nonzero;"/><path d="M7.889,53.826c-0.445,-0.067 -0.794,-0.417 -0.85,-0.858l-0.001,0l-0.002,0.012l-0.001,-0.012c-0.062,0.49 -0.487,0.87 -1.005,0.87c-0.518,0 -0.945,-0.38 -1.006,-0.87l0,0.012l-0.003,-0.012c-0.055,0.441 -0.405,0.791 -0.851,0.858l1.86,2.312l1.859,-2.312Z" style="fill:#fff;fill-rule:nonzero;"/><path d="M5.117,55.003l0.913,1.135l0.913,-1.135c-0.294,-0.069 -0.599,-0.107 -0.913,-0.107c-0.315,0 -0.619,0.038 -0.913,0.107Z" style="fill:#ffb41e;fill-rule:nonzero;"/></svg>