<?xml version="1.0" standalone="no"?>
<!DOCTYPE svg PUBLIC "-//W3C//DTD SVG 20010904//EN"
 "http://www.w3.org/TR/2001/REC-SVG-20010904/DTD/svg10.dtd">
<svg version="1.0" xmlns="http://www.w3.org/2000/svg"
 width="262.000000pt" height="262.000000pt" viewBox="0 0 262.000000 262.000000"
 preserveAspectRatio="xMidYMid meet">
<metadata>
Created by potrace 1.11, written by Peter Selinger 2001-2013
</metadata>
<g transform="translate(0.000000,262.000000) scale(0.100000,-0.100000)"
fill="#000000" stroke="none">
<path d="M593 2544 c4 -7 -29 -11 -107 -11 -114 -1 -155 -11 -185 -47 -7 -9
-17 -13 -22 -10 -5 3 -6 -2 -3 -10 3 -9 1 -16 -5 -16 -6 0 -8 -7 -5 -15 4 -8
2 -15 -4 -15 -6 0 -6 -16 -2 -42 6 -32 5 -45 -5 -51 -8 -4 -21 -14 -29 -22
-17 -18 -30 -20 -20 -3 4 7 3 8 -5 4 -6 -4 -9 -12 -6 -17 7 -11 -19 -52 -27
-43 -3 3 -4 -43 -2 -103 7 -160 8 -173 18 -173 4 0 6 -15 4 -34 -2 -21 0 -32
6 -29 5 4 7 -1 3 -10 -3 -9 -2 -19 4 -23 6 -4 6 -11 -2 -20 -7 -8 -7 -14 -2
-14 6 0 13 -21 17 -47 8 -61 15 -105 21 -145 3 -18 9 -53 12 -78 4 -25 8 -61
8 -82 0 -20 4 -34 8 -31 5 3 8 -5 6 -18 -1 -13 1 -32 6 -42 4 -9 5 -30 3 -47
-2 -16 0 -26 4 -23 8 4 6 -47 -2 -67 -4 -8 -7 -34 -8 -68 -1 -18 -6 -31 -11
-28 -5 4 -7 -3 -4 -14 3 -10 0 -48 -6 -82 -6 -35 -13 -81 -16 -103 -8 -49 -45
-281 -51 -315 -2 -14 -7 -45 -10 -70 -3 -25 -8 -54 -11 -65 -9 -28 -9 -56 -1
-82 5 -16 3 -23 -5 -23 -8 0 -9 -3 -1 -8 6 -4 17 -21 24 -38 8 -17 28 -41 46
-53 25 -17 32 -29 32 -54 0 -18 5 -44 11 -59 6 -16 8 -28 4 -28 -20 0 76 -61
106 -66 60 -12 1841 -8 1882 3 36 11 86 51 81 65 -1 5 2 8 8 8 5 0 10 9 10 21
0 13 4 18 12 13 7 -5 8 -3 2 7 -15 24 -4 63 26 89 54 49 65 77 65 166 0 45 -3
80 -6 78 -4 -2 -9 9 -11 26 -2 16 0 26 5 23 5 -3 4 3 -2 14 -5 11 -13 42 -16
69 -7 51 -9 67 -19 124 -3 19 -8 51 -11 70 -3 19 -13 86 -23 148 -10 62 -18
126 -17 142 1 16 -2 27 -7 24 -4 -3 -9 13 -10 35 -1 23 -2 56 -3 74 -2 17 2
59 7 92 5 33 9 68 9 78 0 9 4 17 8 17 4 0 7 10 7 23 1 89 3 100 22 86 14 -11
15 -11 5 1 -15 17 -18 84 -3 75 6 -3 7 1 4 10 -4 8 0 23 7 32 9 11 10 14 2 9
-13 -7 -11 19 4 84 4 14 6 28 5 32 -1 4 3 28 8 55 6 26 13 68 16 93 8 65 11
85 14 85 1 0 3 29 5 65 3 81 -26 146 -80 176 -16 9 -20 21 -19 68 0 31 -3 56
-8 56 -4 0 -8 7 -8 15 0 8 -4 15 -10 15 -5 0 -10 6 -10 13 0 23 -73 48 -145
50 -39 1 -76 6 -84 11 -9 6 -12 5 -7 -2 8 -14 -34 -12 -53 2 -11 8 -13 8 -8 0
4 -8 -31 -11 -118 -11 -80 0 -122 4 -118 10 4 6 1 7 -8 1 -20 -13 -151 -13
-168 0 -11 8 -13 8 -8 -1 9 -15 -32 -14 -52 1 -11 8 -13 8 -8 0 4 -8 -31 -11
-118 -11 -80 0 -122 4 -118 10 4 6 1 7 -8 1 -20 -13 -151 -13 -168 0 -11 8
-13 8 -8 -1 9 -15 -32 -14 -52 1 -11 8 -13 8 -8 0 4 -8 -31 -11 -118 -11 -80
0 -122 4 -118 10 4 6 1 7 -8 1 -20 -13 -151 -13 -168 0 -11 8 -13 8 -8 -1 9
-15 -32 -14 -52 1 -11 8 -13 8 -8 0z"/>
</g>
</svg>
