<?xml version="1.0" encoding="UTF-8" standalone="no"?><!DOCTYPE svg PUBLIC "-//W3C//DTD SVG 1.1//EN" "http://www.w3.org/Graphics/SVG/1.1/DTD/svg11.dtd"><svg width="100%" height="100%" viewBox="0 0 52 12" version="1.1" xmlns="http://www.w3.org/2000/svg" xmlns:xlink="http://www.w3.org/1999/xlink" xml:space="preserve" style="fill-rule:evenodd;clip-rule:evenodd;stroke-linejoin:round;stroke-miterlimit:1.41421;"><g><text x="15.822px" y="10.349px" style="font-family:'Titillium-Light', 'Titillium';font-weight:300;font-size:3.278px;fill:#c8c8c8;">Co<tspan x="19.169px 20.834px 22.273px 23.911px 24.554px 25.609px 27.255px 28.284px 28.923px 30.493px 32.158px 32.797px 33.4px 36.055px 37.609px 39.195px 40.765px 42.43px 43.069px 44.701px 45.304px 46.891px 47.494px 48.549px 50.103px " y="10.349px 10.349px 10.349px 10.349px 10.349px 10.349px 10.349px 10.349px 10.349px 10.349px 10.349px 10.349px 10.349px 10.349px 10.349px 10.349px 10.349px 10.349px 10.349px 10.349px 10.349px 10.349px 10.349px 10.349px 10.349px ">nsultor en imagen digital</tspan></text><g transform="matrix(0.331165,1.77494e-32,-1.32529e-30,0.331165,-633.419,-139.763)"><text x="1960.1px" y="441.467px" style="font-family:'Titillium-Regular', 'Titillium';font-size:16.667px;fill:#c8c8c8;">D<tspan x="1970.44px 1978.37px 1985.97px 1989.2px " y="441.467px 441.467px 441.467px 441.467px ">avid</tspan></text><text x="1997.6px" y="441.467px" style="font-family:'Titillium-Bold', 'Titillium';font-weight:700;font-size:16.667px;fill:#c8c8c8;">H<tspan x="2008.47px 2012.35px 2021.15px 2029.6px 2033.5px 2041.95px 2049.4px " y="441.467px 441.467px 441.467px 441.467px 441.467px 441.467px 441.467px ">inojosa</tspan></text></g><g><path d="M5.895,5.286l0,-5.022c0.956,0 1.734,0.774 1.74,1.729l0,0.011l0,1.38c-0.125,0.07 -0.246,0.145 -0.362,0.227c-0.199,0.14 -0.385,0.297 -0.556,0.47c-0.174,0.176 -0.331,0.368 -0.47,0.572c-0.136,0.2 -0.254,0.412 -0.352,0.633Z" style="fill:#ffb907;"/><path d="M7.631,6.916c-0.004,2.039 -1.657,3.693 -3.697,3.693c-2.043,0 -3.701,-1.658 -3.701,-3.701c0,-2.043 1.658,-3.702 3.701,-3.702l0.002,0l0,1.737l-0.002,0c-1.085,0 -1.965,0.88 -1.965,1.965c0,1.084 0.881,1.965 1.965,1.965c1.077,0 1.948,-0.873 1.961,-1.947c0,-2.043 1.658,-3.701 3.701,-3.701c2.043,0 3.702,1.658 3.702,3.701l-0.001,3.723l-1.74,0l0.004,-3.742c-0.01,-1.076 -0.887,-1.946 -1.965,-1.946c-1.081,0 -1.959,0.875 -1.965,1.955l0,0Z" style="fill:#00bcd4;"/></g></g></svg>